<svg xmlns="http://www.w3.org/2000/svg" xmlns:xlink="http://www.w3.org/1999/xlink" viewBox="0 0 332.48 358.52"><defs><style>.cls-1{fill:none;}.cls-2{isolation:isolate;}.cls-3,.cls-4{fill:#fff;}.cls-4,.cls-7{mix-blend-mode:screen;}.cls-5{clip-path:url(#clip-path);}.cls-6{fill:#e01f26;}.cls-7{opacity:0.5;fill:url(#radial-gradient);}.cls-8{opacity:0.8;mix-blend-mode:multiply;fill:url(#radial-gradient-2);}</style><clipPath id="clip-path" transform="translate(-578.24 -242.48)"><path class="cls-1" d="M900.51,409.35c0,85.17-69.89,154.22-156.07,154.22S588.39,494.52,588.39,409.35s69.87-154.2,156.05-154.2S900.51,324.19,900.51,409.35Z"/></clipPath><radialGradient id="radial-gradient" cx="735.76" cy="418.11" fx="643.9171808578499" fy="363.51755697583104" r="201.73" gradientUnits="userSpaceOnUse"><stop offset="0.02" stop-color="#f0f9fa"/><stop offset="0.11" stop-color="#bac1c1"/><stop offset="0.2" stop-color="#898e8f"/><stop offset="0.29" stop-color="#5f6363"/><stop offset="0.39" stop-color="#3d4040"/><stop offset="0.48" stop-color="#232424"/><stop offset="0.58" stop-color="#101111"/><stop offset="0.67" stop-color="#050505"/><stop offset="0.77" stop-color="#010101"/></radialGradient><radialGradient id="radial-gradient-2" cx="759.77" cy="397.93" fx="673.2391376419909" fy="346.49401012090635" r="190.06" gradientUnits="userSpaceOnUse"><stop offset="0.5" stop-color="#f0f9fa"/><stop offset="0.56" stop-color="#ecf5f6"/><stop offset="0.62" stop-color="#e0e8e9"/><stop offset="0.69" stop-color="#cbd3d4"/><stop offset="0.75" stop-color="#aeb5b6"/><stop offset="0.82" stop-color="#898f8f"/><stop offset="0.89" stop-color="#5c6060"/><stop offset="0.96" stop-color="#282929"/><stop offset="1" stop-color="#010101"/></radialGradient></defs><title>flag</title><g class="cls-2"><g id="Layer_1" data-name="Layer 1"><path class="cls-3" d="M881.94,510a14.52,14.52,0,0,1,1.44-10.72,166.38,166.38,0,0,0-103.68-253c-7.16-1.63-14.48-2.56-21.73-3.81H730.88c-11.32,2.36-23,3.64-33.92,7.25C630.2,271.84,590.3,318,579.94,387.36c-12.65,84.71,46.7,166.73,130.52,183.45,32.51,6.49,64.15,4,95.07-8,2.72-1.06,6.59-2.11,8.83-1,25.41,12.82,50.61,26.07,75.87,39.2h8c8.9-6.93,9.85-10,6.29-20.94C896.93,556.72,889.16,533.46,881.94,510Z" transform="translate(-578.24 -242.48)"/><path class="cls-4" d="M744.75,574.42c-91.52,0-166-74.46-166-166s74.45-166,166-166,166,74.45,166,166S836.26,574.42,744.75,574.42Zm0-325.86c-88.17,0-159.9,71.73-159.9,159.88s71.73,159.89,159.9,159.89,159.89-71.72,159.89-159.89S832.91,248.56,744.75,248.56Z" transform="translate(-578.24 -242.48)"/><g class="cls-5"><path class="cls-6" d="M862.21,291.61c-34.73-26-73.4-46.44-117.78-46.44s-83,20.38-117.75,46.44c-26.79,35.64-44.76,72.66-46.46,117.73,109.63-3.54,218.85-4.36,328.49,0C907,364.26,889,327.25,862.21,291.61Z" transform="translate(-578.24 -242.48)"/><path class="cls-3" d="M580.22,409.34c1.71,45.08,19.67,82.1,46.46,117.74,34.74,26,73.34,46.45,117.75,46.45s83.05-20.43,117.78-46.45C889,491.45,907,454.43,908.71,409.34,799.07,405,689.85,405.8,580.22,409.34Z" transform="translate(-578.24 -242.48)"/></g><path class="cls-7" d="M900.51,409.35c0,85.17-69.89,154.22-156.07,154.22S588.39,494.52,588.39,409.35s69.87-154.2,156.05-154.2S900.51,324.19,900.51,409.35Z" transform="translate(-578.24 -242.48)"/><path class="cls-8" d="M900.51,409.35c0,85.17-69.89,154.22-156.07,154.22S588.39,494.52,588.39,409.35s69.87-154.2,156.05-154.2S900.51,324.19,900.51,409.35Z" transform="translate(-578.24 -242.48)"/></g></g></svg>