<svg id="Layer_1" data-name="Layer 1" xmlns="http://www.w3.org/2000/svg" xmlns:xlink="http://www.w3.org/1999/xlink" viewBox="0 0 459.83 226.96"><defs><style>.cls-1{fill:url(#New_Gradient_Swatch_1);}</style><linearGradient id="New_Gradient_Swatch_1" x1="62.71" y1="201.42" x2="522.54" y2="201.42" gradientUnits="userSpaceOnUse"><stop offset="0.03" stop-color="#d09b2c"/><stop offset="1" stop-color="#fff9ae"/></linearGradient></defs><title>kochandbacken</title><path class="cls-1" d="M173.88,186.34l-30.6-47.9,30.6-48.58h22l-32.48,47.91,32.48,48.57ZM309.25,171.7a51.36,51.36,0,0,0,17.27,12.39,52.37,52.37,0,0,0,21,4.17q16.41,0,28.22-7.42a45.2,45.2,0,0,0,8-6.44L369,160.32a23.67,23.67,0,0,1-8.23,6A32.48,32.48,0,0,1,347.42,169a29.65,29.65,0,0,1-21.87-9,30.23,30.23,0,0,1-8.93-22.23A29.54,29.54,0,0,1,319.08,126a31.19,31.19,0,0,1,7-10.11,29.12,29.12,0,0,1,9.74-6.36,31,31,0,0,1,11.61-2.19,31.6,31.6,0,0,1,13.52,2.79,27,27,0,0,1,8.05,5.79l14.84-14.15a45.72,45.72,0,0,0-7.73-6.28q-11.79-7.56-28.4-7.56a52.26,52.26,0,0,0-19.37,3.55A51.38,51.38,0,0,0,312,101.92a52,52,0,0,0-11.82,16.47,46.38,46.38,0,0,0-4,19.11,51.83,51.83,0,0,0,3.33,18.66A46.76,46.76,0,0,0,309.25,171.7Zm213.29,28.13-208.75-5.42a9.81,9.81,0,0,1,0,10.3Zm-22.35-87.52h-3.7v-16a32.6,32.6,0,0,1,6.14-.48c3,0,4.38.48,5.55,1.17a4.42,4.42,0,0,1,1.56,3.51c0,1.75-1.36,3.11-3.31,3.7v.2c1.56.58,2.44,1.75,2.92,3.89.49,2.44.78,3.42,1.18,4h-4c-.49-.58-.78-2-1.27-3.9-.29-1.75-1.27-2.53-3.31-2.53h-1.76Zm.1-9.06H502c2,0,3.71-.69,3.71-2.34,0-1.47-1.07-2.44-3.41-2.44a9.4,9.4,0,0,0-2,.19Zm-14,.68a16.43,16.43,0,1,1,16.47,16.18A16.17,16.17,0,0,1,486.25,103.93Zm4.1,0c0,7.11,5.26,12.77,12.47,12.77,7,0,12.19-5.66,12.19-12.67s-5.17-12.87-12.29-12.87S490.35,96.91,490.35,103.93ZM143,89.86H123.19v96.48H143Zm266.71,57.25h32.54v39.23h19.82V89.86H442.25V129H409.71V89.86H389.9v96.48h19.81ZM189.54,122.89a47.18,47.18,0,0,1,6.6-13.22A51.17,51.17,0,0,1,215,93.61a54.56,54.56,0,0,1,24.75-5.67,52.53,52.53,0,0,1,36.16,14.38,50.23,50.23,0,0,1,11.54,16.24,46.58,46.58,0,0,1,4,18.94,50.69,50.69,0,0,1-3.72,19.42A47.22,47.22,0,0,1,276.72,173a50.46,50.46,0,0,1-17,11.3,53.33,53.33,0,0,1-20.27,3.94,55.27,55.27,0,0,1-20.86-3.84A51.5,51.5,0,0,1,191,157a51.61,51.61,0,0,1-1.42-34.07Zm74,26.89H215.14v16.27h48.43ZM202.4,128.51a16.36,16.36,0,0,0,12.74,15.66v0h48.43v0a16.35,16.35,0,0,0,12.73-15.66c0-8.93-7.59-16.17-17-16.17a17.53,17.53,0,0,0-6,1,17.43,17.43,0,0,0-28,0,17.52,17.52,0,0,0-6-1C210,112.34,202.4,119.58,202.4,128.51Zm149.52,88-30.59,48.57L351.92,313h22l-32.47-48.57L374,216.5ZM301.23,313h19.82V216.5H301.23Zm-63.82-70.44a29.08,29.08,0,0,1,9.73-6.36A31.08,31.08,0,0,1,258.75,234a31.5,31.5,0,0,1,13.53,2.79,27,27,0,0,1,8,5.79l14.85-14.15a46.35,46.35,0,0,0-7.74-6.29q-11.78-7.55-28.4-7.55a52.44,52.44,0,0,0-19.36,3.54,52.55,52.55,0,0,0-28.2,26.9,46.62,46.62,0,0,0-4,19.12,51.84,51.84,0,0,0,3.34,18.66,46.43,46.43,0,0,0,9.8,15.53,51.56,51.56,0,0,0,17.28,12.4,52.36,52.36,0,0,0,21,4.17q16.41,0,28.23-7.42a46,46,0,0,0,8-6.44L280.37,287a23.88,23.88,0,0,1-8.23,6,32.69,32.69,0,0,1-13.39,2.65,29.67,29.67,0,0,1-21.86-9A30.27,30.27,0,0,1,228,264.41a29.55,29.55,0,0,1,2.47-11.76A31.08,31.08,0,0,1,237.41,242.54Zm67.09-32.07c-3.67.08-5.87-2.07-7.9-4-1.87,1.49-5.78,4.31-10.9,4.44-4.82.12-9.77-2.54-10.12-8.24-.39-6.27,6-9.44,9.18-11-1.93-2.73-2.91-4.63-3-6.78-.36-5.79,4.76-7.79,9.27-7.89h.44c6,0,8.21,3.07,8.37,5.6.24,3.92-4,6.08-7.21,7.21l8.23,10.06c1.49-1.91,3.54-4.54,3.39-6.84-.1-1.77-.81-1.85-3.44-2.07l-.07-1.15,10.34-.25.08,1.15c-2.25.24-2.78.69-3.55,2a89.33,89.33,0,0,1-5.5,8.71c2.27,2.54,3.93,4.27,6.29,4.21a3.19,3.19,0,0,0,2.76-1.89l1,.55c-.05.05-1.91,3.36-2,3.45A8,8,0,0,1,304.5,210.47ZM287.4,181.4c.15,2.44,2.86,5.59,4.15,6.95,1.33-.47,3.45-1.28,3.28-4-.15-2.39-2.08-5.89-4.94-5.82C288.63,178.55,287.26,179.11,287.4,181.4Zm8,23.73c-2.06-2.35-4.85-5.93-7-8.75L285.7,193c-2.57,1.5-3.56,2.68-3.43,4.78.2,3.22,3.89,9.33,8.55,9.33H291A8.24,8.24,0,0,0,295.36,205.13ZM378.85,313H433.5V296h-35V272.16h35v-16.7h-35v-22h35v-17H378.85Zm124.29-34.85L461.29,216.5H442.52V313H462V249.5L504.19,313h18.35V216.5h-19.4ZM270,199.56a9.9,9.9,0,0,1,1.46-5.15L62.71,199.83l208.76,4.88A9.9,9.9,0,0,1,270,199.56ZM122.16,296.25a26.93,26.93,0,0,1-7.3,9.84,28.87,28.87,0,0,1-10.43,5.3Q98.66,313,88.09,313H62.71V216.5H84.48A87.35,87.35,0,0,1,95,217a28.06,28.06,0,0,1,6.88,1.69A27.77,27.77,0,0,1,114.65,228a25.58,25.58,0,0,1,1.81,25.77,17,17,0,0,1-7.79,7.23,21.06,21.06,0,0,1,11.82,8.15,24.09,24.09,0,0,1,4.31,14.38A30.89,30.89,0,0,1,122.16,296.25ZM81.77,255.33h2.29q8.2,0,12.24-2.82t4-8.45c0-3.62-1.28-6.29-3.82-8s-6.51-2.59-11.89-2.59H81.77Zm23.5,28.89q0-6.56-4.46-9.94T87.75,270.9h-6V296h6q9,0,13.27-2.88T105.27,284.22Zm54.25-67.72L120.24,313h44.54V296.73s-8.28-4.55-10.53-6-2.73-2.92-2.73-4.43V252.83a4.39,4.39,0,0,1,4.53-4h23.49a4.39,4.39,0,0,1,4.53,4v33.44c0,1.51-.49,3-2.73,4.43s-10.53,6-10.53,6V313h44.54L176.62,216.5Zm11.66,42.2c0-2.31-1.33-3.45-3.54-3.4s-3.45,1.16-3.47,3.46c0,3.67,0,7.34,0,11s0,7.5,0,11.25c0,2.37,1.4,3.12,3.45,3.16s3.61-.61,3.61-3Q171.26,270,171.18,258.7Zm6,25.49c2.45,0,3.52-.94,3.52-3.3q0-11.13,0-22.25c0-2.2-1.34-3.39-3.57-3.34s-3.3,1.13-3.32,3.29c0,3.74,0,7.49,0,11.24h0c0,3.67,0,7.34,0,11C173.86,283.3,174.77,284.19,177.23,284.19Zm-22.5-25.65c0,3.75,0,7.49,0,11.24s0,7.5,0,11.25c0,2.29,1,3.14,3.32,3.16s3.55-.89,3.56-3q.07-11.37,0-22.73c0-2-1.43-3.16-3.54-3.14S154.74,256.43,154.73,258.54Z" transform="translate(-62.71 -87.94)"/></svg>