<svg xmlns="http://www.w3.org/2000/svg" xmlns:xlink="http://www.w3.org/1999/xlink" viewBox="0 0 239.8 235.4"><defs><style>.cls-1{fill:none;}.cls-2{isolation:isolate;}.cls-3{clip-path:url(#clip-path);}.cls-4{fill:#e20613;}.cls-5{fill:#fff;}.cls-6{opacity:0.5;fill:url(#radial-gradient);}.cls-6,.cls-9{mix-blend-mode:screen;}.cls-7{opacity:0.8;mix-blend-mode:multiply;fill:url(#radial-gradient-2);}.cls-8{opacity:0.6;mix-blend-mode:overlay;fill:url(#linear-gradient);}.cls-9{fill:url(#linear-gradient-2);}</style><clipPath id="clip-path" transform="translate(-7.36 -10.05)"><path class="cls-1" d="M241.16,127.76c0,62.17-51,112.57-113.92,112.57S13.33,189.93,13.33,127.76,64.33,15.2,127.24,15.2,241.16,65.6,241.16,127.76Z"/></clipPath><radialGradient id="radial-gradient" cx="120.9" cy="134.16" fx="53.86366697082953" fy="94.30635296169135" r="147.25" gradientUnits="userSpaceOnUse"><stop offset="0.02" stop-color="#efffff"/><stop offset="0.02" stop-color="#ecfcfc"/><stop offset="0.11" stop-color="#b5c1c1"/><stop offset="0.2" stop-color="#858e8e"/><stop offset="0.3" stop-color="#5c6262"/><stop offset="0.39" stop-color="#3b3f3f"/><stop offset="0.49" stop-color="#212323"/><stop offset="0.58" stop-color="#0f1010"/><stop offset="0.68" stop-color="#040404"/><stop offset="0.77"/></radialGradient><radialGradient id="radial-gradient-2" cx="138.43" cy="119.43" fx="75.26706839447253" fy="81.8801083671561" r="138.73" gradientUnits="userSpaceOnUse"><stop offset="0.5" stop-color="#efffff"/><stop offset="0.56" stop-color="#ebfbfb"/><stop offset="0.62" stop-color="#dfeeee"/><stop offset="0.68" stop-color="#cbd9d9"/><stop offset="0.75" stop-color="#afbbbb"/><stop offset="0.82" stop-color="#8b9494"/><stop offset="0.88" stop-color="#5f6565"/><stop offset="0.95" stop-color="#2b2e2e"/><stop offset="1"/></radialGradient><linearGradient id="linear-gradient" x1="109.99" y1="88.4" x2="211.31" y2="314.57" gradientUnits="userSpaceOnUse"><stop offset="0" stop-color="#fff"/><stop offset="1"/></linearGradient><linearGradient id="linear-gradient-2" x1="127.1" y1="-12.35" x2="127.1" y2="142.7" xlink:href="#linear-gradient"/></defs><title>ID</title><g class="cls-2"><g id="Layer_1" data-name="Layer 1"><g class="cls-3"><path class="cls-4" d="M213.21,41.82C155.7-.5,98.85-.57,41.28,41.82c-19,25.65-33.55,53.27-33.91,85.93,80-2.58,159.75-3.14,239.77,0C246.79,95.09,232.2,67.47,213.21,41.82Z" transform="translate(-7.36 -10.05)"/><path class="cls-5" d="M7.37,127.75C6.9,160,22.66,188.53,41.28,213.7c57.6,42.38,114.39,42.31,171.93,0,18.63-25.17,34.4-53.66,33.93-85.95C167.12,124.61,87.4,125.17,7.37,127.75Z" transform="translate(-7.36 -10.05)"/></g><path class="cls-6" d="M241.16,127.76c0,62.17-51,112.57-113.92,112.57S13.33,189.93,13.33,127.76,64.33,15.2,127.24,15.2,241.16,65.6,241.16,127.76Z" transform="translate(-7.36 -10.05)"/><path class="cls-7" d="M241.16,127.76c0,62.17-51,112.57-113.92,112.57S13.33,189.93,13.33,127.76,64.33,15.2,127.24,15.2,241.16,65.6,241.16,127.76Z" transform="translate(-7.36 -10.05)"/><path class="cls-8" d="M225.41,126.57c0,55.53-44,100.54-98.3,100.54s-98.34-45-98.34-100.54S72.82,26,127.11,26,225.41,71.05,225.41,126.57Z" transform="translate(-7.36 -10.05)"/><path class="cls-9" d="M207.25,90c0,33.06-35.88,59.89-80.14,59.89S47,123,47,90s35.87-59.85,80.15-59.85S207.25,56.93,207.25,90Z" transform="translate(-7.36 -10.05)"/></g></g></svg>