<svg width="1920" height="919" viewBox="0 0 1920 919" fill="none" xmlns="http://www.w3.org/2000/svg">
<g clip-path="url(#clip0_111_7)">
<rect width="1920" height="918.558" fill="black"/>
<path d="M516.553 918.558C746.269 918.558 932.49 732.336 932.49 502.621C932.49 272.905 746.269 86.6831 516.553 86.6831C286.837 86.6831 100.615 272.905 100.615 502.621C100.615 732.336 286.837 918.558 516.553 918.558Z" fill="url(#paint0_radial_111_7)"/>
<path d="M1381.26 918.558C1610.97 918.558 1797.19 732.336 1797.19 502.621C1797.19 272.905 1610.97 86.6831 1381.26 86.6831C1151.54 86.6831 965.319 272.905 965.319 502.621C965.319 732.336 1151.54 918.558 1381.26 918.558Z" fill="url(#paint1_radial_111_7)"/>
<path d="M1920.1 0C1920.1 1.67186 1920.1 3.29305 1920.1 5.06623C1920.1 504.293 1490.33 908.983 960.101 908.983C429.87 908.983 0 504.191 0 5.06623C0 3.29305 0 1.67186 0 0H1920.1Z" fill="black"/>
</g>
<defs>
<radialGradient id="paint0_radial_111_7" cx="0" cy="0" r="1" gradientUnits="userSpaceOnUse" gradientTransform="translate(521.163 507.332) scale(404.184 404.184)">
<stop stop-color="#808285"/>
<stop offset="0.14" stop-color="#808285" stop-opacity="0.95"/>
<stop offset="0.33" stop-color="#808285" stop-opacity="0.81"/>
<stop offset="0.57" stop-color="#808285" stop-opacity="0.57"/>
<stop offset="0.82" stop-color="#808285" stop-opacity="0.25"/>
<stop offset="0.99" stop-color="#808285" stop-opacity="0"/>
</radialGradient>
<radialGradient id="paint1_radial_111_7" cx="0" cy="0" r="1" gradientUnits="userSpaceOnUse" gradientTransform="translate(1385.82 507.332) scale(404.184 404.184)">
<stop stop-color="#EA0029"/>
<stop offset="0.09" stop-color="#EA0029" stop-opacity="0.97"/>
<stop offset="0.23" stop-color="#EA0029" stop-opacity="0.89"/>
<stop offset="0.39" stop-color="#EA0029" stop-opacity="0.75"/>
<stop offset="0.57" stop-color="#EA0029" stop-opacity="0.57"/>
<stop offset="0.76" stop-color="#EA0029" stop-opacity="0.33"/>
<stop offset="0.97" stop-color="#EA0029" stop-opacity="0.04"/>
<stop offset="0.99" stop-color="#EA0029" stop-opacity="0"/>
</radialGradient>
<clipPath id="clip0_111_7">
<rect width="1920" height="918.558" fill="white"/>
</clipPath>
</defs>
</svg>
