<svg width="92" height="68" viewBox="0 0 92 68" fill="none" xmlns="http://www.w3.org/2000/svg">
<path opacity="0.5" d="M45.89 67.16C70.903 67.16 91.18 64.6662 91.18 61.59C91.18 58.5138 70.903 56.02 45.89 56.02C20.877 56.02 0.599976 58.5138 0.599976 61.59C0.599976 64.6662 20.877 67.16 45.89 67.16Z" fill="url(#paint0_radial_117_69)"/>
<path fill-rule="evenodd" clip-rule="evenodd" d="M27.02 42.1801H27.61V44.7001H30.61V42.1801H31.18V47.9001H30.61V45.2201H27.61V47.9001H27.04L27.02 42.1801ZM32.48 43.5001C32.7604 43.0754 33.1464 42.7308 33.6 42.5001C34.056 42.2368 34.5734 42.0981 35.1 42.0981C35.6266 42.0981 36.1439 42.2368 36.6 42.5001C37.0447 42.7358 37.423 43.0797 37.7 43.5001C37.9724 43.953 38.1163 44.4715 38.1163 45.0001C38.1163 45.5286 37.9724 46.0472 37.7 46.5001C37.423 46.9204 37.0447 47.2643 36.6 47.5001C36.1432 47.7514 35.6312 47.8854 35.11 47.8901C34.5792 47.8894 34.0582 47.7479 33.6 47.4801C33.1562 47.2245 32.7819 46.864 32.51 46.4301C32.2447 46.0329 32.0831 45.5757 32.04 45.1001C32.0333 44.536 32.1858 43.9814 32.48 43.5001V43.5001ZM32.95 46.2801C33.1668 46.6384 33.4691 46.9374 33.83 47.1501C34.2039 47.3661 34.6281 47.4799 35.06 47.4801C35.4891 47.4835 35.9111 47.3694 36.28 47.1501C36.648 46.9434 36.955 46.6433 37.17 46.2801C37.3872 45.9244 37.5047 45.5168 37.51 45.1001C37.5148 44.6676 37.4006 44.2421 37.18 43.8701C36.9627 43.506 36.6564 43.2032 36.29 42.9901C35.9174 42.7696 35.4929 42.6523 35.06 42.6501C34.6354 42.6478 34.2179 42.7583 33.85 42.9701C33.4835 43.1832 33.1772 43.486 32.96 43.8501C32.7341 44.2243 32.6148 44.653 32.6148 45.0901C32.6148 45.5271 32.7341 45.9559 32.96 46.3301L32.95 46.2801ZM44.79 48.0001C44.519 48.0058 44.2499 47.9547 44 47.8501C43.8199 47.7588 43.6547 47.6408 43.51 47.5001C43.2845 47.6509 43.0387 47.7687 42.78 47.8501C42.5772 47.9104 42.3699 47.9539 42.16 47.9801H41.8C41.2531 47.982 40.7152 47.8407 40.24 47.5701C39.7892 47.3204 39.4104 46.9587 39.14 46.5201C38.8772 46.0926 38.7355 45.6018 38.73 45.1001C38.7278 44.5995 38.8553 44.1068 39.1 43.6701C39.3291 43.218 39.6742 42.8349 40.1 42.5601C40.6158 42.2499 41.2082 42.0906 41.81 42.1001C42.3617 42.0996 42.9049 42.2371 43.39 42.5001C43.8359 42.7581 44.2078 43.1266 44.47 43.5701C44.7412 44.0341 44.8828 44.5625 44.88 45.1001C44.8794 45.4797 44.7975 45.8547 44.64 46.2001C44.4762 46.577 44.2381 46.9171 43.94 47.2001C44.05 47.3113 44.1833 47.3967 44.3302 47.4503C44.4772 47.5039 44.6342 47.5243 44.79 47.5101V48.0001ZM39.96 46.6901C40.166 46.9087 40.4099 47.0883 40.68 47.2201C41.0296 47.3982 41.4177 47.4875 41.81 47.4801C41.978 47.4817 42.1456 47.4649 42.31 47.4301C42.5846 47.3837 42.8448 47.2741 43.07 47.1101L42.85 46.9401L42.53 46.7001C42.4544 46.6374 42.3742 46.5805 42.29 46.5301C42.0524 46.3869 41.7968 46.2759 41.53 46.2001C41.3124 46.1477 41.092 46.1076 40.87 46.0801C40.7535 46.0713 40.6365 46.0713 40.52 46.0801C40.3354 46.0775 40.151 46.0942 39.97 46.1301C39.8527 46.1531 39.7385 46.1901 39.63 46.2401C39.7213 46.4029 39.8321 46.554 39.96 46.6901V46.6901ZM39.86 45.6201C40.1036 45.5715 40.3516 45.5481 40.6 45.5501C41.0173 45.55 41.4321 45.614 41.83 45.7401C42.1629 45.8539 42.4791 46.012 42.77 46.2101C43.0299 46.3938 43.2802 46.5907 43.52 46.8001C43.7761 46.5548 43.9831 46.2629 44.13 45.9401C44.2431 45.6742 44.3042 45.389 44.31 45.1001C44.3119 44.6527 44.1909 44.2133 43.96 43.8301C43.7351 43.4652 43.4222 43.1626 43.05 42.9501C42.6711 42.7384 42.244 42.6282 41.81 42.6301C41.3841 42.6317 40.9653 42.7395 40.5917 42.9438C40.218 43.1481 39.9012 43.4424 39.67 43.8001C39.4236 44.1885 39.2951 44.6401 39.3 45.1001C39.2972 45.3208 39.331 45.5404 39.4 45.7501C39.51 45.7101 39.66 45.6601 39.86 45.6201V45.6201Z" fill="url(#paint1_radial_117_69)"/>
<path fill-rule="evenodd" clip-rule="evenodd" d="M45.72 47.9002H47.38C47.7176 47.902 48.054 47.8583 48.38 47.7702C48.6772 47.7053 48.9613 47.5904 49.22 47.4302C49.5475 47.2211 49.8269 46.945 50.04 46.6202C50.2155 46.3528 50.3472 46.0591 50.43 45.7502C50.5632 45.2658 50.5632 44.7545 50.43 44.2702C50.3441 43.9606 50.209 43.6669 50.03 43.4002C49.8199 43.0994 49.5512 42.8443 49.24 42.6502C48.9813 42.49 48.6972 42.375 48.4 42.3102C48.0722 42.2314 47.737 42.1878 47.4 42.1802H45.72V47.9002ZM46.29 42.7002H47.11C47.4693 42.6929 47.8282 42.7265 48.18 42.8002C48.4722 42.8611 48.7504 42.9764 49 43.1402C49.2956 43.3604 49.5382 43.644 49.71 43.9702C49.8823 44.2968 49.9716 44.6608 49.97 45.0302C49.966 45.3262 49.9153 45.6198 49.82 45.9002C49.7308 46.1232 49.6095 46.3321 49.46 46.5202C49.3427 46.6653 49.2121 46.7992 49.07 46.9202C48.77 47.1251 48.4286 47.2617 48.07 47.3202C47.7623 47.3675 47.4511 47.3876 47.14 47.3802H46.32L46.29 42.7002ZM51.61 46.6502C51.6025 46.8553 51.6584 47.0578 51.77 47.2302C51.8488 47.3396 51.9611 47.4203 52.09 47.4602C52.1822 47.4808 52.2778 47.4808 52.37 47.4602C52.476 47.4676 52.5823 47.4528 52.6822 47.4166C52.7821 47.3805 52.8733 47.3238 52.95 47.2502C53.0195 47.1789 53.0739 47.0943 53.11 47.0016C53.1461 46.9088 53.1631 46.8097 53.16 46.7102C53.163 46.5474 53.1101 46.3885 53.01 46.2602C52.9157 46.1536 52.7998 46.0684 52.67 46.0102L52.31 45.8602C52.1448 45.8107 51.9842 45.7472 51.83 45.6702C51.6559 45.5882 51.5048 45.4645 51.39 45.3102C51.256 45.1316 51.1856 44.9134 51.19 44.6902C51.1942 44.392 51.304 44.105 51.5 43.8802C51.6167 43.7609 51.757 43.6672 51.912 43.6052C52.067 43.5432 52.2332 43.5143 52.4 43.5202C52.5494 43.5173 52.698 43.5441 52.837 43.599C52.9761 43.6539 53.1028 43.7359 53.21 43.8402C53.3194 43.9487 53.4058 44.0781 53.4642 44.2206C53.5226 44.3632 53.5518 44.5161 53.55 44.6702H53.01C53.0079 44.5702 52.9855 44.4717 52.9442 44.3806C52.903 44.2895 52.8437 44.2077 52.77 44.1402C52.658 44.0535 52.5215 44.0044 52.38 44.0002C52.288 43.9979 52.1966 44.0155 52.1121 44.0517C52.0275 44.0879 51.9518 44.142 51.89 44.2102C51.7891 44.331 51.7327 44.4828 51.73 44.6402C51.7308 44.7365 51.7559 44.831 51.8032 44.9149C51.8504 44.9989 51.9181 45.0695 52 45.1202C52.1523 45.2159 52.3172 45.2899 52.49 45.3402C52.6725 45.3944 52.8498 45.4647 53.02 45.5502C53.2046 45.6466 53.3653 45.7833 53.49 45.9502C53.6286 46.1529 53.6987 46.3947 53.69 46.6402C53.7103 46.9803 53.5953 47.3146 53.37 47.5702C53.238 47.6983 53.0812 47.7981 52.9092 47.8634C52.7373 47.9288 52.5537 47.9583 52.37 47.9502C52.1589 47.9478 51.9509 47.9001 51.76 47.8102C51.5594 47.7112 51.3899 47.559 51.27 47.3702C51.1257 47.1402 51.0559 46.8713 51.07 46.6002L51.61 46.6502ZM54.39 47.9002H54.93V43.6702H54.39V47.9002ZM54.39 43.1602H54.93V42.1602H54.39V43.1602ZM60.11 43.6702H59.61V44.4302C59.4654 44.209 59.2785 44.0187 59.06 43.8702C58.8761 43.7593 58.6775 43.6752 58.47 43.6202C58.3096 43.5816 58.1448 43.5648 57.98 43.5702C57.608 43.567 57.2419 43.6637 56.92 43.8502C56.581 44.031 56.2976 44.3007 56.1 44.6302C55.8837 44.9821 55.7695 45.3871 55.77 45.8002C55.7682 46.2102 55.8826 46.6124 56.1 46.9602C56.3011 47.2817 56.5841 47.544 56.92 47.7202C57.2456 47.8976 57.6092 47.9936 57.98 48.0002C58.3017 47.9996 58.6193 47.9279 58.91 47.7902C59.2137 47.6447 59.4601 47.4018 59.61 47.1002V47.4802C59.6159 47.803 59.5329 48.1213 59.37 48.4002C59.2303 48.6205 59.0285 48.7945 58.79 48.9002C58.5661 48.9984 58.3244 49.0494 58.08 49.0502C57.7876 49.0551 57.4987 48.9863 57.24 48.8502C57.044 48.7449 56.8734 48.5981 56.74 48.4202C56.6413 48.2863 56.5575 48.1421 56.49 47.9902H55.92C56.0137 48.3316 56.1935 48.6433 56.4421 48.8954C56.6908 49.1475 56.9999 49.3316 57.34 49.4302C57.5839 49.5003 57.8362 49.5373 58.09 49.5402H58.48C58.705 49.4995 58.9237 49.4289 59.13 49.3302C59.3811 49.2092 59.5978 49.0269 59.76 48.8002C59.937 48.5653 60.0537 48.2906 60.1 48.0002C60.1186 47.7505 60.1186 47.4998 60.1 47.2502L60.11 43.6702ZM56.25 45.7902C56.2551 45.4902 56.3305 45.1957 56.47 44.9302C56.612 44.6749 56.8146 44.4586 57.06 44.3002C57.3169 44.1364 57.6153 44.0494 57.92 44.0494C58.2247 44.0494 58.523 44.1364 58.78 44.3002C59.0307 44.4605 59.2378 44.6806 59.3826 44.9406C59.5275 45.2006 59.6056 45.4925 59.61 45.7902C59.6064 46.058 59.5414 46.3214 59.42 46.5602C59.2918 46.8265 59.0994 47.0568 58.86 47.2302C58.5924 47.4 58.2819 47.4902 57.965 47.4902C57.648 47.4902 57.3376 47.4 57.07 47.2302C56.8246 47.0717 56.622 46.8554 56.48 46.6002C56.3465 46.3502 56.2713 46.0733 56.26 45.7902H56.25ZM61.13 43.6702H61.67V44.2102C61.7862 44.0414 61.936 43.8984 62.11 43.7902C62.3676 43.64 62.6618 43.5638 62.96 43.5702C63.2048 43.5595 63.4494 43.5969 63.68 43.6802C63.9136 43.7662 64.1253 43.9028 64.3 44.0802C64.4682 44.2506 64.5978 44.4552 64.68 44.6802C64.7773 44.9666 64.8246 45.2677 64.82 45.5702V47.9002H64.29V45.5702C64.2854 45.3321 64.2449 45.0961 64.17 44.8702C64.1082 44.6974 64.0092 44.5404 63.88 44.4102C63.7418 44.2836 63.5782 44.1881 63.4 44.1302C63.2593 44.0773 63.1103 44.0502 62.96 44.0502C62.8098 44.0518 62.6611 44.0788 62.52 44.1302C62.346 44.1907 62.1861 44.286 62.05 44.4102C61.9207 44.5404 61.8217 44.6974 61.76 44.8702C61.679 45.0943 61.6417 45.3319 61.65 45.5702V47.9002H61.11L61.13 43.6702Z" fill="url(#paint2_radial_117_69)"/>
<path d="M38.46 8.0301C38.2946 7.77627 38.1143 7.53251 37.92 7.3001L38.01 6.9301C38.15 6.9301 38.59 6.8501 38.67 6.7101C38.9314 6.66493 39.1986 6.66493 39.46 6.7101L39.68 6.5901C40.07 6.6701 40.46 6.4301 40.84 6.4301C41.502 6.52605 42.1716 6.55953 42.84 6.5301C43.0589 6.69854 43.2026 6.94644 43.24 7.2201L43.05 7.6101H42.86C42.7204 7.7208 42.5519 7.78908 42.3746 7.80681C42.1974 7.82453 42.0187 7.79097 41.86 7.7101L41.46 7.9301C41.1292 7.87178 40.7907 7.87178 40.46 7.9301L40.33 8.0301C39.7097 8.11725 39.0802 8.11725 38.46 8.0301V8.0301ZM65.08 25.2001L64.97 25.2901C65.0702 25.8583 65.0113 26.4432 64.8 26.9801L64.93 27.1701V27.5801L65 27.6801C64.953 27.945 64.9771 28.2176 65.07 28.4701V28.5301L65.13 29.8601C65.01 30.0401 64.73 33.3601 64.73 33.4801L64.65 33.5901V33.8501L64.58 33.9401L64.68 34.4501C64.4501 34.7744 64.3276 35.1626 64.33 35.5601C64.07 35.6701 63.74 36.6301 63.71 36.9001C63.4 36.9501 63.03 37.4001 62.9 37.6601L62.4 37.5701C62.3499 37.6234 62.2894 37.6659 62.2224 37.6951C62.1554 37.7243 62.0831 37.7396 62.01 37.7401L61.95 37.8001C61.8 37.8601 61.44 37.9701 61.28 37.8801C61.01 38.2701 60.15 37.8801 59.85 38.2401C59.53 38.1301 59.09 38.3501 58.85 38.2401C58.43 38.3301 55.71 38.3701 55.54 38.4601C54.0652 38.3055 52.5805 38.2688 51.1 38.3501L50.93 38.2501C50.5113 38.289 50.0965 38.3626 49.69 38.4701C49.4251 38.3953 49.1448 38.3953 48.88 38.4701C48.3328 38.4275 47.7826 38.4477 47.24 38.5301L47.07 38.4201H46.71L46.61 38.4901C45.8939 38.5104 45.1782 38.4399 44.48 38.2801C44.2386 38.402 43.9751 38.4738 43.7052 38.4909C43.4354 38.5081 43.1648 38.4704 42.91 38.3801L42.77 38.4501L42.55 38.4001C42.35 38.6101 41.97 38.5101 41.77 38.4001C41.4528 38.529 41.1122 38.5903 40.77 38.5801L40.59 38.6801C40.13 38.5701 38.59 38.7401 38.32 38.4801H38.12L37.77 38.2601C37.6136 38.334 37.4429 38.3723 37.27 38.3723C37.0971 38.3723 36.9263 38.334 36.77 38.2601C36.77 38.2601 36.77 38.3401 36.77 38.3601C36.4207 38.4493 36.0579 38.473 35.7 38.4301C34.9846 38.5454 34.2554 38.5454 33.54 38.4301C33.2025 38.4696 32.8684 38.5331 32.54 38.6201C32.1113 38.53 31.6686 38.53 31.24 38.6201C31.1254 38.546 30.9945 38.5008 30.8586 38.4886C30.7227 38.4764 30.5859 38.4975 30.46 38.5501C30.2687 38.4502 30.0558 38.3987 29.84 38.4001C29.3157 37.8107 28.6931 37.3167 28 36.9401V36.6101L27.61 36.3501V36.1001C27.33 35.8301 27.31 34.2001 27.26 33.7401L27.21 33.6801C27.21 33.5501 27.13 33.1101 27.21 33.0201L27.12 32.8101C27.2295 32.5374 27.2295 32.2328 27.12 31.9601C27.152 31.4118 27.1218 30.8616 27.03 30.3201L26.9 30.1001C27.09 29.7901 26.81 29.1501 26.95 28.7301L26.81 28.2101L26.91 27.9001C26.79 27.5801 26.91 27.2101 26.75 26.9001L27.02 26.5701C26.87 26.2701 26.94 25.9201 26.81 25.6201C27.05 25.4801 26.92 24.2201 27.06 23.9001C26.78 23.3401 27.18 22.5801 27.06 22.2001V22.1001C26.91 21.5501 27.14 19.9501 27 19.6901H27.08C27.107 19.3597 27.2133 19.0406 27.39 18.7601L27.23 18.5401L27.1 18.5901L26.87 18.3801L27.02 18.2901L27.11 17.8101L27.03 17.7201V17.5201C26.69 17.1901 26.97 16.6101 26.65 16.2701C26.725 15.2248 26.725 14.1754 26.65 13.1301C26.65 12.8801 26.65 11.9201 26.85 11.7401C26.791 11.5879 26.7702 11.4235 26.7894 11.2614C26.8085 11.0993 26.8671 10.9444 26.96 10.8101L26.81 10.6701C26.8677 10.4588 26.8427 10.2335 26.74 10.0401C27.1 9.3801 26.74 7.6701 27.09 6.8701C26.97 6.8101 26.92 6.3001 26.89 6.1701C27.1 5.4701 26.7 4.4601 26.99 3.8401L26.93 3.5901C27.035 3.26394 27.112 2.92939 27.16 2.5901C27.36 2.5001 27.71 1.9401 27.86 1.7501C28.29 1.2401 29.5 1.3101 30.04 0.910098C30.21 0.910098 30.88 1.0301 30.98 0.910098H31.34C31.69 0.630098 31.86 0.970098 32.4 0.570098V0.510098L32.61 0.440098C32.77 0.580098 33.18 0.870098 33.37 0.650098C33.9453 0.5954 34.5246 0.5954 35.1 0.650098C35.71 0.470098 38.01 0.490098 38.22 0.250098L39.22 0.440098C39.46 0.310098 39.74 0.560098 39.97 0.440098H40.03C40.5139 0.444561 40.9958 0.37716 41.46 0.240098C42.718 0.386331 43.9873 0.409775 45.25 0.310098C45.4499 0.384409 45.67 0.384409 45.87 0.310098C46.37 0.500098 47.48 0.310098 47.87 0.500098C48.16 0.220098 49.87 0.590098 50.32 0.150098C50.5712 0.224465 50.8407 0.206735 51.08 0.100098L51.4 0.200098L51.53 0.100098C51.72 0.480098 53.39 0.300098 53.59 0.310098C53.65 0.100098 53.72 0.310098 53.72 0.310098C54 0.400098 54.32 0.310098 54.59 0.390098L54.77 0.320098C55.2051 0.400436 55.648 0.430633 56.09 0.410098L56.19 0.280098L56.76 0.440098L57.14 0.340098L57.28 0.450098H57.79L57.85 0.360098C58.4939 0.572999 59.1775 0.637944 59.85 0.550098L60.61 0.740098L60.71 0.650098L61.1 0.740098L61.33 0.620098L61.71 0.820098H61.96C62.227 1.08331 62.5851 1.2337 62.96 1.2401C63.5 1.6801 64.56 2.3501 64.27 3.2401C64.3775 3.49227 64.4222 3.76683 64.4 4.0401L64.63 4.3701C64.5812 5.65954 64.6415 6.95079 64.81 8.2301C64.49 9.2301 64.93 10.2301 64.75 11.2301C64.75 11.3801 64.48 11.7701 64.75 11.9001L64.8 12.2401L64.66 12.3201L64.73 12.7401V12.8001V13.2901H64.79L64.87 13.4601C64.69 13.8601 64.93 15.4601 64.77 16.0401L64.88 16.2501C64.83 16.4504 64.83 16.6598 64.88 16.8601C64.7955 17.104 64.7648 17.3632 64.79 17.6201L65.02 17.8501C65.0812 18.7957 65.0343 19.7452 64.88 20.6801C64.935 20.9237 64.935 21.1765 64.88 21.4201C65.11 21.6401 64.95 22.0301 65.2 22.2301L65.26 22.8301L65.06 23.0401L65 23.2901C65.0468 23.8305 65.0267 24.3746 64.94 24.9101L65.08 25.2001ZM36.42 3.5501C36.5467 3.70175 36.6388 3.87921 36.69 4.0701H37.09L37.3 3.9601H37.47L37.64 3.8601C37.8597 3.87508 38.0802 3.87508 38.3 3.8601L38.4 3.9201C39.0883 3.88663 39.778 3.94719 40.45 4.1001H40.67C41.13 4.5001 44.55 4.1801 45.05 3.9501C45.19 3.7601 45.16 3.5101 45.23 3.3001L45 3.0201L43.92 2.8301L43.73 2.9301L43.81 3.0501H43.74C43.18 2.6001 41.82 2.9601 41.51 2.6001C40.61 2.7801 38.61 2.1001 37.61 2.7301C37.41 2.6001 37.18 2.7901 36.97 2.7301L36.5 2.9801L36.42 3.5501ZM36.21 7.2601C36.39 7.4201 36.36 7.7001 36.39 7.9201L36.34 7.9801C36.3873 8.09072 36.4117 8.20978 36.4117 8.3301C36.4117 8.45041 36.3873 8.56948 36.34 8.6801L36.86 9.2201C37.0869 9.23383 37.3083 9.29516 37.51 9.4001L37.88 9.3001L38.06 9.4101C38.53 9.3501 38.99 9.4101 39.45 9.2801L39.66 9.3901L39.77 9.3001C40.06 9.3001 40.55 9.3001 40.77 9.1001C40.89 9.2701 41.55 9.1001 41.77 9.1001L41.86 9.0001H42.15L42.24 8.9201C42.46 9.1001 42.78 8.9801 43.04 9.0301L43.17 8.9601C43.43 9.0301 43.38 8.8001 43.62 9.0501C44.01 8.7801 44.35 8.8601 44.8 8.8101L45.1 8.4301C45.0097 7.74058 44.9896 7.04368 45.04 6.3501L44.71 5.9901H44.13V5.9001C43.7951 5.87978 43.4712 5.77297 43.19 5.5901C42.9203 5.57015 42.6496 5.57015 42.38 5.5901L42.19 5.4701C41.88 5.5351 41.5599 5.5351 41.25 5.4701L41.06 5.5701H40.81L40.61 5.6901C40.44 5.4501 39.77 5.3401 39.51 5.3401C39.17 5.5301 38.61 5.2801 38.21 5.5901C38.0572 5.53675 37.8953 5.51457 37.7339 5.52488C37.5724 5.53518 37.4147 5.57776 37.27 5.6501L37 5.5801C36.27 5.8901 36.2 6.5701 36.21 7.2601ZM29.03 4.2001C29.82 4.9901 31.64 4.4101 32.51 4.2701L32.61 4.2001C33.0425 4.19431 33.4726 4.13383 33.89 4.0201L34.03 3.8901C34.179 3.85509 34.3357 3.87646 34.47 3.9501L34.61 3.8001V3.7001L34.89 3.6101L34.91 3.1001L34.7 2.9401H34.51L34.32 2.8301L34.02 2.9601C33.9127 2.97675 33.8033 2.97113 33.6983 2.9436C33.5934 2.91608 33.4952 2.86723 33.41 2.8001L33.17 2.9001C32.2538 2.86662 31.3392 2.99874 30.47 3.2901C30.1181 3.23721 29.7595 3.32328 29.47 3.5301C29.39 3.7401 29.19 3.8601 29.05 4.0401L29.03 4.2001ZM28.34 6.6301C28.3351 6.82916 28.3835 7.02592 28.48 7.2001C28.769 7.31519 29.0387 7.47368 29.28 7.6701C29.5156 7.59498 29.7652 7.57446 30.01 7.6101C30.2 7.8001 30.48 7.8601 30.68 8.0601C30.83 8.6501 30.53 9.0601 30.78 9.7401H30.66L30.55 9.8801C30.6201 10.0774 30.6201 10.2928 30.55 10.4901V10.4901C30.5347 10.7132 30.5347 10.937 30.55 11.1601C30.72 11.2601 30.47 11.9401 30.6 12.2101C30.66 12.7601 30.22 14.4001 30.65 14.8601C30.55 15.0701 30.31 15.8001 30.46 16.0401C30.32 16.2201 30.35 16.8901 30.56 17.0401L30.63 17.4001C30.693 17.4613 30.7685 17.5082 30.8514 17.5376C30.9342 17.5669 31.0224 17.578 31.11 17.5701V17.3501L31.28 17.2801H31.37C31.5098 17.1229 31.588 16.9204 31.59 16.7101C31.89 16.5101 31.4 13.0701 31.84 12.4301L31.79 12.0301H31.98L32.04 11.5301L31.96 11.3701L32.04 11.0501L31.99 10.9601V10.7601L31.9 10.5701L32.02 10.3601C32.0129 9.5374 31.9089 8.71841 31.71 7.9201L31.98 7.5401C32.44 7.4601 32.82 7.1501 33.27 7.0701C33.47 7.0701 33.65 7.0701 33.83 6.9201V6.8601H34.17L34.57 6.3901C34.24 5.6801 31.69 5.8801 30.94 6.0801C30.84 6.0001 30.35 5.9801 30.29 6.0801H29.98C29.5816 6.30219 29.1222 6.38986 28.67 6.3301L28.34 6.6301ZM34.13 15.6301C34.58 14.8401 34.13 11.6301 34.19 10.7101C33.84 10.4301 34.06 9.7101 33.77 9.3101H33.37C33.2265 9.50082 33.1353 9.72571 33.1055 9.9625C33.0757 10.1993 33.1083 10.4398 33.2 10.6601L33.06 11.0101C33.24 11.6401 32.85 12.5701 33.23 13.1201C32.9864 14.4322 32.9292 15.772 33.06 17.1001C33.06 17.1001 33.42 17.7401 33.48 17.4501L33.64 17.5401C34.32 17.5701 34.49 16.0401 34.13 15.6501V15.6301ZM28.13 17.1501C28.34 17.2701 28.51 17.4601 28.77 17.4801L29.21 16.6201C28.99 16.4601 29.21 16.1401 29.07 15.9401L29.24 15.6601C29.1061 14.7416 29.1061 13.8086 29.24 12.8901L29.16 12.6601L29.3 12.1701C29.12 11.9201 29.3 11.4901 29.3 11.1701L29.39 11.0401C29.39 10.7101 29.25 10.3401 29.39 10.0401C29.3092 9.87187 29.2915 9.68028 29.34 9.5001L29.18 9.1001C29.25 8.9401 29.1 8.5801 29.03 8.4401C28.96 8.3001 28.42 8.0101 28.49 8.3501L28.35 8.4801C28.2887 8.82384 28.188 9.15938 28.05 9.4801C28.13 9.7901 27.95 10.1701 28.05 10.4801L27.94 10.5701L28.04 10.7601C27.9553 10.9995 27.9553 11.2607 28.04 11.5001L28.21 11.6901L28.02 11.8001C28.2012 12.6239 28.2451 13.472 28.15 14.3101L28.23 14.5001C28.0127 14.9962 27.9842 15.5545 28.15 16.0701C28.0924 16.1961 28.0677 16.3347 28.0782 16.4728C28.0887 16.611 28.134 16.7442 28.21 16.8601L28.08 17.0401L28.13 17.1501ZM38.83 23.2201V22.9101L38.69 22.8001L38.76 22.3301C38.45 21.6701 36.76 21.4201 36.18 21.6601C35.9684 21.6023 35.749 21.5787 35.53 21.5901L35.23 21.3701H35.11C34.93 21.2201 34.72 21.1301 34.55 20.9701C34.5645 20.4276 34.4728 19.8874 34.28 19.3801C34.0555 19.3631 33.8307 19.4081 33.63 19.5101V19.6601L33.46 19.7501C33.3623 19.8509 33.289 19.9727 33.2457 20.1061C33.2024 20.2396 33.1902 20.3812 33.21 20.5201C33.1388 20.5927 33.0827 20.6787 33.045 20.7731C33.0072 20.8675 32.9885 20.9684 32.99 21.0701C32.87 21.1301 32.63 21.5401 32.35 21.7001H32.15C32.07 21.7001 29.25 22.3101 29.24 22.3101L28.81 22.7401L28.73 23.1401L28.93 23.4401C28.85 23.7001 28.93 23.9801 28.86 24.2401C28.9952 24.8291 28.9952 25.4411 28.86 26.0301C29.28 26.9201 28.62 29.1901 29.03 29.7201L28.94 29.8901C29.06 30.6101 28.76 31.3801 29.11 32.1001C28.96 32.3501 29.16 32.8701 29.04 33.1901L29.14 33.4701L29.04 33.6601C29.04 33.8701 29.23 35.0201 29.57 34.9701C29.57 35.0801 29.57 35.4601 29.75 35.3501C29.8422 35.4272 29.9558 35.4742 30.0756 35.4849C30.1953 35.4957 30.3155 35.4695 30.42 35.4101V35.1801H30.49V34.7801L30.57 34.7101L30.43 34.1001L30.28 34.0101C30.1595 33.3338 30.1126 32.6465 30.14 31.9601L30.06 31.7801V31.5701L29.96 31.3301C30.0346 31.0891 30.0346 30.8311 29.96 30.5901C30.0898 30.0207 30.0898 29.4295 29.96 28.8601C29.96 28.7801 29.96 28.4601 30.04 28.4201C29.9599 28.2212 29.9599 27.999 30.04 27.8001L30.37 27.3701C31.2 27.1801 31.55 26.7301 32.53 26.9801L32.76 27.1901H32.95L33.09 27.4201C32.89 28.0701 33.26 28.7401 33.27 29.4201H33.71L34.03 29.6601H34.23L34.47 29.9101C34.5789 29.8379 34.711 29.8093 34.84 29.8301L34.92 29.7301C35.0197 29.7844 35.1314 29.8128 35.245 29.8128C35.3585 29.8128 35.4702 29.7844 35.57 29.7301L36.37 29.8501C36.53 30.0801 36.81 30.1601 36.98 30.3701V30.5201L37.19 30.6801C37.34 31.4201 37.19 32.4601 37.46 33.0501C37.3752 33.2528 37.3316 33.4704 37.3316 33.6901C37.3316 33.9098 37.3752 34.1274 37.46 34.3301L37.4 34.4001C37.46 34.7601 37.4 35.2601 37.66 35.5401V35.9801L37.85 36.1701H37.99C38.1485 36.1187 38.2886 36.0223 38.3933 35.8927C38.4981 35.7631 38.5629 35.6059 38.58 35.4401C38.93 35.2401 38.58 30.4401 38.31 30.1201C38.3094 29.8658 38.3604 29.6141 38.46 29.3801C38.3938 29.1399 38.2539 28.9265 38.06 28.7701C37.7068 28.755 37.3631 28.6519 37.06 28.4701C36.8 28.5301 36.19 28.6601 35.96 28.4701L35.76 28.5401C35.43 28.3701 35.01 28.5401 34.67 28.4101L34.35 28.5301L34.2 28.4701L34.05 27.9501L34.11 27.8301V27.4601L34.79 26.7601C35.1498 26.8216 35.516 26.8384 35.88 26.8101V26.8101C36.326 26.9099 36.7847 26.9403 37.24 26.9001C37.43 27.0801 37.76 26.9501 37.99 26.9901L38.38 26.5401V26.4701L38.53 26.3501C38.545 26.2507 38.545 26.1495 38.53 26.0501C38.83 25.8701 38.59 24.2701 38.76 23.7701C38.8096 23.7502 38.8537 23.7186 38.8884 23.6779C38.9231 23.6372 38.9474 23.5888 38.9592 23.5366C38.971 23.4845 38.9699 23.4302 38.9561 23.3786C38.9423 23.3269 38.9162 23.2794 38.88 23.2401L38.83 23.2201ZM46.61 26.3201C46.83 26.0401 46.61 25.6901 46.67 25.3801C46.5717 25.2539 46.5157 25.0999 46.51 24.9401C46.4396 23.8691 46.2654 22.8075 45.99 21.7701L45.58 21.4701C45.5432 22.0928 45.3241 22.691 44.95 23.1901H44.28C44.1106 23.3062 43.9153 23.3788 43.7112 23.4015C43.5072 23.4241 43.3007 23.3962 43.11 23.3201L42.87 23.4201C42.6433 23.3408 42.4307 23.226 42.24 23.0801L42.01 22.6701C42.1001 22.3124 42.1001 21.9378 42.01 21.5801C41.8124 21.3465 41.5337 21.1965 41.23 21.1601C41.0445 21.437 40.9566 21.7677 40.98 22.1001L40.75 22.2901L40.68 23.0701L40.52 23.1601C40.77 23.7001 40.9 23.7901 40.52 24.4501C40.52 24.8001 40.87 25.3401 40.84 25.5101L40.76 25.5801C40.7153 25.7776 40.7153 25.9826 40.76 26.1801L40.44 26.7001L40.53 27.1701C40.25 27.4701 40.53 27.9301 40.35 28.2801L40.44 28.4101C40.4251 28.7508 40.4795 29.091 40.6 29.4101V29.4101C40.6956 30.2231 40.7357 31.0417 40.72 31.8601L40.6 32.0401L40.71 32.2501C40.6797 32.3698 40.6766 32.4948 40.7009 32.6159C40.7251 32.737 40.776 32.8512 40.85 32.9501C40.85 33.2401 40.77 34.5701 41.03 34.7901C41.0398 35.2159 41.1279 35.6362 41.29 36.0301C42.61 36.0301 43.95 36.5901 45.29 36.2001C45.3783 36.1357 45.4813 36.0947 45.5897 36.0807C45.6981 36.0667 45.8082 36.0802 45.91 36.1201L46.27 36.0101L46.64 35.5101C46.5699 34.9155 46.5699 34.3147 46.64 33.7201C46.5664 33.5118 46.5424 33.2893 46.57 33.0701L46.48 32.9101C46.81 32.5701 46.6 31.6301 46.48 31.1901L46.56 31.0801C46.56 30.7401 46.33 30.3101 46.56 30.0101C46.56 29.7001 46.68 29.3601 46.56 29.0701L46.62 28.9001L46.55 28.5101H46.6L46.69 27.3801C46.46 26.9801 46.79 26.6301 46.61 26.3201ZM46.72 14.1501C46.469 13.1245 46.1345 12.1212 45.72 11.1501C45.3791 10.9591 44.9897 10.8722 44.6 10.9001C44.41 11.1001 43.73 10.9001 43.44 11.0301C43.23 10.8701 42.93 11.0301 42.73 10.7901L42.21 10.9401C42.02 10.7401 41.7 10.7901 41.45 10.7501L41.17 11.0101C41.1 10.8101 40.68 10.6201 40.51 10.5601C40.3199 10.5435 40.129 10.5817 39.96 10.6701C39.7567 10.5951 39.5333 10.5951 39.33 10.6701L39.19 10.5601C38.58 10.5601 36.94 10.5101 36.46 10.8901H36.26L35.91 11.0401C35.75 11.4001 35.35 12.6101 35.56 12.9601C35.3528 13.7969 35.3019 14.6648 35.41 15.5201C35.07 15.7501 35.41 17.3501 35.41 17.6501C35.41 17.9501 35.81 17.8501 35.87 18.0701H36.15V18.1201C36.261 18.1588 36.3816 18.1602 36.4935 18.1241C36.6054 18.088 36.7025 18.0164 36.77 17.9201C36.8404 17.9468 36.9162 17.9563 36.9911 17.9476C37.0659 17.9388 37.1375 17.9123 37.2 17.8701C37.4046 18.0173 37.6481 18.1008 37.9 18.1101C38.15 17.9301 38.52 18.0001 38.81 17.9801L38.99 18.1001H39.23L39.3 18.0401L39.59 18.1601L39.75 18.0501C40.0595 18.0764 40.3632 18.1506 40.65 18.2701L41.1 18.0801C41.31 18.1601 42.01 18.3001 42.16 18.0801C42.774 18.0001 43.3959 18.0001 44.01 18.0801L44.5 17.9201C44.6723 17.9946 44.8596 18.0279 45.047 18.0175C45.2345 18.0071 45.4169 17.9532 45.58 17.8601C45.78 17.5001 46.12 17.3301 46 16.8601C46.1601 16.6514 46.2697 16.4083 46.32 16.1501C46.2 15.6701 46.53 15.2801 46.38 14.8301C46.67 14.6501 46.61 14.3801 46.74 14.1501H46.72ZM51.61 26.5001C51.8048 25.3483 51.8048 24.1719 51.61 23.0201C51.5349 22.7587 51.5349 22.4815 51.61 22.2201L51.51 21.9701H51.6V21.4001L51.45 21.1801L51.59 20.9301L51.52 20.6101L51.64 20.2601L51.36 19.1901C51.53 18.2208 51.53 17.2294 51.36 16.2601C51.49 15.9101 51.28 14.8501 51.36 14.3401C51.239 14.0877 51.1807 13.8098 51.19 13.5301C51.29 13.3001 51.25 13.0301 51.37 12.8001C51.3416 12.2549 51.268 11.7131 51.15 11.1801C51.24 11.1101 51.21 10.7801 51.2 10.6801L50.94 10.3201L50.68 10.2601C50.34 10.5001 48.76 9.3101 48.55 8.9901C48.68 8.6101 48.45 8.1901 48.55 7.8101C48.64 7.7201 48.95 7.5201 48.96 7.3901C48.97 7.2601 49.96 7.3901 50.16 7.3901L50.3 7.2301L50.5 7.3501L51.05 7.1601C51.1689 7.04487 51.2611 6.9049 51.32 6.7501L51.2 6.1701C51.61 5.3201 51.05 2.8401 50.2 2.4601C49.95 2.5501 49.74 2.4601 49.49 2.4601C49.24 2.4601 48.78 2.7701 48.38 2.7801C48.23 3.0301 47.95 3.3101 47.99 3.6201C48.4604 3.95243 49.0389 4.09525 49.61 4.0201L49.98 4.4501C49.8801 4.71432 49.8801 5.00588 49.98 5.2701L49.87 5.4801C49.98 6.2501 48.87 6.4001 48.32 6.3301C48.2327 6.48851 48.0904 6.60946 47.92 6.6701C47.9394 6.83988 47.9218 7.01187 47.8683 7.17417C47.8148 7.33647 47.7266 7.48521 47.61 7.6101C47.67 8.3001 47.61 8.9901 47.61 9.6701L47.81 9.9401L47.66 10.0801V10.3501L47.72 10.4401V10.6501C47.9515 10.8763 48.2142 11.0682 48.5 11.2201C48.88 11.2201 49.27 11.2201 49.66 11.2201L49.94 11.3801C49.94 11.7401 50.22 11.9801 50.29 12.2901C50.3786 12.8219 50.4121 13.3614 50.39 13.9001C50.39 14.2801 50.49 16.9001 50.39 16.9001C50.29 16.9001 50.63 18.0501 50.39 18.1401C50.5676 19.1836 50.6413 20.2421 50.61 21.3001L50.7 21.4601C50.6124 21.7859 50.5753 22.1231 50.59 22.4601V22.5201V22.7001L50.66 22.8201L50.51 23.1001C50.4545 23.5623 50.4885 24.0308 50.61 24.4801C50.11 25.6201 50.78 27.4301 50.44 28.3201C50.5001 28.4542 50.5261 28.6011 50.5156 28.7476C50.5051 28.8942 50.4585 29.0359 50.38 29.1601C50.416 29.2786 50.4258 29.4035 50.4085 29.5262C50.3912 29.6488 50.3473 29.7662 50.28 29.8701C50.67 31.1001 50.28 32.5401 50.48 33.7201L50.39 33.8301V34.1101L49.69 34.6501C49.4972 34.6185 49.3152 34.5399 49.16 34.4214C49.0047 34.3028 48.8811 34.1478 48.8 33.9701C48.8073 33.4432 48.895 32.9205 49.06 32.4201C49.01 32.1801 49.12 31.9401 49.06 31.7001V31.6001C48.83 31.0601 49.06 30.5501 48.95 30.0601L49.07 29.7701C48.95 29.5001 49.16 29.1801 48.96 28.9201C49.1052 28.1469 49.1052 27.3533 48.96 26.5801C49.1295 25.7655 49.1295 24.9247 48.96 24.1101C49.09 24.0101 48.89 20.3601 49.05 20.2401C48.99 19.8901 49.05 19.4501 48.75 19.1901C49.03 18.9101 49.35 17.5201 49 17.2401C49.0932 16.3965 49.0149 15.5427 48.77 14.7301L48.85 14.6101C48.64 14.1701 48.7 13.9101 48.28 13.6101L48.07 13.6801C48.0184 13.7833 47.9509 13.8778 47.87 13.9601C47.8621 14.2281 47.8184 14.4938 47.74 14.7501L47.97 15.1701C47.77 15.9701 48.38 16.7401 48.08 17.5201C48.23 17.6501 48.25 18.0701 48.25 18.2501C48.02 18.4601 48.16 18.7401 48.25 18.9801L48.32 19.0401C48.378 20.0459 48.3006 21.0549 48.09 22.0401L48.23 22.4701L48.07 22.5601L48 22.8001C48.1297 23.1622 48.1297 23.558 48 23.9201C47.9501 24.3955 47.9501 24.8747 48 25.3501C47.78 25.7001 48.07 26.1501 47.72 26.4501L47.95 26.6601C47.9347 26.7635 47.9401 26.8689 47.9659 26.9701C47.9916 27.0714 48.0372 27.1666 48.1 27.2501C48.1 27.3601 48.1 27.8501 48.01 27.9101C48.14 28.5301 47.84 30.4601 48.01 30.8201V31.2801L47.93 31.3801C47.8114 32.6762 47.845 33.9818 48.03 35.2701L48.48 35.5901C48.73 35.5001 49 35.5901 49.26 35.5901L49.4 35.7001C50.0354 35.7026 50.6701 35.746 51.3 35.8301C51.49 35.5901 51.54 35.2601 51.75 35.0401C51.7346 34.8117 51.7549 34.5823 51.81 34.3601L51.61 34.2001C51.5759 33.9881 51.6109 33.7707 51.71 33.5801C51.62 33.0801 51.71 29.5801 51.71 29.2601L51.61 29.1001C51.6601 28.8527 51.6393 28.5962 51.55 28.3601L51.66 28.2701V27.7801C51.53 27.5201 51.66 27.2201 51.59 26.9401L51.65 26.8201L51.61 26.5001ZM52.93 11.5701C52.8133 11.833 52.7683 12.1221 52.7995 12.408C52.8307 12.694 52.937 12.9666 53.1076 13.1981C53.2783 13.4297 53.5071 13.612 53.771 13.7265C54.0348 13.841 54.3243 13.8836 54.61 13.8501L54.71 13.7501L55.01 13.8701L55.33 13.7401C57.04 14.4001 58.09 13.8001 59.51 14.1201C59.5811 14.0505 59.6704 14.0023 59.7677 13.981C59.865 13.9598 59.9663 13.9664 60.06 14.0001L60.39 13.8801L60.7 14.0101L60.95 13.9001C61.1655 13.9417 61.3885 13.9173 61.59 13.8301H61.68L62.57 13.5101V13.3301L62.37 13.0301H62.08L61.9 12.8701C61.37 12.8701 59.37 12.5001 59.04 12.7901L58.61 12.7301L58.52 12.8101L58.28 12.7001C57.99 12.9301 57.89 12.4801 57.47 12.9201L57.39 12.8101L57.01 12.7201L56.86 12.7901C56.2053 12.6249 55.5348 12.531 54.86 12.5101C54.6771 12.3902 54.5063 12.2529 54.35 12.1001L54.16 11.2001L54.42 10.7601C54.7489 10.6938 55.0846 10.6669 55.42 10.6801L55.5 10.6201C56.2661 10.6601 57.0338 10.6601 57.8 10.6201C58.5765 10.7572 59.3757 10.6776 60.11 10.3901L60.2 10.4501C60.2667 10.464 60.3358 10.4622 60.4017 10.4449C60.4677 10.4275 60.5287 10.3951 60.58 10.3501C60.9955 10.4651 61.4344 10.4651 61.85 10.3501L61.98 9.9301L61.81 9.4801C61.6803 9.44175 61.5652 9.36505 61.48 9.2601L60.72 9.1001L60.55 9.1901C59.4931 9.0755 58.4269 9.0755 57.37 9.1901C56.7591 9.0381 56.1176 9.06237 55.52 9.2601V9.3501L55.16 9.2801L54.97 9.4701L54.81 9.3001L54.31 9.2101L54.17 9.1001V8.8901L54.01 8.7001C54.11 7.6001 53.67 7.8101 54.53 7.0401C54.7904 7.09515 55.0595 7.09515 55.32 7.0401C55.5 7.2201 55.85 7.0401 56.08 7.1601C56.4337 7.2092 56.7941 7.17145 57.13 7.0501C57.27 7.2901 58.7 7.1401 58.92 7.0501C59.52 7.3401 60.07 7.1301 60.7 7.1801L60.81 7.1001H61.05L61.47 6.8201V6.7301L61.31 6.4101C60.8347 6.13087 60.3183 5.92838 59.78 5.8101L59.36 6.1001L59 5.9201C58.7033 5.89617 58.4081 5.98153 58.17 6.1601L57.75 5.9701L57.51 6.1001L57.08 5.9401C56.8383 5.98001 56.5917 5.98001 56.35 5.9401L56.02 6.1001H55.84L55.76 5.9401C55.2145 6.02557 54.6577 6.0052 54.12 5.8801L53.98 5.7201H53.8C53.7003 5.56758 53.655 5.38592 53.6713 5.20447C53.6877 5.02302 53.7647 4.85237 53.89 4.7201V4.4001C54.083 4.21189 54.2979 4.0474 54.53 3.9101L54.76 4.0001L54.96 3.8901L55.46 4.1201L55.61 4.1001L55.68 4.0201L55.94 4.1501C56.4339 4.08559 56.9328 4.06884 57.43 4.1001L57.61 3.9801C58.413 4.1305 59.2369 4.1305 60.04 3.9801C60.1167 4.03392 60.211 4.05662 60.3038 4.04363C60.3966 4.03064 60.481 3.98291 60.54 3.9101C60.94 4.0801 61.85 4.0201 61.89 3.4601L61.61 3.1901H61.47L61.29 3.1001V2.8901H60.73C60.673 2.83081 60.6047 2.78364 60.5291 2.75142C60.4535 2.7192 60.3722 2.70259 60.29 2.70259C60.2078 2.70259 60.1264 2.7192 60.0508 2.75142C59.9752 2.78364 59.9069 2.83081 59.85 2.8901L59.23 2.7901L59.08 2.8801C58.79 2.8801 57.9 2.7001 57.68 2.8801C57.45 2.6701 57.07 2.8101 56.81 2.6701L56.51 2.8701C56.1823 2.79513 55.8454 2.76819 55.51 2.7901L55.34 2.7001C54.8347 2.7188 54.3324 2.78577 53.84 2.9001L53.71 3.0601H53.6C53.4741 3.35575 53.2702 3.61156 53.01 3.8001C53.01 4.2601 52.79 4.5601 52.93 5.0701L52.85 5.1001C52.8 5.4701 52.91 6.5101 52.71 6.7201C52.93 7.4201 52.51 8.4201 52.8 8.9501L52.69 9.1501C52.6886 9.39477 52.7397 9.63689 52.84 9.8601L52.77 9.9301C52.81 10.1483 52.81 10.3719 52.77 10.5901C52.95 10.8901 52.78 11.2901 52.97 11.5701H52.93ZM60.36 27.1001C60.4651 26.7127 60.5057 26.3107 60.48 25.9101C60.9 25.5701 60.1 23.1901 60.4 22.6401C60.3592 22.3515 60.2819 22.0692 60.17 21.8001C60.1149 21.402 60.1149 20.9982 60.17 20.6001L60.07 20.4801V20.2501L59.72 19.9001H59.44C59.35 20.1001 59.08 20.7501 59.24 20.9001C59.2499 21.3884 59.2866 21.8758 59.35 22.3601L59.29 22.4601L59.4 22.9801L59.28 23.1101C59.1124 23.6978 59.1476 24.3248 59.38 24.8901L59.12 25.3501C59.24 25.7601 59.05 26.2201 59.28 26.6001C59.28 26.7301 59.2 27.3001 59.1 27.3601C59.1589 27.6908 59.1589 28.0294 59.1 28.3601L59.24 28.8401L59.14 29.0601L59.2 29.3901C58.9203 30.3056 58.8184 31.2663 58.9 32.2201L58.99 32.3101C58.92 32.7701 58.77 34.3101 58.3 34.5101L58.07 34.4501L57.74 34.6501H57.64L57.45 34.7501C57.11 34.2601 55.62 35.2101 54.91 34.1801L54.74 34.1001L54.4 33.4901C54.49 32.6101 54.4 31.7401 54.4 30.8601L54.34 30.7801C54.34 30.3401 54.34 23.7801 54.29 23.6301C54.52 23.4101 54.19 21.7901 54.43 21.3801C54.24 21.0501 54.52 20.1801 54.27 20.0201C54.158 19.0944 54.1046 18.1625 54.11 17.2301C53.9489 17.1676 53.7811 17.124 53.61 17.1001L53.42 17.2201C53.2607 18.1245 53.1871 19.0419 53.2 19.9601L53.36 20.3201C53.36 20.5401 53.27 20.9001 53.48 21.0601L53.42 21.3601L53.5 21.5401C53.43 21.8201 53.6 22.1501 53.35 22.3801C53.3718 23.7861 53.2714 25.1914 53.05 26.5801C53.28 26.9701 52.99 28.8701 53.28 29.4901L53.2 29.5401C53.2593 30.3857 53.2593 31.2345 53.2 32.0801C53.3417 32.7016 53.432 33.3338 53.47 33.9701C53.3888 34.2506 53.37 34.5454 53.4149 34.8339C53.4598 35.1224 53.5673 35.3976 53.73 35.6401C54.2101 35.7374 54.7006 35.7744 55.19 35.7501L55.36 35.8601L55.91 35.7801C56.2 35.7801 56.48 35.6701 56.77 35.6501C56.97 35.8601 57.45 35.6501 57.71 35.7101V35.6401C57.9429 35.7005 58.1903 35.6683 58.4 35.5501H58.93C59.0774 35.4248 59.252 35.3358 59.44 35.2901V35.0101C59.75 34.8101 59.6 34.3701 59.65 34.0701L59.86 33.9301H59.91L60.08 33.8101C60.2397 32.887 60.2397 31.9432 60.08 31.0201C60.19 30.8301 60.2 30.6001 60.35 30.4401C60.2816 30.1281 60.2481 29.8095 60.25 29.4901C60.77 29.3001 60.27 27.3301 60.36 27.1001ZM63.17 20.3301L62.79 19.7001V19.1901L62.68 19.0001V18.8101C62.68 18.7001 62.56 18.3101 62.44 18.2701L62.57 18.0301C62.502 17.9602 62.4492 17.8771 62.4148 17.7859C62.3804 17.6947 62.3651 17.5974 62.37 17.5001C62.1441 17.2107 62.0023 16.8647 61.96 16.5001L61.61 16.3601C61.2971 16.2175 60.9477 16.1756 60.61 16.2401C60.3205 16.0953 60.0194 15.9749 59.71 15.8801C59.4653 15.9039 59.2327 15.9976 59.04 16.1501C58.505 16.0151 57.9449 16.0151 57.41 16.1501L57.3 16.1001C57.0715 16.1372 56.8385 16.1372 56.61 16.1001C55.87 16.6801 56.35 17.4001 56.43 18.1001C56.43 18.1701 56.43 18.2801 56.36 18.3101C56.3992 19.3897 56.3423 20.4706 56.19 21.5401C56.38 21.8001 56.25 22.1401 56.31 22.4301V22.5401V22.7401L56.17 22.8701C56.0771 24.2818 56.1307 25.6994 56.33 27.1001L56.21 27.2901C56.2135 28.0016 56.1768 28.7127 56.1 29.4201L56 29.5601C56.07 29.7175 56.1062 29.8878 56.1062 30.0601C56.1062 30.2324 56.07 30.4027 56 30.5601C56.0903 30.788 56.1508 31.0267 56.18 31.2701L55.98 31.6401C56.16 31.8901 55.98 32.6401 56.44 32.6401C57.34 31.8701 56.78 30.4201 57.17 30.0801C57.02 28.8801 57.31 27.6901 57.23 26.4901C57.48 26.2801 57.23 24.9801 57.45 24.5801C57.28 24.2801 57.56 23.7801 57.36 23.5201C57.36 22.6501 57.36 21.7601 57.36 20.8801L57.26 20.7701C57.51 20.4001 57.26 19.9101 57.41 19.6701L57.34 19.4901C57.4048 19.2409 57.4048 18.9793 57.34 18.7301L57.61 18.2601L57.92 18.1301L58.03 17.8801C58.3681 17.8456 58.7027 17.7821 59.03 17.6901L59.1 17.8001H59.44L59.58 17.7001C59.79 17.9601 60.58 17.8601 60.78 17.9501C61.78 18.5301 61.78 19.5001 61.69 20.5401L61.82 20.7101C61.76 21.0401 61.97 21.3401 61.82 21.7101C61.98 21.9601 61.82 22.2001 61.96 22.4001C62.0137 23.0545 61.9596 23.7132 61.8 24.3501C61.8254 24.7897 61.8254 25.2305 61.8 25.6701C61.986 25.9683 62.0637 26.3214 62.02 26.6701V26.6701C62.0343 27.4885 61.964 28.3062 61.81 29.1101C61.88 29.2801 61.64 34.4201 61.31 34.9301L61.59 35.6501H61.78L61.92 35.5101H62.14L62.23 35.3701L62.02 34.8301L62.12 34.6801V34.5901L62.45 34.0401C62.35 33.7301 62.53 33.6701 62.61 33.4001C62.69 33.1301 62.55 32.8101 62.61 32.5101C62.5054 32.1113 62.445 31.7021 62.43 31.2901H62.36L62.29 31.0501C62.5115 30.6023 62.6278 30.1097 62.63 29.6101C62.38 29.3201 62.8 27.5401 62.87 27.5001C62.7393 27.063 62.7393 26.5972 62.87 26.1601C62.7518 25.3243 62.7518 24.4759 62.87 23.6401L62.81 23.5601L63.25 21.6101C63.43 21.0201 63.06 20.6501 63.17 20.3201V20.3301ZM44.67 14.7601C44.2036 14.785 43.7363 14.785 43.27 14.7601L43.19 14.6601H42.77L42.42 14.8401H42.08C41.969 14.9443 41.8222 15.0016 41.67 15.0001C41.6031 15.4974 41.5664 15.9983 41.56 16.5001L41.85 16.9401C41.91 16.8901 43.55 17.1001 43.59 17.1001C43.78 17.2901 44.84 17.1001 45.09 17.0101C45.2311 16.8419 45.309 16.6297 45.31 16.4101L45.42 16.2801C45.19 15.5501 45.85 15.1601 44.67 14.7501V14.7601ZM38.48 13.7001C38.74 13.7601 39 13.7001 39.25 13.7001L39.4 13.6101L39.66 13.6701L39.92 13.5701C39.9096 13.1977 39.9742 12.827 40.11 12.4801L40.02 12.2301H39.83L39.77 12.1301L39.23 12.0101H39.1L38.73 11.9101L38.63 12.0001H38.24L38.08 11.8901L37.83 11.9901C37.6097 11.8946 37.3661 11.8667 37.13 11.9101C36.42 13.0901 36.92 13.8501 38.24 13.8401L38.48 13.7001ZM40.16 15.2301C40.1255 15.0613 40.0292 14.9115 39.89 14.8101L39.81 14.8801H39.63L39.49 14.9601C39.1 14.8701 38.62 15.1201 38.27 14.8801C37.93 15.1601 37.44 15.0001 37.14 15.3501C37.72 16.0101 36.51 15.8001 38.25 16.7901L38.36 16.7401C38.79 16.9101 39.3 16.5701 39.71 16.7901L40.19 16.5001C40.22 16.2601 40.38 15.2701 40.16 15.2201V15.2301ZM42.51 13.6601C42.83 13.8601 43.29 13.4901 43.56 13.8401C44.06 13.7701 45.18 13.8401 45.1 13.0601C45.26 12.7301 44.87 12.4301 44.72 12.1801C43.6567 11.9526 42.5497 12.0466 41.54 12.4501C41.74 12.7001 41.73 13.1501 41.85 13.4501C42.08 13.4201 42.42 13.4601 42.51 13.6501V13.6601ZM33.3 23.3501C33.1843 23.2037 33.0222 23.1012 32.8404 23.0594C32.6586 23.0175 32.4679 23.039 32.3 23.1201L31.89 22.9901L31.47 23.0901L31.35 23.0301C31.073 23.133 30.784 23.2002 30.49 23.2301L30.17 23.7201C30.2402 24.1801 30.2164 24.6496 30.1 25.1001C30.0701 25.292 30.1129 25.4881 30.22 25.6501L30.49 25.7401L30.57 25.8901C30.9664 25.7547 31.375 25.6576 31.79 25.6001H31.9C32.2624 25.4573 32.6508 25.3926 33.04 25.4101L33.13 25.3401L33.26 24.9401C33.15 24.7601 33.35 24.5301 33.26 24.3701C33.3313 24.1732 33.3783 23.9684 33.4 23.7601C33.3128 23.6386 33.2769 23.4878 33.3 23.3401V23.3501ZM45.23 26.1701L45.33 26.0101L45.27 25.8401V25.7801C45.2003 25.5622 45.2003 25.328 45.27 25.1101L45.08 24.9201H44.42L44.26 25.0401L43.8 24.8801L43.68 25.0001H43.61L43.46 25.1401H42.98L42.43 25.5801C42.4649 25.8592 42.3935 26.1412 42.23 26.3701C42.3752 26.9071 42.3752 27.4731 42.23 28.0101C42.259 28.9895 42.1376 29.9675 41.87 30.9101L42.1 31.2601C41.9245 32.2499 41.8741 33.2578 41.95 34.2601C42.1117 34.5424 42.3772 34.7504 42.69 34.8401C43.1378 34.7582 43.5992 34.7926 44.03 34.9401L44.2 34.7101C44.3593 34.6229 44.5384 34.5782 44.72 34.5801C44.8414 34.42 45.0146 34.307 45.21 34.2601C45.391 33.9553 45.5004 33.6134 45.53 33.2601C45.3 32.8201 45.53 32.3601 45.47 31.8901L45.42 31.5501C45.54 31.3901 45.51 27.9901 45.51 27.9201C45.12 27.3101 45.45 26.6501 45.23 26.1601V26.1701ZM37.48 24.3401L37.32 24.1801L37.4 23.6701C36.84 23.0101 37.63 23.0101 36.07 23.0701L35.92 23.1701H35.73C35.6271 23.2 35.5194 23.2092 35.413 23.1972C35.3065 23.1852 35.2035 23.1522 35.11 23.1001C34.58 23.1001 34.67 23.4301 34.46 23.7801L34.55 24.0001C34.4649 24.23 34.4341 24.4764 34.46 24.7201L34.36 24.9101V25.2301C34.5897 25.3574 34.7933 25.527 34.96 25.7301C35.0196 25.703 35.0844 25.689 35.15 25.689C35.2155 25.689 35.2803 25.703 35.34 25.7301L35.47 25.6401L36 25.8001C36.2716 25.7202 36.5629 25.7416 36.82 25.8601L36.95 25.7301C37.047 25.7457 37.1463 25.7404 37.2412 25.7146C37.336 25.6887 37.4243 25.6428 37.5 25.5801V25.0301L37.48 24.3401Z" fill="url(#paint3_radial_117_69)"/>
<g opacity="0.3">
<path d="M38.2 36.3503C38.358 36.2949 38.4972 36.1961 38.6015 36.0652C38.7059 35.9343 38.7712 35.7766 38.79 35.6103C39.14 35.4203 38.79 30.6103 38.52 30.2903C38.5229 30.0353 38.5773 29.7836 38.68 29.5503C38.6133 29.3448 38.4964 29.1592 38.34 29.0103C38.3997 29.0987 38.4436 29.1968 38.47 29.3003C38.3705 29.5342 38.3194 29.786 38.32 30.0403C38.58 30.3803 38.94 35.1603 38.59 35.3603C38.573 35.526 38.5081 35.6832 38.4034 35.8128C38.2986 35.9424 38.1585 36.0388 38 36.0903H37.88L38.06 36.2903L38.2 36.3503Z" fill="#EA1C24"/>
<path d="M33.89 29.5701L34.21 29.8101H34.41L34.61 30.1001C34.6623 30.0607 34.7221 30.0323 34.7857 30.0168C34.8493 30.0014 34.9155 29.9991 34.98 30.0101L35.06 29.9101C35.1598 29.9644 35.2715 29.9928 35.385 29.9928C35.4986 29.9928 35.6103 29.9644 35.71 29.9101L36.51 30.0401C36.6315 30.1746 36.7732 30.2893 36.93 30.3801V30.3001C36.76 30.0901 36.48 30.0101 36.32 29.7801L35.52 29.6601C35.4203 29.7144 35.3086 29.7428 35.195 29.7428C35.0815 29.7428 34.9698 29.7144 34.87 29.6601L34.79 29.7601C34.661 29.7393 34.5289 29.7679 34.42 29.8401L34.18 29.5901H33.98L33.66 29.3501H33.4C33.405 29.4334 33.405 29.5168 33.4 29.6001L33.89 29.5701Z" fill="#EA1C24"/>
<path d="M42.79 6.57021C42.1217 6.59965 41.4521 6.56617 40.79 6.47021C40.41 6.47021 40.02 6.71022 39.63 6.63022L39.41 6.75022C39.1486 6.70505 38.8814 6.70505 38.62 6.75022C38.54 6.89022 38.1 6.95021 37.96 6.97021L37.87 7.34021C38.0643 7.57263 38.2446 7.81639 38.41 8.07021V8.07021C38.29 7.91021 38.18 7.74021 38.05 7.59021L38.14 7.22021C38.28 7.22021 38.72 7.14022 38.8 7.00022C39.0618 6.96013 39.3282 6.96013 39.59 7.00022L39.82 6.88022C40.2 6.96022 40.59 6.72021 40.98 6.72021C41.6224 6.81136 42.2714 6.84815 42.92 6.83021L43 6.90022C42.9441 6.78184 42.8736 6.67097 42.79 6.57021Z" fill="#EA1C24"/>
<path d="M29.51 35.0399C29.5041 35.0001 29.5041 34.9597 29.51 34.9199C29.51 34.9199 29.45 34.9199 29.42 34.9199C29.39 34.9199 29.48 34.9999 29.51 35.0399Z" fill="#EA1C24"/>
<path d="M37.47 16.2203C37.41 16.0103 37.68 15.9203 37.34 15.5403C37.64 15.1903 38.13 15.3603 38.47 15.0803C38.82 15.3203 39.3 15.0803 39.69 15.1503L39.84 15.0803H40.01L40.09 15.0203C40.0434 14.9199 39.975 14.8311 39.89 14.7603L39.81 14.8303H39.63L39.49 14.9103C39.1 14.8203 38.62 15.0703 38.27 14.8303C37.93 15.1103 37.44 14.9503 37.14 15.3003C37.61 15.8003 36.97 15.7903 37.47 16.2203Z" fill="#EA1C24"/>
<path d="M29.02 17.75L29.46 16.89C29.24 16.73 29.46 16.41 29.32 16.22L29.49 15.93C29.3615 15.0112 29.3615 14.0789 29.49 13.16L29.41 12.93L29.55 12.44C29.38 12.2 29.55 11.76 29.55 11.44L29.65 11.3C29.65 10.97 29.5 10.6 29.65 10.3C29.5804 10.1233 29.5804 9.92676 29.65 9.75004L29.4 9.29004C29.47 9.13004 29.32 8.77004 29.26 8.63004L29.12 8.54004C29.2008 8.69341 29.2289 8.86911 29.2 9.04004L29.44 9.50004C29.3916 9.68023 29.4093 9.87181 29.49 10.04C29.32 10.35 29.49 10.72 29.49 11.04L29.4 11.17C29.45 11.46 29.26 11.89 29.4 12.17L29.26 12.66L29.34 12.89C29.2061 13.8085 29.2061 14.7416 29.34 15.66L29.17 15.94C29.29 16.14 29.09 16.46 29.31 16.62L28.87 17.48C28.695 17.455 28.5314 17.3784 28.4 17.26V17.41C28.61 17.54 28.77 17.73 29.02 17.75Z" fill="#EA1C24"/>
<path d="M41.89 16.8699L41.7601 16.6899C41.7665 16.1882 41.8032 15.6873 41.87 15.1899C42.0222 15.1915 42.1691 15.1341 42.28 15.0299L42.6101 15.0999L42.96 14.9099H43.39L43.46 15.0199C43.93 15.0199 44.3901 15.0199 44.8601 15.0199C45.0397 15.0788 45.2086 15.1667 45.3601 15.2799C45.3601 15.0999 45.13 14.9399 44.66 14.7699C44.1937 14.7948 43.7264 14.7948 43.2601 14.7699L43.18 14.6699H42.7601L42.41 14.8499H42.07C41.9591 14.9541 41.8122 15.0115 41.66 15.0099C41.5932 15.5073 41.5565 16.0082 41.55 16.5099L41.84 16.9499L41.89 16.8699Z" fill="#EA1C24"/>
<path d="M37.33 12.1802C37.5661 12.1368 37.8098 12.1647 38.03 12.2602L38.29 12.1602L38.44 12.2702H38.83L38.93 12.1702L39.3 12.2702H39.44L39.97 12.3902L40.03 12.4902H40.1L40.02 12.2702H39.83L39.77 12.1702L39.23 12.0502H39.1L38.73 11.9502L38.63 12.0402H38.24L38.08 11.9302L37.83 12.0302C37.6098 11.9347 37.3661 11.9068 37.13 11.9502C36.69 12.6802 36.72 13.2502 37.13 13.5702C37.038 13.3414 37.008 13.0924 37.0431 12.8483C37.0782 12.6042 37.1772 12.3737 37.33 12.1802V12.1802Z" fill="#EA1C24"/>
<path d="M41.61 12.4103C41.81 12.6603 41.8 13.1103 41.92 13.4103H42.05C42.0235 13.1462 41.9418 12.8907 41.81 12.6603C42.8122 12.2564 43.911 12.1556 44.97 12.3703L44.76 12.1003C43.7024 11.8916 42.6066 11.9994 41.61 12.4103V12.4103Z" fill="#EA1C24"/>
<path d="M45.03 6.41992C44.9831 7.08692 45.0032 7.75694 45.09 8.41992L44.79 8.79992C44.34 8.84992 44 8.79992 43.61 9.03992C43.37 8.78992 43.42 9.03992 43.16 8.94992L43.03 9.09992C42.77 9.04992 42.45 9.16992 42.23 8.98992L42.14 9.06992H41.85L41.76 9.16992C41.57 9.16992 40.91 9.33992 40.76 9.16992C40.54 9.38992 40.05 9.36992 39.76 9.36992L39.65 9.45992L39.44 9.34992C38.98 9.44992 38.52 9.41992 38.05 9.47992L37.87 9.36992L37.5 9.46992C37.2983 9.36498 37.0769 9.30365 36.85 9.28992L36.61 8.89992L37.13 9.43992C37.3571 9.45212 37.5789 9.51354 37.78 9.61992L38.15 9.52992L38.34 9.62992C38.8 9.56992 39.26 9.62992 39.72 9.50992L39.94 9.60992L40.04 9.52992C40.33 9.52992 40.83 9.52992 41.04 9.31992C41.17 9.48992 41.82 9.31992 42.04 9.31992L42.13 9.21992H42.42L42.51 9.14992C42.73 9.31992 43.05 9.19992 43.31 9.24992L43.45 9.17992C43.7 9.25992 43.66 9.01992 43.89 9.26992C44.28 8.99992 44.62 9.07992 45.08 9.02992L45.37 8.64992C45.2797 7.9604 45.2596 7.2635 45.31 6.56992L45.03 6.41992Z" fill="#EA1C24"/>
<path d="M29.48 7.93025C29.7138 7.84688 29.9646 7.82283 30.21 7.86025C30.3593 7.9842 30.524 8.08839 30.7 8.17025C30.7 8.17025 30.7 8.10025 30.7 8.06025C30.5 7.86025 30.22 7.80025 30.03 7.61025C29.7853 7.57461 29.5356 7.59513 29.3 7.67025C29.0838 7.51156 28.8527 7.37425 28.61 7.26025C28.6256 7.32618 28.6491 7.38997 28.68 7.45025C28.9713 7.56506 29.2416 7.72725 29.48 7.93025V7.93025Z" fill="#EA1C24"/>
<path d="M41.94 34.1001C41.9973 34.1905 42.0644 34.2743 42.14 34.3501C42.0641 33.3477 42.1145 32.3398 42.29 31.3501L42.06 31.1001C42.3282 30.1576 42.4496 29.1795 42.42 28.2001C42.5649 27.6664 42.5649 27.1037 42.42 26.5701C42.5818 26.3363 42.6561 26.0531 42.63 25.7701L43.17 25.3401H43.65L43.81 25.1901H43.89L44.01 25.0701L44.47 25.2301L44.61 25.1001H45.23C45.23 25.1001 45.23 25.1001 45.23 25.0401L45.04 24.8501H44.38L44.22 24.9701L43.76 24.8101L43.64 24.9301H43.61L43.46 25.0701H42.98L42.43 25.5101C42.4649 25.7892 42.3935 26.0712 42.23 26.3001C42.3753 26.8371 42.3753 27.403 42.23 27.9401C42.259 28.9194 42.1376 29.8975 41.87 30.8401L42.1 31.1901C41.9286 32.15 41.8749 33.1272 41.94 34.1001V34.1001Z" fill="#EA1C24"/>
<path d="M42.21 21.8001C42.1691 21.7237 42.1065 21.6611 42.03 21.6201C42.0974 21.95 42.0974 22.2902 42.03 22.6201L42.26 23.0301L42.36 23.0901L42.24 22.8701C42.3121 22.5159 42.3019 22.1498 42.21 21.8001V21.8001Z" fill="#EA1C24"/>
<path d="M39.09 23.4899V23.1799L38.94 23.0999L39.01 22.6299C38.9619 22.5333 38.8937 22.4481 38.81 22.3799L38.74 22.8499L38.88 22.9599V23.2699C38.9214 23.3006 38.955 23.3405 38.9782 23.3866C39.0013 23.4326 39.0134 23.4834 39.0134 23.5349C39.0134 23.5864 39.0013 23.6372 38.9782 23.6832C38.955 23.7292 38.9214 23.7692 38.88 23.7999C38.71 24.2999 38.95 25.8999 38.65 26.0799C38.6651 26.1793 38.6651 26.2805 38.65 26.3799L38.5 26.4999V26.5699L38.11 27.0199C37.88 27.0199 37.55 27.1099 37.36 26.9299C36.9048 26.9701 36.446 26.9397 36 26.8399V26.8399C35.636 26.8682 35.2699 26.8514 34.91 26.7899L34.23 27.4899V27.8599L34.17 27.9799L34.32 28.4999L34.46 28.5599L34.37 28.2299L34.44 28.1199V27.7499L35.11 27.0399C35.4699 27.1014 35.836 27.1182 36.2 27.0899C36.646 27.1897 37.1048 27.2201 37.56 27.1799C37.75 27.3699 38.08 27.2299 38.32 27.2799L38.71 26.8199V26.7499L38.86 26.6299C38.8751 26.5305 38.8751 26.4293 38.86 26.3299C39.16 26.1499 38.92 24.5499 39.09 24.0499C39.1376 24.0202 39.1768 23.979 39.204 23.93C39.2311 23.881 39.2454 23.8259 39.2454 23.7699C39.2454 23.7139 39.2311 23.6588 39.204 23.6098C39.1768 23.5608 39.1376 23.5195 39.09 23.4899V23.4899Z" fill="#EA1C24"/>
<path d="M46.8901 25.6299C46.7961 25.5014 46.7406 25.3488 46.7301 25.1899C46.6576 24.1198 46.4869 23.0587 46.2201 22.0199L46.0501 21.8999C46.3016 22.8831 46.4623 23.8873 46.5301 24.8999C46.5358 25.0598 46.5917 25.2137 46.6901 25.3399C46.6301 25.6499 46.8501 25.9999 46.6301 26.2799C46.7901 26.5899 46.4601 26.9399 46.6301 27.2799L46.6101 28.4599H46.5601L46.6301 28.8499L46.5701 29.0199C46.6801 29.3099 46.5201 29.6499 46.5701 29.9599C46.3401 30.2599 46.5701 30.6899 46.5701 31.0299L46.4901 31.1399C46.5801 31.5799 46.7901 32.5199 46.4901 32.8599L46.5801 33.0199C46.5525 33.2391 46.5765 33.4616 46.6501 33.6699C46.58 34.2645 46.58 34.8653 46.6501 35.4599L46.2801 35.9599L45.9201 36.0699C45.8183 36.0301 45.7082 36.0165 45.5998 36.0305C45.4914 36.0445 45.3883 36.0855 45.3001 36.1499C44.0301 36.5299 42.7201 36.0099 41.4301 35.9899C41.4441 36.0785 41.4821 36.1615 41.5401 36.2299C42.8601 36.2299 44.2001 36.7899 45.5401 36.3999C45.6284 36.3354 45.7321 36.295 45.8408 36.2828C45.9495 36.2705 46.0595 36.2867 46.1601 36.3299L46.5201 36.2099L46.8901 35.7099C46.82 35.1186 46.82 34.5212 46.8901 33.9299C46.8171 33.718 46.7931 33.4924 46.8201 33.2699L46.6101 33.1499C46.9401 32.8099 46.7301 31.8699 46.6101 31.4299L46.6901 31.3199C46.6901 30.9799 46.4601 30.5599 46.6901 30.2499C46.6901 29.9399 46.8101 29.6099 46.6901 29.3099L46.7501 29.1399L46.6801 28.7499L46.7701 27.6199C46.5701 27.2699 46.9001 26.9199 46.7701 26.6199C47.0501 26.2899 46.8401 25.9399 46.8901 25.6299Z" fill="#EA1C24"/>
<path d="M45.99 11.4003L45.86 11.3403C46.2283 12.2519 46.5226 13.1916 46.74 14.1503C46.63 14.3803 46.67 14.6503 46.5 14.8503C46.65 15.3003 46.32 15.6903 46.44 16.1703C46.3897 16.4286 46.2802 16.6716 46.12 16.8803C46.24 17.3603 45.9 17.5303 45.7 17.8803C45.537 17.9734 45.3546 18.0273 45.1671 18.0377C44.9797 18.0481 44.7924 18.0148 44.62 17.9403L44.13 18.1003C43.516 18.0203 42.8941 18.0203 42.28 18.1003C42.13 18.3003 41.43 18.1603 41.22 18.1003L40.77 18.2903C40.4832 18.1708 40.1796 18.0966 39.87 18.0703L39.71 18.1803L39.42 18.0603L39.35 18.1203H39.11L38.93 18.0003C38.64 18.0003 38.27 18.0003 38.02 18.1303C37.7682 18.121 37.5246 18.0375 37.32 17.8903C37.2576 17.9325 37.186 17.9591 37.1111 17.9678C37.0363 17.9765 36.9605 17.9671 36.89 17.9403C36.8226 18.0366 36.7255 18.1083 36.6136 18.1444C36.5017 18.1805 36.3811 18.179 36.27 18.1403V18.0903H35.99C35.99 17.9703 35.83 17.9103 35.72 17.8503C35.61 17.7903 35.72 17.9103 35.72 17.9303C35.72 17.9503 36.12 18.1303 36.18 18.3403H36.46V18.3903C36.5724 18.4315 36.6952 18.4342 36.8092 18.398C36.9232 18.3618 37.022 18.2887 37.09 18.1903C37.1605 18.2171 37.2363 18.2265 37.3111 18.2178C37.386 18.2091 37.4576 18.1825 37.52 18.1403C37.721 18.2873 37.9613 18.3708 38.21 18.3803C38.4972 18.2596 38.8114 18.2182 39.12 18.2603L39.3 18.3703H39.54L39.61 18.3103L39.91 18.4303L40.06 18.3203C40.3678 18.3569 40.6701 18.4308 40.96 18.5403L41.42 18.3503C41.62 18.4303 42.32 18.5703 42.42 18.3503C43.0344 18.2753 43.6556 18.2753 44.27 18.3503L44.76 18.2003C44.9441 18.2765 45.1438 18.3071 45.3423 18.2897C45.5407 18.2723 45.732 18.2073 45.9 18.1003C46.11 17.7403 46.44 17.5703 46.32 17.1003C46.4802 16.8916 46.5897 16.6486 46.64 16.3903C46.52 15.9203 46.85 15.5203 46.7 15.0803C46.87 14.8703 46.83 14.6003 46.95 14.3703C46.7088 13.3566 46.3878 12.3635 45.99 11.4003V11.4003Z" fill="#EA1C24"/>
<path d="M34.38 19.6401C34.497 20.0771 34.5542 20.5278 34.55 20.9801C34.6132 21.039 34.6838 21.0894 34.76 21.1301C34.7567 20.6207 34.6619 20.116 34.48 19.6401H34.38Z" fill="#EA1C24"/>
<path d="M34.61 6.37988L34.24 6.82988H33.9V6.88988C33.72 7.02988 33.54 6.99988 33.34 7.03988C32.89 7.11988 32.51 7.42988 32.05 7.50988L31.78 7.88988C31.9789 8.68819 32.083 9.50719 32.09 10.3299L31.97 10.5399L32.06 10.7299V10.9299L32.11 11.0199L32.03 11.3399L32.11 11.4999L32.05 11.9999H31.86L31.91 12.3999C31.47 13.0399 31.91 16.4799 31.66 16.6799C31.658 16.8902 31.5798 17.0927 31.44 17.2499H31.35L31.18 17.3199V17.5399C31.0786 17.5685 30.9713 17.5685 30.87 17.5399V17.6699C30.934 17.7304 31.0094 17.7775 31.0918 17.8084C31.1742 17.8393 31.262 17.8534 31.35 17.8499V17.5999L31.52 17.5299H31.62C31.71 17.4099 31.88 17.1299 31.83 16.9699C32.13 16.7599 31.64 13.3199 32.08 12.6899L32.03 12.2899H32.22L32.28 11.7799L32.2 11.6199L32.28 11.2999L32.23 11.2099V11.0099L32.14 10.8199L32.26 10.6099C32.253 9.78719 32.1489 8.96819 31.95 8.16988L32.22 7.78988C32.68 7.70988 33.06 7.39988 33.51 7.31988C33.71 7.31988 33.9 7.31988 34.07 7.17988V7.09988H34.41L34.81 6.62988C34.7691 6.52886 34.6996 6.44198 34.61 6.37988V6.37988Z" fill="#EA1C24"/>
<path d="M34.36 24.86V25.18L34.56 25.31V25.1L34.66 24.92C34.6325 24.6721 34.6669 24.4213 34.76 24.19L34.66 23.97C34.87 23.62 34.78 23.3 35.31 23.29C35.43 23.43 35.72 23.43 35.88 23.42H35.94H36.12L36.27 23.33C36.5731 23.3125 36.8769 23.3125 37.18 23.33C37.08 23.04 37.26 23.05 36.07 23.09L35.92 23.19H35.73C35.6258 23.2169 35.5174 23.2228 35.4109 23.2074C35.3045 23.1919 35.2022 23.1554 35.11 23.1C34.58 23.1 34.67 23.43 34.46 23.78L34.55 24C34.4649 24.2298 34.4341 24.4763 34.46 24.72L34.36 24.86Z" fill="#EA1C24"/>
<path d="M30.25 25.6802H30.36C30.326 25.5694 30.326 25.451 30.36 25.3402V25.3402C30.4895 24.889 30.5302 24.4169 30.48 23.9502L30.79 23.4602C31.087 23.4292 31.3792 23.362 31.66 23.2602L31.77 23.3302L32.19 23.2202L32.6 23.3502C32.7165 23.2898 32.8477 23.2634 32.9786 23.274C33.1094 23.2846 33.2347 23.3318 33.34 23.4102C33.34 23.4102 33.34 23.3502 33.34 23.3302C33.2243 23.1838 33.0622 23.0813 32.8804 23.0395C32.6986 22.9977 32.508 23.0191 32.34 23.1002L31.93 22.9702L31.51 23.0702L31.39 23.0102C31.113 23.1131 30.824 23.1803 30.53 23.2102L30.21 23.7002C30.27 24.1695 30.2325 24.6461 30.1 25.1002C30.0855 25.202 30.0913 25.3057 30.1171 25.4052C30.1428 25.5047 30.188 25.5982 30.25 25.6802V25.6802Z" fill="#EA1C24"/>
<path d="M33.98 9.59033H33.89C33.99 9.98033 33.89 10.4903 34.19 10.7203C34.13 11.6403 34.58 14.8503 34.13 15.6403C34.49 16.0303 34.32 17.5603 33.64 17.4803L33.48 17.3903C33.48 17.4903 33.4 17.4803 33.34 17.3903C33.45 17.5603 33.64 17.8103 33.68 17.6003L33.84 17.6903C34.52 17.7703 34.69 16.2503 34.33 15.8503C34.78 15.0603 34.33 11.8503 34.4 10.9303C34.04 10.7003 34.26 9.98033 33.98 9.59033Z" fill="#EA1C24"/>
<path d="M34.84 3.61021L34.61 3.70021V3.80022L34.49 3.95021C34.3558 3.87657 34.1991 3.8552 34.05 3.89021L33.91 4.02022C33.4862 4.13563 33.0493 4.19612 32.61 4.20021L32.54 4.27022C31.73 4.40022 30.12 4.89021 29.27 4.34021V4.46022C30.05 5.24022 31.87 4.67022 32.74 4.52022L32.82 4.46022C33.2493 4.44597 33.6754 4.38221 34.09 4.27022L34.2 4.10021C34.3442 4.08458 34.4893 4.11996 34.61 4.20021L34.77 4.10021V3.95021L35.04 3.86021L35.11 3.37021L34.9 3.22021L34.84 3.61021Z" fill="#EA1C24"/>
<path d="M61.94 9.66016L62.04 9.92016L61.91 10.3402C61.4945 10.4552 61.0555 10.4552 60.64 10.3402C60.5887 10.3851 60.5277 10.4176 60.4618 10.4349C60.3958 10.4523 60.3267 10.4541 60.26 10.4402L60.17 10.3802C59.4357 10.6677 58.6365 10.7472 57.86 10.6102C57.0938 10.6502 56.3261 10.6502 55.56 10.6102L55.48 10.6702C55.1446 10.657 54.8089 10.6838 54.48 10.7502L54.22 11.1902L54.41 12.0902C54.46 12.1402 54.53 12.1802 54.59 12.2302L54.42 11.4402L54.68 11.0002C55.0091 10.9347 55.3447 10.9078 55.68 10.9202L55.76 10.8602C56.526 10.9052 57.294 10.9052 58.06 10.8602C58.8365 10.9978 59.6359 10.9182 60.37 10.6302L60.46 10.6902C60.5267 10.7041 60.5958 10.7023 60.6618 10.6849C60.7277 10.6676 60.7887 10.6351 60.84 10.5902C61.2555 10.7052 61.6945 10.7052 62.11 10.5902L62.24 10.1702L62.07 9.72016C62.0232 9.70857 61.9791 9.68821 61.94 9.66016V9.66016Z" fill="#EA1C24"/>
<path d="M60.4999 3.89998C60.441 3.9728 60.3565 4.02052 60.2637 4.03351C60.1709 4.0465 60.0767 4.0238 59.9999 3.96998C59.1969 4.12038 58.373 4.12038 57.5699 3.96998L57.4299 4.09998C56.9477 4.05467 56.4622 4.05467 55.9799 4.09998L55.7199 3.96998L55.6099 4.09998H55.4199L54.9199 3.86998L54.7199 3.97998L54.4899 3.88998C54.2579 4.02728 54.043 4.19178 53.8499 4.37998V4.67998C53.7247 4.81226 53.6476 4.9829 53.6313 5.16435C53.615 5.3458 53.6603 5.52746 53.7599 5.67998H53.8799C53.8333 5.55184 53.8245 5.41297 53.8546 5.27997C53.8848 5.14697 53.9526 5.02546 54.0499 4.92998V4.62998C54.2456 4.44482 54.4601 4.28059 54.6899 4.13998L54.9199 4.22998L55.1199 4.11998L55.6199 4.34998H55.8099L55.8799 4.26998L56.1399 4.39998C56.6263 4.32673 57.1185 4.29994 57.6099 4.31998L57.7499 4.22998C58.5525 4.38541 59.3774 4.38541 60.1799 4.22998C60.259 4.28224 60.3543 4.30396 60.4481 4.29108C60.542 4.2782 60.6279 4.2316 60.6899 4.15998C61.0799 4.32998 61.9899 4.27998 62.0299 3.70998L61.8199 3.47998C61.7799 4.00998 60.8899 4.09998 60.4999 3.89998Z" fill="#EA1C24"/>
<path d="M54.01 8.6999L54.15 8.8399V9.0499L54.29 9.2099H54.35V9.0799L54.21 8.9399C54.31 7.8399 53.87 8.0499 54.73 7.2799C54.9898 7.34012 55.2601 7.34012 55.52 7.2799C55.7 7.4599 56.06 7.2799 56.28 7.3999C56.6173 7.44097 56.9596 7.40331 57.28 7.2899C57.42 7.5299 58.85 7.3799 59.07 7.2899C59.67 7.5799 60.22 7.3699 60.85 7.4199L60.96 7.3399H61.2L61.62 7.0699V6.9699L61.46 6.6499H61.36L61.42 6.7599V6.8499L61 7.1299L60.81 7.0999L60.7 7.1799C60.07 7.1799 59.52 7.3399 58.92 7.0499C58.7 7.0499 57.27 7.2399 57.13 7.0499C56.7941 7.17125 56.4337 7.209 56.08 7.1599C55.85 7.0099 55.5 7.2199 55.32 7.0399C55.0595 7.09496 54.7904 7.09496 54.53 7.0399C53.67 7.8099 54.11 7.5999 54.01 8.6999Z" fill="#EA1C24"/>
<path d="M62.6099 13.3303V13.5103L61.7199 13.8303H61.6299C61.4285 13.9175 61.2055 13.9419 60.9899 13.9003L60.7399 14.0103L60.4299 13.8803L60.0999 14.0003C60.0063 13.9666 59.905 13.96 59.8077 13.9812C59.7104 14.0025 59.6211 14.0507 59.5499 14.1203C58.1299 13.8003 57.0799 14.4003 55.3699 13.7403L55.0499 13.8703L54.7499 13.7503L54.6499 13.8503C54.4055 13.877 54.1581 13.8467 53.9273 13.7617C53.6965 13.6767 53.4886 13.5393 53.3199 13.3603C53.4813 13.6157 53.7114 13.8206 53.9837 13.9514C54.256 14.0823 54.5597 14.1339 54.8599 14.1003L54.9499 14.0003L55.2499 14.1203L55.5699 13.9903C57.2799 14.6503 58.3299 14.0503 59.7499 14.3703C59.8208 14.3002 59.9107 14.2524 60.0085 14.2329C60.1062 14.2133 60.2076 14.2229 60.2999 14.2603L60.6099 14.1003L60.9199 14.2303L61.1699 14.1203C61.3804 14.1785 61.6035 14.1715 61.8099 14.1003H61.9099L62.7899 13.7803V13.6003L62.5899 13.3003L62.6099 13.3303Z" fill="#EA1C24"/>
<path d="M61.35 3.12012L61.47 3.20012L61.45 3.13012L61.35 3.12012Z" fill="#EA1C24"/>
<path d="M64.88 17.7202V17.7802C64.8766 17.7604 64.8766 17.7401 64.88 17.7202V17.7202Z" fill="#EA1C24"/>
<path d="M28.05 36.8099L27.86 36.6299V36.8899L28.05 36.9899V36.8099Z" fill="#EA1C24"/>
<path d="M61.39 18.4399C61.2398 18.207 61.0379 18.0119 60.8 17.8699C60.65 17.7799 59.8 17.8699 59.6 17.6199L59.46 17.7199H59.12L59.05 17.6099C58.7227 17.7018 58.3882 17.7654 58.05 17.7999L57.94 18.0499L57.63 18.1799L57.36 18.6499C57.4248 18.8991 57.4248 19.1607 57.36 19.4099L57.43 19.5899C57.29 19.8299 57.53 20.3199 57.28 20.6899L57.38 20.7999C57.38 21.6799 57.45 22.5699 57.38 23.4399C57.58 23.6999 57.3 24.1999 57.47 24.4999C57.27 24.8999 57.47 26.1999 57.25 26.4099C57.33 27.6099 57.04 28.7999 57.19 29.9999C56.8 30.3399 57.36 31.7899 56.46 32.5599H56.36C56.36 32.7199 56.48 32.8399 56.66 32.8399C57.56 32.0599 57.01 30.6199 57.39 30.2699C57.24 29.0699 57.53 27.8799 57.45 26.6799C57.7 26.4799 57.45 25.1699 57.67 24.7699C57.5 24.4699 57.78 23.9799 57.59 23.7099C57.59 22.8399 57.59 21.9499 57.54 21.0799L57.44 20.9599C57.69 20.5899 57.44 20.0999 57.59 19.8699L57.52 19.6799C57.5998 19.4348 57.6203 19.1744 57.58 18.9199L57.84 18.4499L58.15 18.3199L58.26 18.0699C58.5985 18.0435 58.9335 17.9832 59.26 17.8899L59.33 17.9899H59.67L59.81 17.8899C60.02 18.1499 60.86 18.0499 61.01 18.1399C61.1475 18.2252 61.275 18.3259 61.39 18.4399V18.4399Z" fill="#EA1C24"/>
<path d="M27.8 36.3503C27.5583 35.5839 27.4401 34.7839 27.45 33.9803L27.4 33.9203C27.4 33.7903 27.32 33.3603 27.4 33.2603L27.34 33.1003C27.4496 32.8276 27.4496 32.5231 27.34 32.2503C27.3718 31.702 27.3416 31.1519 27.25 30.6103L27.09 30.4003C27.28 30.0903 27 29.4503 27.14 29.0303L27 28.5203L27.1 28.2003C26.98 27.8803 27.1 27.5103 26.94 27.2003L27.21 26.8703C27.07 26.5703 27.13 26.2203 27 25.9203C27.24 25.7803 27.11 24.5303 27.25 24.2103C26.97 23.6403 27.37 22.8803 27.25 22.5003V22.4003C27.11 21.8603 27.33 20.2503 27.19 19.9903H27.28C27.2986 19.6597 27.4019 19.3395 27.58 19.0603L27.42 18.8403H27.35C27.193 19.1058 27.0973 19.4031 27.07 19.7103H26.99C27.13 19.9703 26.9 21.5703 27.05 22.1203V22.2203C27.21 22.6003 26.81 23.3603 27.05 23.9203C26.91 24.2403 27.05 25.5003 26.8 25.6403C26.93 25.9403 26.86 26.2903 27.01 26.5903L26.74 26.9203C26.9 27.2303 26.74 27.6003 26.9 27.9203L26.8 28.2303L26.94 28.7503C26.8 29.1703 27.08 29.8103 26.89 30.1203L27.05 30.3303C27.1418 30.8718 27.172 31.422 27.14 31.9703C27.2496 32.2431 27.2496 32.5476 27.14 32.8203L27.23 33.0303C27.12 33.1203 27.23 33.5603 27.23 33.6903L27.28 33.7503C27.33 34.2103 27.35 35.8403 27.63 36.1103V36.3703L27.82 36.5503L27.8 36.3503Z" fill="#EA1C24"/>
<path d="M27.04 17.5401V17.7401L27.12 17.8301L27.03 18.3101L26.88 18.4001L27.11 18.6101L27.24 18.5601L27.33 18.0801L27.24 17.9901V17.8001C26.9 17.4701 27.18 16.8801 26.87 16.5401C26.9351 15.4944 26.9351 14.4458 26.87 13.4001C26.87 13.1501 26.87 12.1901 27.06 12.0101C27.001 11.8579 26.9802 11.6935 26.9994 11.5314C27.0186 11.3693 27.0771 11.2144 27.17 11.0801L27.02 10.9401C27.0793 10.7323 27.0541 10.5095 26.95 10.3201C27.31 9.6501 26.95 7.9401 27.31 7.1501C27.18 7.0801 27.13 6.5701 27.1 6.4401C27.31 5.7401 26.91 4.7301 27.2 4.1101L27.14 3.8601C27.2443 3.53373 27.3212 3.19924 27.37 2.8601C27.58 2.7601 27.92 2.2101 28.08 2.0101C28.5 1.5001 29.71 1.5801 30.25 1.1701C30.42 1.1701 31.09 1.2901 31.19 1.1701H31.55C31.91 0.890098 32.07 1.2301 32.61 0.830098V0.760098L32.8 0.690098C32.95 0.830098 33.37 1.1301 33.55 0.910098C34.1248 0.845364 34.7051 0.845364 35.28 0.910098C35.91 0.720098 38.21 0.740098 38.42 0.510098L39.42 0.690098C39.67 0.560098 39.94 0.810098 40.17 0.690098H40.23C40.7194 0.697978 41.2074 0.637391 41.68 0.510098C42.9387 0.648317 44.2076 0.668405 45.47 0.570098C45.67 0.644409 45.89 0.644409 46.09 0.570098C46.59 0.760098 47.7 0.570098 48.09 0.760098C48.38 0.490098 50.09 0.850098 50.55 0.410098C50.8036 0.477329 51.0729 0.452529 51.31 0.340098L51.62 0.440098L51.75 0.310098C51.94 0.700098 53.61 0.510098 53.81 0.520098C53.87 0.310098 53.94 0.470098 53.94 0.520098C54.23 0.610098 54.54 0.520098 54.81 0.600098L54.99 0.530098C55.4155 0.635801 55.8516 0.692833 56.29 0.700098L56.4 0.570098L56.96 0.730098L57.34 0.630098L57.48 0.740098H57.99L58.05 0.650098C58.6939 0.862999 59.3775 0.927944 60.05 0.840098L60.76 1.0101L60.91 0.910098L61.3 0.990098L61.54 0.880098L61.92 1.0701H62.16C62.4246 1.3369 62.7842 1.48793 63.16 1.4901C63.5098 1.73907 63.8438 2.0096 64.16 2.3001C63.8251 1.89754 63.4384 1.54111 63.01 1.2401C62.6351 1.2337 62.277 1.08331 62.01 0.820098H61.76L61.38 0.620098L61.15 0.740098L60.71 0.650098L60.61 0.740098L59.86 0.570098C59.1875 0.657944 58.5039 0.592999 57.86 0.380098L57.8 0.470098H57.29L57.14 0.380098L56.76 0.480098L56.19 0.320098L56.09 0.450098C55.648 0.470633 55.2051 0.440436 54.77 0.360098L54.61 0.430098C54.34 0.320098 54.02 0.430098 53.74 0.350098C53.74 0.260098 53.67 0.100098 53.61 0.350098C53.41 0.350098 51.74 0.520098 51.55 0.140098L51.42 0.270098L51.08 0.100098C50.8431 0.213385 50.5736 0.238214 50.32 0.170098C49.9 0.610098 48.16 0.240098 47.87 0.520098C47.5 0.320098 46.39 0.520098 45.87 0.330098C45.67 0.404409 45.45 0.404409 45.25 0.330098C43.9937 0.425159 42.7311 0.398367 41.48 0.250098C41.0159 0.38716 40.5339 0.454561 40.05 0.450098H39.99C39.76 0.610098 39.48 0.360098 39.24 0.450098L38.24 0.260098C38.03 0.500098 35.73 0.480098 35.09 0.630098C34.5146 0.5754 33.9354 0.5754 33.36 0.630098C33.17 0.850098 32.76 0.560098 32.6 0.420098L32.42 0.490098V0.600098C31.88 1.0001 31.71 0.660098 31.36 0.940098H31C30.9 1.0901 30.23 1.0101 30.06 0.940098C29.52 1.3401 28.31 1.2701 27.88 1.7801C27.73 1.9701 27.38 2.5301 27.18 2.6201C27.132 2.95939 27.0551 3.29394 26.95 3.6201L27.01 3.8701C26.72 4.4901 27.12 5.5001 26.91 6.2001C26.91 6.3301 26.99 6.8401 27.11 6.9001C26.78 7.7001 27.11 9.4101 26.76 10.0701C26.8627 10.2635 26.8877 10.4888 26.83 10.7001L26.98 10.8401C26.8871 10.9744 26.8286 11.1293 26.8094 11.2914C26.7902 11.4535 26.811 11.6179 26.87 11.7701C26.64 11.9501 26.65 12.9101 26.67 13.1601C26.7451 14.2054 26.7451 15.2548 26.67 16.3001C26.98 16.6301 26.7 17.2101 27.04 17.5401Z" fill="#EA1C24"/>
<path d="M49.88 11.43L49.99 11.5C49.9861 11.4468 49.9861 11.3933 49.99 11.34L49.71 11.18C49.32 11.18 48.93 11.18 48.55 11.18C48.3475 11.0744 48.1593 10.9434 47.99 10.79V10.86C48.2277 11.0816 48.4893 11.2762 48.77 11.44C49.11 11.43 49.49 11.47 49.88 11.43Z" fill="#EA1C24"/>
<path d="M45.2001 3.26023C45.1301 3.47023 45.2001 3.72023 45.0201 3.91023C44.5201 4.14023 41.1 4.46023 40.64 4.06023H40.4201C39.7462 3.92074 39.0566 3.87364 38.37 3.92023L38.2701 3.86023C38.0503 3.87522 37.8298 3.87522 37.6101 3.86023L37.4401 3.96023H37.2701L37.09 4.10023H36.8C36.8445 4.17044 36.875 4.24852 36.89 4.33023H37.2901L37.5 4.22023H37.6701L37.84 4.12023C38.0596 4.14022 38.2805 4.14022 38.5 4.12023L38.6001 4.18023C39.2899 4.13409 39.9828 4.18118 40.66 4.32023H40.87C41.33 4.72023 44.75 4.40023 45.25 4.17023C45.39 3.98023 45.36 3.74023 45.43 3.52023L45.2001 3.24023V3.26023Z" fill="#EA1C24"/>
<path d="M49.8401 4.27004L50.0001 4.47004L49.6101 4.02004C49.1214 4.07155 48.6279 3.99217 48.1801 3.79004C48.1801 3.79004 48.1801 3.85004 48.1801 3.88004C48.6625 4.21889 49.2571 4.35858 49.8401 4.27004V4.27004Z" fill="#EA1C24"/>
<path d="M29.9 35.5602C29.9974 35.6309 30.1146 35.669 30.235 35.669C30.3553 35.669 30.4726 35.6309 30.57 35.5602V35.3302H30.64V34.9302L30.72 34.8602L30.61 34.3002L30.46 34.2102C30.3428 33.5503 30.2958 32.8799 30.32 32.2102L30.24 32.0402V31.8202L30.14 31.5802C30.22 31.3434 30.22 31.0869 30.14 30.8502C30.27 30.2775 30.27 29.6829 30.14 29.1102C30.14 29.0302 30.14 28.7202 30.22 28.6702C30.1448 28.4704 30.1448 28.25 30.22 28.0502L30.55 27.6202C31.38 27.4402 31.73 26.9802 32.71 27.2302L32.94 27.4402H33.06L32.93 27.1002H32.74L32.51 26.8902C31.51 26.6402 31.18 27.0902 30.35 27.2802L30.02 27.7102C29.9399 27.9091 29.9399 28.1313 30.02 28.3302C29.96 28.3302 29.95 28.6902 29.94 28.7702C30.0698 29.3395 30.0698 29.9308 29.94 30.5002C30.0147 30.7412 30.0147 30.9992 29.94 31.2402L30.04 31.4802V31.6902L30.12 31.8702C30.0926 32.5566 30.1396 33.2439 30.26 33.9202L30.41 34.0102L30.48 34.6002L30.4 34.6702V35.0702H30.33V35.3002C30.2325 35.366 30.1176 35.4011 30 35.4011C29.8824 35.4011 29.7675 35.366 29.67 35.3002C29.72 35.4602 29.76 35.6302 29.9 35.5602Z" fill="#EA1C24"/>
<path d="M51.3899 11.4303C51.4799 11.3703 51.4499 11.0303 51.3899 10.9303L51.1299 10.5703L51.2099 10.6903C51.2099 10.7903 51.2099 11.1203 51.1599 11.1903C51.278 11.7233 51.3516 12.2652 51.3799 12.8103C51.2599 13.0403 51.2999 13.3103 51.1999 13.5403C51.1906 13.8201 51.249 14.0979 51.3699 14.3503C51.2699 14.8603 51.4799 15.9203 51.3699 16.2703C51.54 17.2396 51.54 18.231 51.3699 19.2003L51.6499 20.2703L51.5299 20.6203L51.5999 20.9403L51.4599 21.1903L51.6099 21.4103V21.9603H51.5199L51.6199 22.2103C51.5449 22.4717 51.5449 22.7489 51.6199 23.0103C51.8148 24.1621 51.8148 25.3385 51.6199 26.4903L51.6999 26.8103L51.6399 26.9303C51.6999 27.2103 51.5799 27.5103 51.7099 27.7703V28.2603L51.5999 28.3503C51.6746 28.5943 51.6781 28.8545 51.6099 29.1003L51.7099 29.2603C51.7099 29.6103 51.5999 33.0803 51.7099 33.5803C51.6109 33.7709 51.5758 33.9883 51.6099 34.2003L51.6899 34.3503C51.6349 34.5725 51.6146 34.8019 51.6299 35.0303C51.4199 35.2503 51.3699 35.5803 51.1799 35.8203C50.5501 35.7362 49.9154 35.6928 49.2799 35.6903L49.1399 35.5803C48.8799 35.6303 48.6099 35.5003 48.3599 35.5803L48.0699 35.3803C48.0796 35.426 48.0965 35.4699 48.1199 35.5103L48.5599 35.8303C48.8099 35.7403 49.0799 35.8303 49.3399 35.8303L49.4799 35.9503C50.1154 35.9441 50.7504 35.9842 51.3799 36.0703C51.5699 35.8303 51.6199 35.5003 51.8299 35.2803C51.8146 35.0519 51.8348 34.8225 51.8899 34.6003L51.8099 34.4503C51.7758 34.2383 51.8109 34.0209 51.9099 33.8303C51.8199 33.3303 51.9099 29.8303 51.9099 29.5103L51.8099 29.3503C51.8654 29.1033 51.8444 28.8452 51.7499 28.6103L51.8599 28.5203V28.0303C51.7299 27.7703 51.8599 27.4703 51.7899 27.1903L51.8499 27.0703L51.7699 26.7503C51.9648 25.5985 51.9648 24.4221 51.7699 23.2703C51.6999 23.0082 51.6999 22.7324 51.7699 22.4703L51.6699 22.2203H51.7599V21.6703L51.6099 21.4503L51.7499 21.2003L51.6799 20.8803L51.7999 20.5303L51.6099 19.4503C51.7799 18.4777 51.7799 17.4829 51.6099 16.5103C51.7399 16.1603 51.5299 15.1003 51.6099 14.5903C51.4878 14.3383 51.4294 14.0602 51.4399 13.7803C51.5399 13.5503 51.4999 13.2803 51.6199 13.0503C51.5883 12.5049 51.5114 11.963 51.3899 11.4303V11.4303Z" fill="#EA1C24"/>
<path d="M49.03 34.3302C49.0063 34.2957 48.9861 34.2588 48.97 34.2202C48.9831 33.6938 49.0707 33.172 49.23 32.6702C49.23 32.4302 49.3 32.1902 49.23 31.9602V31.8502C49 31.3102 49.23 30.8502 49.12 30.3102L49.24 30.0302C49.12 29.7502 49.33 29.4302 49.13 29.1702C49.2752 28.3969 49.2752 27.6034 49.13 26.8302C49.2996 26.0156 49.2996 25.1748 49.13 24.3602C49.26 24.2602 49.06 20.6102 49.22 20.4902C49.16 20.1402 49.22 19.7002 48.92 19.4902C49.2 19.2002 49.52 17.8102 49.17 17.4902C49.2632 16.6466 49.185 15.7928 48.94 14.9802L49.02 14.8602C48.83 14.4702 48.84 14.2102 48.54 13.9302C48.65 14.1302 48.68 14.3302 48.82 14.6102L48.74 14.7302C48.985 15.5428 49.0632 16.3966 48.97 17.2402C49.32 17.5202 48.97 18.9102 48.72 19.1902C49.03 19.4502 48.96 19.8902 49.02 20.2402C48.86 20.3602 49.02 24.0102 48.93 24.1102C49.0996 24.9248 49.0996 25.7656 48.93 26.5802C49.0752 27.3534 49.0752 28.1469 48.93 28.9202C49.13 29.1802 48.93 29.5002 49.04 29.7702L48.92 30.0602C49.07 30.5502 48.8 31.0602 49.03 31.6002V31.7002C49.12 31.9402 49.03 32.1802 49.03 32.4202C48.865 32.9206 48.7774 33.4433 48.77 33.9702C48.8333 34.1054 48.9215 34.2276 49.03 34.3302V34.3302Z" fill="#EA1C24"/>
<path d="M62.6099 17.7402C62.3884 17.4483 62.247 17.1036 62.1999 16.7402L62.0499 16.6802C62.0976 16.9678 62.2219 17.2373 62.4099 17.4602C62.4051 17.5575 62.4204 17.6548 62.4548 17.746C62.4892 17.8372 62.542 17.9203 62.6099 17.9902L62.4799 18.2302C62.5999 18.2302 62.6899 18.6602 62.7199 18.7702V18.9602L62.8299 19.1502V19.6602L63.2099 20.2902C63.0999 20.6202 63.4699 20.9902 63.3699 21.4602L62.9299 23.4102L62.9899 23.4902C62.8718 24.326 62.8718 25.1743 62.9899 26.0102C62.8593 26.4473 62.8593 26.9131 62.9899 27.3502C62.9199 27.3502 62.4999 29.1702 62.7499 29.4602C62.7478 29.9598 62.6315 30.4523 62.4099 30.9002L62.4799 31.1402H62.5499C62.565 31.5522 62.6254 31.9613 62.7299 32.3602V32.3602C62.6599 32.6602 62.7999 32.9602 62.7299 33.2502C62.6599 33.5402 62.4699 33.5802 62.5699 33.8902L62.2399 34.4402V34.5302L62.1399 34.6802L62.3499 35.2202L62.2599 35.3602H62.0399L61.8999 35.5002H61.8199L61.9099 35.7302H62.0999L62.2399 35.5902H62.4599L62.5499 35.4602L62.3499 34.9102L62.4399 34.7602V34.6802L62.7799 34.1202C62.6699 33.8102 62.8599 33.7502 62.9299 33.4902C62.9999 33.2302 62.8699 32.8902 62.9299 32.5902C62.8254 32.1913 62.765 31.7822 62.7499 31.3702H62.6899L62.6099 31.1802C62.8371 30.7344 62.9537 30.2405 62.9499 29.7402C62.7099 29.4502 63.1299 27.6702 63.1899 27.6302C63.0755 27.1882 63.0929 26.7224 63.2399 26.2902C63.1045 25.4601 63.0877 24.615 63.1899 23.7802V23.7002L63.6199 21.7002C63.7199 21.2302 63.3499 20.8602 63.4599 20.5402L63.0799 19.9002V19.3902L62.9699 19.2002V19.0102C62.9699 18.9002 62.8499 18.5102 62.7299 18.4702L62.8599 18.2302C62.7878 18.1692 62.7285 18.0945 62.6856 18.0104C62.6426 17.9262 62.6169 17.8344 62.6099 17.7402V17.7402Z" fill="#EA1C24"/>
<path d="M54.15 17.4302C54.09 18.2202 54.29 19.2702 54.31 20.0602C54.56 20.2202 54.31 21.0602 54.47 21.4202C54.23 21.8302 54.56 23.4202 54.33 23.6702C54.33 23.7802 54.42 30.3802 54.38 30.8202L54.44 30.9002C54.44 31.7802 54.49 32.6502 54.44 33.5302L54.78 34.1402H54.86L54.64 33.7402C54.73 32.8602 54.64 31.9902 54.64 31.1102L54.61 31.1002C54.61 30.6602 54.61 24.1002 54.61 23.9502C54.84 23.7302 54.51 22.1102 54.75 21.7002C54.57 21.3702 54.84 20.5002 54.59 20.3402C54.478 19.4145 54.4246 18.4826 54.43 17.5502C54.3421 17.4985 54.248 17.4582 54.15 17.4302V17.4302Z" fill="#EA1C24"/>
<path d="M60.68 26.1503C61.1 25.8103 60.3 23.4303 60.6 22.8803C60.5574 22.5931 60.4836 22.3115 60.38 22.0403C60.3197 21.6426 60.3197 21.238 60.38 20.8403L60.28 20.7203V20.4903L60.09 20.3003V20.4703L60.19 20.5903C60.135 20.9884 60.135 21.3922 60.19 21.7903C60.302 22.0594 60.3792 22.3417 60.42 22.6303C60.12 23.1803 60.92 25.5603 60.5 25.9003C60.5203 26.3053 60.473 26.7108 60.36 27.1003C60.27 27.3403 60.77 29.3103 60.47 29.5303C60.4681 29.8497 60.5017 30.1683 60.57 30.4803C60.42 30.6403 60.41 30.8703 60.3 31.0603C60.4598 31.9834 60.4598 32.9272 60.3 33.8503L60.13 33.9703H60.08L59.87 34.1103C59.87 34.4103 59.97 34.8503 59.66 35.0503V35.3303C59.4721 35.376 59.2974 35.465 59.15 35.5903H58.62C58.4103 35.7085 58.163 35.7407 57.93 35.6803V35.7503C57.67 35.7503 57.19 35.9003 56.99 35.6903C56.7 35.6903 56.42 35.8103 56.13 35.8203L55.58 35.9003L55.41 35.7903C54.941 35.8191 54.4702 35.7854 54.01 35.6903C54.0431 35.7797 54.0942 35.8613 54.16 35.9303C54.6363 36.0314 55.1235 36.0717 55.61 36.0503V36.1003L56.15 36.0203C56.44 36.0203 56.72 35.9003 57.01 35.8803C57.21 36.0903 57.69 35.8803 57.95 35.9503L58 35.8703C58.2365 35.9264 58.4854 35.8944 58.7 35.7803H59.22C59.3655 35.6541 59.5412 35.568 59.73 35.5303V35.2403C60.04 35.0503 59.89 34.6003 59.94 34.3103L60.15 34.1603H60.21L60.37 34.0403C60.5347 33.1176 60.5347 32.173 60.37 31.2503C60.48 31.0703 60.49 30.8403 60.64 30.6703C60.5696 30.3588 60.5393 30.0395 60.55 29.7203C60.84 29.5103 60.34 27.5303 60.43 27.2903C60.5743 26.9263 60.6587 26.5413 60.68 26.1503V26.1503Z" fill="#EA1C24"/>
<path d="M50.7099 2.95996C51.3122 3.92943 51.5063 5.09783 51.2499 6.20996L51.3699 6.78996C51.3111 6.94476 51.2189 7.08473 51.0999 7.19996L50.5499 7.38996L50.3499 7.26996L50.2099 7.42996C50.0199 7.42996 49.1399 7.24996 49.0099 7.42996C48.8799 7.60996 48.6899 7.75996 48.5999 7.84996C48.4899 8.22996 48.7199 8.64996 48.5999 9.02996C48.6611 9.11126 48.7316 9.1851 48.8099 9.24996C48.9199 8.87996 48.7099 8.47996 48.8099 8.09996C48.9099 8.01996 49.2099 7.80996 49.2199 7.67996C49.2299 7.54996 50.2199 7.67996 50.4199 7.67996L50.5599 7.51996L50.7599 7.63996L51.3199 7.44996C51.4433 7.33432 51.542 7.19484 51.6099 7.03996L51.4899 6.45996C51.6228 5.85497 51.6219 5.22825 51.4871 4.62367C51.3524 4.01909 51.0872 3.45127 50.7099 2.95996Z" fill="#EA1C24"/>
</g>
<defs>
<radialGradient id="paint0_radial_117_69" cx="0" cy="0" r="1" gradientUnits="userSpaceOnUse" gradientTransform="translate(45.9 62.7432) scale(45.29 5.4348)">
<stop stop-color="#EA0029"/>
<stop offset="0.09" stop-color="#EA0029" stop-opacity="0.97"/>
<stop offset="0.23" stop-color="#EA0029" stop-opacity="0.89"/>
<stop offset="0.39" stop-color="#EA0029" stop-opacity="0.75"/>
<stop offset="0.57" stop-color="#EA0029" stop-opacity="0.57"/>
<stop offset="0.76" stop-color="#EA0029" stop-opacity="0.33"/>
<stop offset="0.97" stop-color="#EA0029" stop-opacity="0.04"/>
<stop offset="0.99" stop-color="#EA0029" stop-opacity="0"/>
</radialGradient>
<radialGradient id="paint1_radial_117_69" cx="0" cy="0" r="1" gradientUnits="userSpaceOnUse" gradientTransform="translate(32.78 42.2301) scale(6.65)">
<stop offset="0.05" stop-color="#ED1C24"/>
<stop offset="0.13" stop-color="#E61A22"/>
<stop offset="0.26" stop-color="#D3151C"/>
<stop offset="0.4" stop-color="#B40D11"/>
<stop offset="0.55" stop-color="#8B0304"/>
<stop offset="0.86" stop-color="#8B0304"/>
<stop offset="1" stop-color="#ED1C24"/>
</radialGradient>
<radialGradient id="paint2_radial_117_69" cx="0" cy="0" r="1" gradientUnits="userSpaceOnUse" gradientTransform="translate(54.43 41.7106) scale(13.57 7.1921)">
<stop stop-color="white"/>
<stop offset="0.07" stop-color="#F8F8F8"/>
<stop offset="0.18" stop-color="#E5E5E6"/>
<stop offset="0.3" stop-color="#C6C7C8"/>
<stop offset="0.44" stop-color="#9B9C9F"/>
<stop offset="0.52" stop-color="#808285"/>
<stop offset="0.86" stop-color="#808285"/>
<stop offset="1" stop-color="white"/>
</radialGradient>
<radialGradient id="paint3_radial_117_69" cx="0" cy="0" r="1" gradientUnits="userSpaceOnUse" gradientTransform="translate(45 6.3501) scale(31.5)">
<stop offset="0.05" stop-color="#ED1C24"/>
<stop offset="0.13" stop-color="#E61A22"/>
<stop offset="0.26" stop-color="#D3151C"/>
<stop offset="0.4" stop-color="#B40D11"/>
<stop offset="0.55" stop-color="#8B0304"/>
<stop offset="0.86" stop-color="#8B0304"/>
<stop offset="1" stop-color="#ED1C24"/>
</radialGradient>
</defs>
</svg>
