<svg xmlns="http://www.w3.org/2000/svg" viewBox="0 0 8.45 8.44"><defs><style>.cls-1{fill:#ea1c24;}</style></defs><g id="Layer_2" data-name="Layer 2"><g id="Layer_1-2" data-name="Layer 1"><path class="cls-1" d="M1.29.06l.08.05a.12.12,0,0,0,.1,0h.39l.57,0h0a.26.26,0,0,1,.15,0,.55.55,0,0,0,.18,0h.12a1,1,0,0,0,.3,0h.08a5.63,5.63,0,0,0,.58,0h.18s0,0,0,0,.11,0,.17,0h.2a1.1,1.1,0,0,1,.18,0h0a.55.55,0,0,1,.18,0h.28a.32.32,0,0,1,.14,0h.21L5.6,0a2.09,2.09,0,0,0,.25,0A.2.2,0,0,1,6,.05h.21a.91.91,0,0,0,.23,0h0a.09.09,0,0,1,.1,0H6.7a.18.18,0,0,0,.1,0A.29.29,0,0,1,7,.07a.82.82,0,0,0,.31,0s0,0,0,0l.11,0h.09a.2.2,0,0,0,.11,0,.2.2,0,0,0,.13,0l0,0A.26.26,0,0,0,8,.23s0,0,0,0l.19.16a.36.36,0,0,1,.07.1.14.14,0,0,1,0,.11.11.11,0,0,0,0,.08s0,.06,0,.09a.11.11,0,0,0,0,.08.15.15,0,0,1,0,.09v.36a2.83,2.83,0,0,0,0,.41,0,0,0,0,1,0,.05,1.29,1.29,0,0,0,0,.34c0,.06,0,.12,0,.18a.41.41,0,0,1,0,.16.17.17,0,0,0,0,.1.07.07,0,0,1,0,.09.1.1,0,0,0,0,0,.57.57,0,0,1,0,.13v0a.12.12,0,0,1,0,.08,1.09,1.09,0,0,0,0,.18c0,.1,0,.21,0,.32s0,0,0,0,0,0,0,.07a.55.55,0,0,1,0,.18.17.17,0,0,0,0,.12s0,0,0,0a2.53,2.53,0,0,1,0,.55.49.49,0,0,0,0,.24s0,.1,0,.14a.18.18,0,0,1,0,.1.05.05,0,0,1,0,0,.14.14,0,0,0,0,.11,2,2,0,0,1,0,.25s0,.1,0,.14a0,0,0,0,1,0,0,.29.29,0,0,0,0,.13.59.59,0,0,1,0,.26c0,.05,0,.11,0,.17v0a1.51,1.51,0,0,1,0,.3.79.79,0,0,1,0,.22c0,.13,0,.26,0,.39a2.11,2.11,0,0,0,0,.25.11.11,0,0,0,0,0,.33.33,0,0,0,0,.22.42.42,0,0,0-.08.22,0,0,0,0,1,0,0A.65.65,0,0,0,8.14,8v.06A.56.56,0,0,0,8,8.22h0a.14.14,0,0,0-.14,0l-.06,0c-.05,0-.11,0-.16,0a.27.27,0,0,1-.15,0,.3.3,0,0,0-.13,0H7l-.39,0H6.28a1.23,1.23,0,0,0-.27,0H5.44a.25.25,0,0,1-.12,0H5.18a.78.78,0,0,1-.22,0c-.13,0-.26,0-.39,0H4.29a1.34,1.34,0,0,1-.35,0,.14.14,0,0,0-.09,0,.52.52,0,0,1-.25,0H3.46a.11.11,0,0,1-.12,0H3.25a.61.61,0,0,1-.13,0,2.71,2.71,0,0,1-.4,0l-.21,0-.08,0-.1,0s-.08,0-.12,0a.35.35,0,0,1-.11,0H1.56a.41.41,0,0,0-.19,0,.37.37,0,0,1-.18,0H1.08a.29.29,0,0,1-.16,0H.87c-.06,0-.12,0-.17,0l0,0a1.8,1.8,0,0,0-.37-.3h0a.12.12,0,0,0,0-.1l0,0a1.13,1.13,0,0,1-.06-.36,2,2,0,0,0,0-.24.27.27,0,0,1,0-.09v0a.06.06,0,0,1,0-.06s0-.06,0-.09a1,1,0,0,1,0-.17c0-.07,0-.14,0-.21a.08.08,0,0,1,0,0,.1.1,0,0,1,0-.1.22.22,0,0,0,0-.08V6.32a.37.37,0,0,0,0-.11.11.11,0,0,1,0,0,.94.94,0,0,0,0-.29L.08,5.8a.09.09,0,0,1,0,0,.6.6,0,0,1,0-.23,1.11,1.11,0,0,0,0-.17V5.24s0,0,0,0A.54.54,0,0,1,.08,5a.74.74,0,0,0,0-.21,2.53,2.53,0,0,1,0-.28V4.33a.4.4,0,0,1,0-.15.36.36,0,0,1,0-.09s0,0,0,0l0,0,0,0a.19.19,0,0,0,0-.18.53.53,0,0,1,0-.12.31.31,0,0,0,0-.1.18.18,0,0,1,0-.1V2.86a.61.61,0,0,1,0-.3.06.06,0,0,0,0,0,.25.25,0,0,1,0-.17s0-.05,0-.08v0s0-.06,0-.1a.36.36,0,0,0,0-.1,1.34,1.34,0,0,0,0-.2c0-.09,0-.18,0-.27h0a.33.33,0,0,0,0-.17.28.28,0,0,1,0-.09A2.81,2.81,0,0,0,.06,1a.4.4,0,0,1,0-.19s0,0,0,0,0-.16,0-.24,0,0,0,0L.25.39A.19.19,0,0,1,.38.29l.17,0L.68.2a.23.23,0,0,1,.14,0A.2.2,0,0,0,1,.17c.07,0,.13,0,.2,0A.12.12,0,0,0,1.27.08ZM4.63,2.31l.11.08a.17.17,0,0,0,.12,0H5s.07,0,.09.07l0,.1a.38.38,0,0,1,0,.1c0,.07,0,.14,0,.21s0,.31,0,.46a2.43,2.43,0,0,1,0,.27.41.41,0,0,0,0,.11s0,.06,0,.09v.09a.28.28,0,0,0,0,.09,3.25,3.25,0,0,1,0,.44,1.08,1.08,0,0,0,0,.18,1.09,1.09,0,0,1,0,.18.62.62,0,0,0,0,.13s0,0,0,.07a.11.11,0,0,0,0,.08,1.36,1.36,0,0,0,0,.2.14.14,0,0,1,0,.09.57.57,0,0,0,0,.26,2,2,0,0,0,0,.25.76.76,0,0,1,0,.26v.07a.2.2,0,0,1,0,.07.26.26,0,0,0,0,.15s0,0,0,0a.18.18,0,0,0,0,.1.11.11,0,0,1,0,0,1.53,1.53,0,0,1,0,.37c0,.1,0,.21,0,.31a.18.18,0,0,1-.08.19l0,0a.1.1,0,0,1-.14,0,.24.24,0,0,1-.09-.08.14.14,0,0,1,0-.06,2,2,0,0,1,0-.26,1,1,0,0,0,0-.29.41.41,0,0,1,0-.11V6.59s0,0,0,0a.14.14,0,0,0,0-.09.38.38,0,0,0,0-.15v0a1.93,1.93,0,0,0,0-.34.88.88,0,0,1,0-.23,1.82,1.82,0,0,0,0-.33c0-.08,0-.15,0-.23v-.5a1.48,1.48,0,0,1,0-.21.47.47,0,0,0-.05-.26A.94.94,0,0,0,4.92,4a.27.27,0,0,0,0-.2v0a.87.87,0,0,0,0-.28c0-.1,0-.19,0-.29a.21.21,0,0,0,0-.11.35.35,0,0,0,0-.08,0,0,0,0,0-.07,0s-.05,0-.05.09a.29.29,0,0,1,0,.09.12.12,0,0,0,0,.1.16.16,0,0,1,0,.1.11.11,0,0,0,0,.08l0,.15a.42.42,0,0,1,0,.16.2.2,0,0,0,0,.13s0,.08,0,.11a.16.16,0,0,0,0,.15.16.16,0,0,1,0,.1,2.8,2.8,0,0,1,0,.5.33.33,0,0,0,0,.17.11.11,0,0,0,0,.11.37.37,0,0,1,0,.18.39.39,0,0,0,0,.15c0,.09,0,.19,0,.28a.42.42,0,0,1,0,.16s0,.05,0,.08a.06.06,0,0,0,0,0,.25.25,0,0,1,0,.19v.26a1.78,1.78,0,0,0,0,.4s0,.07,0,.1,0,.06,0,.08a3.76,3.76,0,0,0,0,.67s0,.06,0,.09,0,0,0,0,.08.07.14.06h0L5,7.8l.3,0h.1l.09-.17v0a.49.49,0,0,0,0-.17s0-.07,0-.11,0,0,0-.06c0-.29,0-.57,0-.86V6.38a.6.6,0,0,1,0-.23.37.37,0,0,0,0-.11S5.5,6,5.5,6a.43.43,0,0,0,0-.16s0,0,0,0a.17.17,0,0,0,0-.07,2.57,2.57,0,0,0,0-.48.76.76,0,0,0,0-.21.49.49,0,0,1,0-.12.76.76,0,0,1,0-.15v0a.21.21,0,0,1,0-.07.29.29,0,0,1,0-.09s0,0,0,0,0,0,0,0a.22.22,0,0,0,0-.14.19.19,0,0,1,0-.07.23.23,0,0,1,0-.14,2.53,2.53,0,0,0,0-.55.13.13,0,0,1,0-.06V3.3s0-.1,0-.15a.17.17,0,0,0,0-.07.31.31,0,0,1,0-.19.3.3,0,0,0,0-.1.06.06,0,0,0,0,0c0-.1,0-.2,0-.29V2.39s0,0,0,0a.13.13,0,0,0-.13-.13.33.33,0,0,1-.14,0A1.46,1.46,0,0,1,4.86,2l0,0v-.1s0-.06,0-.1,0-.06,0-.09l.07-.08h.13c.05,0,.1,0,.14,0h0a.15.15,0,0,0,.13,0,.12.12,0,0,0,.08-.13.25.25,0,0,1,0-.17V1.19A1.1,1.1,0,0,0,5.32.66a.39.39,0,0,0-.08-.1.12.12,0,0,0-.1-.05s0,0-.06,0a.22.22,0,0,0-.16,0L4.8.57a.05.05,0,0,0,0,0,.21.21,0,0,1,0,.06c0,.08,0,.11,0,.15A.52.52,0,0,0,5,.85h.08l0,0a.13.13,0,0,1,0,.12,0,0,0,0,0,0,.05.26.26,0,0,1,0,.15.11.11,0,0,1-.06.1l-.12,0-.16,0-.08.07a0,0,0,0,1,0,0,.25.25,0,0,1,0,.17.13.13,0,0,0,0,.06c0,.1,0,.21,0,.31a.2.2,0,0,0,0,.15S4.64,2.25,4.63,2.31ZM1.71,6.51l.09,0h.13a.58.58,0,0,1,.19,0l0,0s.12.06.14.14h0v0a.41.41,0,0,1,0,.11c0,.06,0,.12,0,.19a.3.3,0,0,0,0,.13.33.33,0,0,1,0,.14.57.57,0,0,0,0,.13,1.2,1.2,0,0,1,0,.2.18.18,0,0,0,0,.12.07.07,0,0,1,0,.06v0a.07.07,0,0,0,.1,0,.22.22,0,0,0,.09-.1,1,1,0,0,0,.05-.24c0-.23,0-.46,0-.69a1.85,1.85,0,0,0,0-.23.54.54,0,0,1,0-.18.16.16,0,0,0-.11-.19.5.5,0,0,1-.13,0,.1.1,0,0,0-.09,0,2,2,0,0,1-.25,0,.32.32,0,0,0-.14,0,.38.38,0,0,0-.15,0s0,0,0,0a.34.34,0,0,1,0-.2V6l.13-.14c.12,0,.24,0,.35,0a.49.49,0,0,0,.17,0h.05a.24.24,0,0,0,.12,0h0l.12-.14a1.55,1.55,0,0,0,0-.21.81.81,0,0,1,0-.22.27.27,0,0,1,0-.15.07.07,0,0,0,0,0s0-.08,0-.11a.1.1,0,0,1,0-.09.09.09,0,0,0,0-.09l-.11-.06a.74.74,0,0,0-.39,0,.31.31,0,0,1-.23,0h0a.37.37,0,0,1-.12-.07s0,0,0,0a.28.28,0,0,0,0-.09,1.29,1.29,0,0,0,0-.19s0,0-.07,0a.13.13,0,0,0-.1.06.21.21,0,0,0-.1.18s0,0,0,0l0,.06s0,0,0,.05l-.07.08a.08.08,0,0,1-.09,0H1.15l-.56.11-.07,0s0,0-.05,0a.11.11,0,0,0,0,.13.15.15,0,0,1,0,.09.62.62,0,0,0,0,.13,1.09,1.09,0,0,1,0,.36v.07a.5.5,0,0,1,0,.12c0,.1,0,.2,0,.3a2.35,2.35,0,0,0,0,.26.5.5,0,0,1,0,.17v.19A.5.5,0,0,0,.51,7a.43.43,0,0,0,0,0v.18a1.09,1.09,0,0,1,0,.18,0,0,0,0,0,0,0,.7.7,0,0,0,0,.14.13.13,0,0,0,.06.09s0,0,0,0,0,0,0,0l.06,0H.78s0,0,0,0a.24.24,0,0,0,0-.08s0,0,0-.08,0-.09,0-.12a.13.13,0,0,1,0-.08c0-.05,0-.09,0-.13s0-.21,0-.32a1.08,1.08,0,0,1,0-.18s0-.05,0-.08a1.37,1.37,0,0,0,0-.35,0,0,0,0,1,0,0,.41.41,0,0,0,0-.11A.18.18,0,0,1,.85,6L1,5.89a.41.41,0,0,1,.19,0,.17.17,0,0,1,.1,0l0,0s.06,0,0,.08a.33.33,0,0,0,0,.14c0,.08,0,.16.05.24v0a.23.23,0,0,1,.15,0h0S1.68,6.48,1.71,6.51Zm1.5-4.14,0,0a.19.19,0,0,0-.2,0h0c-.05,0-.11,0-.16,0H2.48a1,1,0,0,0-.25,0,.19.19,0,0,1-.1,0A.11.11,0,0,0,2,2.44a1.94,1.94,0,0,1-.05.2.33.33,0,0,0,0,.14v.05a1.79,1.79,0,0,0,0,.46.17.17,0,0,1,0,.12.06.06,0,0,0,0,0,2.22,2.22,0,0,0,0,.37s0,0,0,0A.75.75,0,0,0,2.11,4a.14.14,0,0,0,.11,0s0,0,0,0a.34.34,0,0,1,.14,0,.12.12,0,0,0,.13,0,.25.25,0,0,1,.19,0h.13s0,0,0,0h0l.12,0a.14.14,0,0,0,.09,0,.11.11,0,0,1,.1,0,.29.29,0,0,0,.16,0l.11,0a1.22,1.22,0,0,1,.27,0h.1a.12.12,0,0,1,.1,0,.21.21,0,0,0,.11,0,.14.14,0,0,0,.11-.06l0-.06a.13.13,0,0,0,0-.08.12.12,0,0,1,0-.09.18.18,0,0,0,0-.12,1.1,1.1,0,0,1,0-.18.07.07,0,0,0,0-.05.16.16,0,0,1,0-.1.3.3,0,0,0,0-.21l0-.13c-.05-.13-.09-.26-.14-.38a.07.07,0,0,0,0-.06.31.31,0,0,0-.23,0,.33.33,0,0,1-.14,0s0,0,0,0a.4.4,0,0,1-.19,0,.14.14,0,0,0-.09,0l-.06,0a.21.21,0,0,0-.11,0A.14.14,0,0,0,3.21,2.37Zm4.53-.14a.14.14,0,0,0,0-.15.1.1,0,0,0,0-.05.24.24,0,0,0-.1,0,.49.49,0,0,0-.17,0h0L7.23,2a3.53,3.53,0,0,0-.46,0h0a.65.65,0,0,0-.24,0,.23.23,0,0,0-.14,0h0L6.22,2,6.11,2a.09.09,0,0,1-.06,0c0-.05,0-.1,0-.16A.27.27,0,0,0,6,1.7a.11.11,0,0,1,0-.12l0,0a.06.06,0,0,1,.07,0h.08a.11.11,0,0,1,.08,0s0,0,.06,0h.15l.16,0,.17,0H7a.21.21,0,0,1,.11,0,.36.36,0,0,0,.14,0,2,2,0,0,0,.25,0c.05,0,.08,0,.11-.05a0,0,0,0,0,0-.05s0-.05-.05-.06l-.24-.11a.17.17,0,0,0-.14,0,.05.05,0,0,1,0,0c-.09-.07-.18,0-.27,0a.15.15,0,0,0-.13,0h0c-.06,0-.13,0-.19,0a.15.15,0,0,0-.07,0s0,0-.06,0a.07.07,0,0,0-.06,0H6.16A.19.19,0,0,1,6,1.21s0,0,0-.06a.13.13,0,0,1,0-.06C6,1,6,1,6,.93s.09-.12.18-.09h0s.07,0,.11,0a.07.07,0,0,0,.06,0,.1.1,0,0,1,.09,0h.31a.61.61,0,0,1,.19,0h.33c.06,0,.12,0,.18,0s0,0,0,0h0a.22.22,0,0,0,.16,0c.07-.05,0-.09,0-.13s-.07,0-.09-.07a.33.33,0,0,1-.17,0,.11.11,0,0,0-.11,0,.08.08,0,0,1-.08,0,.17.17,0,0,0-.12,0s0,0,0,0a1,1,0,0,0-.24,0h0a1.23,1.23,0,0,0-.19,0,.18.18,0,0,1-.14,0H6.34a1.31,1.31,0,0,0-.28,0,.21.21,0,0,0-.17.12L5.82.76a.09.09,0,0,0,0,.07.78.78,0,0,0,0,.22s0,0,0,0a.29.29,0,0,0,0,.13,1,1,0,0,1,0,.24s0,0,0,0a1.62,1.62,0,0,1,0,.22.5.5,0,0,0,0,.21V2a.17.17,0,0,0,0,.12s0,.05,0,.07a1.06,1.06,0,0,0,0,.31.24.24,0,0,1,0,.12A.35.35,0,0,0,6.05,3a.1.1,0,0,0,.09,0s.07,0,.1,0h0s.05,0,.07,0a1,1,0,0,0,.42,0h.5l.06,0s0,0,0,0a.1.1,0,0,1,.09,0h0a.5.5,0,0,1,.12,0l.13,0,.11,0c.05,0,.06,0,0-.09l0,0H7.79a.28.28,0,0,0-.12,0l-.36,0h-.1a.28.28,0,0,1-.18,0H7s-.08,0-.12,0a.12.12,0,0,0-.12,0,.34.34,0,0,0-.14,0s0,0,0,0L6.23,2.7a.19.19,0,0,1-.14-.12l0-.12a.13.13,0,0,1,.1-.14l.29,0h.44a.7.7,0,0,0,.25,0l.16,0c.06,0,.12,0,.18,0h0A.49.49,0,0,0,7.74,2.23ZM3.21,7.87l.4,0a1,1,0,0,0,.3,0,.41.41,0,0,0,.16,0l.12,0a.12.12,0,0,0,.14-.07l0,0a.14.14,0,0,0,0-.09.76.76,0,0,1,0-.15.33.33,0,0,1,0-.14V7.34a.77.77,0,0,1,0-.15s0,0,0-.07a.15.15,0,0,0,0-.07s0-.1,0-.15a.12.12,0,0,1,0-.08.38.38,0,0,0,0-.15V6.59a1.66,1.66,0,0,0,0-.22,1.76,1.76,0,0,1,0-.23.5.5,0,0,0,0-.17c0-.08,0-.16,0-.24a.37.37,0,0,0,0-.23.15.15,0,0,1,0-.07V5.36a5.3,5.3,0,0,0-.1-.55.14.14,0,0,0-.1-.12.32.32,0,0,0,0,.09A.7.7,0,0,1,4.08,5,.16.16,0,0,1,4,5.05H4a.25.25,0,0,0-.12,0,.25.25,0,0,1-.12,0s-.1,0-.14,0h0A.24.24,0,0,1,3.42,5a.11.11,0,0,1,0-.11V4.74s0-.06,0-.07a.2.2,0,0,0-.15-.06.31.31,0,0,0-.06.16s0,0,0,.05a.12.12,0,0,0,0,.1s0,0,0,.07l0,.07,0,.05a.19.19,0,0,1,0,.15l0,0a.1.1,0,0,0,0,.09s0,.09.05.13a.06.06,0,0,1,0,.06.19.19,0,0,0,0,.08.15.15,0,0,1,0,.13s0,0,0,0A.34.34,0,0,1,3,6V6s0,0,0,.07a.55.55,0,0,0,0,.18.63.63,0,0,1,0,.19c0,.13,0,.27,0,.4a.12.12,0,0,1,0,.1s0,0,0,0,0,0,0,.05a.26.26,0,0,0,0,.11s0,0,0,.07v.17a.57.57,0,0,0,0,.18.07.07,0,0,1,0,.05s0,.08,0,.12A.18.18,0,0,0,3.21,7.87Zm4.08-.41,0,0a.12.12,0,0,0,.08-.12,2.66,2.66,0,0,0,0-.49.12.12,0,0,1,0-.1s0,0,0,0,0-.05,0-.07a1.08,1.08,0,0,1,0-.18,1.09,1.09,0,0,0,0-.18c0-.08,0-.17,0-.25a.53.53,0,0,1,0-.13.86.86,0,0,0,0-.16s0,0,0-.07a.39.39,0,0,0,0-.15l0-.22a1,1,0,0,1,0-.29.44.44,0,0,0,0-.2,1,1,0,0,1,0-.17v-.1a.2.2,0,0,0-.07-.16s-.06,0-.09,0a.34.34,0,0,0,0,.14.13.13,0,0,0,0,.06c0,.11,0,.23,0,.34s0,.07,0,.11,0,.07,0,.12,0,0,0,0a.57.57,0,0,0,0,.29.22.22,0,0,0,0,.19s0,0,0,0,0,.06,0,.09a.19.19,0,0,1,0,.13.19.19,0,0,0,0,.07,1.93,1.93,0,0,0,0,.24.29.29,0,0,1,0,.16.36.36,0,0,1,0,.11.2.2,0,0,0,0,.07,2,2,0,0,0,0,.42.13.13,0,0,0,0,.06.29.29,0,0,1,0,.13c0,.09,0,.17,0,.25a.54.54,0,0,1,0,.11s0,0-.06,0h0l-.1,0a.21.21,0,0,0-.15,0H6.39a.35.35,0,0,1-.29-.26v0c0-.08,0-.16,0-.24s0-.26,0-.38,0-.29,0-.43c0-.34,0-.68,0-1v0a.68.68,0,0,0,0-.2.93.93,0,0,1,0-.29v0a.38.38,0,0,1,0-.15.27.27,0,0,0,0-.09.45.45,0,0,1,0-.16,2.53,2.53,0,0,1,0-.47,0,0,0,0,0,0,0L6,3.71a.06.06,0,0,0-.07,0,.06.06,0,0,0,0,0,2.08,2.08,0,0,0,0,.23c0,.08,0,.16,0,.24a.26.26,0,0,0,0,.15h0a.36.36,0,0,0,0,.18.49.49,0,0,1,0,.12.26.26,0,0,1,0,.15s0,0,0,.06a2.26,2.26,0,0,0,0,.26l-.06.56v.07a.82.82,0,0,1,0,.22,2.43,2.43,0,0,0,0,.27,1.62,1.62,0,0,1,0,.22c0,.15,0,.3,0,.44V7c0,.09,0,.17,0,.26a.37.37,0,0,1,0,.18.49.49,0,0,0,0,.24.14.14,0,0,0,.14.11,1.5,1.5,0,0,1,.29,0h.08l.16,0h.07a.5.5,0,0,0,.17,0,1.06,1.06,0,0,0,.19,0H7a.14.14,0,0,0,.15,0l0,0a.24.24,0,0,1,0-.09.13.13,0,0,0,0-.08Zm-.71-4a.22.22,0,0,0-.09.16s0,.07,0,.1,0,.09,0,.14V4a.2.2,0,0,0,0,.1v.28a1.08,1.08,0,0,1,0,.31,0,0,0,0,0,0,0,.91.91,0,0,1,0,.23,0,0,0,0,1,0,0,.23.23,0,0,0,0,.12v.54a2.06,2.06,0,0,0,0,.26s0,0,0,0,0,.07,0,.1,0,.24,0,.36a.33.33,0,0,0,0,.14.11.11,0,0,1,0,.08.17.17,0,0,0,0,.14s0,0,0,0a.13.13,0,0,1,0,.06.09.09,0,0,0,0,.11s0,.07,0,.1,0,0,0,.06a.07.07,0,0,0,.06,0,.42.42,0,0,0,.08-.21,1.28,1.28,0,0,0,0-.19.36.36,0,0,1,0-.11.13.13,0,0,0,0-.06V6.2c0-.13,0-.27,0-.4a.09.09,0,0,1,0,0,.42.42,0,0,0,0-.16,1.79,1.79,0,0,1,0-.23V5.31c0-.08,0-.17,0-.25s0-.31,0-.46a.17.17,0,0,0,0-.07s0,0,0-.07a.13.13,0,0,0,0-.06c0-.11,0-.21,0-.32a.23.23,0,0,1,.07-.14.14.14,0,0,0,.08-.07l.16,0h0a.19.19,0,0,0,.15,0,.45.45,0,0,0,.2,0,.18.18,0,0,1,.09,0,.37.37,0,0,1,.15.27,1.41,1.41,0,0,1,0,.2.15.15,0,0,0,0,.07,1.13,1.13,0,0,1,0,.18,1.36,1.36,0,0,1,0,.2,1.48,1.48,0,0,1,0,.42V5.5a.22.22,0,0,0,0,.11.27.27,0,0,1,0,.2.06.06,0,0,0,0,0V6c0,.11,0,.22,0,.34s0,.05,0,.08c0,.2,0,.39,0,.58s0,.24,0,.35a1.6,1.6,0,0,1,0,.23.19.19,0,0,0,0,.13l0,.06s0,0,.07,0h0s0,0,0,0l0-.1.06-.11a.13.13,0,0,0,0-.11l0,0a.12.12,0,0,0,0-.1.85.85,0,0,0,0-.32V6.85a.06.06,0,0,0,0,0,.14.14,0,0,1,0-.11.78.78,0,0,0,0-.18s0-.06,0-.08a.55.55,0,0,1,0-.18c0-.08,0-.15,0-.23a.41.41,0,0,0,0-.11A.41.41,0,0,1,8,5.7V5.64a1.64,1.64,0,0,0,0-.22A1.42,1.42,0,0,1,8,5l.06-.28a.29.29,0,0,0,0-.16.35.35,0,0,1,0-.14l0,0a.16.16,0,0,0,0-.07.19.19,0,0,1,0-.07,1.1,1.1,0,0,0,0-.18s0-.07,0-.1,0,0,0-.05a.5.5,0,0,0,0-.13.44.44,0,0,1-.06-.16.07.07,0,0,0-.06-.06.58.58,0,0,0-.18,0,.41.41,0,0,1-.19,0l0,0a.21.21,0,0,0-.11,0l-.09,0a.93.93,0,0,0-.29,0H6.75ZM3.05,1.2,3,1.17a.38.38,0,0,0-.18,0H2.68a.25.25,0,0,0-.12,0H2.51c-.08,0-.17,0-.25,0h0a.46.46,0,0,0-.07.07.34.34,0,0,0-.06.15.26.26,0,0,0,0,.17.17.17,0,0,1,0,.07,1.55,1.55,0,0,1,0,.22L2.22,2l0,0c.07,0,.13.05.2,0h0A.15.15,0,0,0,2.6,2H3l.12,0h.07a.47.47,0,0,0,.17,0,.2.2,0,0,1,.13,0,.54.54,0,0,0,.18,0,.12.12,0,0,1,.1,0h0a.41.41,0,0,1,.19,0,.12.12,0,0,0,.11-.12A1.7,1.7,0,0,1,4,1.4a.14.14,0,0,0-.12-.12.13.13,0,0,1-.1,0h0L3.66,1.2l-.08,0h-.1s0,0,0,0-.06,0-.1,0H3.26A.51.51,0,0,0,3.05,1.2Zm-1.3.15a.19.19,0,0,0-.11-.07.83.83,0,0,0-.22,0,1.82,1.82,0,0,0-.4,0H.94a.58.58,0,0,0-.26,0,.33.33,0,0,1-.15,0H.48a.15.15,0,0,0-.11.08s0,.11,0,.14l.11.06a.15.15,0,0,0,.09,0,.18.18,0,0,1,.17,0h0c.09.05.09.05.09.16V2.1s0,0,0,.08v0a.59.59,0,0,0,0,.19s0,.05,0,.08a.33.33,0,0,0,0,.17v.05L.85,3a.39.39,0,0,0,0,.24.24.24,0,0,0,0,.08.51.51,0,0,0,0,.13.28.28,0,0,0,0,.09.39.39,0,0,0,0,.15.17.17,0,0,1,0,.05c0,.06,0,.07.11.08s0,0,0,0,.06,0,.07-.09a.47.47,0,0,0,0-.17c0-.14,0-.28,0-.42a1.77,1.77,0,0,1,0-.23.25.25,0,0,1,0-.12s0-.06,0-.09,0,0,0,0l0,0a.21.21,0,0,0,0-.11.06.06,0,0,1,0-.06V2.36s0-.09,0-.13a0,0,0,0,0,0,0c0-.11,0-.22,0-.33a.8.8,0,0,0,0-.15.17.17,0,0,1,.12-.1l.08,0a.6.6,0,0,1,.19-.06l.15-.05h0A.39.39,0,0,0,1.75,1.35Zm.46-.5a.13.13,0,0,0,.12,0,.32.32,0,0,1,.17,0h.12A1.83,1.83,0,0,1,3,.85l.13,0a.63.63,0,0,0,.27,0H3.7L4,.84A.08.08,0,0,0,4.07.77v0A.1.1,0,0,0,4,.61l-.17,0H3.78l0,0a.54.54,0,0,0-.22,0H3.44a.51.51,0,0,1-.17,0H3.11l-.24,0H2.61a.33.33,0,0,0-.15,0l-.08,0a.28.28,0,0,0-.21.07l0,.06a.15.15,0,0,0,0,.11S2.19.83,2.21.85Zm-1.74,3a1.4,1.4,0,0,0,.09-.17s0,0,0-.05a.26.26,0,0,1,0-.15.14.14,0,0,0,0-.09V3.26c0-.1,0-.2,0-.3a1.53,1.53,0,0,1,0-.3v0a.34.34,0,0,1,0-.2.45.45,0,0,0,0-.11.24.24,0,0,1,0-.12V2.15a.15.15,0,0,0,0-.07A.07.07,0,0,0,.59,2a.27.27,0,0,1,0-.12s0,0,0,0a.17.17,0,0,0-.14-.1.31.31,0,0,0-.06.13l0,.1a.24.24,0,0,0,0,.08v.31a.17.17,0,0,0,0,.13s0,0,0,.07a.17.17,0,0,0,0,.07c0,.11,0,.23,0,.34s0,.09,0,.14a0,0,0,0,1,0,0,.46.46,0,0,0,0,.26s0,.05,0,.07a.19.19,0,0,0,0,.13.06.06,0,0,1,0,.06.07.07,0,0,0,0,.07A.34.34,0,0,0,.47,3.81ZM1.65,3.4a1.55,1.55,0,0,0,0-.21V3l0-.62,0-.05a.33.33,0,0,1,0-.14s0-.07,0-.11,0,0-.07,0H1.47a.32.32,0,0,0,0,.3.26.26,0,0,0,0,.15.27.27,0,0,1,0,.09s0,.1,0,.15a.15.15,0,0,0,0,.07.25.25,0,0,1,0,.19.13.13,0,0,0,0,.06,3.53,3.53,0,0,0,0,.65.19.19,0,0,0,.05.1s0,0,.06,0a.09.09,0,0,0,.12,0,.2.2,0,0,0,0-.08A.42.42,0,0,0,1.65,3.4ZM1.8.74a.43.43,0,0,0,0-.05s0-.07-.06-.08H1.7s0,0,0,0a.25.25,0,0,1-.17,0h0s-.06,0-.09,0a3,3,0,0,0-.31,0C.94.63.84.68.73.69L.65.71l0,0L.53.83a.05.05,0,0,0,0,.08L.63,1,.76,1a1,1,0,0,0,.29,0L1.3.9l.23,0,.07,0a.08.08,0,0,1,.07,0h0Z"/><path class="cls-1" d="M1.44,5.08l0,.11v0a.68.68,0,0,0,0,.2.17.17,0,0,1,0,.11h-.1c-.14,0-.29,0-.43.08l-.06,0a.08.08,0,0,1,0-.05.17.17,0,0,1,0-.1,2.46,2.46,0,0,0,0-.26.19.19,0,0,1,.07-.13h0l.24,0h.05a.16.16,0,0,0,.1,0A.14.14,0,0,1,1.44,5.08Z"/><path class="cls-1" d="M2.28,5a.75.75,0,0,1,.07.12v0s0,.07,0,.1,0,0,0,0v.22a.11.11,0,0,1-.07,0l-.07,0H2.12a.47.47,0,0,1-.16,0h0s-.1,0-.14,0a.27.27,0,0,0-.08-.07s0,0,0-.06,0-.09,0-.13,0-.08,0-.12a.2.2,0,0,1,.06-.12.06.06,0,0,1,.09,0,.25.25,0,0,0,.19,0A.81.81,0,0,1,2.28,5Z"/><path class="cls-1" d="M3.34,3.66s0,0,0-.07a.43.43,0,0,1,0,0c0-.07,0-.15,0-.23a.11.11,0,0,1,0-.05c.05,0,.09-.06.15,0a0,0,0,0,0,0,0,.1.1,0,0,1,.13,0h.28a.24.24,0,0,1,.16,0,.09.09,0,0,1,0,.08,1,1,0,0,1,0,.17.28.28,0,0,1,0,.13.06.06,0,0,1-.06,0l-.19,0h0a2.57,2.57,0,0,0-.4-.06Z"/><path class="cls-1" d="M2.9,3H2.68c-.05,0-.09,0-.13,0h0a.57.57,0,0,1-.18,0,.2.2,0,0,1-.11-.18.55.55,0,0,1,.06-.18.05.05,0,0,1,0,0h.07s0,0,.07,0h.11a.43.43,0,0,1,.16,0,.43.43,0,0,1,.16,0s0,0,0,.07S2.92,2.86,2.9,3Z"/><path class="cls-1" d="M3.35,2.89l-.06-.2a.09.09,0,0,1,0,0l.2,0a1.37,1.37,0,0,1,.35,0A.13.13,0,0,1,4,2.68l0,0a.11.11,0,0,1,0,.08v0A.12.12,0,0,1,3.94,3l-.2,0h0a.2.2,0,0,0-.13,0,.18.18,0,0,1-.12,0Z"/><path class="cls-1" d="M2.31,3.32a.09.09,0,0,1,.07,0,.75.75,0,0,0,.16,0h0a.34.34,0,0,0,.14,0h.21a.25.25,0,0,1,.07.2.41.41,0,0,0,0,.11.13.13,0,0,1,0,0,.17.17,0,0,1-.14,0s0,0-.07,0H2.53a.91.91,0,0,1-.16-.11s-.05,0,0-.08A.13.13,0,0,0,2.31,3.32Z"/><path class="cls-1" d="M3.47,5.56s0,0,0,0a.14.14,0,0,1,.14,0s0,0,.05,0l.07,0H3.9a.33.33,0,0,1,.14,0s0,0,0,.06,0,.07,0,.11v0a1.93,1.93,0,0,0,0,.24.21.21,0,0,0,0,.15.07.07,0,0,1,0,0c0,.24,0,.49,0,.73v.06a1,1,0,0,1,0,.17.35.35,0,0,0,0,.17v0s0,.1,0,.15,0,0,0,0-.09.08-.14.09a.16.16,0,0,0-.12.07l-.12,0H3.54a.08.08,0,0,1-.07,0L3.39,7.5a.12.12,0,0,1,0-.09,2.9,2.9,0,0,1,0-.51.43.43,0,0,1,0-.05.06.06,0,0,0,0-.07.18.18,0,0,1,0-.1l.06-.26a1.46,1.46,0,0,0,0-.29,0,0,0,0,1,0,0,.69.69,0,0,0,0-.32s0,0,0-.06A.28.28,0,0,0,3.47,5.56Z"/><path class="cls-1" d="M2.48,1.56l0-.06.14-.06H3a.57.57,0,0,1,.29,0,1,1,0,0,0,.24,0,.09.09,0,0,1,.07,0l0,.06a.11.11,0,0,1,0,.15.25.25,0,0,1-.19,0,.09.09,0,0,0-.07,0,.09.09,0,0,1-.1,0,.4.4,0,0,0-.19,0H3a1.29,1.29,0,0,1-.34,0,.06.06,0,0,1-.06,0Z"/></g></g></svg>