<svg xmlns="http://www.w3.org/2000/svg" viewBox="0 0 5.46 5.89"><defs><style>.cls-1{fill:#fff;}</style></defs><g id="Layer_2" data-name="Layer 2"><g id="Layer_1-2" data-name="Layer 1"><path class="cls-1" d="M2.58,4.27V2.92H2C1.94,3.5,2.28,4.24,2.58,4.27Z"/><path class="cls-1" d="M2,2.62h.61V1.25A1.51,1.51,0,0,0,2,2.62Z"/><path class="cls-1" d="M2,1.4A1.46,1.46,0,0,0,1.2,2.63h.46A2.65,2.65,0,0,1,2,1.4Z"/><path class="cls-1" d="M1.18,2.92A1.53,1.53,0,0,0,2,4.12a2.83,2.83,0,0,1-.32-1.2Z"/><path class="cls-1" d="M2.87,1.25V2.62H3.5A1.52,1.52,0,0,0,2.87,1.25Z"/><path class="cls-1" d="M3.47,1.41A2.84,2.84,0,0,1,3.8,2.62h.48A1.54,1.54,0,0,0,3.47,1.41Z"/><path class="cls-1" d="M5,4.4a.29.29,0,0,1,0-.18A2.74,2.74,0,0,0,3.31.06L3,0H2.51A5.05,5.05,0,0,0,2,.12,2.64,2.64,0,0,0,0,2.38a2.73,2.73,0,0,0,2.14,3,2.8,2.8,0,0,0,1.57-.14.23.23,0,0,1,.14,0l1.25.64h.13c.15-.11.16-.16.1-.34Zm-2.26.2A1.85,1.85,0,0,1,.89,2.76,1.84,1.84,0,1,1,2.73,4.6Z"/><path class="cls-1" d="M3.46,4.12a1.43,1.43,0,0,0,.8-1.2H3.8A2.81,2.81,0,0,1,3.46,4.12Z"/><path class="cls-1" d="M2.88,2.92V4.28c.4-.14.65-.93.62-1.36Z"/></g></g></svg>