<svg id="Layer_1" data-name="Layer 1" xmlns="http://www.w3.org/2000/svg" xmlns:xlink="http://www.w3.org/1999/xlink" viewBox="0 0 5892.95 3925.27"><defs><style>.cls-1{mask:url(#mask);}.cls-2{mix-blend-mode:multiply;fill:url(#linear-gradient);}.cls-3{fill:none;}.cls-4{clip-path:url(#clip-path);}.cls-5{clip-path:url(#clip-path-2);}.cls-6{fill:#00247d;}.cls-7{fill:#fff;}.cls-8{fill:#cf142b;}.cls-9{mask:url(#mask-2);}.cls-10{opacity:0.6;fill:url(#linear-gradient-2);}.cls-11{filter:url(#luminosity-noclip-2);}.cls-12{filter:url(#luminosity-noclip);}</style><filter id="luminosity-noclip" x="739.76" y="-10192" width="2520.48" height="32766" filterUnits="userSpaceOnUse" color-interpolation-filters="sRGB"><feFlood flood-color="#fff" result="bg"/><feBlend in="SourceGraphic" in2="bg"/></filter><mask id="mask" x="739.76" y="-10192" width="2520.48" height="32766" maskUnits="userSpaceOnUse"><g class="cls-12"/></mask><linearGradient id="linear-gradient" x1="2000" y1="2680.98" x2="2000" y2="635.96" gradientUnits="userSpaceOnUse"><stop offset="0.11"/><stop offset="0.24" stop-color="#040404"/><stop offset="0.35" stop-color="#0f0f0f"/><stop offset="0.46" stop-color="#212121"/><stop offset="0.57" stop-color="#3b3b3b"/><stop offset="0.67" stop-color="#5c5c5c"/><stop offset="0.77" stop-color="#858585"/><stop offset="0.87" stop-color="#b6b6b6"/><stop offset="0.97" stop-color="#ededed"/><stop offset="1" stop-color="#fff"/></linearGradient><clipPath id="clip-path" transform="translate(988.75 -34.43)"><circle class="cls-3" cx="2000" cy="2000" r="1584.06"/></clipPath><clipPath id="clip-path-2" transform="translate(988.75 -34.43)"><rect class="cls-3" x="-827.37" y="370.39" width="5570.2" height="3253.34"/></clipPath><filter id="luminosity-noclip-2" x="739.76" y="635.96" width="2520.48" height="2045.02" filterUnits="userSpaceOnUse" color-interpolation-filters="sRGB"><feFlood flood-color="#fff" result="bg"/><feBlend in="SourceGraphic" in2="bg"/></filter><mask id="mask-2" x="1728.5" y="601.54" width="2520.48" height="2045.02" maskUnits="userSpaceOnUse"><g class="cls-11"><g transform="translate(988.75 -34.43)"><g class="cls-1"><ellipse class="cls-2" cx="2000" cy="1658.47" rx="1260.24" ry="1022.51"/></g></g></g></mask><linearGradient id="linear-gradient-2" x1="2988.75" y1="2646.56" x2="2988.75" y2="601.54" gradientUnits="userSpaceOnUse"><stop offset="0.11" stop-color="#fff"/><stop offset="0.96" stop-color="#fff"/><stop offset="1" stop-color="#fff"/></linearGradient></defs><title>UK</title><g class="cls-4"><g id="United_Kingdom" data-name="United Kingdom"><g class="cls-5"><g id="uk_flag" data-name="uk flag"><rect class="cls-6" width="5892.95" height="3925.27"/><rect class="cls-7" x="1303.61" y="-949.42" width="1308.24" height="5892.95" transform="translate(4943.53 4.9) rotate(90)"/><polygon class="cls-7" points="5892.95 3472.51 5892.95 3925.27 5247.41 3925.27 3436.56 2726.93 3270.09 2616.75 3239.65 2596.62 2945.97 2402.26 2870.55 2352.36 2653.3 2208.57 2456.39 2078.3 2279.6 1961.3 1692.69 1572.9 1293.15 1308.51 0 452.75 0 0 645.54 0 2456.39 1198.33 2622.86 1308.51 2653.3 1328.65 2946.98 1523 3022.41 1572.9 3239.65 1716.69 3436.56 1846.97 3613.35 1963.96 4200.26 2352.36 4599.8 2616.75 5892.95 3472.51"/><polygon class="cls-7" points="5892.95 0 5892.95 466.81 4611.35 1308.51 4208.78 1572.9 3613.35 1963.96 3436.56 2080.06 3239.65 2209.4 3021.99 2352.36 2945.97 2402.26 2653.3 2594.51 2619.42 2616.75 2456.39 2723.84 627.07 3925.27 0 3925.27 0 3458.45 1281.6 2616.75 1684.18 2352.36 2279.6 1961.3 2456.39 1845.2 2653.3 1715.87 2870.96 1572.9 2946.98 1523 3239.65 1330.76 3273.54 1308.51 3436.56 1201.43 5265.88 0 5892.95 0"/><rect class="cls-7" x="2456.38" width="980.19" height="3925.26"/><rect class="cls-8" x="2653.3" width="586.35" height="3925.26"/><rect class="cls-8" x="1568" y="-949.42" width="779.46" height="5892.95" transform="translate(4943.54 4.9) rotate(90)"/><polygon class="cls-8" points="3935.7 1308.51 3932.31 1310.79 3489.36 1310.79 3492.78 1308.51 3935.7 1308.51"/><polygon class="cls-8" points="5892.04 0 3935.7 1308.51 3492.78 1308.51 5458.67 0 5892.04 0"/><polygon class="cls-8" points="4372.86 2616.75 3927.71 2616.75 3809.8 2538.41 4255.68 2538.41 4372.86 2616.75"/><polygon class="cls-8" points="5892.95 3632.99 5892.95 3922.29 3927.71 2616.75 4372.86 2616.75 5892.95 3632.99"/><polygon class="cls-8" points="2454.41 2546.25 2454.41 2579.66 2398.78 2616.75 1965.01 2616.75 2071.37 2546.25 2454.41 2546.25"/><polygon class="cls-8" points="2398.78 2616.75 436.84 3925.27 0 3925.27 0 3919.31 1965.01 2616.75 2398.78 2616.75"/><polygon class="cls-8" points="1970.46 1308.51 1525.92 1308.51 0 297.61 0 7.4 1970.46 1308.51"/></g></g></g></g><g class="cls-9"><ellipse class="cls-10" cx="2988.75" cy="1624.05" rx="1260.24" ry="1022.51"/></g></svg>