<svg xmlns="http://www.w3.org/2000/svg" viewBox="0 0 13.77 9.34"><defs><style>.cls-1{fill:#ed1c24;}.cls-2{fill:#2e3192;}.cls-2,.cls-3,.cls-4{fill-rule:evenodd;}.cls-3{fill:#fd0;}.cls-4,.cls-5{fill:#fff;}.cls-5{font-size:1.19px;font-family:BigBearBoldBold;letter-spacing:0.03em;}.cls-6{letter-spacing:0.03em;}.cls-7{letter-spacing:0.04em;}</style></defs><g id="Layer_2" data-name="Layer 2"><g id="Layer_1-2" data-name="Layer 1"><path class="cls-1" d="M.42,1.61H12.77V8c-.22.09-.48.19-.77.28-3.37.79-5.76-.79-8.28-.88A7.55,7.55,0,0,0,.42,8Z"/><path class="cls-2" d="M0,8.44a6.34,6.34,0,0,1,3.72-.75c2.52.09,4.91,1.66,8.28.87a5.3,5.3,0,0,0,1.77-.84A6.51,6.51,0,0,1,8.9,9.32c-3-.24-4-1.14-6-1.21A6.85,6.85,0,0,0,0,8.44Z"/><path class="cls-3" d="M5.81,1.62a1,1,0,0,1,.36-.21,3.23,3.23,0,0,0,.5.08A3.46,3.46,0,0,0,7,1.36a.84.84,0,0,1-.41.18,1,1,0,0,1-.5.14A1.15,1.15,0,0,1,5.81,1.62Z"/><path class="cls-3" d="M6,1.29a1.23,1.23,0,0,1,.4-.14c.12,0,.34.13.44.14a3,3,0,0,0,.39-.06.88.88,0,0,1-.44.11,1.32,1.32,0,0,1-.51.06A.85.85,0,0,1,6,1.29Z"/><path class="cls-3" d="M5.94,1.25s.23-.18.22-.27S6,.72,6,.65A.7.7,0,0,1,6.07.32a.63.63,0,0,0-.18.37c-.12.13-.18.18-.16.25A1.82,1.82,0,0,0,5.94,1.25Z"/><path class="cls-3" d="M6.39,1.08A.57.57,0,0,1,6.78,1a2.8,2.8,0,0,0,.46.16,2.46,2.46,0,0,0,.39,0,.92.92,0,0,1-.45.09,1.37,1.37,0,0,1-.54,0A1.68,1.68,0,0,1,6.39,1.08Z"/><path class="cls-3" d="M6.28,1s.27-.14.28-.22S6.48.5,6.49.42A.79.79,0,0,1,6.66.11a.75.75,0,0,0-.28.34c-.15.12-.23.16-.23.22A1.61,1.61,0,0,0,6.28,1Z"/><path class="cls-3" d="M6.77.87a.55.55,0,0,1,.39-.1c.11,0,.32.17.42.19A3.25,3.25,0,0,0,8,.94,1,1,0,0,1,7.52,1,1.33,1.33,0,0,1,7,1,1.09,1.09,0,0,1,6.77.87Z"/><path class="cls-3" d="M6.63.82S7,.74,7,.66,7,.37,7.08.3A.94.94,0,0,1,7.38,0,1,1,0,0,0,7,.31c-.2.08-.29.1-.32.16A1.55,1.55,0,0,0,6.63.82Z"/><path class="cls-3" d="M7.19.72a.53.53,0,0,1,.39-.1A3.89,3.89,0,0,0,8,.81a3,3,0,0,0,.38,0,.94.94,0,0,1-.44.06,1.33,1.33,0,0,1-.52,0A1.09,1.09,0,0,1,7.19.72Z"/><path class="cls-3" d="M7.15.61A.59.59,0,0,0,7.54.5c0-.08.07-.28.12-.33A1.7,1.7,0,0,1,8,0a.87.87,0,0,0-.38.16c-.1,0-.3.14-.36.26A.7.7,0,0,0,7.15.61Z"/><path class="cls-3" d="M8.9.42s-.39,0-.49,0a.78.78,0,0,1-.53.2.84.84,0,0,1-.33-.1A1.36,1.36,0,0,1,7.73.37a.63.63,0,0,1,.44-.1A.6.6,0,0,1,8.4.36Z"/><path class="cls-3" d="M6.05,2.87a1,1,0,0,0,.14-.31A1.43,1.43,0,0,1,6,2.78s-.34.09-.41.12A.39.39,0,0,0,5.43,3s0-.15-.12-.18L5,2.71a3.46,3.46,0,0,1-.3-.26,1.37,1.37,0,0,0,.2.3A1.5,1.5,0,0,0,5,3a3,3,0,0,0,.39.15s.11.39.26.49a.5.5,0,0,0,.14,0,.87.87,0,0,1-.25-.34.3.3,0,0,1,0-.11A.76.76,0,0,0,6.05,2.87Z"/><path class="cls-3" d="M5.5,2.82a.52.52,0,0,1,.15-.31,2.71,2.71,0,0,0,.47-.11,1.16,1.16,0,0,0,.23-.24.84.84,0,0,1-.2.32.73.73,0,0,1-.33.28A1.12,1.12,0,0,1,5.5,2.82Z"/><path class="cls-3" d="M5.37,2.79s.08-.23,0-.3-.33-.2-.4-.26A.52.52,0,0,1,4.85,2c0,.12.06.29.1.36s0,.2,0,.25A3.31,3.31,0,0,0,5.37,2.79Z"/><path class="cls-3" d="M5.45,2.35s.12-.24.06-.32-.33-.23-.39-.29A.53.53,0,0,1,5,1.47c-.07.13,0,.31.05.39s-.06.22,0,.27A2.36,2.36,0,0,0,5.45,2.35Z"/><path class="cls-3" d="M5.51,2.42a.74.74,0,0,1,.24-.28c.13,0,.41,0,.51,0a2.18,2.18,0,0,0,.29-.2,1.17,1.17,0,0,1-.29.28.87.87,0,0,1-.42.22A1.61,1.61,0,0,1,5.51,2.42Z"/><path class="cls-3" d="M5.68,2A.8.8,0,0,1,6,1.77a4.7,4.7,0,0,0,.5.05,2,2,0,0,0,.35-.14.77.77,0,0,1-.38.2A1.18,1.18,0,0,1,6,2,1.48,1.48,0,0,1,5.68,2Z"/><path class="cls-3" d="M5.6,2s.15-.23.1-.31-.3-.25-.34-.32a.49.49,0,0,1-.08-.27c-.07.12,0,.31,0,.39s-.08.21,0,.27A2.78,2.78,0,0,0,5.6,2Z"/><path class="cls-3" d="M5.75,1.56s.15-.21.11-.29S5.61,1,5.56,1a.64.64,0,0,1,0-.33.55.55,0,0,0,0,.39c-.06.15-.1.21-.06.27A2.59,2.59,0,0,0,5.75,1.56Z"/><path class="cls-4" d="M6.53,6.06V6l-.3-.21-.14-.14L6,5.52a2.83,2.83,0,0,1-.14-.26l0,0L4.3,2.4l-2,0,.13.07.1.07a.22.22,0,0,1,.08.18.41.41,0,0,1-.05.19l-.06.12s0,.09-.07.14L1.33,5.4l-.12.22a1,1,0,0,1-.11.15,1.41,1.41,0,0,1-.33.29L2.43,6l-.17-.1-.07-.07,0-.06a.22.22,0,0,1,0-.08.25.25,0,0,1,0-.08.76.76,0,0,1,0-.11l.05-.11,0-.1L2.48,5l.8-1.5,1.07,2,0,0,0,0s0,0,0,0V5.7a.36.36,0,0,1,0,.11.24.24,0,0,1-.06.09A.52.52,0,0,1,4.22,6l-.14.09Z"/><path class="cls-4" d="M9.87,3.17l0-.8a.47.47,0,0,1-.17,0H9.51l-2.84,0a.83.83,0,0,1,.16.09.47.47,0,0,1,.1.1A.7.7,0,0,1,7,3V5.45a1.15,1.15,0,0,1,0,.19c0,.06,0,.12,0,.17a.41.41,0,0,1-.1.13.81.81,0,0,1-.18.12l2.2,0a.69.69,0,0,1-.3-.32.74.74,0,0,1-.05-.19,2.44,2.44,0,0,1,0-.28V4.39H9l.22,0a.35.35,0,0,1,.14.06.2.2,0,0,1,.09.11h0V3.82h0l-.12,0H8.51V3H9a2.66,2.66,0,0,1,.53,0,.44.44,0,0,1,.19.07A.83.83,0,0,1,9.87,3.17Z"/><path class="cls-4" d="M10.08,6.06l2.17,0A.38.38,0,0,1,12.1,6a.52.52,0,0,1-.11-.1.91.91,0,0,1-.06-.16,1.66,1.66,0,0,1,0-.24V3a1.11,1.11,0,0,1,0-.19A.84.84,0,0,1,12,2.65a.31.31,0,0,1,.1-.13l.17-.12-2.17,0a.76.76,0,0,1,.26.19.83.83,0,0,1,.08.4V5.45a1.23,1.23,0,0,1,0,.2,1,1,0,0,1-.05.16A.55.55,0,0,1,10.08,6.06Z"/><path class="cls-2" d="M2.27,5s0-.44,1-.63c.76-.14,2.91-.55,2.56-1.57.57,1-.51,1.86-1.91,2-1.55.2-1.84.9-1.84.9A5.32,5.32,0,0,1,2.27,5Z"/><text class="cls-5" transform="translate(0.97 7.22) scale(0.82 1)">A<tspan class="cls-6" x="0.77" y="0">M</tspan><tspan class="cls-7" x="1.76" y="0">AN FOOD INDUSTRI</tspan></text></g></g></svg>