<svg xmlns="http://www.w3.org/2000/svg" xmlns:xlink="http://www.w3.org/1999/xlink" viewBox="0 0 11.54 11.54"><defs><style>.cls-1,.cls-6{fill:#ed1c24;}.cls-1,.cls-2{clip-rule:evenodd;}.cls-2,.cls-8{fill:url(#linear-gradient);}.cls-3{fill:url(#linear-gradient-2);}.cls-4{fill:#f7941d;}.cls-5{fill:#f7d107;}.cls-10,.cls-12,.cls-5,.cls-6,.cls-8{fill-rule:evenodd;}.cls-7{clip-path:url(#clip-path);}.cls-9{clip-path:url(#clip-path-2);}.cls-10{fill:url(#linear-gradient-4);}.cls-11{fill:#fff;}.cls-12,.cls-13{fill:#2e3192;}</style><linearGradient id="linear-gradient" x1="1697.77" y1="-1581.83" x2="1697.77" y2="-1574.63" gradientTransform="translate(-1692 1584)" gradientUnits="userSpaceOnUse"><stop offset="0" stop-color="#ed1c24"/><stop offset="0.59" stop-color="#ed1c24"/><stop offset="1" stop-color="#fff"/></linearGradient><linearGradient id="linear-gradient-2" x1="5.77" y1="11.5" x2="5.77" y2="0.04" gradientUnits="userSpaceOnUse"><stop offset="0" stop-color="#ffc805"/><stop offset="0.02" stop-color="#ffd903"/><stop offset="0.05" stop-color="#fff200"/><stop offset="0.12" stop-color="#fbbb10"/><stop offset="0.53" stop-color="#fff200" stop-opacity="0.85"/><stop offset="0.77" stop-color="#fbbb10" stop-opacity="0.88"/><stop offset="0.82" stop-color="#fbbd0f" stop-opacity="0.88"/><stop offset="0.86" stop-color="#fcc30e" stop-opacity="0.89"/><stop offset="0.89" stop-color="#fccd0b" stop-opacity="0.92"/><stop offset="0.91" stop-color="#fddc07" stop-opacity="0.95"/><stop offset="0.94" stop-color="#ffee01" stop-opacity="0.99"/><stop offset="0.94" stop-color="#fff200"/></linearGradient><clipPath id="clip-path"><path class="cls-1" d="M1.89,5.77A3.88,3.88,0,1,1,5.77,9.65,3.88,3.88,0,0,1,1.89,5.77Z"/></clipPath><clipPath id="clip-path-2"><path class="cls-2" d="M2.17,5.77a3.6,3.6,0,1,1,3.6,3.6A3.6,3.6,0,0,1,2.17,5.77Z"/></clipPath><linearGradient id="linear-gradient-4" x1="1697.77" y1="-1581.83" x2="1697.77" y2="-1578.61" gradientTransform="translate(-1692 1584)" gradientUnits="userSpaceOnUse"><stop offset="0" stop-color="#fff"/><stop offset="0.39" stop-color="#ed1c24"/><stop offset="1" stop-color="#ed1c24"/></linearGradient></defs><g id="Layer_2" data-name="Layer 2"><g id="Layer_1-2" data-name="Layer 1"><circle class="cls-3" cx="5.77" cy="5.77" r="5.73"/><path class="cls-4" d="M5.77.08A5.69,5.69,0,1,1,.08,5.77,5.69,5.69,0,0,1,5.77.08m0-.08a5.77,5.77,0,1,0,5.77,5.77A5.78,5.78,0,0,0,5.77,0Z"/><path class="cls-5" d="M1.56,5.77A4.21,4.21,0,1,1,5.77,10,4.2,4.2,0,0,1,1.56,5.77Z"/><path class="cls-6" d="M1.89,5.77A3.88,3.88,0,1,1,5.77,9.65,3.88,3.88,0,0,1,1.89,5.77Z"/><g class="cls-7"><path class="cls-8" d="M2.17,5.77a3.6,3.6,0,1,1,3.6,3.6A3.6,3.6,0,0,1,2.17,5.77Z"/><g class="cls-9"><path class="cls-10" d="M3.67,3.78a1.9,1.9,0,0,1,2.1-1.61A1.89,1.89,0,0,1,7.86,3.78,1.89,1.89,0,0,1,5.77,5.39,1.9,1.9,0,0,1,3.67,3.78Z"/></g><path class="cls-11" d="M7.13,4.48l-.71.62,0,0C5.3,3.86,4.12,6.56,2.92,6.9A3.57,3.57,0,0,1,1,6.9L1.32,6a1.82,1.82,0,0,0,.38.07c1.47.15,1.78-.89,2.74-1.72A1.86,1.86,0,0,1,7.13,4.48Z"/><path class="cls-11" d="M7,6.77a1.87,1.87,0,0,1-2.63-.06l.57-.61L5,6l0,0c1.08,1.2,2.25-1.5,3.46-1.84a3.57,3.57,0,0,1,1.89,0l-.3.89a1.62,1.62,0,0,0-.37-.07C8.25,4.9,7.93,5.94,7,6.77Z"/></g><path class="cls-12" d="M9.6,7.34a4,4,0,0,0-.06-3.23A5.82,5.82,0,0,0,7.87,2a4.51,4.51,0,0,1,2.21,2.95A3.41,3.41,0,0,1,9.6,7.34Z"/><path class="cls-12" d="M8.09,2.1A1.79,1.79,0,0,0,6.35,1,1.6,1.6,0,0,0,8.09,2.1Z"/><path class="cls-12" d="M11.11,5.42s-1.11,0-.94,1.71A1.56,1.56,0,0,0,11.11,5.42Z"/><path class="cls-12" d="M10.72,3.62s-.91.3-.2,1.83A1.31,1.31,0,0,0,10.72,3.62Z"/><path class="cls-12" d="M9.85,2.3s-.8.54.31,1.81A1.31,1.31,0,0,0,9.85,2.3Z"/><path class="cls-12" d="M8.45,1.24s-.48.83,1,1.64A1.39,1.39,0,0,0,8.45,1.24Z"/><path class="cls-12" d="M1.94,7.34A4,4,0,0,1,2,4.11,5.82,5.82,0,0,1,3.67,2,4.51,4.51,0,0,0,1.46,4.93,3.35,3.35,0,0,0,1.94,7.34Z"/><path class="cls-12" d="M3.45,2.1A1.78,1.78,0,0,1,5.19,1,1.61,1.61,0,0,1,3.45,2.1Z"/><path class="cls-12" d="M.42,5.42s1.12,0,1,1.71A1.56,1.56,0,0,1,.42,5.42Z"/><path class="cls-12" d="M.82,3.62s.91.3.2,1.83A1.31,1.31,0,0,1,.82,3.62Z"/><path class="cls-12" d="M1.68,2.3s.8.54-.3,1.81A1.31,1.31,0,0,1,1.68,2.3Z"/><path class="cls-12" d="M3.09,1.24s.48.83-1,1.64A1.4,1.4,0,0,1,3.09,1.24Z"/><path class="cls-12" d="M1.28,7.75,1.44,8a.18.18,0,0,0-.07.09.14.14,0,0,0,0,.14.13.13,0,0,0,.08.07.09.09,0,0,0,.07,0,.07.07,0,0,0,0-.06.28.28,0,0,0,0-.16.56.56,0,0,1,0-.3.21.21,0,0,1,.11-.16.22.22,0,0,1,.14,0,.34.34,0,0,1,.15.07.63.63,0,0,1,.15.19.48.48,0,0,1,.08.28.27.27,0,0,1-.13.2l-.15-.24A.16.16,0,0,0,1.92,8a.19.19,0,0,0,0-.1.1.1,0,0,0,0-.06H1.78l0,0a.84.84,0,0,0,0,.1,2.25,2.25,0,0,1,.07.29.41.41,0,0,1,0,.16.32.32,0,0,1-.1.1.25.25,0,0,1-.17,0,.28.28,0,0,1-.17-.07.71.71,0,0,1-.15-.18A.54.54,0,0,1,1.13,8,.45.45,0,0,1,1.28,7.75Z"/><polygon class="cls-12" points="2.34 8.33 2.88 8.93 2.74 9.06 2.4 8.69 2.29 8.79 2.6 9.13 2.46 9.26 2.15 8.91 2.01 9.04 2.36 9.42 2.2 9.56 1.65 8.95 2.34 8.33"/><path class="cls-12" d="M2.48,9.8,3,9l.41.29a.79.79,0,0,1,.16.14.24.24,0,0,1,0,.14.3.3,0,0,1,0,.15.24.24,0,0,1-.11.09l-.13,0-.1,0,0,.07s0,0,0,.07a.08.08,0,0,1,0,.07l0,.3L3,10.16l0-.33a.14.14,0,0,0,0-.09l0-.06h0L2.72,10ZM3,9.52l.1.08.08,0h0a.1.1,0,0,0,0,0,.06.06,0,0,0,0-.07s0,0-.07-.09l-.11-.07Z"/><rect class="cls-13" x="3.38" y="9.94" width="0.93" height="0.3" transform="translate(-6.94 9.48) rotate(-65.96)"/><path class="cls-12" d="M4.34,9.81l.55.14a.35.35,0,0,1,.2.11.23.23,0,0,1,0,.18.2.2,0,0,1-.09.13.35.35,0,0,1-.11,0,.3.3,0,0,1,.13.12.25.25,0,0,1,0,.15.25.25,0,0,1-.18.18H4.76l-.14,0-.5-.13Zm.21.43.13,0h.1a.07.07,0,0,0,0-.06.06.06,0,0,0,0-.07s0,0-.09,0l-.13,0Zm-.09.35.15,0h.11a.06.06,0,0,0,0-.06.08.08,0,0,0,0-.07s0,0-.1-.06l-.15,0Z"/><path class="cls-12" d="M6,10h.3v.55a.41.41,0,0,1,0,.16.26.26,0,0,1-.08.13l-.12.08a.66.66,0,0,1-.21,0H5.7a.33.33,0,0,1-.15,0l-.1-.08a.41.41,0,0,1-.07-.11.44.44,0,0,1,0-.15V10h.3v.57a.15.15,0,0,0,.17.15.15.15,0,0,0,.12,0,.17.17,0,0,0,0-.12Z"/><path class="cls-12" d="M7.05,10.5l.26-.11.08.08a.17.17,0,0,0,.14,0,.18.18,0,0,0,.08-.06.08.08,0,0,0,0-.08.08.08,0,0,0,0-.05.55.55,0,0,0-.17,0,.74.74,0,0,1-.3,0A.22.22,0,0,1,7,10.15.23.23,0,0,1,7,10,.24.24,0,0,1,7,9.87a.42.42,0,0,1,.21-.12.45.45,0,0,1,.29,0,.29.29,0,0,1,.18.15L7.46,10a.13.13,0,0,0-.08-.07.12.12,0,0,0-.1,0,.18.18,0,0,0-.07.05,0,0,0,0,0,0,0,0,0,0,0,0,0,0h.11a1.09,1.09,0,0,1,.29,0,.25.25,0,0,1,.16.05.31.31,0,0,1,.08.11.25.25,0,0,1,0,.17.26.26,0,0,1-.09.16.53.53,0,0,1-.21.12.51.51,0,0,1-.35,0A.37.37,0,0,1,7.05,10.5Z"/><path class="cls-12" d="M8.7,9.87l-.28.19,0,.15-.26.17L8,9.4l.28-.18.81.58L8.83,10Zm-.16-.13-.27-.23.09.34Z"/><polygon class="cls-12" points="8.54 9.04 9.16 8.37 9.33 8.53 9.12 8.75 9.63 9.23 9.43 9.45 8.92 8.97 8.71 9.2 8.54 9.04"/><path class="cls-12" d="M9.55,7.72l.15-.26.48.27a.38.38,0,0,1,.12.09.27.27,0,0,1,.07.14.23.23,0,0,1,0,.14.6.6,0,0,1-.07.2,1,1,0,0,1-.09.13.36.36,0,0,1-.1.11.33.33,0,0,1-.12.05H9.88l-.15-.05-.49-.27L9.39,8l.5.28a.13.13,0,0,0,.12,0,.19.19,0,0,0,.1-.08.21.21,0,0,0,0-.13.19.19,0,0,0-.08-.1Z"/></g></g></svg>