<svg xmlns="http://www.w3.org/2000/svg" xmlns:xlink="http://www.w3.org/1999/xlink" viewBox="0 0 12.91 12.88"><defs><style>.cls-1,.cls-5{fill:#d1d3d4;}.cls-1{clip-rule:evenodd;}.cls-2,.cls-3,.cls-4{fill:#fff;}.cls-10,.cls-11,.cls-2,.cls-5,.cls-8,.cls-9{fill-rule:evenodd;}.cls-10,.cls-4,.cls-7,.cls-9{stroke:#fff;stroke-miterlimit:3.86;}.cls-4{stroke-width:0.49px;}.cls-6{clip-path:url(#clip-path);}.cls-7{fill:#00aeef;stroke-width:0.13px;}.cls-8{fill:#a7a9ac;}.cls-11,.cls-12,.cls-9{fill:#808285;}.cls-10,.cls-9{stroke-width:0.17px;}.cls-10{fill:none;}</style><clipPath id="clip-path" transform="translate(0 2.51)"><path class="cls-1" d="M6.46.24A3.57,3.57,0,1,1,2.89,3.81,3.56,3.56,0,0,1,6.46.24Z"/></clipPath></defs><g id="Layer_2" data-name="Layer 2"><g id="Layer_1-2" data-name="Layer 1"><path class="cls-2" d="M11.23,7V5.94h.47A.84.84,0,0,1,12,6a.25.25,0,0,1,.12.11.26.26,0,0,1,.05.17.27.27,0,0,1-.07.2.36.36,0,0,1-.22.11.27.27,0,0,1,.12.09,1.45,1.45,0,0,1,.13.18l.13.21H12L11.8,6.8l-.12-.16a.18.18,0,0,0-.07,0h-.15V7Zm.23-.63h.16a.69.69,0,0,0,.2,0s0,0,.06,0,0,0,0-.09a.14.14,0,0,0-.11-.13h-.33Z" transform="translate(0 2.51)"/><path class="cls-3" d="M11.66,5.48a1,1,0,1,1-1,1A1,1,0,0,1,11.66,5.48Zm0,.16a.85.85,0,1,0,0,1.7.85.85,0,1,0,0-1.7Z" transform="translate(0 2.51)"/><path class="cls-4" d="M11.75,9.78a.44.44,0,0,0,.32-.12.42.42,0,0,0,.13-.32A.42.42,0,0,0,12.07,9a.44.44,0,0,0-.32-.12.45.45,0,0,0-.32.12.45.45,0,0,0-.12.31.41.41,0,0,0,.44.44Zm.92-.44a.82.82,0,0,1-.07.31.92.92,0,0,1-.2.25.87.87,0,0,1-.3.16,1.05,1.05,0,0,1-.7,0,.75.75,0,0,1-.29-.16.7.7,0,0,1-.2-.26.6.6,0,0,1-.07-.3.66.66,0,0,1,.07-.3.76.76,0,0,1,.2-.25.92.92,0,0,1,.29-.17,1.05,1.05,0,0,1,.7,0,.87.87,0,0,1,.3.17.92.92,0,0,1,.2.25A.82.82,0,0,1,12.67,9.34ZM2.89,3.81A3.57,3.57,0,1,1,6.46,7.38,3.57,3.57,0,0,1,2.89,3.81ZM1.13,9.54V9.23h.92v.08a.75.75,0,0,1-.24.6.92.92,0,0,1-.65.21,1.38,1.38,0,0,1-.37,0A1.05,1.05,0,0,1,.5,9.9a.92.92,0,0,1-.19-.25.82.82,0,0,1-.07-.31A.73.73,0,0,1,.31,9a.7.7,0,0,1,.2-.26A.9.9,0,0,1,.8,8.62a1,1,0,0,1,.36-.06,1,1,0,0,1,.44.09.83.83,0,0,1,.33.26l-.41.17A.4.4,0,0,0,1.36,9a.45.45,0,0,0-.2,0A.45.45,0,0,0,.83,9a.51.51,0,0,0,0,.66.45.45,0,0,0,.33.12.5.5,0,0,0,.29-.07.28.28,0,0,0,.14-.2ZM2.29,8.6h.46v.72a1.35,1.35,0,0,0,0,.23.35.35,0,0,0,0,.12.24.24,0,0,0,.09.08.43.43,0,0,0,.17,0,.41.41,0,0,0,.16,0,.24.24,0,0,0,.09-.08.21.21,0,0,0,0-.12,1.35,1.35,0,0,0,0-.23V8.6h.47v.78a1.14,1.14,0,0,1,0,.37.45.45,0,0,1-.11.19.57.57,0,0,1-.24.14,1.35,1.35,0,0,1-.37,0,1.43,1.43,0,0,1-.38,0,.57.57,0,0,1-.24-.14.45.45,0,0,1-.11-.19,1.64,1.64,0,0,1,0-.37V8.6Zm3.79,1.48H5.65l-.1-.64,0-.15,0-.18a1.58,1.58,0,0,1-.06.23l-.25.74H4.89l-.23-.69a1.63,1.63,0,0,1-.08-.28l0,.17,0,.16-.1.64H4L4.27,8.6h.46L5,9.36c0,.1,0,.16.06.21a.28.28,0,0,1,0-.09l0-.12.26-.76h.46Zm.23,0V8.6h.47v1.48Zm.81,0V8.6h.45l.64.76.06.1.1.16a1,1,0,0,1,0-.16.62.62,0,0,1,0-.13V8.6h.45v1.48H8.34l-.65-.76-.06-.1a1.14,1.14,0,0,1-.09-.16c0,.06,0,.11,0,.16s0,.09,0,.13v.73Zm2,0V8.6h.35a3.67,3.67,0,0,1,.57,0,.92.92,0,0,1,.29.11.64.64,0,0,1,.24.25.73.73,0,0,1,0,.7.67.67,0,0,1-.24.26.91.91,0,0,1-.29.1,2.85,2.85,0,0,1-.49,0H9.12Zm.46-.33h.08a.64.64,0,0,0,.4-.1.37.37,0,0,0,.12-.31A.39.39,0,0,0,10.06,9a.64.64,0,0,0-.4-.1H9.58Z" transform="translate(0 2.51)"/><path class="cls-5" d="M6.46.24A3.57,3.57,0,1,1,2.89,3.81,3.56,3.56,0,0,1,6.46.24Z" transform="translate(0 2.51)"/><g class="cls-6"><rect class="cls-7" x="2.7" y="8.01" width="8.19" height="2.62"/><path class="cls-8" d="M.34,1.28C.13-.51,1.77-2.18,4-2.47S8.2-1.53,8.41.26,7,3.72,4.76,4,.56,3.07.34,1.28Z" transform="translate(0 2.51)"/><path class="cls-9" d="M10,.62A2.32,2.32,0,1,1,7.63,2.94,2.31,2.31,0,0,1,10,.62Z" transform="translate(0 2.51)"/><path class="cls-10" d="M9.09.18a3,3,0,0,1,3.08,3,3,3,0,0,1-3.08,3A3,3,0,0,1,6,3.16,3,3,0,0,1,9.09.18Z" transform="translate(0 2.51)"/><path class="cls-10" d="M8.22-.32a3.6,3.6,0,1,1-3.59,3.6A3.59,3.59,0,0,1,8.22-.32Z" transform="translate(0 2.51)"/><path class="cls-10" d="M7.07-1a4,4,0,0,1,3.65,4.2,4,4,0,0,1-3.65,4.2,4,4,0,0,1-3.64-4.2A4,4,0,0,1,7.07-1Z" transform="translate(0 2.51)"/></g><path class="cls-11" d="M1.13,9.54V9.23h.92v.08a.75.75,0,0,1-.24.6.92.92,0,0,1-.65.21,1.38,1.38,0,0,1-.37,0A1.05,1.05,0,0,1,.5,9.9a.92.92,0,0,1-.19-.25.82.82,0,0,1-.07-.31A.73.73,0,0,1,.31,9a.7.7,0,0,1,.2-.26A.9.9,0,0,1,.8,8.62a1,1,0,0,1,.36-.06,1,1,0,0,1,.44.09.83.83,0,0,1,.33.26l-.41.17A.4.4,0,0,0,1.36,9a.45.45,0,0,0-.2,0A.45.45,0,0,0,.83,9a.51.51,0,0,0,0,.66.45.45,0,0,0,.33.12.5.5,0,0,0,.29-.07.28.28,0,0,0,.14-.2Z" transform="translate(0 2.51)"/><path class="cls-11" d="M2.29,8.6h.46v.72a1.35,1.35,0,0,0,0,.23.35.35,0,0,0,0,.12.24.24,0,0,0,.09.08.43.43,0,0,0,.17,0,.41.41,0,0,0,.16,0,.24.24,0,0,0,.09-.08.21.21,0,0,0,0-.12,1.35,1.35,0,0,0,0-.23V8.6h.47v.78a1.14,1.14,0,0,1,0,.37.45.45,0,0,1-.11.19.57.57,0,0,1-.24.14,1.35,1.35,0,0,1-.37,0,1.43,1.43,0,0,1-.38,0,.57.57,0,0,1-.24-.14.45.45,0,0,1-.11-.19,1.64,1.64,0,0,1,0-.37V8.6Z" transform="translate(0 2.51)"/><path class="cls-11" d="M6.08,10.08H5.65l-.1-.64a.61.61,0,0,1,0-.15c0-.06,0-.12,0-.18a1.58,1.58,0,0,1-.06.23l0,.05-.23.69H4.89l-.23-.69,0-.05a1.58,1.58,0,0,1-.06-.23c0,.06,0,.11,0,.17a.88.88,0,0,1,0,.16l-.1.64H4L4.27,8.6h.46L5,9.36v0c0,.07,0,.13,0,.18a.28.28,0,0,1,0-.09l0-.12.26-.76h.46Z" transform="translate(0 2.51)"/><rect class="cls-12" x="6.31" y="11.11" width="0.47" height="1.49"/><path class="cls-11" d="M7.12,10.08V8.6h.45l.64.76.06.1.1.16a1,1,0,0,1,0-.16.62.62,0,0,1,0-.13V8.6h.45v1.48H8.34l-.65-.76-.06-.1a1.14,1.14,0,0,1-.09-.16c0,.06,0,.11,0,.16s0,.09,0,.13v.73Z" transform="translate(0 2.51)"/><path class="cls-11" d="M9.12,10.08V8.6h.35a3.67,3.67,0,0,1,.57,0,.92.92,0,0,1,.29.11.64.64,0,0,1,.24.25.73.73,0,0,1,0,.7.67.67,0,0,1-.24.26.91.91,0,0,1-.29.1,2.85,2.85,0,0,1-.49,0H9.12Zm.46-.33h.08a.64.64,0,0,0,.4-.1.37.37,0,0,0,.12-.31A.39.39,0,0,0,10.06,9a.64.64,0,0,0-.4-.1H9.58Z" transform="translate(0 2.51)"/><path class="cls-11" d="M12.67,9.34a.82.82,0,0,1-.07.31.92.92,0,0,1-.2.25.87.87,0,0,1-.3.16,1.05,1.05,0,0,1-.7,0,.75.75,0,0,1-.29-.16.7.7,0,0,1-.2-.26.6.6,0,0,1-.07-.3.66.66,0,0,1,.07-.3.76.76,0,0,1,.2-.25.92.92,0,0,1,.29-.17,1.05,1.05,0,0,1,.7,0,.87.87,0,0,1,.3.17.92.92,0,0,1,.2.25A.82.82,0,0,1,12.67,9.34Zm-.92.44a.44.44,0,0,0,.32-.12.42.42,0,0,0,.13-.32A.42.42,0,0,0,12.07,9a.44.44,0,0,0-.32-.12.45.45,0,0,0-.32.12.45.45,0,0,0-.12.31.41.41,0,0,0,.44.44Z" transform="translate(0 2.51)"/></g></g></svg>