<svg xmlns="http://www.w3.org/2000/svg" viewBox="0 0 15.53 9.77"><defs><style>.cls-1{fill:#fff200;}</style></defs><g id="Layer_2" data-name="Layer 2"><g id="Layer_1-2" data-name="Layer 1"><path class="cls-1" d="M15.34,3.75a2.14,2.14,0,0,1-1.18.63c-.44,0-.43,0-.58-.13a4,4,0,0,0-2.11-.39,4.87,4.87,0,0,0-3.23,1,1.39,1.39,0,0,0,0,2.21c.68.55,1.1.2,1.15-.06a1.16,1.16,0,0,1-.69-.9c0-.62.59-1.06,1.14-1.17A2.6,2.6,0,0,0,9.64,6.3a4.47,4.47,0,0,1-.11,2S9.35,7.94,8.61,8a1,1,0,0,0-.73,1.56c.46.55,1.54,0,1.82-.27,0,0,.39.55,1.6-.14a5.39,5.39,0,0,0,2.48-2.4c.68-1.26.45-1.48,1-2s.79-.74.78-1S15.41,3.61,15.34,3.75ZM8.4,9.17c-.42-.06-.07-.58.31-.64a.68.68,0,0,1,.58.13S8.83,9.23,8.4,9.17Zm3.54-1.24a2,2,0,0,1-1.71.92c.49-.66.49-1.07.62-2.6s1-1.49,1.28-1.49c.69,0,.84.41.84.81A4.05,4.05,0,0,1,11.94,7.93ZM7.6,7.86c-.23.32-.32.59-.52.59s-.23-.28-.29-.82A1.32,1.32,0,0,0,6.4,6.8a1.5,1.5,0,0,0,.77-.44,1.57,1.57,0,0,0,.5-1.48c-.13-.5-1-.87-2.49-.76A3.47,3.47,0,0,0,2.71,5.43c-.34.36-.65.35-.71-.09a2.55,2.55,0,0,1,.62-1.46C3,3.35,4,2.07,4,1.15A1.28,1.28,0,0,0,2.3,0a1.26,1.26,0,0,0-.9,1,2,2,0,0,1-.75.65.6.6,0,0,1-.51.05C0,1.68,0,1.89,0,2s.21.13.69.07A6.49,6.49,0,0,1,2,1.87a1.22,1.22,0,0,0,.65-.11s.16.11-.26.94S1,4.13,1,5.21s.56,1.42.85,1.42.62,0,1.3-.63.93-.66.93-.66A4.35,4.35,0,0,0,3.77,6.8c-.1.56-.23.94-.8.89S1.94,7,1.86,7s0,.6.41,1,1,1.08,1.75.6.74-1.9.74-1.9c.67.17.62.85.63,1.59s0,1.28.87,1.27S7.4,8.86,7.82,8.23a1.61,1.61,0,0,1,.87-.74A1.07,1.07,0,0,0,7.6,7.86ZM1.28,1.45c-.07,0,0-.07.08-.15s.08,0,.07,0S1.36,1.42,1.28,1.45ZM2.11.94C1.92,1,1.88.85,1.88.85A.47.47,0,0,1,2.16.66a1.17,1.17,0,0,1,.29,0S2.3.91,2.11.94Zm3.2,5.32H4.89c.05-1,.58-1.5,1-1.5s.56.11.56.56A1,1,0,0,1,5.31,6.26Z"/></g></g></svg>