<svg xmlns="http://www.w3.org/2000/svg" xmlns:xlink="http://www.w3.org/1999/xlink" viewBox="0 0 13.76 10.9"><defs><style>.cls-1,.cls-2,.cls-4,.cls-7{fill:#ed1c24;}.cls-1{clip-rule:evenodd;}.cls-2,.cls-3{fill-rule:evenodd;}.cls-3,.cls-6{fill:#fff;}.cls-5{clip-path:url(#clip-path);}.cls-7{font-size:0.83px;font-family:Arial-BoldMT, Arial;font-weight:700;letter-spacing:0.02em;}.cls-8{letter-spacing:0.03em;}</style><clipPath id="clip-path"><path class="cls-1" d="M9,6.92c.26,0,.35-.2.35-.43V3l.35-1c.06-.77-.22-1.08-.77-1C8.73.46,8.42.27,8,.42A.67.67,0,0,0,6.89.17.68.68,0,0,0,5.8.42.63.63,0,0,0,4.89,1c-.62-.09-1,.32-.77,1l.35,1V6.49c0,.23.09.43.35.43Z"/></clipPath></defs><g id="Layer_2" data-name="Layer 2"><g id="Layer_1-2" data-name="Layer 1"><path class="cls-2" d="M2.91,3.05c.1-.82.6-1.11,1.37-1.11h5c.82,0,1.27.3,1.37,1.11.74,0,1,.55.92,1.43.91.16,1.12.76.69,1.66l0,0L9.27,8h-5l-3-1.85,0,0c-.44-.9-.23-1.5.68-1.66C1.9,3.6,2.17,3,2.91,3.05Z"/><path class="cls-3" d="M9.28,2.12c.77,0,1.14.26,1.21,1l-1.06,3,.08.06,1.07-2.94c.64-.06.91.36.82,1.26L9.81,6.66l.06.07,1.58-2.09c.84.11,1.06.58.65,1.42L9.22,7.86H4.34L1.46,6.06c-.41-.84-.19-1.31.65-1.42L3.69,6.73l.06-.07L2.16,4.49c-.09-.9.18-1.32.82-1.26L4.05,6.17l.08-.06L3.07,3.16c.07-.78.48-1,1.21-1Z"/><rect class="cls-4" x="4.13" y="6.93" width="5.53" height="1.4" rx="0.44"/><path class="cls-2" d="M9,6.92c.26,0,.35-.2.35-.43V3l.35-1c.06-.77-.22-1.08-.77-1C8.73.46,8.42.27,8,.42A.67.67,0,0,0,6.89.17.68.68,0,0,0,5.8.42.63.63,0,0,0,4.89,1c-.62-.09-1,.32-.77,1l.35,1V6.49c0,.23.09.43.35.43Z"/><g class="cls-5"><path class="cls-3" d="M6.16,5.09c0-.11.35-.19.78-.19s.77.08.77.19-.34.2-.77.2S6.16,5.2,6.16,5.09Z"/><path class="cls-3" d="M6.1,5V5L6,3.53a2.79,2.79,0,0,1,1.85,0L7.76,5A1.93,1.93,0,0,0,6.1,5Z"/><path class="cls-3" d="M6,3.46a2.78,2.78,0,0,1,1.89,0s1,0,1-.47-.37-.82-1.14-.56A.87.87,0,0,0,6.88,2a.68.68,0,0,0-.7.39.93.93,0,0,0-.77,0C5,2.66,4.8,3.43,6,3.46Z"/><path class="cls-2" d="M6,3.75a2.73,2.73,0,0,1,1.87,0V3.68A2.82,2.82,0,0,0,6,3.68Z"/></g><rect class="cls-6" x="4.25" y="7.04" width="5.3" height="1.19" rx="0.44"/><text class="cls-7" transform="translate(4.71 7.93)">T<tspan class="cls-8" x="0.52" y="0">OPI KOKI</tspan></text><path class="cls-3" d="M3.1,8.29a4,4,0,0,0,.71.49A6.56,6.56,0,0,0,7,9.48a6.42,6.42,0,0,0,3-.66,4.54,4.54,0,0,0,.71-.44A4.17,4.17,0,0,0,11,8l.53,1.34-.06.06A6.51,6.51,0,0,1,7,10.9c-3.29,0-4.61-1.47-4.63-1.49l-.05-.06L2.72,7.9A3.89,3.89,0,0,0,3.1,8.29Z"/><path class="cls-3" d="M2.31,8.39a1.23,1.23,0,0,0-.09.51.31.31,0,0,1-.34.34A.85.85,0,0,1,1.43,9,8.34,8.34,0,0,1,0,7.37a5,5,0,0,0,1.06.52A7.94,7.94,0,0,1,1.14,6.1c.29,1.32.75,2,1.39,1.93A2.83,2.83,0,0,0,2.31,8.39Z"/><path class="cls-3" d="M2.29,8.1,2.23,8a.91.91,0,0,1-.11-.16.3.3,0,0,1,0-.23.37.37,0,0,1,.38-.17,1.35,1.35,0,0,1,.37.07,1.64,1.64,0,0,1,.33.16.37.37,0,0,1,.15.13.23.23,0,0,1,0,.22.25.25,0,0,1-.22.15A.81.81,0,0,1,3,8.2l-.15,0-.19.66-.07,0a.38.38,0,0,1-.44-.14l0-.05,0-.06A1.74,1.74,0,0,1,2.29,8.1Z"/><path class="cls-3" d="M12.56,6.09A5.61,5.61,0,0,1,12.7,8a2.38,2.38,0,0,0,1.06-.6,11.41,11.41,0,0,1-.75,1,9.63,9.63,0,0,1-.67.7,1,1,0,0,1-.46.2A.3.3,0,0,1,11.54,9a1.2,1.2,0,0,0-.09-.51,2.83,2.83,0,0,0-.22-.36C11.85,8.19,12.29,7.52,12.56,6.09Z"/><path class="cls-3" d="M11.47,8.18a1.74,1.74,0,0,1,.2.5l0,.06,0,0a.38.38,0,0,1-.44.15l-.07,0-.22-.64-.14,0h-.21a.23.23,0,0,1-.2-.15.25.25,0,0,1,0-.23.61.61,0,0,1,.15-.13,1.55,1.55,0,0,1,.33-.15,1.34,1.34,0,0,1,.37-.08.41.41,0,0,1,.38.17.26.26,0,0,1,0,.23,1.12,1.12,0,0,1-.1.16Z"/><path class="cls-2" d="M2.78,8.17S4,9.61,7,9.61a5.51,5.51,0,0,0,4-1.34l.43,1.07A6.43,6.43,0,0,1,7,10.77c-3.25,0-4.53-1.45-4.53-1.45Z"/><path class="cls-2" d="M2.3,8.13C1.78,8,1.42,7.56,1.2,6.69A3,3,0,0,0,1.23,8a1.52,1.52,0,0,1-.83-.3s.82.95,1.11,1.19.58.29.58,0A1.4,1.4,0,0,1,2.3,8.13Z"/><path class="cls-2" d="M2.22,8.63a1.6,1.6,0,0,1,.24-.56s-.3-.21-.22-.36.41-.1.59,0,.49.2.44.35-.55,0-.55,0l-.2.72A.27.27,0,0,1,2.22,8.63Z"/><path class="cls-2" d="M11.46,8.21c.52-.08.86-.64,1.08-1.51a3.4,3.4,0,0,1,0,1.43,1.7,1.7,0,0,0,.83-.3A13.94,13.94,0,0,1,12.25,9c-.24.2-.58.29-.57,0A1.49,1.49,0,0,0,11.46,8.21Z"/><path class="cls-2" d="M11.54,8.71a1.39,1.39,0,0,0-.24-.55s.3-.22.22-.37-.41-.09-.58,0-.5.2-.45.35.52,0,.52,0l.23.69A.24.24,0,0,0,11.54,8.71Z"/><path class="cls-3" d="M3,9.49l.07,0,.09,0,.07,0,.06-.06a.1.1,0,0,0,0-.09.16.16,0,0,0,0-.09h.07l.06,0a.14.14,0,0,0,0-.07.1.1,0,0,0,0-.07L3.38,9,3.31,9l-.25-.16,0,.06v0a.05.05,0,0,1,0,0s0,0,0,.05l-.14.23,0,0,0,0-.05,0,0,.06Zm.09-.36.06-.08V9h.07l0,0,0,0a.07.07,0,0,1,0,.06l0,0h0l0,0Zm0,.07.05,0,.06,0s0,0,0,.05a.07.07,0,0,1,0,.06s0,0-.07,0L3,9.4l0,0s0,0,0,0,0,0,0,0v0Z"/><path class="cls-3" d="M3.88,9.45l-.06,0,0,0,0,0h0l0,0h0l0,0,0,0,0,0h.07a.22.22,0,0,1,.1.09.21.21,0,0,1,0,.12H4v-.2l-.43-.21,0,.07h0a.05.05,0,0,1,0,0s0,0,0,.05l-.13.25,0,0s0,0-.05,0h0l0,.06.44.22L4,9.75l0-.05-.14.06a.27.27,0,0,1-.15,0l0,0,0,0a0,0,0,0,0,0,0l0,0v0l0-.08h0l0,0,0,0a2055142501988.48,2055142501988.48,0,0,0,0,.08l.06,0Z"/><path class="cls-3" d="M4.45,9.87a.14.14,0,0,0,.11,0,.16.16,0,0,0,.07-.09.12.12,0,0,0,0-.08.14.14,0,0,0,0-.08l-.06,0-.08,0-.29-.11,0,.06h0l.05,0a.14.14,0,0,1,0,.06l-.1.27,0,.05H4L4,10l.28.11,0-.07h0l0,0a.07.07,0,0,1,0-.06l0-.09h0l.08.3.18.07,0-.07a.1.1,0,0,1,0,0l0-.06Zm-.18-.13.05-.12h0l0,0H4.4l0,0,0,0s0,0,0,0a0,0,0,0,1,0,0s0,0,0,0h-.1l0,0Z"/><path class="cls-3" d="M5.15,9.75,5,9.72l-.25.35,0,0,0,0H4.63v.07l.24.06,0-.07H4.82s0,0,0,0h0l0,0,0-.06.18,0v.12H5l0,.07.29.07,0-.07h0l0,0,0,0a.11.11,0,0,0,0,0ZM4.92,10,5,9.86,5,10Z"/><path class="cls-3" d="M5.76,9.91l-.06,0-.07,0h-.1a.19.19,0,0,0-.14.14.16.16,0,0,0,0,.07l0,.07.06,0,.06,0,.08,0,0,0,0,0s0,0,0,0,0,0,0,0l0,0h0a.19.19,0,0,1-.12-.07.27.27,0,0,1-.06-.12H5.34l0,.22h0l0,0,.06,0,.07,0h.12a.21.21,0,0,0,.1-.06.16.16,0,0,0,0-.1.11.11,0,0,0,0-.08.09.09,0,0,0,0-.06l-.06,0-.06,0,0,0h0l0,0,0,0,0,0,0,0h.08l0,0,0,0,0,0s0,0,0,.05h.07l0-.18H5.77Z"/><path class="cls-3" d="M6.58,10.55h.08l.08,0,.06-.06a.24.24,0,0,0,0-.08.29.29,0,0,0,0-.09.24.24,0,0,0-.08-.06h0a.09.09,0,0,0,.06,0,.11.11,0,0,0,0-.07.24.24,0,0,0,0-.08.08.08,0,0,0,0-.05l-.07,0H6.29V10h0s0,0,0,0a.06.06,0,0,1,0,.06v.27s0,0,0,0a0,0,0,0,1,0,0h0v.08Zm-.09-.36v-.14h.11l0,0a.08.08,0,0,1,0,.05.05.05,0,0,1,0,0H6.49Zm0,.08h.13l0,0a.14.14,0,0,1,0,.07s0,.06,0,.07l-.09,0H6.48v-.18Z"/><path class="cls-3" d="M7.3,10.1H7.24v0s0,0,0,0l0,0H7.13v-.1s0,0,0,0h.07a.16.16,0,0,1,.12,0,.2.2,0,0,1,.09.09l.06,0L7.39,10l-.48,0v.07h0s0,0,0,0a.43.43,0,0,1,0,.05v.28a0,0,0,0,1,0,.05s0,0,0,0h0v.07h.49l.09-.21-.06,0a.4.4,0,0,1-.1.12.21.21,0,0,1-.14,0H7.15v-.18h.05s0,0,0,0l0,0s0,0,0,0h.06Z"/><path class="cls-3" d="M8,10.21l.09-.06a.14.14,0,0,0,0-.11.1.1,0,0,0,0-.08L8,9.91H7.85l-.31,0V10h.07s0,0,0,.06l0,.28a.15.15,0,0,1,0,.07s0,0,0,0h0v.07l.3,0v-.07h0s0,0-.06,0a.08.08,0,0,1,0-.06v-.09h0l.21.23.19,0v-.07a.08.08,0,0,1-.06,0s0,0-.05,0Zm-.22,0,0-.12v0h0l0,0h.12l0,0,0,0a.08.08,0,0,1,0,0l0,0H7.79Z"/><path class="cls-3" d="M8.46,9.81l-.24.06v.06h0s0,0,0,0,0,0,0,0l.06.27a.18.18,0,0,1,0,.06.09.09,0,0,1-.06,0l0,.07.22,0,0-.07H8.48a0,0,0,0,1,0,0v0L8.39,10l.24.41.09,0,0-.46.07.28v.07l0,0h0v.07l.3-.07,0-.07H9a0,0,0,0,1,0,0v0l-.06-.26a.06.06,0,0,1,0,0v0l0,0H9l0-.07-.25.06,0,.38Z"/><path class="cls-3" d="M9.27,9.58,9,9.67l0,.07H9.1l0,.05.07.21a.36.36,0,0,0,0,.09.22.22,0,0,0,.07.06h.09l.08,0,.09,0L9.62,10a.12.12,0,0,0,0-.1.29.29,0,0,0,0-.09l-.07-.2a.08.08,0,0,1,0,0,0,0,0,0,1,0,0l0,0,0-.07-.21.08,0,.06h.05l0,0,0,0,.07.2s0,0,0,.06a.07.07,0,0,1,0,.05l0,0,0,0H9.42l-.05,0,0,0s0,0,0-.05l-.06-.2,0,0s0,0,0,0l0,0Z"/><path class="cls-3" d="M10,9.77v0a0,0,0,0,1,0,0l0,0,0,0h0l0,.06.28-.12,0-.07h-.07l0,0,0,0L10,9.4h.1l0,0,.05,0,0,0-.13-.14-.41.18v.19h.06s0,0,0,0,0,0,0-.05l0,0,0,0h0a0,0,0,0,0,0,0Z"/><path class="cls-3" d="M10.41,9.05l-.24.15,0,.06h.07l0,0,.11.19.06.08.08,0h.09l.08,0,.07-.06a.16.16,0,0,0,0-.09.1.1,0,0,0,0-.09l0-.09-.11-.17,0,0s0,0,0,0l0,0,0-.06L10.48,9l0,.06h.07l0,0,.11.18,0,.05s0,0,0,.06,0,0,0,0l0,0h-.09l0,0,0,0-.11-.18s0,0,0,0v0l0,0Z"/></g></g></svg>