<svg xmlns="http://www.w3.org/2000/svg" xmlns:xlink="http://www.w3.org/1999/xlink" viewBox="0 0 19.58 9.14"><defs><style>.cls-1,.cls-3{fill:#fff;}.cls-1{clip-rule:evenodd;}.cls-2,.cls-4{fill:#ed1c24;}.cls-2,.cls-3{fill-rule:evenodd;}.cls-5{clip-path:url(#clip-path);}</style><clipPath id="clip-path"><path class="cls-1" d="M.83,4.57A3.75,3.75,0,1,1,4.57,8.32,3.73,3.73,0,0,1,.83,4.57Z"/></clipPath></defs><g id="Layer_2" data-name="Layer 2"><g id="Layer_1-2" data-name="Layer 1"><path class="cls-2" d="M0,4.57A4.57,4.57,0,1,1,4.57,9.14,4.58,4.58,0,0,1,0,4.57Z"/><path class="cls-3" d="M.34,4.57A4.23,4.23,0,1,1,4.57,8.8,4.24,4.24,0,0,1,.34,4.57Z"/><circle class="cls-4" cx="4.57" cy="4.57" r="3.91" transform="translate(-1.89 4.57) rotate(-45)"/><path class="cls-3" d="M.83,4.57A3.75,3.75,0,1,1,4.57,8.32,3.73,3.73,0,0,1,.83,4.57Z"/><g class="cls-5"><rect class="cls-4" x="0.83" y="4.39" width="3.55" height="0.15"/><rect class="cls-4" x="0.81" y="4.75" width="3.55" height="0.15" transform="translate(-0.72 0.46) rotate(-9)"/><rect class="cls-4" x="0.88" y="5.07" width="3.55" height="0.15" transform="translate(-1.46 1.07) rotate(-18)"/><rect class="cls-4" x="0.95" y="5.33" width="3.55" height="0.15" transform="translate(-2.03 1.66) rotate(-25)"/><rect class="cls-4" x="0.81" y="5.67" width="3.92" height="0.15" transform="translate(-2.74 2.53) rotate(-34.02)"/><rect class="cls-4" x="0.99" y="5.92" width="3.92" height="0.15" transform="matrix(0.74, -0.67, 0.67, 0.74, -3.25, 3.51)"/><rect class="cls-4" x="1.23" y="6.16" width="3.92" height="0.15" transform="translate(-3.66 4.79) rotate(-51.02)"/><rect class="cls-4" x="1.47" y="6.34" width="3.92" height="0.15" transform="translate(-3.83 6.06) rotate(-59.02)"/><rect class="cls-4" x="1.78" y="6.5" width="3.92" height="0.15" transform="translate(-3.75 7.58) rotate(-68.03)"/><rect class="cls-4" x="2.03" y="6.58" width="3.92" height="0.15" transform="translate(-3.48 8.79) rotate(-75.03)"/><rect class="cls-4" x="2.36" y="6.65" width="3.92" height="0.15" transform="translate(-2.82 10.33) rotate(-84.02)"/><rect class="cls-4" x="4.88" y="4.39" width="3.55" height="0.15"/><rect class="cls-4" x="6.52" y="3.01" width="0.15" height="3.55" transform="translate(0.94 10.65) rotate(-81.99)"/><rect class="cls-4" x="6.46" y="3.31" width="0.15" height="3.55" transform="translate(-0.16 9.96) rotate(-73.99)"/><rect class="cls-4" x="6.36" y="3.58" width="0.15" height="3.55" transform="translate(-1.07 9.05) rotate(-65.99)"/><rect class="cls-4" x="6.19" y="3.86" width="0.15" height="3.55" transform="translate(-1.87 7.82) rotate(-56.99)"/><rect class="cls-4" x="6.06" y="4.05" width="0.15" height="3.55" transform="translate(-2.25 6.92) rotate(-50.99)"/><rect class="cls-4" x="5.85" y="4.26" width="0.15" height="3.55" transform="translate(-2.52 5.66) rotate(-42.99)"/><rect class="cls-4" x="5.65" y="4.42" width="0.15" height="3.55" transform="translate(-2.55 4.54) rotate(-35.98)"/><rect class="cls-4" x="5.4" y="4.57" width="0.15" height="3.55" transform="translate(-2.34 3.31) rotate(-27.99)"/><rect class="cls-4" x="5.13" y="4.68" width="0.15" height="3.55" transform="translate(-1.89 2.17) rotate(-19.99)"/><rect class="cls-4" x="4.85" y="4.75" width="0.15" height="3.55" transform="translate(-1.25 1.16) rotate(-11.99)"/><rect class="cls-4" x="4.58" y="4.87" width="0.15" height="3.55"/><path class="cls-2" d="M3.38,4.54A1.26,1.26,0,1,1,4.64,5.8,1.25,1.25,0,0,1,3.38,4.54Z"/><path class="cls-2" d="M1.63,3.24l.18.12h.12l.14,0a.5.5,0,0,1,.17,0,.27.27,0,0,1,.25.34.94.94,0,0,1,0,.16.61.61,0,0,0,0,.11.3.3,0,0,1-.17.15H2L2,4.13a.51.51,0,0,1-.61,0h0l-.1,0A.33.33,0,0,1,.8,4a.61.61,0,0,1,.49-.82A.65.65,0,0,1,1.63,3.24Z"/><path class="cls-2" d="M3.06,1.35l.07,0,.21,0a.24.24,0,0,1,.21.12.42.42,0,0,1,0,.18c0,.08,0,.17,0,.22a.2.2,0,0,1-.16.19.44.44,0,0,1-.16,0,.88.88,0,0,1-.33-.06.68.68,0,0,0-.44.08c-.17.1-.74.07-.77-.24a.19.19,0,0,1,0-.15.86.86,0,0,1,.07-.1A2,2,0,0,1,2,1.45a3.37,3.37,0,0,1,.4-.3C2.67,1,3,1.25,3.06,1.35Z"/><path class="cls-2" d="M4,2.63h.26c.16,0,.31.07.28.3a.23.23,0,0,1-.13.18.44.44,0,0,1-.15,0l-.18,0,0,0A.28.28,0,0,0,4,3.22a.5.5,0,0,1-.5.14.64.64,0,0,1-.27-.19A.48.48,0,0,1,3.1,3a.27.27,0,0,1,0-.21.93.93,0,0,1,.65-.35.37.37,0,0,1,.14.06l0,0,0,0Z"/><path class="cls-2" d="M5.26,1.88s.06,0,.13-.07l.11-.07a.21.21,0,0,1,.18,0,2,2,0,0,1,.6.28.61.61,0,0,0,.28.07h.15a.59.59,0,0,1,.17,0,.29.29,0,0,1,.17.27A.42.42,0,0,1,7,2.59a.18.18,0,0,1-.1.08.2.2,0,0,1-.1,0,.48.48,0,0,1-.17,0l-.34,0h0l0,.06a.09.09,0,0,1,0,.06l-.08.05a.25.25,0,0,1-.14,0l-.13,0a1.45,1.45,0,0,1-.26-.07.32.32,0,0,0-.2,0,1.32,1.32,0,0,0-.3.07.43.43,0,0,1-.4-.14l-.11-.13,0-.06,0,0a.34.34,0,0,1,.15-.58.76.76,0,0,1,.36,0Z"/><path class="cls-2" d="M6.94,3a.42.42,0,0,1,.42,0L7.51,3l.09.05a1,1,0,0,1,.3.13.45.45,0,0,1,.14.1.22.22,0,0,1,.09.18.25.25,0,0,1-.11.2.69.69,0,0,1-.15.07,1.42,1.42,0,0,1-.36,0,.16.16,0,0,0-.09,0A1.12,1.12,0,0,0,7.27,4l-.16.16a1.4,1.4,0,0,1-.18.13.63.63,0,0,1-.43,0l-.17,0-.06,0h0a.87.87,0,0,1-.52-.31c-.1-.13-.22-.39,0-.52l.16-.1.06,0A.28.28,0,0,1,6.42,3l.07,0,.1.05A.68.68,0,0,0,6.94,3Z"/><path class="cls-3" d="M.94,3.89c.14.26.3,0,.48.09s.3.13.44,0,.38,0,.41-.12.16-.4,0-.41-.4.08-.5,0-.24-.2-.45-.2A.46.46,0,0,0,.94,3.89Z"/><path class="cls-3" d="M1.86,1.88c0,.12.39.22.55.13A.76.76,0,0,1,3,1.92c.15.05.44.08.44,0s.08-.37-.07-.37-.34,0-.4-.1-.31-.23-.43-.16S1.85,1.77,1.86,1.88Z"/><path class="cls-3" d="M4,2.78c-.08,0-.11-.14-.23-.16a.87.87,0,0,0-.49.28c0,.09.12.27.26.32a.37.37,0,0,0,.34-.11C3.93,3,4,3,4.08,3s.3,0,.31-.06,0-.13-.13-.13Z"/><path class="cls-3" d="M4.67,2a.2.2,0,0,0-.09.34c.1.1.25.37.43.32a1.28,1.28,0,0,1,.6-.07A.79.79,0,0,0,6,2.71c.07,0,.06-.21.25-.2s.54.07.58,0,.08-.23,0-.28-.4,0-.63-.12a2,2,0,0,0-.53-.26c-.11,0-.23.18-.4.18A1.68,1.68,0,0,0,4.67,2Z"/><path class="cls-3" d="M6.34,3.13a.11.11,0,0,0-.18.06c0,.09-.21.21-.32.26s-.09.15,0,.28A.72.72,0,0,0,6.27,4c.11,0,.43.19.6.11s.41-.45.64-.45S8,3.6,8,3.49s-.27-.22-.42-.27S7.21,3,7,3.09a.78.78,0,0,1-.46.14A1.23,1.23,0,0,1,6.34,3.13Z"/></g><path class="cls-2" d="M9.7,3.76l.05.62.12,0H10l.16,0h.13a1,1,0,0,0,.38-.06A.83.83,0,0,0,11,4.17.89.89,0,0,0,11,4a1.12,1.12,0,0,0,0-.2.36.36,0,0,0,0-.14A.49.49,0,0,0,11,3.53a.31.31,0,0,0-.09-.11.52.52,0,0,0-.1-.11l-.11-.1-.1-.09A.32.32,0,0,1,10.5,3a.19.19,0,0,1,0-.07.08.08,0,0,1,0-.07l.14,0,.2,0,.21.08,0-.59-.28,0-.23,0a.88.88,0,0,0-.53.15.55.55,0,0,0-.16.18.76.76,0,0,0-.05.27.39.39,0,0,0,0,.15.47.47,0,0,0,.06.15l.08.12a1.14,1.14,0,0,0,.11.11l.11.1.1.1.08.08a.31.31,0,0,1,0,.08s0,.05,0,.06a.28.28,0,0,1-.15,0h-.11l-.13,0-.12,0Z"/><path class="cls-2" d="M11.4,2.35c0,.18,0,.34,0,.48s0,.26,0,.37a.91.91,0,0,1,0,.17,1,1,0,0,1,0,.17c0,.11,0,.21,0,.3a.56.56,0,0,0,.08.3.79.79,0,0,0,.22.18,1,1,0,0,0,.29.09l.16,0h.17a1.36,1.36,0,0,0,.53-.09A.68.68,0,0,0,13,4.24a.61.61,0,0,0,.13-.15.89.89,0,0,0,.08-.17.76.76,0,0,0,0-.21c0-.19,0-.4,0-.62s0-.47,0-.74h-.7c0,.28,0,.51,0,.7s0,.36-.05.55a1.3,1.3,0,0,1,0,.13.22.22,0,0,1-.05.08.15.15,0,0,1-.07,0l-.1,0a.17.17,0,0,1-.16-.09A.42.42,0,0,1,12,3.52c0-.11,0-.22,0-.31s0-.24,0-.42,0-.34,0-.44Z"/><path class="cls-2" d="M13.62,2.35c0,.19,0,.36,0,.52v.25a2.44,2.44,0,0,0,0,.27q0,.27,0,.51a2.11,2.11,0,0,0,0,.25l0,.25h.68V4.21c0-.06,0-.13,0-.19V3.83c0-.07,0-.13,0-.19s0-.27,0-.42,0-.26,0-.35h.29l.09,0,0,.05s0,0,0,.09a.17.17,0,0,1-.07.15l-.09.05H14.3c0,.13.07.3.11.49s.09.42.14.67h.73c0-.05,0-.14-.08-.27L15.14,4c0-.05,0-.1-.05-.15S15,3.61,15,3.52a.63.63,0,0,0,.28-.25.75.75,0,0,0,.08-.35.51.51,0,0,0-.17-.42.79.79,0,0,0-.52-.15Z"/><path class="cls-2" d="M15.39,2.35,16,3.61c0,.19,0,.45-.05.79h.7l0-.73.34-.6.19-.32.24-.4h-.75L16.37,3l-.22-.65Z"/><path class="cls-2" d="M18.1,2.35l-.22.51-.12.27-.12.27-.25.51-.12.25-.12.24h.76l.18-.47h.64c.06.22.11.38.13.47h.72c-.14-.42-.26-.79-.37-1.14s-.2-.64-.28-.91Zm.18,1.06.2-.5.13.5Z"/><path class="cls-2" d="M9.68,6.51l.05.61.13,0,.07,0h.36a.9.9,0,0,0,.37-.07.54.54,0,0,0,.28-.21A.48.48,0,0,0,11,6.75a.64.64,0,0,0,0-.2.59.59,0,0,0,0-.14A.31.31,0,0,0,11,6.28l-.09-.12-.1-.1L10.67,6l-.11-.1-.07-.08a.11.11,0,0,1,0-.07.07.07,0,0,1,0-.07.23.23,0,0,1,.13,0,.64.64,0,0,1,.2,0l.21.07,0-.59-.29,0H10.5A.86.86,0,0,0,10,5.2a.48.48,0,0,0-.16.19.66.66,0,0,0-.06.26.78.78,0,0,0,0,.16L9.84,6l.09.13.1.1.11.11.11.09a.28.28,0,0,1,.07.09.13.13,0,0,1,0,.07s0,0,0,.07l-.16,0H10a.27.27,0,0,1-.12,0l-.12,0Z"/><path class="cls-2" d="M12,5.1l-.23.51a2,2,0,0,1-.11.26l-.13.27-.24.52-.12.25c0,.08-.08.16-.13.24h.76L12,6.67h.64c.07.23.11.39.13.48h.73c-.14-.42-.26-.8-.37-1.14l-.29-.91Zm.18,1.05.2-.5.13.5Z"/><path class="cls-2" d="M13.66,5.1q0,.48,0,1c0,.34,0,.69-.07,1.06h.71c0-.25,0-.54,0-.88s0-.73.07-1.17Zm1.25,0-.17.3-.08.15-.08.14c-.05.09-.13.21-.22.38a1.42,1.42,0,0,0,.08.18l.09.19.09.2c0,.06.05.11.07.17s.05.11.07.17.05.11.07.17h.82l-.57-1.09.61-1Z"/><path class="cls-2" d="M15.73,5.1l0,.56a4,4,0,0,1,.55,0c0,.15,0,.32,0,.49a2.44,2.44,0,0,1,0,.27,2.11,2.11,0,0,1,0,.25,2,2,0,0,1,0,.25,2,2,0,0,1,0,.25h.71c0-.56,0-1.07.06-1.51a4.28,4.28,0,0,1,.55,0l0-.56Z"/><path class="cls-2" d="M17.68,5.1c0,.26,0,.57,0,.91s0,.72-.07,1.14h.73V6.63a2.17,2.17,0,0,1,0-.26V6.13a1.69,1.69,0,0,0,0-.23c0-.08,0-.17,0-.25s0-.18,0-.27a2.46,2.46,0,0,0,0-.28Z"/></g></g></svg>