<svg xmlns="http://www.w3.org/2000/svg" xmlns:xlink="http://www.w3.org/1999/xlink" viewBox="0 0 16.61 8.22"><defs><style>.cls-1{fill:#bb8a0b;}.cls-2{fill:url(#linear-gradient);}.cls-3{fill:url(#linear-gradient-2);}.cls-4{fill:url(#linear-gradient-3);}.cls-5{fill-rule:evenodd;fill:url(#linear-gradient-4);}.cls-6{fill:#ec1c24;}</style><linearGradient id="linear-gradient" x1="7.4" y1="3.65" x2="13.22" y2="3.03" gradientUnits="userSpaceOnUse"><stop offset="0" stop-color="#faa61a"/><stop offset="0.52" stop-color="#fff200"/><stop offset="0.75" stop-color="#fff200"/><stop offset="1" stop-color="#fdb913"/></linearGradient><linearGradient id="linear-gradient-2" x1="8.88" y1="2.77" x2="15.54" y2="4.43" gradientUnits="userSpaceOnUse"><stop offset="0" stop-color="#faa61a"/><stop offset="0.24" stop-color="#fff200"/><stop offset="0.55" stop-color="#fff200"/><stop offset="0.7" stop-color="#fdb913"/><stop offset="0.88" stop-color="#fff200"/><stop offset="1" stop-color="#fff200"/></linearGradient><linearGradient id="linear-gradient-3" x1="8.41" y1="7.74" x2="14.25" y2="4.89" gradientUnits="userSpaceOnUse"><stop offset="0" stop-color="#fdb913"/><stop offset="0.74" stop-color="#fff200"/><stop offset="1" stop-color="#fff200"/></linearGradient><linearGradient id="linear-gradient-4" x1="1692" y1="-1581.66" x2="1701.84" y2="-1581.66" gradientTransform="translate(-1692 1584)" gradientUnits="userSpaceOnUse"><stop offset="0" stop-color="#faa61a"/><stop offset="0.48" stop-color="#fff200"/><stop offset="1" stop-color="#faa61a"/></linearGradient></defs><g id="Layer_2" data-name="Layer 2"><g id="Layer_1-2" data-name="Layer 1"><path class="cls-1" d="M8.85,7.58h0Zm.77-.53-.19.17.21,0V7.05Zm.83-.42a1.3,1.3,0,0,1-.18.23l.26,0a.08.08,0,0,1,0,0l0-.09Zm.76-.18h.06s-.06,0-.07-.06l0,0h0v0a.75.75,0,0,1-.15.2ZM11.74,6h0ZM9,5.06l0,.05L9,5.06Zm.55-.83a1.59,1.59,0,0,1-.12.27,1.28,1.28,0,0,1,.21-.14l0-.05Zm.73-.66-.06,0-.06-.08a.88.88,0,0,1-.07.32l.24-.13-.07,0Zm.51-.63,0,0h-.05a.73.73,0,0,0-.05.12l0,.12A1.46,1.46,0,0,1,10.79,3l.06,0Zm.34-.57.07-.05h-.06ZM12,4.21l0,0,.07,0ZM12.15,4l0-.11,0,.15Zm.75-.35-.14-.07.05,0,0-.06a1.92,1.92,0,0,1-.12.25l.16,0,.2,0Zm1.21-1.17,0,.06.17-.08,0-.05,0,0A.07.07,0,0,0,14.11,2.45Zm.61-.68a1.87,1.87,0,0,1-.07.22l.16-.07.1,0-.1,0-.05-.05a.13.13,0,0,1,0-.06ZM10,5.88l.14-.06,0,.23.25-.23.18-.12.07,0,.08,0,0,.09.16-.16a2,2,0,0,1,.31-.2l.54-.27-.07.11L11.85,5a4.07,4.07,0,0,1,.37-.21h-.08a.66.66,0,0,1-.41-.14c-.15.12-.93.68-1.48,1ZM13.8,3.06,13.63,3a.15.15,0,0,1,0-.12v0l0,0,0-.1a1.25,1.25,0,0,1-.22.41l.07,0a1.35,1.35,0,0,1,.5-.06ZM7.63,6.81l-.07-.62.85-.93a1.14,1.14,0,0,1,0-1.07,1.71,1.71,0,0,1,.23-.41l.1-.13.14-.13,0,.11a1.4,1.4,0,0,1,.22-.38A1.28,1.28,0,0,1,9.32,3l.14-.15s0,.12,0,.25a1.82,1.82,0,0,1,.15-.34,2.85,2.85,0,0,1,.21-.32L10,2.23V2.3c.06-.11.14-.22.2-.31l.4-.47,0,.14.2-.32L11.08,1l0-.05a1.87,1.87,0,0,1,.26-.36.41.41,0,0,1,.1-.09l.18-.16s0,.33.05.5v0a1.31,1.31,0,0,1,.17-.28,1.43,1.43,0,0,1,1-.57L13,0l0,.12a2.75,2.75,0,0,1-.56.93,1.37,1.37,0,0,1-.17.17l.26,0h.2l-.16.21-.11.1a.92.92,0,0,0-.19.25.86.86,0,0,1-.13.2l.08,0s-.18.36-.27.5a1.47,1.47,0,0,1-.37.42l-.09.06A1,1,0,0,1,11.7,3l.12.06-.11.07a5.35,5.35,0,0,1-.47.33l-.13.08h.37l-.15.14L10.92,4l-.18.16-.14.11.07,0L11,4.4l-.54.31A4.22,4.22,0,0,1,9.93,5l.48.09c.5-.34.95-.67,1-.73a1.11,1.11,0,0,1,.18-1,1.86,1.86,0,0,1,.3-.35l.11-.1.05,0,.08,0,.06.14a1.28,1.28,0,0,1,.26-.34,1.21,1.21,0,0,1,.16-.16l.06-.05.05,0s.09,0,.1.06v.12a2.54,2.54,0,0,1,.31-.5l.16-.17.23-.2v.21l.1-.16a1.28,1.28,0,0,1,.26-.26c.08-.08.46-.38.46-.38l0,.12.21-.23L14.93.6l-.06.24A.46.46,0,0,0,15,.72a1,1,0,0,1,.5-.33l.06,0,.06.17s0,.08,0,.12a.47.47,0,0,1,.1-.1,1.23,1.23,0,0,1,.81-.32h.12l0,.11a1.38,1.38,0,0,1-.22.39,1.27,1.27,0,0,1-.28.29l-.21.14h.2l.29.05.19.06-.22.14-.12.06a.78.78,0,0,0-.26.17.84.84,0,0,1-.41.23l.39.07s-.28.22-.41.3a1.93,1.93,0,0,1-.43.22l.22.13.12.08-.13.05-.6.23-.44.14-.08,0a2.24,2.24,0,0,1,.39.1l.19.06-.18.08-.48.22-.21.1a1,1,0,0,1-.21.08l.08,0,.3.19-.58.19a5.18,5.18,0,0,1-.53.14c.19.06.48.18.48.18L13,4.64s0,0,0,.06a1.52,1.52,0,0,1-.08.22l.24-.15a1.42,1.42,0,0,1,1.12-.1l.11,0-.08.09a2.68,2.68,0,0,1-.85.61l-.2.07.31.08.28.09-.27.06a1.36,1.36,0,0,0-.53.22L12.81,6h.07s-.3.25-.44.34a1.48,1.48,0,0,1-.49.23h-.08a1.1,1.1,0,0,1,.16.15l.08.1L12,6.9l-.55.1-.13,0,.14.06.18.08-.19.06-.5.16-.22.08-.16,0,0,0,.14.13.11.11s-.39.05-.61.06a5.06,5.06,0,0,1-.54,0c.16.1.42.29.42.29l-.21,0c-.31,0-.5.05-.66.05a1.75,1.75,0,0,1-.46,0,.56.56,0,0,1-.41-.3v0A.89.89,0,0,1,8.52,6.7L7.93,7l-.14-.4Zm.19-.22c.25-.14,1.16-.65,1.82-1L10,5.3l-.36.19a1.79,1.79,0,0,1-.45.17.63.63,0,0,1-.51-.1Z"/><path class="cls-2" d="M8.46,5.36a.7.7,0,0,0,.22.16c-.23.23-1,1-1,1l0-.33Zm3.15-3.87A2.78,2.78,0,0,1,12,.65a1.44,1.44,0,0,1,.95-.52,4.21,4.21,0,0,1-.57.85A2.38,2.38,0,0,1,11.61,1.49Zm0-.95a2.51,2.51,0,0,1,0,.85,1.38,1.38,0,0,1-.49.69A1.92,1.92,0,0,1,11.21,1,1.52,1.52,0,0,1,11.58.54Zm-.6.75A4.07,4.07,0,0,0,11,2a.71.71,0,0,1-.33.77,1,1,0,0,1,0-1A3.27,3.27,0,0,1,11,1.29Zm-.52.6a1.78,1.78,0,0,0,0,.74.81.81,0,0,1-.28.84,1.05,1.05,0,0,1-.09-1.11A3.45,3.45,0,0,1,10.46,1.89Zm-.55.69a2,2,0,0,0,.07.65.78.78,0,0,1-.1.69,1.29,1.29,0,0,1-.26.3,2,2,0,0,1-.08-.8A2.11,2.11,0,0,1,9.91,2.58Zm-.51.51A3.65,3.65,0,0,1,9.47,4a1.41,1.41,0,0,1-.42.8,2.82,2.82,0,0,1-.07-1A1.83,1.83,0,0,1,9.4,3.09Zm-.55.59a3,3,0,0,0,0,.71,1.12,1.12,0,0,1-.2,1c-.49-.35-.26-1-.17-1.19A1.88,1.88,0,0,1,8.85,3.68ZM8.77,5.47a1,1,0,0,1,.52-.4,2.74,2.74,0,0,1,.86,0,3.28,3.28,0,0,1-.94.44A.52.52,0,0,1,8.77,5.47ZM9.05,5a2.73,2.73,0,0,1,.68-.54,1.49,1.49,0,0,0,.68-.07,1,1,0,0,1,.35.07,6.73,6.73,0,0,1-1,.48A2,2,0,0,1,9.05,5Zm.7-.66a1.29,1.29,0,0,1,.37-.42,1.93,1.93,0,0,1,1.16-.28c-.38.18-.51.44-.8.62A1.21,1.21,0,0,1,9.75,4.3Zm.59-.74a3.19,3.19,0,0,1,.51-.47.82.82,0,0,1,.8,0c-.37.17-.62.39-.8.47A.84.84,0,0,1,10.34,3.56Zm.44-.73a2.18,2.18,0,0,1,.48-.44,6.83,6.83,0,0,1,.72-.3,2.14,2.14,0,0,1-.49.65A.83.83,0,0,1,10.78,2.83Zm.4-.61a1.34,1.34,0,0,1,.51-.63,1.92,1.92,0,0,1,.82-.31,1.33,1.33,0,0,0-.36.4,1,1,0,0,1-.51.46A.9.9,0,0,1,11.18,2.22Z"/><path class="cls-3" d="M14.28,2.31A5.07,5.07,0,0,1,14.85,2a2,2,0,0,1,.82,0,2.56,2.56,0,0,1-.66.37A1.14,1.14,0,0,1,14.28,2.31Zm-.63.56a5.51,5.51,0,0,1,.63-.34,1.26,1.26,0,0,1,1,.14c-.39.09-.83.28-1,.32A.93.93,0,0,1,13.65,2.87Zm-.72.65a1.11,1.11,0,0,1,.46-.28,1.84,1.84,0,0,1,1.14.07,6.72,6.72,0,0,0-.91.34A1.1,1.1,0,0,1,12.93,3.52Zm-.83.61a2.58,2.58,0,0,1,.74-.38,1.43,1.43,0,0,0,.65.06,1,1,0,0,1,.31.13,6.15,6.15,0,0,1-1,.27A1.94,1.94,0,0,1,12.1,4.13Zm-.36.43a1,1,0,0,1,.57-.28,2.67,2.67,0,0,1,.8.19,3.13,3.13,0,0,1-1,.25A.5.5,0,0,1,11.74,4.56Zm.4-1.66a3.52,3.52,0,0,0-.11.67,1.06,1.06,0,0,1-.37.92c-.4-.41-.06-1,.05-1.14A2,2,0,0,1,12.14,2.9Zm.61-.44a3.17,3.17,0,0,1,0,.84,1.32,1.32,0,0,1-.49.71,2.81,2.81,0,0,1,0-1A1.8,1.8,0,0,1,12.75,2.46Zm.7-.59s0,.43,0,.65a1.08,1.08,0,0,1-.26.61,1.6,1.6,0,0,1-.3.24A2,2,0,0,1,13,2.6,2.13,2.13,0,0,1,13.45,1.87Zm.69-.5a1.72,1.72,0,0,0-.09.71.79.79,0,0,1-.42.74,1,1,0,0,1,.12-1.06A2.68,2.68,0,0,1,14.14,1.37Zm.6-.46a4,4,0,0,0-.11.7.71.71,0,0,1-.46.67,1,1,0,0,1,.19-1A3.06,3.06,0,0,1,14.74.91Zm.75-.42a1.86,1.86,0,0,1-.18.66c-.16.31-.34.34-.53.46a1.17,1.17,0,0,1,.28-.82A.93.93,0,0,1,15.49.49Zm-.14.8a1.74,1.74,0,0,1,.4-.65,1.2,1.2,0,0,1,.75-.3,2.44,2.44,0,0,1-.5.59A2.62,2.62,0,0,1,15.35,1.29Zm-.53.45a1.3,1.3,0,0,1,.66-.41,1.94,1.94,0,0,1,.84,0,1.4,1.4,0,0,0-.46.26,1,1,0,0,1-.6.26A.92.92,0,0,1,14.82,1.74ZM7.91,6.65s1-.55,1.79-1,1.78-1.21,1.78-1.21l.09,0,.06.17s-.83.61-1.43,1S8,6.87,8,6.87Z"/><path class="cls-4" d="M11.86,5.93a1.3,1.3,0,0,1,.69-.36,1.92,1.92,0,0,1,.84,0,1.22,1.22,0,0,0-.47.22,1,1,0,0,1-.63.2A1,1,0,0,1,11.86,5.93Zm.66-.47a2.56,2.56,0,0,1,.63-.6,1.36,1.36,0,0,1,1-.09,4.45,4.45,0,0,1-.83.53A2.43,2.43,0,0,1,12.52,5.46Zm.34-.85a2.21,2.21,0,0,1-.36.73,1.33,1.33,0,0,1-.69.42,1.75,1.75,0,0,1,.55-.89A1.52,1.52,0,0,1,12.86,4.61ZM12,5a4,4,0,0,0-.27.66.68.68,0,0,1-.59.54,1,1,0,0,1,.4-.9A3,3,0,0,1,12,5Zm-.68.32A1.7,1.7,0,0,0,11.1,6a.79.79,0,0,1-.57.62,1,1,0,0,1,.35-1A2.62,2.62,0,0,1,11.36,5.36Zm-.75.39a1.73,1.73,0,0,0-.2.59.75.75,0,0,1-.35.57,1.21,1.21,0,0,1-.35.17A1.9,1.9,0,0,1,10,6.34,2,2,0,0,1,10.61,5.75ZM10,6a3.1,3.1,0,0,1-.28.79A1.28,1.28,0,0,1,9,7.33a2.76,2.76,0,0,1,.33-.92A1.76,1.76,0,0,1,10,6Zm-.71.3A3.18,3.18,0,0,0,9,6.93a1.07,1.07,0,0,1-.57.82c-.29-.49.16-1,.31-1.11A1.91,1.91,0,0,1,9.24,6.3ZM8.48,7.83a.93.93,0,0,1,.61-.15,2.58,2.58,0,0,1,.74.38,3.41,3.41,0,0,1-1,0A.52.52,0,0,1,8.48,7.83Zm.44-.33a2.5,2.5,0,0,1,.81-.21,1.3,1.3,0,0,0,.62.2,1.34,1.34,0,0,1,.28.2,6.27,6.27,0,0,1-1,0A1.81,1.81,0,0,1,8.92,7.5Zm.87-.31A1.12,1.12,0,0,1,10.28,7a1.89,1.89,0,0,1,1.13.21,6.69,6.69,0,0,0-.95.22A1.11,1.11,0,0,1,9.79,7.19Zm.8-.42a3.56,3.56,0,0,1,.64-.21.8.8,0,0,1,.72.28c-.4,0-.7.1-.88.1A.85.85,0,0,1,10.59,6.77Zm.68-.46a2.14,2.14,0,0,1,.59-.2,6.51,6.51,0,0,1,.75,0,1.94,1.94,0,0,1-.68.37A.8.8,0,0,1,11.27,6.31Z"/><path class="cls-5" d="M0,2.92A4.12,4.12,0,0,1,3.33,2.5a12.11,12.11,0,0,0,4.3.31,3.58,3.58,0,0,0,2.21-1,6.39,6.39,0,0,1-3.5.52,18,18,0,0,1-2.8-.41,3.89,3.89,0,0,0-2.45.16A2.57,2.57,0,0,0,0,2.92Z"/><path class="cls-6" d="M.21,3.27A6.94,6.94,0,0,1,1.4,3.18a2.26,2.26,0,0,1,1.21.24.94.94,0,0,1,.48.84,1,1,0,0,1-.67.91h0a1.06,1.06,0,0,1,.81,1.05,1.16,1.16,0,0,1-.42.91,2.49,2.49,0,0,1-1.61.39,7,7,0,0,1-1-.06ZM1.12,4.9h.3c.49,0,.75-.2.75-.52s-.24-.5-.66-.5a2.41,2.41,0,0,0-.39,0Zm0,1.9h.36c.41,0,.78-.17.78-.62s-.37-.59-.83-.59H1.12Z"/><path class="cls-6" d="M3.86,3.27A7.16,7.16,0,0,1,5.1,3.18a1.89,1.89,0,0,1,1.25.34,1.28,1.28,0,0,1,.43,1,1.38,1.38,0,0,1-.37,1A1.9,1.9,0,0,1,5.08,6a1.35,1.35,0,0,1-.31,0V7.49H3.86Zm.91,1.94a1.33,1.33,0,0,0,.31,0c.49,0,.79-.26.79-.69s-.26-.62-.72-.62a1.57,1.57,0,0,0-.38,0Z"/><path class="cls-6" d="M7.4,6.49a2.28,2.28,0,0,0,1,.27c.42,0,.65-.19.65-.47s-.2-.42-.69-.59c-.67-.26-1.12-.65-1.12-1.27S7.85,3.15,8.8,3.15a2.29,2.29,0,0,1,1,.21l-.2.78a1.89,1.89,0,0,0-.85-.21c-.4,0-.59.2-.59.42s.22.39.75.6c.72.28,1.05.67,1.05,1.27S9.48,7.55,8.37,7.55a2.48,2.48,0,0,1-1.16-.27Z"/></g></g></svg>