<svg xmlns="http://www.w3.org/2000/svg" xmlns:xlink="http://www.w3.org/1999/xlink" viewBox="0 0 20.05 9.33"><defs><style>.cls-1{isolation:isolate;}.cls-2,.cls-3{fill:#552012;stroke:#552012;stroke-linejoin:round;stroke-width:0.25px;}.cls-2{mix-blend-mode:multiply;opacity:0.8;}.cls-4{fill:url(#linear-gradient);}.cls-5{fill:#fff;}</style><linearGradient id="linear-gradient" x1="0.12" y1="3.74" x2="19.93" y2="3.74" gradientUnits="userSpaceOnUse"><stop offset="0.15" stop-color="#cd982c"/><stop offset="0.52" stop-color="#fff6ab"/><stop offset="0.89" stop-color="#cd982c"/></linearGradient></defs><g class="cls-1"><g id="Layer_2" data-name="Layer 2"><g id="Layer_1-2" data-name="Layer 1"><path class="cls-2" d="M10.07,5.88a13.84,13.84,0,0,0-3.66.52l0,0A7.86,7.86,0,0,0,8.62,2.22v0H6.23v.18h.13c.5,0,.75.18.75.55a1.13,1.13,0,0,1-.4.87,1.39,1.39,0,0,1-.93.36A1.05,1.05,0,0,1,5,3.84a1.13,1.13,0,0,1-.27-.79A2.27,2.27,0,0,1,5,1.94,2,2,0,0,1,6.9.9c.37,0,.57.09.57.26a.81.81,0,0,1,0,.2l0,.11h.2L7.88.55h0l-.39,0a3.53,3.53,0,0,0-2.3.84,2.36,2.36,0,0,0-.94,1.91,1.14,1.14,0,0,0,.35.88,1.24,1.24,0,0,0,.91.34A2.3,2.3,0,0,0,7,3.8a1.44,1.44,0,0,0,.56-1,.58.58,0,0,0-.16-.42H8a4.56,4.56,0,0,1-.27,1.21,9.86,9.86,0,0,1-.49,1.19A5.71,5.71,0,0,1,6.05,6.42l-1-1.28h0l-.61-.9A2.75,2.75,0,0,0,2.23,2.8a2.07,2.07,0,0,0-1.55.6A2.15,2.15,0,0,0,.12,4.93a2.6,2.6,0,0,0,1,2.1,3.21,3.21,0,0,0,2.11.72,4.49,4.49,0,0,0,2.64-.87,22.83,22.83,0,0,1,6.44-.64c4.18.1,6.72.41,6.72.41A44.94,44.94,0,0,0,10.07,5.88Zm-9,.47A2.61,2.61,0,0,1,.45,4.63,1.58,1.58,0,0,1,.86,3.51,1.47,1.47,0,0,1,2,3.06a2,2,0,0,1,1.23.47A6.6,6.6,0,0,1,4.32,4.91l.32.49c.21.34.39.59.52.77l.41.62a3.65,3.65,0,0,1-2,.61A3,3,0,0,1,1.09,6.35ZM9,3.57a1.6,1.6,0,0,0,.15-.4.12.12,0,0,0,0-.07.12.12,0,0,0-.09,0l-.2.05h0l0-.16.08,0,.89-.3,0,0v0a2.64,2.64,0,0,1-.35,1l-.33.66a3.57,3.57,0,0,0-.38.91c0,.09,0,.14.12.14q.36,0,1-.75a6.13,6.13,0,0,0,1-1.64l.06-.13h0a2,2,0,0,0,.51-.14l.07,0,0,.06C11.22,3,11,3.4,10.76,4a6.38,6.38,0,0,0-.45,1.19.08.08,0,0,0,0,.06.1.1,0,0,0,.08,0,1,1,0,0,0,.3-.08h0l.07.14h0a8.21,8.21,0,0,1-.93.38l-.14,0v0A6.17,6.17,0,0,1,10,4.58c-.66.79-1.17,1.17-1.57,1.17a.25.25,0,0,1-.28-.28,4.11,4.11,0,0,1,.47-1.28Zm6.67-.39a5.88,5.88,0,0,0,1-.55l0,0v0a.62.62,0,0,1,0,.13,2.68,2.68,0,0,1-.21.82c.57-.64,1-.95,1.28-.95a.35.35,0,0,1,.18.06h0l-.16.41h0l-.25,0c-.29,0-.6.22-.93.65a6.57,6.57,0,0,0-.82,1.8l-.05.14h0l-.47.13,0,0,.06-.16.34-.87A7.2,7.2,0,0,0,16,3.34c0-.08,0-.09-.07-.09a.75.75,0,0,0-.25.09l0,0-.07-.17ZM11.05,5.46a4.41,4.41,0,0,1,.39-1.28c.18-.41.36-.82.53-1.23l.36-.84a4.56,4.56,0,0,0,.33-.87s0-.08-.09-.08l-.2.05,0,0h0l0-.16.08,0,.94-.38,0,0v0a6,6,0,0,1-.62,1.82,14.73,14.73,0,0,0-1.09,2.74.11.11,0,0,0,0,.1.1.1,0,0,0,.08,0h0s.14,0,.38-.21l.06,0,0,0a2.35,2.35,0,0,1,.59-1.07A4.62,4.62,0,0,1,14,3.15a3.8,3.8,0,0,1,1.77-.48c.13,0,.14.08.14.12a.7.7,0,0,1-.11.29v0h0a2.92,2.92,0,0,0-.5-.05,2.65,2.65,0,0,0-2,.87,1.89,1.89,0,0,0-.61,1.26c0,.18.06.27.2.27s.37-.14.64-.42A5.54,5.54,0,0,0,14,4.4a3.82,3.82,0,0,0,.53-1.21v0l0,0a.4.4,0,0,1,.17.37,1.35,1.35,0,0,1-.34.8,2.81,2.81,0,0,0,.39-.1l.06,0-.06.12a3.41,3.41,0,0,0-.36.91c0,.07,0,.07.06.07h0a.92.92,0,0,0,.33-.14h0l.1.13,0,0a3.2,3.2,0,0,1-1.11.46h0v0a3.73,3.73,0,0,1,.38-1.14,6.56,6.56,0,0,1-.72.67,1.84,1.84,0,0,1-1,.51c-.13,0-.29-.06-.29-.36V5.32a1.65,1.65,0,0,1-.85.48C11.19,5.8,11.05,5.74,11.05,5.46Zm7.07-1.69v0A.27.27,0,0,0,18.4,4a1.54,1.54,0,0,0,.53-.14,2.62,2.62,0,0,0,.48-.25c.35-.25.52-.49.52-.72s-.06-.24-.33-.24a2.16,2.16,0,0,0-1.2.48,3.42,3.42,0,0,0-.88,1,2.41,2.41,0,0,0-.38,1.23q0,.51.48.51a2.14,2.14,0,0,0,1.28-.68,1.25,1.25,0,0,0,.51-.84.38.38,0,0,0-.05-.19l0,0,0,0a3.55,3.55,0,0,1-.53.86,1.14,1.14,0,0,1-.84.49c-.2,0-.3-.11-.3-.35a2.27,2.27,0,0,1,.22-.88A5.42,5.42,0,0,1,18.12,3.77Zm.23-.3A1.23,1.23,0,0,1,19.2,3c.19,0,.21.09.21.15s-.12.34-.36.47a1.32,1.32,0,0,1-.64.18l-.25,0h0Z"/><path class="cls-3" d="M10.07,5.48A13.84,13.84,0,0,0,6.41,6h0A7.85,7.85,0,0,0,8.62,1.82v0H6.23V2h.13c.5,0,.75.17.75.54a1.12,1.12,0,0,1-.4.87,1.34,1.34,0,0,1-.93.36A1.05,1.05,0,0,1,5,3.44a1.13,1.13,0,0,1-.27-.79A2.27,2.27,0,0,1,5,1.54,2,2,0,0,1,6.9.5c.37,0,.57.09.57.26a.75.75,0,0,1,0,.2l0,.11h.2L7.88.15h0l-.39,0A3.53,3.53,0,0,0,5.16,1a2.36,2.36,0,0,0-.94,1.91,1.18,1.18,0,0,0,.35.89,1.27,1.27,0,0,0,.91.33A2.3,2.3,0,0,0,7,3.4a1.4,1.4,0,0,0,.56-1A.56.56,0,0,0,7.41,2H8a4.59,4.59,0,0,1-.27,1.2,9.86,9.86,0,0,1-.49,1.19A5.58,5.58,0,0,1,6.05,6l-1-1.28h0l-.61-.89A2.74,2.74,0,0,0,2.23,2.4,2,2,0,0,0,.68,3,2.13,2.13,0,0,0,.12,4.53a2.6,2.6,0,0,0,1,2.1,3.22,3.22,0,0,0,2.11.73,4.5,4.5,0,0,0,2.64-.88,23.25,23.25,0,0,1,6.44-.64c4.18.1,6.72.42,6.72.42A44.42,44.42,0,0,0,10.07,5.48ZM1.09,6A2.65,2.65,0,0,1,.45,4.23,1.58,1.58,0,0,1,.86,3.11,1.47,1.47,0,0,1,2,2.66a1.91,1.91,0,0,1,1.23.48A6.23,6.23,0,0,1,4.32,4.51L4.64,5c.21.34.39.6.52.78l.41.61a3.57,3.57,0,0,1-2,.61A3,3,0,0,1,1.09,6ZM9,3.17a1.47,1.47,0,0,0,.15-.4.14.14,0,0,0,0-.07s-.05,0-.09,0a.82.82,0,0,0-.2,0h0l0-.16.08,0,.89-.3h0v0a2.64,2.64,0,0,1-.35,1l-.33.66a3.72,3.72,0,0,0-.38.91c0,.1,0,.14.12.14.24,0,.56-.25,1-.74a6.35,6.35,0,0,0,1-1.65l.06-.13h0a2,2,0,0,0,.51-.14l.07,0,0,.06c-.13.24-.33.66-.59,1.24a7,7,0,0,0-.45,1.19.08.08,0,0,0,0,.06.1.1,0,0,0,.08,0,1.22,1.22,0,0,0,.3-.07h0l.07.14h0a8.21,8.21,0,0,1-.93.38l-.14.05v0A6.17,6.17,0,0,1,10,4.18C9.37,5,8.86,5.35,8.46,5.35a.25.25,0,0,1-.28-.28A4,4,0,0,1,8.65,3.8Zm6.67-.38a6.73,6.73,0,0,0,1-.56l0,0v0a.62.62,0,0,1,0,.13,2.68,2.68,0,0,1-.21.82c.57-.63,1-.94,1.28-.94a.33.33,0,0,1,.18,0h0l-.16.41h0l-.25,0c-.29,0-.6.22-.93.65a6.57,6.57,0,0,0-.82,1.8l-.05.14h0a3.59,3.59,0,0,0-.47.12l0,0,.06-.16.34-.87A7.2,7.2,0,0,0,16,2.94c0-.08,0-.09-.07-.09a.68.68,0,0,0-.25.1h0l-.07-.16ZM11.05,5.06a4.41,4.41,0,0,1,.39-1.28c.18-.41.36-.82.53-1.23l.36-.84a4.28,4.28,0,0,0,.33-.87s0-.08-.09-.08l-.2.05,0,0h0l0-.16.08,0c.25-.1.57-.22.94-.38l0,0v0a5.9,5.9,0,0,1-.62,1.82,15.33,15.33,0,0,0-1.09,2.74.1.1,0,0,0,0,.1.1.1,0,0,0,.08,0h0s.14,0,.38-.21l.06,0,0,0a2.28,2.28,0,0,1,.59-1.06,4.24,4.24,0,0,1,1.2-1,3.68,3.68,0,0,1,1.77-.48c.13,0,.14.07.14.11a.7.7,0,0,1-.11.29v0h0a2.92,2.92,0,0,0-.5-.05,2.69,2.69,0,0,0-2,.87,1.89,1.89,0,0,0-.61,1.26c0,.18.06.27.2.27s.37-.14.64-.42A4.22,4.22,0,0,0,14,4a3.87,3.87,0,0,0,.53-1.2v0l0,0a.41.41,0,0,1,.17.38,1.35,1.35,0,0,1-.34.79,2.81,2.81,0,0,0,.39-.1l.06,0L14.81,4a3.41,3.41,0,0,0-.36.91c0,.07,0,.08.06.08h0a1.31,1.31,0,0,0,.33-.15h0l.1.14h0a3,3,0,0,1-1.11.46h0v0a3.73,3.73,0,0,1,.38-1.14,5.71,5.71,0,0,1-.72.67,1.84,1.84,0,0,1-1,.51c-.13,0-.29-.06-.29-.36V4.92a1.65,1.65,0,0,1-.85.48C11.19,5.4,11.05,5.34,11.05,5.06Zm7.07-1.68h0a.27.27,0,0,0,.27.21,1.54,1.54,0,0,0,.53-.14,2.62,2.62,0,0,0,.48-.25c.35-.25.52-.49.52-.72s-.06-.24-.33-.24a2.11,2.11,0,0,0-1.2.49,3.25,3.25,0,0,0-.88,1,2.41,2.41,0,0,0-.38,1.23c0,.34.16.52.48.52a2.11,2.11,0,0,0,1.28-.69,1.26,1.26,0,0,0,.51-.83.39.39,0,0,0-.05-.2l0,0,0,0a3.37,3.37,0,0,1-.53.86,1.14,1.14,0,0,1-.84.49c-.2,0-.3-.11-.3-.35a2.27,2.27,0,0,1,.22-.88A4.13,4.13,0,0,1,18.12,3.38Zm.23-.3a1.21,1.21,0,0,1,.85-.5c.19,0,.21.09.21.15a.54.54,0,0,1-.36.47,1.32,1.32,0,0,1-.64.18l-.25,0h0A3.17,3.17,0,0,1,18.35,3.08Z"/><path class="cls-4" d="M10.07,5.48A13.84,13.84,0,0,0,6.41,6h0A7.85,7.85,0,0,0,8.62,1.82v0H6.23V2h.13c.5,0,.75.17.75.54a1.12,1.12,0,0,1-.4.87,1.34,1.34,0,0,1-.93.36A1.05,1.05,0,0,1,5,3.44a1.13,1.13,0,0,1-.27-.79A2.27,2.27,0,0,1,5,1.54,2,2,0,0,1,6.9.5c.37,0,.57.09.57.26a.75.75,0,0,1,0,.2l0,.11h.2L7.88.15h0l-.39,0A3.53,3.53,0,0,0,5.16,1a2.36,2.36,0,0,0-.94,1.91,1.18,1.18,0,0,0,.35.89,1.27,1.27,0,0,0,.91.33A2.3,2.3,0,0,0,7,3.4a1.4,1.4,0,0,0,.56-1A.56.56,0,0,0,7.41,2H8a4.59,4.59,0,0,1-.27,1.2,9.86,9.86,0,0,1-.49,1.19A5.58,5.58,0,0,1,6.05,6l-1-1.28h0l-.61-.89A2.74,2.74,0,0,0,2.23,2.4,2,2,0,0,0,.68,3,2.13,2.13,0,0,0,.12,4.53a2.6,2.6,0,0,0,1,2.1,3.22,3.22,0,0,0,2.11.73,4.5,4.5,0,0,0,2.64-.88,23.25,23.25,0,0,1,6.44-.64c4.18.1,6.72.42,6.72.42A44.42,44.42,0,0,0,10.07,5.48ZM1.09,6A2.65,2.65,0,0,1,.45,4.23,1.58,1.58,0,0,1,.86,3.11,1.47,1.47,0,0,1,2,2.66a1.91,1.91,0,0,1,1.23.48A6.23,6.23,0,0,1,4.32,4.51L4.64,5c.21.34.39.6.52.78l.41.61a3.57,3.57,0,0,1-2,.61A3,3,0,0,1,1.09,6ZM9,3.17a1.47,1.47,0,0,0,.15-.4.14.14,0,0,0,0-.07s-.05,0-.09,0a.82.82,0,0,0-.2,0h0l0-.16.08,0,.89-.3h0v0a2.64,2.64,0,0,1-.35,1l-.33.66a3.72,3.72,0,0,0-.38.91c0,.1,0,.14.12.14.24,0,.56-.25,1-.74a6.35,6.35,0,0,0,1-1.65l.06-.13h0a2,2,0,0,0,.51-.14l.07,0,0,.06c-.13.24-.33.66-.59,1.24a7,7,0,0,0-.45,1.19.08.08,0,0,0,0,.06.1.1,0,0,0,.08,0,1.22,1.22,0,0,0,.3-.07h0l.07.14h0a8.21,8.21,0,0,1-.93.38l-.14.05v0A6.17,6.17,0,0,1,10,4.18C9.37,5,8.86,5.35,8.46,5.35a.25.25,0,0,1-.28-.28A4,4,0,0,1,8.65,3.8Zm6.67-.38a6.73,6.73,0,0,0,1-.56l0,0v0a.62.62,0,0,1,0,.13,2.68,2.68,0,0,1-.21.82c.57-.63,1-.94,1.28-.94a.33.33,0,0,1,.18,0h0l-.16.41h0l-.25,0c-.29,0-.6.22-.93.65a6.57,6.57,0,0,0-.82,1.8l-.05.14h0a3.59,3.59,0,0,0-.47.12l0,0,.06-.16.34-.87A7.2,7.2,0,0,0,16,2.94c0-.08,0-.09-.07-.09a.68.68,0,0,0-.25.1h0l-.07-.16ZM11.05,5.06a4.41,4.41,0,0,1,.39-1.28c.18-.41.36-.82.53-1.23l.36-.84a4.28,4.28,0,0,0,.33-.87s0-.08-.09-.08l-.2.05,0,0h0l0-.16.08,0c.25-.1.57-.22.94-.38l0,0v0a5.9,5.9,0,0,1-.62,1.82,15.33,15.33,0,0,0-1.09,2.74.1.1,0,0,0,0,.1.1.1,0,0,0,.08,0h0s.14,0,.38-.21l.06,0,0,0a2.28,2.28,0,0,1,.59-1.06,4.24,4.24,0,0,1,1.2-1,3.68,3.68,0,0,1,1.77-.48c.13,0,.14.07.14.11a.7.7,0,0,1-.11.29v0h0a2.92,2.92,0,0,0-.5-.05,2.69,2.69,0,0,0-2,.87,1.89,1.89,0,0,0-.61,1.26c0,.18.06.27.2.27s.37-.14.64-.42A4.22,4.22,0,0,0,14,4a3.87,3.87,0,0,0,.53-1.2v0l0,0a.41.41,0,0,1,.17.38,1.35,1.35,0,0,1-.34.79,2.81,2.81,0,0,0,.39-.1l.06,0L14.81,4a3.41,3.41,0,0,0-.36.91c0,.07,0,.08.06.08h0a1.31,1.31,0,0,0,.33-.15h0l.1.14h0a3,3,0,0,1-1.11.46h0v0a3.73,3.73,0,0,1,.38-1.14,5.71,5.71,0,0,1-.72.67,1.84,1.84,0,0,1-1,.51c-.13,0-.29-.06-.29-.36V4.92a1.65,1.65,0,0,1-.85.48C11.19,5.4,11.05,5.34,11.05,5.06Zm7.07-1.68h0a.27.27,0,0,0,.27.21,1.54,1.54,0,0,0,.53-.14,2.62,2.62,0,0,0,.48-.25c.35-.25.52-.49.52-.72s-.06-.24-.33-.24a2.11,2.11,0,0,0-1.2.49,3.25,3.25,0,0,0-.88,1,2.41,2.41,0,0,0-.38,1.23c0,.34.16.52.48.52a2.11,2.11,0,0,0,1.28-.69,1.26,1.26,0,0,0,.51-.83.39.39,0,0,0-.05-.2l0,0,0,0a3.37,3.37,0,0,1-.53.86,1.14,1.14,0,0,1-.84.49c-.2,0-.3-.11-.3-.35a2.27,2.27,0,0,1,.22-.88A4.13,4.13,0,0,1,18.12,3.38Zm.23-.3a1.21,1.21,0,0,1,.85-.5c.19,0,.21.09.21.15a.54.54,0,0,1-.36.47,1.32,1.32,0,0,1-.64.18l-.25,0h0A3.17,3.17,0,0,1,18.35,3.08Z"/><path class="cls-5" d="M3.57,8.32l.24,0a.36.36,0,0,1,.28.09.26.26,0,0,1,.08.19.28.28,0,0,1-.07.21.46.46,0,0,1-.32.11.32.32,0,0,1-.14,0v.43H3.57Zm.07.5.15,0c.2,0,.31-.09.31-.25S4,8.36,3.8,8.36l-.16,0Z"/><path class="cls-5" d="M4.59,8.37H4.22V8.31H5v.06H4.66v.94H4.59Z"/><path class="cls-5" d="M5.45,9.19a.39.39,0,0,0,.25.08c.16,0,.25-.09.25-.21s0-.18-.22-.24-.28-.14-.28-.27a.28.28,0,0,1,.31-.26A.51.51,0,0,1,6,8.34L6,8.4a.5.5,0,0,0-.19-.05c-.18,0-.24.11-.24.19s.06.17.23.22.28.13.28.29-.11.28-.34.28a.46.46,0,0,1-.27-.08Z"/><path class="cls-5" d="M6.21,8.6,6.34,9a2.18,2.18,0,0,0,.06.22h0A1.76,1.76,0,0,1,6.48,9l.16-.41h.07L6.87,9l.07.22h0L7,9l.15-.41h.07L7,9.31H6.91l-.15-.39c0-.09-.06-.18-.08-.26h0a2.58,2.58,0,0,1-.08.26l-.16.39H6.37L6.13,8.6Z"/><path class="cls-5" d="M7.38,9a.28.28,0,0,0,.3.31.55.55,0,0,0,.23,0l0,.06a.65.65,0,0,1-.26.05A.34.34,0,0,1,7.31,9a.35.35,0,0,1,.35-.39A.3.3,0,0,1,8,8.91V9Zm.52-.06a.23.23,0,0,0-.25-.25.28.28,0,0,0-.27.25Z"/><path class="cls-5" d="M8.17,9a.28.28,0,0,0,.3.31.55.55,0,0,0,.23,0l0,.06a.65.65,0,0,1-.26.05A.34.34,0,0,1,8.1,9a.35.35,0,0,1,.35-.39.3.3,0,0,1,.31.33V9Zm.52-.06a.23.23,0,0,0-.25-.25.28.28,0,0,0-.27.25Z"/><path class="cls-5" d="M9.06,8.39V8.6h.22v.06H9.06v.45c0,.09,0,.15.11.15h.1v.06l-.11,0A.16.16,0,0,1,9,9.27.29.29,0,0,1,9,9.1V8.66H8.86V8.6H9V8.41Z"/><path class="cls-5" d="M9.55,8.39a.06.06,0,1,1-.12,0s0-.07.06-.07S9.55,8.35,9.55,8.39Zm-.1.92V8.6h.08v.71Z"/><path class="cls-5" d="M9.79,8.77a1,1,0,0,0,0-.17h.07v.14h0a.29.29,0,0,1,.27-.16c.07,0,.28,0,.28.32v.41h-.07V8.9c0-.13-.06-.26-.23-.26a.26.26,0,0,0-.24.17s0,0,0,.07v.43H9.79Z"/><path class="cls-5" d="M11.29,8.25V9.31h-.06V9.16h0a.3.3,0,0,1-.29.17A.34.34,0,0,1,10.59,9,.37.37,0,0,1,11,8.58a.28.28,0,0,1,.26.14h0V8.25Zm-.07.63s0-.05,0-.07A.27.27,0,0,0,11,8.64a.29.29,0,0,0-.29.32.29.29,0,0,0,.29.31.28.28,0,0,0,.26-.2s0,0,0-.06Z"/><path class="cls-5" d="M12.23,8.94a.38.38,0,0,1-.39.39A.35.35,0,0,1,11.48,9a.37.37,0,0,1,.37-.38A.36.36,0,0,1,12.23,8.94Zm-.68,0a.3.3,0,1,0,.3-.32A.29.29,0,0,0,11.55,9Z"/><path class="cls-5" d="M12.77,8.32l.24,0a.36.36,0,0,1,.28.09.22.22,0,0,1,.08.19.28.28,0,0,1-.07.21A.44.44,0,0,1,13,8.9a.32.32,0,0,1-.14,0v.43h-.07Zm.07.5.15,0c.2,0,.31-.09.31-.25s-.13-.23-.3-.23l-.16,0Z"/><path class="cls-5" d="M13.54,9a.29.29,0,0,0,.31.31.47.47,0,0,0,.22,0l0,.06a.54.54,0,0,1-.25.05A.35.35,0,0,1,13.47,9a.36.36,0,0,1,.36-.39.31.31,0,0,1,.31.33V9Zm.52-.06a.23.23,0,0,0-.24-.25.27.27,0,0,0-.27.25Z"/><path class="cls-5" d="M14.33,8.83V8.6h.06v.15h0a.23.23,0,0,1,.22-.17h0v.07h0a.21.21,0,0,0-.2.2s0,.05,0,.07v.39h-.07Z"/><path class="cls-5" d="M14.89,8.94h0L15,8.86l.28-.26h.09L15,8.89l.37.42H15.3L15,8.93,14.89,9v.3h-.07V8.25h.07Z"/><path class="cls-5" d="M16,9.31V9.2h0a.34.34,0,0,1-.26.13.2.2,0,0,1-.22-.2c0-.16.15-.27.48-.26v0a.19.19,0,0,0-.2-.21.37.37,0,0,0-.21.06l0,0a.43.43,0,0,1,.23-.07c.24,0,.27.19.27.3v.26a1,1,0,0,0,0,.17Zm0-.38c-.19,0-.41,0-.41.19a.15.15,0,0,0,.16.15A.24.24,0,0,0,16,9.12V8.93Z"/><path class="cls-5" d="M16.25,9.21a.29.29,0,0,0,.17.06c.13,0,.18-.07.18-.14S16.55,9,16.43,9s-.19-.11-.19-.19a.21.21,0,0,1,.24-.2.29.29,0,0,1,.17.05l0,.06a.25.25,0,0,0-.16,0,.14.14,0,0,0-.15.13c0,.08.06.11.17.14s.19.11.19.21-.09.21-.25.21a.32.32,0,0,1-.2-.06Z"/><path class="cls-5" d="M17.31,9.31l0-.11h0a.34.34,0,0,1-.25.13.2.2,0,0,1-.23-.2c0-.16.15-.27.48-.26v0a.19.19,0,0,0-.2-.21.39.39,0,0,0-.21.06l0,0a.46.46,0,0,1,.23-.07c.24,0,.27.19.27.3v.26s0,.11,0,.17Zm0-.38c-.19,0-.41,0-.41.19a.15.15,0,0,0,.16.15.24.24,0,0,0,.24-.15.06.06,0,0,0,0,0Z"/></g></g></g></svg>