<svg xmlns="http://www.w3.org/2000/svg" viewBox="0 0 11.92 9.44"><defs><style>.cls-1,.cls-4{fill:#fff;}.cls-2{fill:#ed1c24;}.cls-3{fill:#2e3192;}.cls-4{fill-rule:evenodd;}</style></defs><g id="Layer_2" data-name="Layer 2"><g id="Layer_1-2" data-name="Layer 1"><path class="cls-1" d="M11.92,5.3c0,.59-.66,1-1.48,1.33a4.82,4.82,0,0,1-8.72.09C.77,6.4,0,5.93,0,5.3V3.36c0-.74,1.05-1.27,2.31-1.58a4.83,4.83,0,0,1,7.55.07c1.13.31,2.06.82,2.06,1.51Z"/><path class="cls-2" d="M1.52,4.72a4.54,4.54,0,1,1,4.54,4.5A4.52,4.52,0,0,1,1.52,4.72ZM8.15,1.25a1.16,1.16,0,0,0,.21-.16,4.66,4.66,0,0,0-.9-.43A3.48,3.48,0,0,1,8.15,1.25Zm-.75.38A3.2,3.2,0,0,0,8,1.37,2.76,2.76,0,0,0,6.76.56,3.15,3.15,0,0,1,7.4,1.63Zm-1.22.22a4,4,0,0,0,1-.15C6.91,1,6.54.54,6.18.45ZM4.93,1.7a4,4,0,0,0,1,.15V.45C5.58.54,5.21,1,4.93,1.7Zm-.78-.33a3.57,3.57,0,0,0,.56.26A3,3,0,0,1,5.36.56,2.85,2.85,0,0,0,4.15,1.37Zm-.4-.28L4,1.25A3.43,3.43,0,0,1,4.65.66,4.66,4.66,0,0,0,3.75,1.09Zm.08.33-.26-.2A4.32,4.32,0,0,0,2.28,2.65,7.16,7.16,0,0,0,3,3,4.48,4.48,0,0,1,3.83,1.42Zm.81.4A3.2,3.2,0,0,1,4,1.53,4.43,4.43,0,0,0,3.23,3,7,7,0,0,0,4.3,3.3,7.33,7.33,0,0,1,4.64,1.82Zm1.3.24a4.14,4.14,0,0,1-1.08-.17,6.73,6.73,0,0,0-.34,1.45,9.44,9.44,0,0,0,1.32.09h.1Zm1.32-.17a4.21,4.21,0,0,1-1.08.17V3.43a9.06,9.06,0,0,0,1.41-.17A7.45,7.45,0,0,0,7.26,1.89Zm.84-.36a3.2,3.2,0,0,1-.62.29,8.24,8.24,0,0,1,.33,1.4,7.75,7.75,0,0,0,1-.32A4.38,4.38,0,0,0,8.1,1.53Zm.45-.31-.26.2a4.38,4.38,0,0,1,.76,1.4,6.19,6.19,0,0,0,.68-.35A4.26,4.26,0,0,0,8.55,1.22ZM4,8.2l-.21.15a3.56,3.56,0,0,0,.88.42A3,3,0,0,1,4,8.2Zm.74-.37a3.07,3.07,0,0,0-.55.25,2.85,2.85,0,0,0,1.19.8A3.14,3.14,0,0,1,4.72,7.83ZM5.94,7.6a4.1,4.1,0,0,0-1,.16c.29.7.65,1.14,1,1.23Zm1.25.15a4.1,4.1,0,0,0-1-.15V9C6.54,8.9,6.9,8.46,7.19,7.75ZM8,8.07a3.17,3.17,0,0,0-.56-.25,3.1,3.1,0,0,1-.64,1.06A2.82,2.82,0,0,0,8,8.07Zm.4.28-.21-.16a3.13,3.13,0,0,1-.69.58A4.11,4.11,0,0,0,8.36,8.35ZM8.29,8a2.48,2.48,0,0,1,.26.19,4.26,4.26,0,0,0,1.82-3.5,4.21,4.21,0,0,0-.53-2.06q-.35.19-.72.36a6.18,6.18,0,0,1,.24,1.7A5.31,5.31,0,0,1,8.29,8Zm-.82-.41a3.65,3.65,0,0,1,.63.29,5.09,5.09,0,0,0,1-3.19A5.93,5.93,0,0,0,8.91,3.1a7.37,7.37,0,0,1-1.07.32,10.8,10.8,0,0,1,.08,1.3A8.79,8.79,0,0,1,7.47,7.62ZM6.18,7.39a4.21,4.21,0,0,1,1.08.17,8.62,8.62,0,0,0,.43-2.84,9.85,9.85,0,0,0-.08-1.25,9.2,9.2,0,0,1-1.43.16Zm-1.32.17a4.69,4.69,0,0,1,1.08-.17V3.64h-.1a10,10,0,0,1-1.35-.1,11,11,0,0,0-.06,1.18A8.62,8.62,0,0,0,4.86,7.56ZM4,7.92a3.55,3.55,0,0,1,.62-.29A8.85,8.85,0,0,1,4.2,4.72a9.38,9.38,0,0,1,.07-1.21,9.3,9.3,0,0,1-1.1-.27A5.76,5.76,0,0,0,3,4.72,5.07,5.07,0,0,0,4,7.92Zm-.45.31A2.48,2.48,0,0,1,3.84,8,5.29,5.29,0,0,1,2.75,4.72,5.92,5.92,0,0,1,3,3.17a7.94,7.94,0,0,1-.78-.33,4.33,4.33,0,0,0-.43,1.88A4.28,4.28,0,0,0,3.58,8.23Z"/><path class="cls-3" d="M.25,3.51V3.36A.74.74,0,0,0,.25,3.51Zm1.31.59s0,.07,0,.18a1.49,1.49,0,0,0,0,.19A13.42,13.42,0,0,0,6,5.12a12.79,12.79,0,0,0,4.63-.73s0-.09,0-.16,0-.15,0-.15l.17.09.15.09.23-.14a.82.82,0,0,0,.37-.62c0-.47-.6-.89-1.58-1.2l-.1-.15L9.7,2c1.21.32,2,.79,2,1.32V5.3c0,1-2.56,1.76-5.71,1.76S.25,6.27.25,5.3V3.51a.74.74,0,0,1,0-.15c0-.56.86-1.07,2.21-1.39l-.08.11a.85.85,0,0,1-.1.14C1.15,2.54.44,3,.44,3.5a.82.82,0,0,0,.37.62l.38.21a.69.69,0,0,1,.19-.12Z"/><polygon class="cls-4" points="1.67 4.86 1.67 6.22 1.31 6.08 1.31 4.72 1.67 4.86"/><polygon class="cls-4" points="2.81 5.15 2.81 6.51 2.5 6.44 2.31 5.78 2.31 6.4 2.02 6.33 2.02 4.97 2.31 5.04 2.51 5.7 2.51 5.08 2.81 5.15"/><polygon class="cls-4" points="3.88 5.32 3.88 5.59 3.68 5.56 3.68 6.65 3.32 6.6 3.32 5.51 3.11 5.48 3.11 5.21 3.88 5.32"/><polygon class="cls-4" points="4.21 5.35 4.8 5.39 4.8 5.67 4.57 5.65 4.57 5.91 4.79 5.92 4.79 6.18 4.57 6.17 4.57 6.47 4.83 6.49 4.83 6.76 4.21 6.72 4.21 5.35"/><path class="cls-4" d="M5.18,5.42h.25a1.24,1.24,0,0,1,.34,0,.18.18,0,0,1,.14.1A.42.42,0,0,1,6,5.8C6,5.91,6,6,5.93,6a.21.21,0,0,1-.15.07.3.3,0,0,1,.14.07.2.2,0,0,1,0,.08.87.87,0,0,1,0,.2v.36H5.64V6.33a.38.38,0,0,0,0-.13.12.12,0,0,0-.09,0v.62H5.18Zm.36.24V6l.08,0a.16.16,0,0,0,0-.1V5.76a.13.13,0,0,0,0-.08S5.58,5.66,5.54,5.66Z"/><polygon class="cls-4" points="7.15 5.4 7.15 6.76 6.84 6.77 6.66 6.16 6.66 6.78 6.36 6.79 6.36 5.42 6.66 5.41 6.86 6.02 6.86 5.41 7.15 5.4"/><path class="cls-4" d="M8.35,5.26v.91a1,1,0,0,1,0,.22.24.24,0,0,1-.05.13.49.49,0,0,1-.13.12A.6.6,0,0,1,8,6.7a.75.75,0,0,1-.22,0A.28.28,0,0,1,7.6,6.6a.24.24,0,0,1,0-.13,2.2,2.2,0,0,1,0-.31v-.8l.35-.05v1a1,1,0,0,0,0,.11s0,0,0,0,0,0,0,0a.38.38,0,0,0,0-.13v-1Z"/><path class="cls-4" d="M9.48,5.46l-.33.07v-.1s0-.08,0-.09h0a.07.07,0,0,0,0,0,.15.15,0,0,0,0,.08.25.25,0,0,0,0,.1.21.21,0,0,0,.1.06.75.75,0,0,1,.3.17.45.45,0,0,1,.06.27.5.5,0,0,1,0,.23.29.29,0,0,1-.13.14.54.54,0,0,1-.22.09.52.52,0,0,1-.25,0,.24.24,0,0,1-.13-.11.67.67,0,0,1,0-.23V6.08L9,6v.17a.14.14,0,0,0,0,.09s0,0,0,0a.13.13,0,0,0,.06,0,.22.22,0,0,0,0-.09.24.24,0,0,0,0-.15L9,5.92,8.8,5.83a.22.22,0,0,1-.07-.09.4.4,0,0,1,0-.17.65.65,0,0,1,0-.24.35.35,0,0,1,.13-.14.63.63,0,0,1,.22-.09.45.45,0,0,1,.23,0,.17.17,0,0,1,.13.08.57.57,0,0,1,0,.22Z"/><path class="cls-4" d="M10.46,4.74,10.66,6l-.36.13,0-.24-.13,0,0,.25-.36.13L10,4.91Zm-.19.94c0-.15,0-.33,0-.56,0,.28-.06.48-.07.6Z"/></g></g></svg>