<svg xmlns="http://www.w3.org/2000/svg" viewBox="0 0 14.24 8.85"><defs><style>.cls-1{fill:#ed1c24;}.cls-2,.cls-4{fill:#fff;}.cls-3{fill:#2e3192;}.cls-4{stroke:#2e3192;stroke-miterlimit:10;stroke-width:0.1px;}</style></defs><g id="Layer_2" data-name="Layer 2"><g id="Layer_1-2" data-name="Layer 1"><path class="cls-1" d="M7.12,8.77A9.77,9.77,0,0,1,2.24,7.58,3.78,3.78,0,0,1,.07,4.42,3.78,3.78,0,0,1,2.24,1.27,9.8,9.8,0,0,1,7.12.07,9.76,9.76,0,0,1,12,1.27a3.78,3.78,0,0,1,2.17,3.15A3.78,3.78,0,0,1,12,7.58,9.76,9.76,0,0,1,7.12,8.77Z"/><path class="cls-2" d="M7.12.15A9.74,9.74,0,0,1,12,1.33a3.73,3.73,0,0,1,2.13,3.09A3.71,3.71,0,0,1,12,7.51,9.64,9.64,0,0,1,7.12,8.7,9.64,9.64,0,0,1,2.28,7.51,3.71,3.71,0,0,1,.15,4.42,3.73,3.73,0,0,1,2.28,1.33,9.74,9.74,0,0,1,7.12.15m0-.15A10,10,0,0,0,2.2,1.2,3.86,3.86,0,0,0,0,4.42,3.85,3.85,0,0,0,2.2,7.64,9.85,9.85,0,0,0,7.12,8.85,9.81,9.81,0,0,0,12,7.64a3.86,3.86,0,0,0,2.21-3.22A3.87,3.87,0,0,0,12,1.2,9.91,9.91,0,0,0,7.12,0Z"/><path class="cls-3" d="M13.64,4.42c0,2.12-2.92,3.83-6.52,3.83S.6,6.54.6,4.42,3.52.6,7.12.6,13.64,2.31,13.64,4.42Z"/><rect class="cls-1" x="1.91" y="5.8" width="10.41" height="0.27"/><rect class="cls-1" x="2.79" y="6.22" width="8.65" height="0.24"/><rect class="cls-1" x="3.66" y="6.6" width="6.91" height="0.22"/><path class="cls-4" d="M7.86,3a.4.4,0,0,1,.27-.09H10V2H8.24A1.34,1.34,0,0,0,6.73,3.47V5.54h1V4.23H8.87v-1H7.75v0A.3.3,0,0,1,7.86,3Z"/><rect class="cls-4" x="10.15" y="1.99" width="1.02" height="3.55"/><path class="cls-4" d="M5.51,1.92a1.08,1.08,0,0,0-.86.38l0,0c-.18.2-2.95,3-3,3l-.19.19H2.88l0,0S5.25,3.09,5.44,2.91l0,0s0,.07,0,.11V4.06H4.34V5h1.2v.52h1V2.68A1,1,0,0,0,5.51,1.92Z"/></g></g></svg>