<svg xmlns="http://www.w3.org/2000/svg" viewBox="0 0 18.95 6.07"><defs><style>.cls-1{isolation:isolate;}.cls-2,.cls-5{fill:#fff;}.cls-2{fill-rule:evenodd;}.cls-3{mix-blend-mode:multiply;opacity:0.2;}.cls-4{fill:#231f20;}.cls-6{fill:#ed1c24;}.cls-7{opacity:0.6;}</style></defs><g class="cls-1"><g id="Layer_2" data-name="Layer 2"><g id="Layer_1-2" data-name="Layer 1"><path class="cls-2" d="M7.18.83h.13a.17.17,0,0,0,0,.09.19.19,0,0,0,.12,0l.1,0a.09.09,0,0,0,0-.06.05.05,0,0,0,0,0L7.46.76,7.34.71,7.28.65a.19.19,0,0,1,0-.08A.18.18,0,0,1,7.32.43a.35.35,0,0,1,.18,0,.36.36,0,0,1,.19,0,.21.21,0,0,1,.07.15H7.63a.16.16,0,0,0,0-.07.12.12,0,0,0-.09,0,.15.15,0,0,0-.08,0,.06.06,0,0,0,0,.05s0,0,0,0l.1.05a.47.47,0,0,1,.15.08.15.15,0,0,1,0,.11A.18.18,0,0,1,7.64,1a.27.27,0,0,1-.19.06A.33.33,0,0,1,7.3,1,.11.11,0,0,1,7.21,1,.27.27,0,0,1,7.18.83Z"/><polygon class="cls-2" points="8.23 1.04 8.38 0.39 8.51 0.39 8.37 1.04 8.23 1.04"/><polygon class="cls-2" points="8.95 1.04 9.09 0.39 9.23 0.39 9.17 0.67 9.48 0.39 9.67 0.39 9.37 0.65 9.59 1.04 9.43 1.04 9.26 0.73 9.13 0.84 9.09 1.04 8.95 1.04"/><path class="cls-2" d="M10.53.9h-.27L10.18,1H10l.38-.65h.16l.11.65h-.13Zm0-.11,0-.26-.15.26Z"/><polygon class="cls-2" points="11.45 1.04 11.31 1.04 11.43 0.5 11.23 0.5 11.25 0.39 11.78 0.39 11.76 0.5 11.56 0.5 11.45 1.04"/><path class="cls-2" d="M13.54.69h.3L13.78,1a.39.39,0,0,1-.13.06.41.41,0,0,1-.16,0A.36.36,0,0,1,13.3,1a.27.27,0,0,1-.09-.22.39.39,0,0,1,0-.18.3.3,0,0,1,.13-.16.37.37,0,0,1,.21-.06.32.32,0,0,1,.18,0,.31.31,0,0,1,.1.15l-.13,0a.15.15,0,0,0-.06-.09l-.09,0a.28.28,0,0,0-.13,0,.24.24,0,0,0-.08.11.24.24,0,0,0,0,.15.19.19,0,0,0,0,.12.16.16,0,0,0,.12,0h.09l.08,0,0-.1h-.17Z"/><polygon class="cls-2" points="14.34 1.04 14.48 0.39 14.62 0.39 14.48 1.04 14.34 1.04"/><path class="cls-2" d="M15.44.69h.3L15.68,1a.52.52,0,0,1-.13.06.44.44,0,0,1-.16,0A.33.33,0,0,1,15.2,1a.27.27,0,0,1-.1-.22.58.58,0,0,1,0-.18.37.37,0,0,1,.14-.16.34.34,0,0,1,.2-.06.36.36,0,0,1,.19,0,.24.24,0,0,1,.09.15l-.13,0a.19.19,0,0,0-.05-.09l-.1,0a.27.27,0,0,0-.12,0,.2.2,0,0,0-.09.11.33.33,0,0,0,0,.15.15.15,0,0,0,0,.12.12.12,0,0,0,.11,0h.09l.09,0,0-.1h-.18Z"/><polygon class="cls-2" points="16.24 1.04 16.38 0.39 16.52 0.39 16.38 1.04 16.24 1.04"/><path class="cls-2" d="M18.37,1.17a.13.13,0,0,1,0,.06.11.11,0,0,1,0,.08.05.05,0,0,1-.05,0l.05.06.08.12h-.1l-.06-.08,0-.05,0,0h-.09v.16h-.08v-.4h.27S18.35,1.15,18.37,1.17Zm-.07.06a0,0,0,0,0,0,0h-.16v.09h.14s0,0,0,0A0,0,0,0,0,18.3,1.23Z"/><path class="cls-2" d="M18.23,1.62a.3.3,0,1,0,0-.59.3.3,0,0,0,0,.59Zm0-.65a.36.36,0,1,1,0,.71.36.36,0,0,1,0-.71Z"/><g class="cls-3"><path class="cls-4" d="M3.4.17a3.1,3.1,0,0,0-3.23,3,3.11,3.11,0,0,0,3.23,3A3.11,3.11,0,0,0,6.63,3.12,3.1,3.1,0,0,0,3.4.17ZM3.4,5C2.68,5,2.09,4.16,2.09,3.1S2.68,1.18,3.4,1.18,4.71,2,4.71,3.1,4.13,5,3.4,5Z"/><path class="cls-4" d="M18.83,5.33a.58.58,0,0,1-.16-.15c-.05-.12-.75-2.13-1.12-3.17a.25.25,0,0,0-.47,0L15.93,4.56l-.32-.25a.25.25,0,0,0-.19,0,.25.25,0,0,0-.17.11,1.08,1.08,0,0,1-.81.36.84.84,0,0,1-.78-.88.89.89,0,0,1,.28-.6A.83.83,0,0,1,14.52,3a.91.91,0,0,1,.83.57.26.26,0,0,0,.29.16.25.25,0,0,0,.21-.25V2.1a.33.33,0,0,0-.09-.21.49.49,0,0,0-.35-.09.46.46,0,0,0-.29.13h0a2.21,2.21,0,0,0-1.86.13,2,2,0,0,0-.91,1V2.33l.09-.11a.26.26,0,0,0,0-.27.24.24,0,0,0-.23-.14H11.09a.25.25,0,0,0-.23.14.24.24,0,0,0,0,.27l.08.11v3l0,0h0a.31.31,0,0,1-.16-.18c-.05-.18-1-3.06-1-3.19a.26.26,0,0,0-.22-.17.26.26,0,0,0-.25.13L8.49,3.41,8,2a.25.25,0,0,0-.23-.17A.26.26,0,0,0,7.48,2L6.18,5a.59.59,0,0,1-.28.31.26.26,0,0,0-.14.29A.27.27,0,0,0,6,5.8h.85a.25.25,0,0,0,.25-.18A.26.26,0,0,0,7,5.32H7l.49-1.09c.24.61.54,1.36.59,1.45a.35.35,0,0,0,.31.2h0a.37.37,0,0,0,.32-.2s.31-.61.55-1.12l.22.75h0a.25.25,0,0,0-.14.29.26.26,0,0,0,.24.2h1.32a.35.35,0,0,0,.11,0,.27.27,0,0,0,.12,0h1.15a.25.25,0,0,0,.23-.15.25.25,0,0,0,0-.27l-.08-.1V4.57A2.1,2.1,0,0,0,13.58,5.7a2,2,0,0,0,.7.13,2.13,2.13,0,0,0,1.07-.3.28.28,0,0,0,0,.09.25.25,0,0,0,.24.18h.77a.25.25,0,0,0,.24-.19.24.24,0,0,0-.11-.28L16.63,5h.68a2.85,2.85,0,0,1,.1.32.27.27,0,0,0-.09.28.27.27,0,0,0,.25.18H18.7a.25.25,0,0,0,.24-.18A.25.25,0,0,0,18.83,5.33ZM17,4.07l0,.1H17Z"/></g><path class="cls-5" d="M3.23,0A3.1,3.1,0,0,0,0,3,3.1,3.1,0,0,0,3.23,5.89,3.1,3.1,0,0,0,6.46,3,3.1,3.1,0,0,0,3.23,0Zm0,4.86c-.72,0-1.31-.87-1.31-1.93S2.51,1,3.23,1s1.31.86,1.31,1.92S4,4.86,3.23,4.86Z"/><path class="cls-5" d="M18.66,5.16A.49.49,0,0,1,18.5,5c-.05-.12-.75-2.12-1.12-3.17a.26.26,0,0,0-.23-.17.27.27,0,0,0-.24.15L15.76,4.39l-.32-.25a.27.27,0,0,0-.19,0,.32.32,0,0,0-.18.1,1,1,0,0,1-.8.37.84.84,0,0,1-.78-.88.89.89,0,0,1,.28-.6.75.75,0,0,1,.58-.24.91.91,0,0,1,.83.57.26.26,0,0,0,.5-.09V1.93a.3.3,0,0,0-.1-.21.45.45,0,0,0-.34-.09.43.43,0,0,0-.29.13h0a2.21,2.21,0,0,0-1.86.13,2,2,0,0,0-.91,1V2.16l.08-.11a.25.25,0,0,0-.19-.41H10.92a.25.25,0,0,0-.19.41l.08.11v3l0,0h0s-.13-.06-.16-.18l-1-3.19a.26.26,0,0,0-.22-.17.26.26,0,0,0-.25.13L8.31,3.24,7.78,1.8a.25.25,0,0,0-.23-.17.26.26,0,0,0-.24.15L6,4.83a.69.69,0,0,1-.28.31.25.25,0,0,0-.14.29.26.26,0,0,0,.25.19h.85a.25.25,0,0,0,.25-.18.26.26,0,0,0-.12-.29h0c.07-.17.3-.66.49-1.09.24.61.54,1.36.59,1.45a.4.4,0,0,0,.31.2h0a.39.39,0,0,0,.32-.2s.3-.62.55-1.12c.09.31.18.61.21.75h0a.26.26,0,0,0-.15.28.26.26,0,0,0,.25.2h1.32a.2.2,0,0,0,.11,0,.19.19,0,0,0,.12,0h1.15a.25.25,0,0,0,.23-.15.24.24,0,0,0,0-.27l-.08-.1V4.4a2.1,2.1,0,0,0,1.23,1.13,2,2,0,0,0,.7.13,2.07,2.07,0,0,0,1.07-.31.31.31,0,0,0,0,.1.25.25,0,0,0,.24.18h.77a.26.26,0,0,0,.24-.19.27.27,0,0,0-.11-.29l.13-.31h.68c0,.11.08.25.1.33a.27.27,0,0,0-.09.28.26.26,0,0,0,.24.18h1.14a.26.26,0,0,0,.24-.19A.24.24,0,0,0,18.66,5.16ZM16.85,3.9l0,.1h-.07Z"/><path class="cls-6" d="M3.23.25A2.85,2.85,0,0,0,.25,3a2.85,2.85,0,0,0,3,2.69A2.85,2.85,0,0,0,6.21,3,2.85,2.85,0,0,0,3.23.25Zm0,4.86c-.86,0-1.57-1-1.57-2.18S2.37.75,3.23.75s1.57,1,1.57,2.18S4.1,5.11,3.23,5.11Zm2.61.26a1,1,0,0,0,.41-.44l1.29-3,.73,2,1.09-2s1,3,1,3.18a.58.58,0,0,0,.31.34H9.37s.22-.1.18-.24L9.13,3.67,8.3,5.37c-.05.08-.13.11-.19,0s-.79-2-.79-2S6.58,5,6.55,5.1s0,.18.14.27Zm6.08-.17.15.17H10.92l.15-.17V2.07l-.15-.18h1.15l-.15.18Zm2.43-2.62a1.14,1.14,0,0,0-1.11,1.1,1.08,1.08,0,0,0,1,1.13,1.27,1.27,0,0,0,1-.47l.34.27a1.83,1.83,0,0,1-2.12.68,1.75,1.75,0,0,1-1.23-1.64,1.69,1.69,0,0,1,.94-1.54A2,2,0,0,1,14.89,2c.09,0,.12.05.16,0s.15-.13.19-.13.18,0,.18,0V3.32A1.17,1.17,0,0,0,14.35,2.58Zm3,2.8h1.14a.77.77,0,0,1-.27-.28c-.06-.16-1.12-3.18-1.12-3.18L15.73,5.07a1.09,1.09,0,0,1-.3.31h.77s-.2-.11-.12-.29l.21-.5h1l.18.58C17.53,5.23,17.47,5.33,17.39,5.38Zm-1-1.13.48-1.06.34,1.06Z"/><g class="cls-7"><path class="cls-5" d="M8.19,4.15l.05-.1-.7-1.91,0,.11Z"/><path class="cls-5" d="M14.27,4.91a1.19,1.19,0,0,1-1.13-1.23,1.29,1.29,0,0,1,.33-.81,1.29,1.29,0,0,0-.39.88A1.19,1.19,0,0,0,14.21,5a1.39,1.39,0,0,0,1-.43A1.39,1.39,0,0,1,14.27,4.91Z"/><path class="cls-5" d="M1.51,3c0,1.25.74,2.27,1.66,2.27a1.41,1.41,0,0,0,1-.47,1.37,1.37,0,0,1-.95.41c-.92,0-1.66-1-1.66-2.28a2.65,2.65,0,0,1,.65-1.8A2.59,2.59,0,0,0,1.51,3Z"/><polygon class="cls-5" points="17.27 4.35 16.26 4.35 16.85 3.04 16.84 2.99 16.2 4.41 17.29 4.41 17.27 4.35"/><path class="cls-5" d="M3.23.35a3,3,0,0,0-2.17.89A3,3,0,0,1,3.17.41,2.76,2.76,0,0,1,6.05,3a2.44,2.44,0,0,1-.72,1.71A2.42,2.42,0,0,0,6.11,3,2.75,2.75,0,0,0,3.23.35Z"/><path class="cls-5" d="M13.2,2.26A1.7,1.7,0,0,1,14.08,2a2.12,2.12,0,0,1,.69.12l.07,0a.17.17,0,0,0,.1,0,.16.16,0,0,0,.11-.05h0c.09-.09.12-.09.12-.09h.08V2.9l.07.07V2h-.09s0,0-.12.1h0a.14.14,0,0,1-.11,0l-.1,0-.07,0A1.91,1.91,0,0,0,14.15,2a1.87,1.87,0,0,0-.89.23,1.83,1.83,0,0,0-.47.37A1.67,1.67,0,0,1,13.2,2.26Z"/><path class="cls-5" d="M18.11,5.19a.41.41,0,0,0,.05.09h.11a.56.56,0,0,1-.1-.15c-.05-.13-.79-2.25-1-3l-.05.11C17.34,3,18.06,5.06,18.11,5.19Z"/><path class="cls-5" d="M15.23,4.54l.2.15-.1.12.16-.18-.19-.16Z"/><path class="cls-5" d="M16.2,4.56h0l-.23.56a.23.23,0,0,0,0,.16H16a.3.3,0,0,1,0-.23Z"/><path class="cls-5" d="M9.34,2.09l-.05.1.94,2.93a.35.35,0,0,0,.07.15h.11a.57.57,0,0,1-.12-.22C10.25,4.9,9.56,2.77,9.34,2.09Z"/><path class="cls-5" d="M7.23,3.35l0-.1,0,0-.09.2c0,.07-.74,1.63-.77,1.71a.3.3,0,0,0,0,.15h.09a.26.26,0,0,1,0-.21Z"/><path class="cls-5" d="M9.09,3.47,9,3.69c-.27.57-.67,1.39-.79,1.63h0v0s0,0,0,0l.83-1.69,0-.12Z"/></g></g></g></g></svg>