<svg xmlns="http://www.w3.org/2000/svg" viewBox="0 0 16.43 6.73"><defs><style>.cls-1,.cls-3,.cls-4,.cls-6{fill:#eb008b;}.cls-1,.cls-2,.cls-3{stroke:#fff;stroke-miterlimit:10;stroke-width:0.53px;}.cls-1,.cls-4{fill-rule:evenodd;}.cls-2,.cls-5{fill:#231f20;}</style></defs><g id="Layer_2" data-name="Layer 2"><g id="Layer_1-2" data-name="Layer 1"><path class="cls-1" d="M2.06,5.2V4.35A1.85,1.85,0,0,1,1.56,4a1.75,1.75,0,0,1,0-2.45A1.75,1.75,0,0,1,4,1.56a1.39,1.39,0,0,1,.15.19A1.43,1.43,0,0,1,4.3,2a.39.39,0,0,0,.54.15A.4.4,0,0,0,5,1.56a2.9,2.9,0,0,0-.19-.29A3,3,0,0,0,4.57,1,2.52,2.52,0,1,0,1,4.57a2.61,2.61,0,0,0,1.06.63m1.13.07a2.54,2.54,0,0,0,1.38-.7,2.62,2.62,0,0,0,.22-.25L5,4a.4.4,0,0,0-.15-.54.4.4,0,0,0-.54.15l-.12.19L4,4a1.75,1.75,0,0,1-.82.45h0V4.13h0a1.33,1.33,0,0,0,.59-.35.4.4,0,0,0,0-.56.39.39,0,0,0-.56,0,.62.62,0,0,1-.87,0,.62.62,0,0,1,0-.87.62.62,0,0,1,.87,0,.39.39,0,0,0,.56,0,.4.4,0,0,0,0-.56,1.41,1.41,0,0,0-1-.41A1.4,1.4,0,0,0,1.38,2.79a1.41,1.41,0,0,0,.41,1,1.33,1.33,0,0,0,.59.35h0V6.06a.4.4,0,1,0,.79,0V5.27Z"/><path class="cls-2" d="M14.18,5V4.52h.16a.4.4,0,0,0,.27-.08.23.23,0,0,0,0-.26l-.8-2.27h.66L15,3.52l.41-1.4a.25.25,0,0,1,.27-.21h.41l-.87,2.6a.9.9,0,0,1-.26.4.93.93,0,0,1-.51.1h-.24m-2-2a.88.88,0,0,0,.13.53.45.45,0,0,0,.72,0A1,1,0,0,0,13.16,3,.89.89,0,0,0,13,2.54a.48.48,0,0,0-.37-.17.4.4,0,0,0-.35.18A.78.78,0,0,0,12.19,3Zm1-1.8h.3a.25.25,0,0,1,.2.09.28.28,0,0,1,.09.2V3.2A.89.89,0,0,1,13.4,4a1.49,1.49,0,0,1-.77.21,1.25,1.25,0,0,1-.43-.07.73.73,0,0,1-.35-.24,1.4,1.4,0,0,1-.25-.86,1.45,1.45,0,0,1,.25-.87.8.8,0,0,1,.66-.33.89.89,0,0,1,.38.08.78.78,0,0,1,.27.27Zm-1.6,3h-.3a.3.3,0,0,1-.21-.08A.32.32,0,0,1,11,3.9V2.73a.35.35,0,0,0-.13-.3.44.44,0,0,0-.27-.09.45.45,0,0,0-.28.09.38.38,0,0,0-.12.3V4.19h-.6V2.85a.85.85,0,0,1,.31-.78,1.29,1.29,0,0,1,.67-.21,1.21,1.21,0,0,1,.69.2.84.84,0,0,1,.32.79ZM9.07,4.1a1,1,0,0,1-.39.11,2.24,2.24,0,0,1-.35,0,.89.89,0,0,1-.54-.16.64.64,0,0,1-.23-.56A.58.58,0,0,1,7.77,3a1.34,1.34,0,0,1,.53-.21h.11l.13,0c.25,0,.38-.11.38-.22a.16.16,0,0,0-.13-.17.77.77,0,0,0-.25,0,.66.66,0,0,0-.21,0,.29.29,0,0,0-.14.13H7.62a.65.65,0,0,1,.24-.44,1,1,0,0,1,.66-.19A1.28,1.28,0,0,1,9.24,2a.57.57,0,0,1,.25.48v.78a1,1,0,0,1-.13.54A.77.77,0,0,1,9.07,4.1ZM8.93,3a1.35,1.35,0,0,1-.34.11L8.4,3.2a.41.41,0,0,0-.23.11.33.33,0,0,0-.06.19.28.28,0,0,0,.08.2.31.31,0,0,0,.22.07.52.52,0,0,0,.38-.14.5.5,0,0,0,.14-.37Zm-1.84.45h.42A.93.93,0,0,1,7.15,4a1.07,1.07,0,0,1-.66.19,1,1,0,0,1-.77-.31A1.32,1.32,0,0,1,5.45,3a1.29,1.29,0,0,1,.26-.85,1,1,0,0,1,.77-.32,1,1,0,0,1,.79.31,1.12,1.12,0,0,1,.23.43H6.9a.41.41,0,0,0-.09-.12.46.46,0,0,0-.62,0A.78.78,0,0,0,6,3a.78.78,0,0,0,.16.56.39.39,0,0,0,.33.14.49.49,0,0,0,.25-.06l.05,0,0,0a.45.45,0,0,1,.07-.07A.25.25,0,0,1,7.09,3.49Z"/><path class="cls-3" d="M11.1,4.65h.33a.48.48,0,0,1,.18,0,.38.38,0,0,1,.15.09.38.38,0,0,1,.09.13.47.47,0,0,1,0,.17h0a.47.47,0,0,1,0,.17.38.38,0,0,1-.09.13.38.38,0,0,1-.15.09.48.48,0,0,1-.18,0H11.1Zm.33.68.11,0,.08,0a.35.35,0,0,0,.05-.08.43.43,0,0,0,0-.11h0a.3.3,0,0,0,0-.1.22.22,0,0,0-.05-.08l-.08-.06h-.25v.51ZM9.78,4.65H10l.4.52V4.65h.19v.84h-.16L10,5v.53H9.78Zm-1,0h.17l.36.85H9.1L9,5.3H8.66l-.08.19H8.39Zm.19.5-.11-.28-.11.28ZM7.23,4.65h.39a.36.36,0,0,1,.24.08.27.27,0,0,1,.07.2h0a.25.25,0,0,1,0,.17.25.25,0,0,1-.13.09l.21.3H7.74l-.18-.27H7.41v.27H7.23Zm.37.41a.12.12,0,0,0,.15-.12h0a.13.13,0,0,0,0-.09.18.18,0,0,0-.11,0H7.41v.24ZM6,4.65h.4a.31.31,0,0,1,.22.07.2.2,0,0,1,.06.15h0s0,0,0,.06l0,.05,0,0,0,0a.25.25,0,0,1,.12.08.17.17,0,0,1,0,.13h0a.3.3,0,0,1,0,.1l-.06.08-.1,0H6ZM6.35,5l.09,0a.08.08,0,0,0,0-.07h0a.09.09,0,0,0,0-.07l-.09,0H6.17V5Zm.05.34.09,0a.08.08,0,0,0,0-.07h0a.08.08,0,0,0,0-.07.13.13,0,0,0-.1,0H6.17v.19Z"/><path class="cls-4" d="M2.06,5.2V4.35A1.85,1.85,0,0,1,1.56,4a1.75,1.75,0,0,1,0-2.45A1.75,1.75,0,0,1,4,1.56a1.39,1.39,0,0,1,.15.19A1.43,1.43,0,0,1,4.3,2a.39.39,0,0,0,.54.15A.4.4,0,0,0,5,1.56a2.9,2.9,0,0,0-.19-.29A3,3,0,0,0,4.57,1,2.52,2.52,0,1,0,1,4.57a2.61,2.61,0,0,0,1.06.63m1.13.07a2.54,2.54,0,0,0,1.38-.7,2.62,2.62,0,0,0,.22-.25L5,4a.4.4,0,0,0-.15-.54.4.4,0,0,0-.54.15l-.12.19L4,4a1.75,1.75,0,0,1-.82.45h0V4.13h0a1.33,1.33,0,0,0,.59-.35.4.4,0,0,0,0-.56.39.39,0,0,0-.56,0,.62.62,0,0,1-.87,0,.62.62,0,0,1,0-.87.62.62,0,0,1,.87,0,.39.39,0,0,0,.56,0,.4.4,0,0,0,0-.56,1.41,1.41,0,0,0-1-.41A1.4,1.4,0,0,0,1.38,2.79a1.41,1.41,0,0,0,.41,1,1.33,1.33,0,0,0,.59.35h0V6.06a.4.4,0,1,0,.79,0V5.27Z"/><path class="cls-5" d="M14.18,5V4.52h.16a.4.4,0,0,0,.27-.08.23.23,0,0,0,0-.26l-.8-2.27h.66L15,3.52l.41-1.4a.25.25,0,0,1,.27-.21h.41l-.87,2.6a.9.9,0,0,1-.26.4.93.93,0,0,1-.51.1h-.24m-2-2a.88.88,0,0,0,.13.53.45.45,0,0,0,.72,0A1,1,0,0,0,13.16,3,.89.89,0,0,0,13,2.54a.48.48,0,0,0-.37-.17.4.4,0,0,0-.35.18A.78.78,0,0,0,12.19,3Zm1-1.8h.3a.25.25,0,0,1,.2.09.28.28,0,0,1,.09.2V3.2A.89.89,0,0,1,13.4,4a1.49,1.49,0,0,1-.77.21,1.25,1.25,0,0,1-.43-.07.73.73,0,0,1-.35-.24,1.4,1.4,0,0,1-.25-.86,1.45,1.45,0,0,1,.25-.87.8.8,0,0,1,.66-.33.89.89,0,0,1,.38.08.78.78,0,0,1,.27.27Zm-1.6,3h-.3a.3.3,0,0,1-.21-.08A.32.32,0,0,1,11,3.9V2.73a.35.35,0,0,0-.13-.3.44.44,0,0,0-.27-.09.45.45,0,0,0-.28.09.38.38,0,0,0-.12.3V4.19h-.6V2.85a.85.85,0,0,1,.31-.78,1.29,1.29,0,0,1,.67-.21,1.21,1.21,0,0,1,.69.2.84.84,0,0,1,.32.79ZM9.07,4.1a1,1,0,0,1-.39.11,2.24,2.24,0,0,1-.35,0,.89.89,0,0,1-.54-.16.64.64,0,0,1-.23-.56A.58.58,0,0,1,7.77,3a1.34,1.34,0,0,1,.53-.21h.11l.13,0c.25,0,.38-.11.38-.22a.16.16,0,0,0-.13-.17.77.77,0,0,0-.25,0,.66.66,0,0,0-.21,0,.29.29,0,0,0-.14.13H7.62a.65.65,0,0,1,.24-.44,1,1,0,0,1,.66-.19A1.28,1.28,0,0,1,9.24,2a.57.57,0,0,1,.25.48v.78a1,1,0,0,1-.13.54A.77.77,0,0,1,9.07,4.1ZM8.93,3a1.35,1.35,0,0,1-.34.11L8.4,3.2a.41.41,0,0,0-.23.11.33.33,0,0,0-.06.19.28.28,0,0,0,.08.2.31.31,0,0,0,.22.07.52.52,0,0,0,.38-.14.5.5,0,0,0,.14-.37Zm-1.84.45h.42A.93.93,0,0,1,7.15,4a1.07,1.07,0,0,1-.66.19,1,1,0,0,1-.77-.31A1.32,1.32,0,0,1,5.45,3a1.29,1.29,0,0,1,.26-.85,1,1,0,0,1,.77-.32,1,1,0,0,1,.79.31,1.12,1.12,0,0,1,.23.43H6.9a.41.41,0,0,0-.09-.12.46.46,0,0,0-.62,0A.78.78,0,0,0,6,3a.78.78,0,0,0,.16.56.39.39,0,0,0,.33.14.49.49,0,0,0,.25-.06l.05,0,0,0a.45.45,0,0,1,.07-.07A.25.25,0,0,1,7.09,3.49Z"/><path class="cls-6" d="M11.1,4.65h.33a.48.48,0,0,1,.18,0,.38.38,0,0,1,.15.09.38.38,0,0,1,.09.13.47.47,0,0,1,0,.17h0a.47.47,0,0,1,0,.17.38.38,0,0,1-.09.13.38.38,0,0,1-.15.09.48.48,0,0,1-.18,0H11.1Zm.33.68.11,0,.08,0a.35.35,0,0,0,.05-.08.43.43,0,0,0,0-.11h0a.3.3,0,0,0,0-.1.22.22,0,0,0-.05-.08l-.08-.06h-.25v.51ZM9.78,4.65H10l.4.52V4.65h.19v.84h-.16L10,5v.53H9.78Zm-1,0h.17l.36.85H9.1L9,5.3H8.66l-.08.19H8.39Zm.19.5-.11-.28-.11.28ZM7.23,4.65h.39a.36.36,0,0,1,.24.08.27.27,0,0,1,.07.2h0a.25.25,0,0,1,0,.17.25.25,0,0,1-.13.09l.21.3H7.74l-.18-.27H7.41v.27H7.23Zm.37.41a.12.12,0,0,0,.15-.12h0a.13.13,0,0,0,0-.09.18.18,0,0,0-.11,0H7.41v.24ZM6,4.65h.4a.31.31,0,0,1,.22.07.2.2,0,0,1,.06.15h0s0,0,0,.06l0,.05,0,0,0,0a.25.25,0,0,1,.12.08.17.17,0,0,1,0,.13h0a.3.3,0,0,1,0,.1l-.06.08-.1,0H6ZM6.35,5l.09,0a.08.08,0,0,0,0-.07h0a.09.09,0,0,0,0-.07l-.09,0H6.17V5Zm.05.34.09,0a.08.08,0,0,0,0-.07h0a.08.08,0,0,0,0-.07.13.13,0,0,0-.1,0H6.17v.19Z"/></g></g></svg>