<svg xmlns="http://www.w3.org/2000/svg" viewBox="0 0 13.34 12.5"><defs><style>.cls-1,.cls-9{fill:#ec1c24;}.cls-1,.cls-11,.cls-12,.cls-13,.cls-14,.cls-15,.cls-2,.cls-3,.cls-5,.cls-6,.cls-7{fill-rule:evenodd;}.cls-10,.cls-13,.cls-14,.cls-2,.cls-3,.cls-6,.cls-7,.cls-8{fill:none;}.cls-2,.cls-3{stroke:#fff;}.cls-10,.cls-12,.cls-14,.cls-2,.cls-3,.cls-6,.cls-7,.cls-8{stroke-miterlimit:2.61;}.cls-2{stroke-width:0.14px;}.cls-3{stroke-width:0.09px;}.cls-12,.cls-4,.cls-5{fill:#fff;}.cls-10,.cls-6,.cls-7,.cls-8{stroke:#ec1c24;}.cls-6,.cls-8{stroke-width:0.05px;}.cls-10,.cls-7{stroke-width:0.06px;}.cls-11{fill:#2e3191;}.cls-12,.cls-13,.cls-14{stroke:#2e3191;stroke-width:0.12px;}.cls-13{stroke-linecap:round;stroke-linejoin:round;}.cls-15,.cls-16{fill:#2e3192;}</style></defs><g id="Layer_2" data-name="Layer 2"><g id="Layer_1-2" data-name="Layer 1"><path class="cls-1" d="M6.66,3.64A3.56,3.56,0,0,1,10.2,7.23H3.13A3.56,3.56,0,0,1,6.66,3.64Z"/><path class="cls-2" d="M6.69,4.68a1.2,1.2,0,1,1-1.2,1.2A1.2,1.2,0,0,1,6.69,4.68Z"/><polygon class="cls-1" points="3.22 7.39 10.14 7.39 9.71 8.24 3.65 8.24 3.22 7.39"/><polygon class="cls-3" points="3.48 7.52 9.88 7.52 9.56 8.1 3.8 8.1 3.48 7.52"/><path class="cls-4" d="M4.23,7.88H4.3s0,0,0,0l0,0h0s0,0,0,0v0h0l0,0-.08,0a.09.09,0,0,1,0-.07.07.07,0,0,1,0,0s0,0,0,0h.07a.13.13,0,0,1,.1,0,.1.1,0,0,1,0,.08H4.44l0,0h-.1s0,0,0,0v0l.07,0,.07,0a.08.08,0,0,1,0,0,.07.07,0,0,1,0,0A.13.13,0,0,1,4.5,8a.1.1,0,0,1,0,0H4.38a.13.13,0,0,1-.1,0,.13.13,0,0,1,0-.09Z"/><polygon class="cls-4" points="4.77 7.99 4.77 7.65 4.84 7.65 4.84 7.99 4.77 7.99 4.77 7.99"/><polygon class="cls-4" points="5.11 7.99 5.11 7.65 5.21 7.65 5.27 7.88 5.33 7.65 5.44 7.65 5.44 7.99 5.37 7.99 5.37 7.72 5.3 7.99 5.24 7.99 5.17 7.72 5.17 7.99 5.11 7.99 5.11 7.99"/><path class="cls-4" d="M6,8H5.94l0-.08H5.77l0,.08H5.67l.14-.34h.07L6,8Zm-.13-.13,0-.13,0,.13Z"/><path class="cls-4" d="M6.26,8V7.65h.22s0,0,0,0,0,0,0,0a.14.14,0,0,1,0,.07.09.09,0,0,1-.07,0l0,0a.15.15,0,0,1,0,.06L6.57,8H6.48l-.05-.07,0,0,0,0h0V8Zm.07-.2h.11s0,0,0,0v0s0,0,0,0H6.33v.08Z"/><polygon class="cls-4" points="6.8 7.99 6.8 7.65 6.87 7.65 6.87 7.99 6.8 7.99 6.8 7.99"/><polygon class="cls-4" points="7.14 7.99 7.14 7.65 7.24 7.65 7.3 7.88 7.37 7.65 7.47 7.65 7.47 7.99 7.41 7.99 7.41 7.72 7.34 7.99 7.27 7.99 7.2 7.72 7.2 7.99 7.14 7.99 7.14 7.99"/><path class="cls-4" d="M7.74,7.65h.2l0,0,0,0a.11.11,0,0,1,0,.09l0,0,0,0s0,0,0,0,0,0,0,.05L8,8l0,0h-.2V7.65Zm.07,0v.08H7.9s0,0,0,0,0,0,0,0,0,0,0,0H7.81Zm0,.14v.09H8s0,0,0,0v0H7.81Z"/><path class="cls-4" d="M8.29,7.65h.07v.24a.05.05,0,0,0,0,0h.09l0,0V7.65h.07v.27s0,0,0,0l0,0H8.35l0,0s0,0,0,0V7.65Z"/><polygon class="cls-4" points="8.84 7.99 8.84 7.65 8.9 7.65 9.04 7.88 9.04 7.65 9.11 7.65 9.11 7.99 9.04 7.99 8.9 7.77 8.9 7.99 8.84 7.99"/><path class="cls-4" d="M5.8,4.2l0-.09L6,4l0,.09s0,0,0,0a.43.43,0,0,1,0,0l.09.22s0,0,0,0h.06s0,0,0,0,0,0,0-.07L6.1,4.14l0,0h0L6,4,6.18,4l0,.09v0a.11.11,0,0,0,0,.05l.08.23a.16.16,0,0,1,0,.08.13.13,0,0,1,0,.06s0,0,0,.06l-.08,0A.2.2,0,0,1,6,4.6a.27.27,0,0,1-.1-.14l-.08-.22,0,0Z"/><path class="cls-4" d="M6.63,4.36V4h0a.06.06,0,0,1,.06,0s0,0,0,.08v.18a.07.07,0,0,1-.08.08Zm0,.12a.26.26,0,0,0,.18-.05.22.22,0,0,0,0-.18V4.11a.28.28,0,0,0,0-.18.26.26,0,0,0-.18,0H6.46V4h0s0,0,0,0v.32h0v.1Z"/><path class="cls-4" d="M7,4.5l0-.1H7s0,0,0,0l.1-.27a0,0,0,0,0,0,0l0,0,0-.09.15,0,0,.36.06-.16a.08.08,0,0,0,0,0l0,0,0-.09.17.07,0,.09h0s0,0,0,0l-.15.4L7.26,4.6l0-.36-.07.16a.43.43,0,0,1,0,0l0,0,0,.09Z"/><path class="cls-5" d="M5.66,5.88a1,1,0,1,1,1,1A1,1,0,0,1,5.66,5.88Z"/><path class="cls-6" d="M6,5a1.46,1.46,0,0,0,.73.18A1.6,1.6,0,0,0,7.4,5"/><path class="cls-7" d="M5.73,5.34a2.18,2.18,0,0,0,1,.24,2,2,0,0,0,.94-.24"/><line class="cls-8" x1="6.72" y1="5.22" x2="6.72" y2="5.57"/><line class="cls-8" x1="6.97" y1="5.2" x2="7" y2="5.55"/><line class="cls-8" x1="7.16" y1="5.15" x2="7.28" y2="5.48"/><line class="cls-8" x1="6.47" y1="5.2" x2="6.43" y2="5.55"/><line class="cls-8" x1="6.27" y1="5.15" x2="6.16" y2="5.48"/><path class="cls-9" d="M5.91,6H6A.09.09,0,0,0,6,6l.06,0,.06,0a.08.08,0,0,0,0,0,0,0,0,0,0,0,0h0l-.07,0L6,5.9a.11.11,0,0,1,0-.09.14.14,0,0,1,0-.06l0,0h.08a.21.21,0,0,1,.12,0,.1.1,0,0,1,0,.09H6.15s0,0,0,0H6v0a0,0,0,0,0,0,0l.08,0,.09,0a.1.1,0,0,1,.05,0,.15.15,0,0,1,0,.07.11.11,0,0,1,0,.07.1.1,0,0,1,0,0l-.09,0a.17.17,0,0,1-.12,0,.13.13,0,0,1,0-.11Z"/><polygon class="cls-9" points="6.47 6.12 6.47 5.7 6.59 5.7 6.67 5.99 6.75 5.7 6.87 5.7 6.87 6.12 6.79 6.12 6.79 5.79 6.71 6.12 6.63 6.12 6.55 5.79 6.55 6.12 6.47 6.12 6.47 6.12"/><path class="cls-9" d="M7.11,5.7h.24a.05.05,0,0,1,0,0,0,0,0,0,1,0,0,.07.07,0,0,1,0,.1l0,0,.06,0a.08.08,0,0,1,0,.06.08.08,0,0,1,0,0,.09.09,0,0,1,0,0l-.06,0H7.11V5.7Zm.08.07v.1h.12s0,0,0,0l0,0s0,0,0,0l0,0H7.19Zm0,.17v.11h.14l0,0s0,0,0,0a0,0,0,0,0,0,0l0,0H7.19Z"/><path class="cls-8" d="M6,6.76a1.46,1.46,0,0,1,.73-.18,1.6,1.6,0,0,1,.68.18"/><path class="cls-10" d="M5.73,6.46a2.18,2.18,0,0,1,1-.24,2,2,0,0,1,.94.24"/><line class="cls-8" x1="6.72" y1="6.58" x2="6.72" y2="6.23"/><line class="cls-8" x1="6.97" y1="6.6" x2="7" y2="6.25"/><line class="cls-8" x1="7.16" y1="6.65" x2="7.28" y2="6.32"/><line class="cls-8" x1="6.47" y1="6.6" x2="6.43" y2="6.25"/><line class="cls-8" x1="6.27" y1="6.65" x2="6.16" y2="6.32"/><polygon class="cls-1" points="6.52 0 6.81 0 6.74 3.46 6.59 3.46 6.52 0"/><polygon class="cls-1" points="6.04 1.45 6.32 1.42 6.43 3.45 6.28 3.46 6.04 1.45"/><polygon class="cls-1" points="5.31 0.17 5.59 0.12 6.12 3.49 5.97 3.51 5.31 0.17"/><polygon class="cls-1" points="5.04 1.66 5.32 1.59 5.78 3.56 5.63 3.6 5.04 1.66"/><polygon class="cls-1" points="4.04 0.56 4.31 0.46 5.42 3.69 5.27 3.74 4.04 0.56"/><polygon class="cls-1" points="4.04 2.08 4.29 1.96 5.09 3.82 4.95 3.88 4.04 2.08"/><polygon class="cls-1" points="2.65 1.3 2.88 1.13 4.78 3.96 4.66 4.05 2.65 1.3"/><polygon class="cls-1" points="3.03 2.77 3.25 2.58 4.5 4.18 4.39 4.28 3.03 2.77"/><polygon class="cls-1" points="2.16 2.71 2.37 2.52 4.12 4.5 4.01 4.6 2.16 2.71"/><polygon class="cls-1" points="2.2 3.62 2.39 3.4 3.89 4.75 3.8 4.87 2.2 3.62"/><polygon class="cls-1" points="1.86 4.31 2.01 4.06 3.66 5.06 3.58 5.19 1.86 4.31"/><polygon class="cls-1" points="1.67 4.85 1.79 4.59 3.45 5.38 3.39 5.51 1.67 4.85"/><polygon class="cls-1" points="1.71 5.51 1.78 5.24 3.29 5.72 3.25 5.87 1.71 5.51"/><polygon class="cls-1" points="1.93 6.12 1.91 5.84 3.17 6.03 3.15 6.18 1.93 6.12"/><polygon class="cls-1" points="2.06 6.65 1.97 6.37 3.1 6.5 3.07 6.64 2.06 6.65"/><polygon class="cls-1" points="2.15 7 2.08 6.78 3.01 6.84 2.99 6.98 2.15 7"/><polygon class="cls-1" points="7.29 1.45 7.01 1.42 6.9 3.45 7.05 3.46 7.29 1.45"/><polygon class="cls-1" points="8.02 0.17 7.73 0.12 7.21 3.49 7.36 3.51 8.02 0.17"/><polygon class="cls-1" points="8.29 1.66 8.01 1.59 7.55 3.56 7.7 3.6 8.29 1.66"/><polygon class="cls-1" points="9.29 0.56 9.02 0.46 7.91 3.69 8.05 3.74 9.29 0.56"/><polygon class="cls-1" points="9.29 2.08 9.03 1.96 8.24 3.82 8.38 3.88 9.29 2.08"/><polygon class="cls-1" points="10.68 1.3 10.45 1.13 8.55 3.96 8.67 4.05 10.68 1.3"/><polygon class="cls-1" points="10.29 2.77 10.07 2.58 8.83 4.18 8.94 4.28 10.29 2.77"/><polygon class="cls-1" points="11.17 2.71 10.96 2.52 9.21 4.5 9.32 4.6 11.17 2.71"/><polygon class="cls-1" points="11.13 3.62 10.94 3.4 9.43 4.75 9.53 4.87 11.13 3.62"/><polygon class="cls-1" points="11.46 4.31 11.32 4.06 9.67 5.06 9.74 5.19 11.46 4.31"/><polygon class="cls-1" points="11.66 4.85 11.54 4.59 9.88 5.38 9.94 5.51 11.66 4.85"/><polygon class="cls-1" points="11.62 5.51 11.54 5.24 10.04 5.72 10.08 5.87 11.62 5.51"/><polygon class="cls-1" points="11.4 6.12 11.42 5.84 10.15 6.03 10.18 6.18 11.4 6.12"/><polygon class="cls-1" points="11.27 6.65 11.36 6.37 10.23 6.5 10.26 6.64 11.27 6.65"/><path class="cls-11" d="M1.9,9a1,1,0,0,0-.32-.37c-.18-.1-.64,0-.87-.14A.78.78,0,0,1,.39,8c0-.11,0-.21,0-.21A.72.72,0,0,0,.76,8,1,1,0,0,1,1.18,8a.21.21,0,0,0,.15.06l-.11-.21s0-.08-.2-.12-.65,0-.8-.46a.91.91,0,0,1-.07-.63,1.73,1.73,0,0,0,.36.25,1.23,1.23,0,0,1,.42.3L1,7.34a.52.52,0,0,0-.16-.4C.68,6.81.8,6.87.44,6.72A.83.83,0,0,1,0,6c0-.12,0-.28,0-.28A1.12,1.12,0,0,0,.36,6c.27.15.32.21.37.3a.79.79,0,0,1,.09.2S.85,6.14.74,6,.2,5.59.13,5.28a1.13,1.13,0,0,1,0-.52.8.8,0,0,0,.27.29c.22.16.21.16.25.21a.45.45,0,0,1,.07.1.46.46,0,0,0,0-.24,1.39,1.39,0,0,1-.45-.61,1.07,1.07,0,0,1,0-.83A1,1,0,0,0,.47,4a1.46,1.46,0,0,1,.24.29.31.31,0,0,1,0,.12l.05-.2a1.37,1.37,0,0,1-.42-.71C.32,3,.47,2.89.47,2.89a.6.6,0,0,0,.21.32c.17.14.2.23.21.3a.82.82,0,0,1,0,.1S1,3.54.9,3.36a1.38,1.38,0,0,1-.21-.67.67.67,0,0,1,.19-.51,1.06,1.06,0,0,0,.09.3c.08.14.14.19.16.28a.47.47,0,0,1,0,.12.44.44,0,0,0,0-.35,1,1,0,0,1,.06-.68,1.35,1.35,0,0,1,.11-.2.37.37,0,0,0,.07.17.58.58,0,0,1,.11.26,1.09,1.09,0,0,0,0,.13A1,1,0,0,0,1.62,2a.88.88,0,0,1,.16-.57,2.17,2.17,0,0,1,.54-.5,1,1,0,0,1-.11.74,1.18,1.18,0,0,1-.36.4.87.87,0,0,1,.26,0A.69.69,0,0,0,2.37,2s-.15.47-.43.52a1.26,1.26,0,0,0-.47.18.31.31,0,0,0-.1.13l.17-.08a.41.41,0,0,1,.28,0,.8.8,0,0,0,.3-.07.53.53,0,0,1-.28.45c-.28.14-.4.09-.53.2a.7.7,0,0,0-.17.19s0,0,.25-.11a2,2,0,0,1,.55-.18A1.15,1.15,0,0,1,1.5,4,1.22,1.22,0,0,1,1,4.21l0,.25a.37.37,0,0,1,.33-.23.93.93,0,0,0,.41-.16,1.21,1.21,0,0,1-.44.75c-.39.27-.35.33-.35.33V5.4a.84.84,0,0,1,.31-.33,3.14,3.14,0,0,0,.44-.28,1.36,1.36,0,0,1-.22.78c-.23.21-.39.25-.43.39a2.6,2.6,0,0,0,0,.47A.72.72,0,0,1,1.27,6a1,1,0,0,0,.35-.35.93.93,0,0,1-.14.85c-.31.34-.34.29-.34.51s.07.24.07.24a.71.71,0,0,1,.15-.41,5.54,5.54,0,0,1,.43-.41,1,1,0,0,1-.11.84c-.25.41-.29.4-.25.56S1.5,8,1.5,8a.71.71,0,0,1,.18-.47A5.3,5.3,0,0,0,2,7.1a1.23,1.23,0,0,1,0,.82c-.17.42-.26.51-.17.68a3.38,3.38,0,0,0,.22.34Z"/><path class="cls-12" d="M1.86,9.31a.4.4,0,0,1,.29-.4c.33-.11.48.25.48.25v.47S1.89,9.54,1.86,9.31Z"/><path class="cls-12" d="M5.07,9.55a2.05,2.05,0,0,0-1.61-.07,1.78,1.78,0,0,1-1.58-.17V10s.16.56,1.45.31,1.74.05,1.74.05Z"/><path class="cls-13" d="M2,9.05c.09.23.29.27.57.09"/><polygon class="cls-1" points="11.18 7 11.25 6.78 10.32 6.84 10.34 6.98 11.18 7"/><path class="cls-1" d="M6.73,8.68A.49.49,0,0,1,7,8.74a.46.46,0,0,1,.17.17.53.53,0,0,1,.06.24.49.49,0,0,1-.06.23.46.46,0,0,1-.8,0,.49.49,0,0,1-.06-.23.53.53,0,0,1,.06-.24.46.46,0,0,1,.17-.17.49.49,0,0,1,.23-.06Zm0,.08a.41.41,0,0,0-.19.05A.4.4,0,0,0,6.39,9a.46.46,0,0,0,0,.2.45.45,0,0,0,0,.19.4.4,0,0,0,.15.14.39.39,0,0,0,.38,0,.32.32,0,0,0,.14-.14.34.34,0,0,0,.05-.19A.35.35,0,0,0,7.06,9a.32.32,0,0,0-.14-.14.45.45,0,0,0-.19-.05Zm-.2.64h.08V9.19h0l.07,0a.27.27,0,0,1,.08.11l0,.08h.09l-.06-.1-.07-.09,0,0a.14.14,0,0,0,.1,0,.1.1,0,0,0,0-.09.14.14,0,0,0,0-.07.12.12,0,0,0-.07-.05l-.12,0H6.53v.5Zm.08-.28H6.7l.1,0s0,0,0,0,0,0,0,0l0,0H6.61Z"/><path class="cls-11" d="M11.44,9a1,1,0,0,1,.32-.37c.17-.1.64,0,.87-.14A.78.78,0,0,0,13,8c0-.11,0-.21,0-.21a.72.72,0,0,1-.38.22,1.08,1.08,0,0,0-.43.07.19.19,0,0,1-.14.06l.11-.21s0-.08.2-.12.65,0,.8-.46a.91.91,0,0,0,.07-.63,1.73,1.73,0,0,1-.36.25,1.13,1.13,0,0,0-.42.3l-.09.12a.48.48,0,0,1,.16-.4c.17-.13.06-.07.42-.22A.83.83,0,0,0,13.34,6c0-.12,0-.28,0-.28A1.11,1.11,0,0,1,13,6c-.26.15-.31.21-.36.3a.79.79,0,0,0-.09.2s0-.35.08-.47.54-.43.6-.74a1,1,0,0,0,0-.52.69.69,0,0,1-.27.29c-.21.16-.2.16-.24.21a.24.24,0,0,0-.07.1.43.43,0,0,1,0-.24,1.3,1.3,0,0,0,.46-.61,1.07,1.07,0,0,0,0-.83.89.89,0,0,1-.19.29,1.32,1.32,0,0,0-.23.29.31.31,0,0,0,0,.12l-.06-.2A1.36,1.36,0,0,0,13,3.47c.06-.44-.1-.58-.1-.58a.54.54,0,0,1-.2.32c-.18.14-.2.23-.21.3a.42.42,0,0,0,0,.1s-.06-.07,0-.25a1.2,1.2,0,0,0,.21-.67.64.64,0,0,0-.18-.51.91.91,0,0,1-.1.3c-.07.14-.13.19-.16.28a.68.68,0,0,0,0,.12.44.44,0,0,1,.05-.35,1,1,0,0,0-.06-.68,1.35,1.35,0,0,0-.11-.2.37.37,0,0,1-.07.17.63.63,0,0,0-.12.26v.13A1,1,0,0,1,11.72,2a.85.85,0,0,0-.17-.57A2,2,0,0,0,11,.93a1,1,0,0,0,.11.74,1.18,1.18,0,0,0,.36.4.9.9,0,0,0-.26,0A.69.69,0,0,1,11,2s.15.47.43.52a1.11,1.11,0,0,1,.46.18.4.4,0,0,1,.11.13l-.17-.08a.41.41,0,0,0-.28,0,.87.87,0,0,1-.31-.07.55.55,0,0,0,.29.45c.28.14.4.09.53.2a.76.76,0,0,1,.16.19s0,0-.24-.11a2,2,0,0,0-.55-.18,1.15,1.15,0,0,0,.44.77,1.17,1.17,0,0,0,.52.25l0,.25a.39.39,0,0,0-.33-.23,1,1,0,0,1-.42-.16,1.2,1.2,0,0,0,.45.75c.38.27.34.33.34.33V5.4a.84.84,0,0,0-.31-.33,3.14,3.14,0,0,1-.44-.28,1.36,1.36,0,0,0,.22.78c.23.21.39.25.42.39a2.07,2.07,0,0,1,0,.47A.72.72,0,0,0,12.07,6a1,1,0,0,1-.35-.35.9.9,0,0,0,.14.85c.31.34.34.29.33.51s-.06.24-.06.24A.71.71,0,0,0,12,6.83c-.16-.17-.43-.41-.43-.41a1.07,1.07,0,0,0,.1.84c.26.41.3.4.26.56s-.07.17-.07.17a.71.71,0,0,0-.18-.47c-.19-.21-.35-.42-.35-.42a1.2,1.2,0,0,0,0,.82c.16.42.26.51.16.68a2.13,2.13,0,0,1-.22.34Z"/><path class="cls-12" d="M11.48,9.31a.41.41,0,0,0-.29-.4.4.4,0,0,0-.48.25v.47S11.45,9.54,11.48,9.31Z"/><path class="cls-12" d="M8.27,9.55a2.05,2.05,0,0,1,1.61-.07,1.78,1.78,0,0,0,1.58-.17V10s-.16.56-1.45.31-1.74.05-1.74.05Z"/><path class="cls-14" d="M11.36,9.05c-.09.23-.3.27-.57.09"/><polygon class="cls-9" points="2.48 10.15 2.45 9.81 2.52 9.8 2.53 9.94 2.67 9.92 2.66 9.79 2.73 9.78 2.76 10.13 2.69 10.13 2.67 9.98 2.54 10 2.55 10.15 2.48 10.15 2.48 10.15"/><path class="cls-9" d="M3.14,10.09H3.07L3,10H2.89l0,.08H2.8l.1-.36H3l.17.33ZM3,10l-.06-.12,0,.13Z"/><path class="cls-9" d="M3.18,10.08l0-.34h.23s0,0,0,0,0,0,0,.05a.11.11,0,0,1,0,.06.08.08,0,0,1-.07,0l0,0,0,.05.05.06H3.4l0-.07,0-.05H3.23l0,.15Zm0-.2h.13s0,0,0,0a0,0,0,0,0,0,0H3.22v.09Z"/><path class="cls-9" d="M3.49,9.71h.07l0,.18s0,0,0,.06,0,0,0,0H3.7a.05.05,0,0,0,0,0,.11.11,0,0,0,0,0v-.2h.06l0,.18a.34.34,0,0,1,0,.09l0,0s0,0,0,0l-.06,0H3.59l0,0,0,0s0-.05,0-.09l0-.18Z"/><polygon class="cls-9" points="3.87 10.02 3.84 9.67 3.94 9.66 4.03 9.89 4.07 9.65 4.17 9.64 4.2 9.98 4.14 9.99 4.11 9.72 4.07 9.99 4 10 3.91 9.74 3.94 10.01 3.87 10.02"/><path class="cls-12" d="M4.65,9.83a6.34,6.34,0,0,0,4.17,0l.14.68a7.63,7.63,0,0,1-4.44,0Z"/><path class="cls-9" d="M5.07,10.13l.07,0-.07.21s0,.05,0,.06l0,0H4.92a.1.1,0,0,1-.06-.05.1.1,0,0,1,0-.09h.06s0,0,0,0,0,0,0,0H5a.08.08,0,0,0,0-.05l.07-.22Z"/><path class="cls-9" d="M5.44,10.58l-.08,0v-.08l-.14,0,0,.07H5.1l.2-.31h.07l.07.37Zm-.1-.16,0-.14-.07.12.09,0Z"/><polygon class="cls-9" points="5.5 10.6 5.55 10.26 5.65 10.27 5.68 10.51 5.77 10.29 5.88 10.3 5.83 10.65 5.76 10.64 5.8 10.37 5.7 10.63 5.63 10.62 5.6 10.34 5.56 10.61 5.5 10.6 5.5 10.6"/><polygon class="cls-9" points="5.92 10.66 5.96 10.31 6.03 10.32 5.99 10.66 5.92 10.66 5.92 10.66"/><polygon class="cls-9" points="6.09 10.68 6.11 10.33 6.18 10.34 6.3 10.57 6.32 10.34 6.38 10.35 6.36 10.69 6.29 10.69 6.17 10.45 6.15 10.68 6.09 10.68 6.09 10.68"/><path class="cls-9" d="M6.77,10.7H6.7l0-.08H6.53l0,.08H6.43l.13-.35h.07l.14.35Zm-.13-.14,0-.13,0,.13Z"/><polygon class="cls-9" points="6.84 10.7 6.83 10.35 6.89 10.35 7.04 10.57 7.04 10.34 7.1 10.34 7.11 10.69 7.04 10.69 6.89 10.47 6.9 10.69 6.84 10.7 6.84 10.7"/><polygon class="cls-9" points="7.35 10.67 7.31 10.32 7.41 10.31 7.5 10.54 7.54 10.3 7.64 10.29 7.68 10.63 7.61 10.64 7.59 10.37 7.55 10.65 7.48 10.65 7.38 10.39 7.41 10.66 7.35 10.67 7.35 10.67"/><path class="cls-9" d="M7.72,10.28h.07l0,.18s0,.05,0,.06l0,0s0,0,.05,0l0,0,0,0a.35.35,0,0,1,0-.06l0-.19H8l0,.18s0,.07,0,.09,0,0,0,.05l0,0-.07,0H7.84l0,0a.05.05,0,0,1,0,0,.13.13,0,0,1,0-.08l0-.18Z"/><polygon class="cls-9" points="8.22 10.53 8.15 10.25 8.05 10.27 8.04 10.22 8.31 10.15 8.32 10.21 8.22 10.23 8.29 10.52 8.22 10.53 8.22 10.53"/><path class="cls-9" d="M8.35,10.14l.07,0,.05.18,0,0,0,0h.05l0,0a0,0,0,0,0,0,0,.35.35,0,0,1,0-.06l-.06-.18.07,0,.05.17a.51.51,0,0,1,0,.09.06.06,0,0,1,0,0s0,0,0,0a.06.06,0,0,1-.06,0s-.05,0-.07,0h0l0,0,0-.09Z"/><polygon class="cls-9" points="9.31 9.99 9.35 9.64 9.61 9.68 9.6 9.73 9.41 9.71 9.4 9.79 9.57 9.81 9.57 9.87 9.4 9.85 9.38 9.94 9.57 9.96 9.57 10.02 9.31 9.99 9.31 9.99"/><polygon class="cls-9" points="9.63 10.03 9.67 9.69 9.74 9.69 9.85 9.94 9.88 9.71 9.94 9.72 9.9 10.06 9.83 10.05 9.72 9.81 9.69 10.04 9.63 10.03 9.63 10.03"/><path class="cls-9" d="M10.28,10.11h-.07l0-.08-.14,0,0,.08H9.94l.18-.33h.07l.09.36ZM10.17,10l0-.13-.06.12Z"/><polygon class="cls-9" points="10.32 10.12 10.36 9.77 10.43 9.78 10.41 9.94 10.57 9.8 10.67 9.81 10.52 9.93 10.63 10.16 10.54 10.14 10.47 9.97 10.4 10.02 10.39 10.13 10.32 10.12"/><path class="cls-15" d="M.41,11.82a.68.68,0,1,1,.68.68A.68.68,0,0,1,.41,11.82Z"/><path class="cls-5" d="M.5,11.82a.6.6,0,0,1,.59-.59.59.59,0,0,1,.58.59.58.58,0,0,1-.58.58A.59.59,0,0,1,.5,11.82Z"/><path class="cls-15" d="M.83,11.82a.26.26,0,0,1,.26-.26.25.25,0,0,1,.26.26.26.26,0,0,1-.26.26A.26.26,0,0,1,.83,11.82Z"/><path class="cls-5" d="M.92,11.82a.17.17,0,0,1,.34,0,.17.17,0,0,1-.34,0Z"/><path class="cls-15" d="M1,11.82a.08.08,0,0,1,.16,0,.09.09,0,0,1-.08.08A.09.09,0,0,1,1,11.82Z"/><path class="cls-15" d="M.5,11.74l.14.09a.34.34,0,0,0,0,.09s0,.05.06,0,0,0,0,0,0-.06,0-.06H.89v-.1l-.14,0s0-.05,0-.08a.05.05,0,0,0,0-.07c-.05,0-.08,0-.09.12l-.13-.08Z"/><path class="cls-15" d="M.88,11.25v.16a.32.32,0,0,0-.07.06s0,0,0,.07,0,0,.06,0l0,0,.1.13.07-.06L1,11.46l.08,0s.05,0,.05-.06-.06-.05-.16,0,0-.16,0-.16Z"/><path class="cls-15" d="M1.45,11.32l-.15.07-.09,0a0,0,0,0,0-.05,0,0,0,0,0,0,0,0l.06,0-.06.14.08,0,.06-.12.06.06a.06.06,0,0,0,.07,0s0-.08-.06-.14l.13-.07Z"/><path class="cls-15" d="M1.7,11.89l-.14-.09a.34.34,0,0,0,0-.09s0-.05-.06,0,0,0,0,.05v.06H1.31v.1l.14,0a.27.27,0,0,1,0,.08.07.07,0,0,0,0,.07s.08,0,.09-.12l.13.08Z"/><path class="cls-15" d="M1.31,12.39v-.17a.33.33,0,0,0,.08-.06,0,0,0,0,0,0-.06s0,0,0,0l-.05,0L1.2,12l-.08.05.08.11-.08,0s-.05,0-.05.06.07.05.16,0,0,.16,0,.16Z"/><path class="cls-15" d="M.74,12.31l.15-.07.09,0a.05.05,0,0,0,.06,0,.06.06,0,0,0,0-.05l-.05,0L1,12,.93,12l-.05.12-.06-.06a.06.06,0,0,0-.07,0s0,.08.06.14l-.14.07Z"/><path class="cls-15" d="M1.92,11.82a.68.68,0,1,1,.68.68A.68.68,0,0,1,1.92,11.82Z"/><path class="cls-5" d="M2,11.82a.6.6,0,0,1,.59-.59.59.59,0,0,1,.58.59.58.58,0,0,1-.58.58A.59.59,0,0,1,2,11.82Z"/><path class="cls-15" d="M2.34,11.82a.26.26,0,0,1,.52,0,.26.26,0,0,1-.52,0Z"/><path class="cls-5" d="M2.43,11.82a.17.17,0,0,1,.34,0,.17.17,0,0,1-.34,0Z"/><path class="cls-15" d="M2.52,11.82a.08.08,0,0,1,.16,0,.08.08,0,0,1-.16,0Z"/><path class="cls-15" d="M2,11.74l.14.09a.34.34,0,0,0,0,.09s0,.05.06,0,0,0,0,0,0-.06,0-.06H2.4l0-.1-.13,0s0-.05,0-.08a.05.05,0,0,0,0-.07s-.08,0-.09.12L2,11.64Z"/><path class="cls-15" d="M2.39,11.25v.16a.32.32,0,0,0-.07.06s0,0,0,.07,0,0,.06,0l0,0,.09.13.08-.06-.08-.11.08,0s0,0,0-.06-.07-.05-.16,0,0-.16,0-.16Z"/><path class="cls-15" d="M3,11.32l-.15.07-.09,0s-.05,0-.05,0a0,0,0,0,0,0,0l.06,0-.06.14.08,0,.06-.12.06.06a.06.06,0,0,0,.07,0s0-.08-.07-.14L3,11.38Z"/><path class="cls-15" d="M3.21,11.89l-.14-.09s0-.07,0-.09,0-.05-.07,0,0,0,0,.05v.06H2.82v.1l.14,0a.27.27,0,0,1,0,.08s0,0,0,.07.08,0,.09-.12l.13.08Z"/><path class="cls-15" d="M2.82,12.39v-.17l.08-.06a0,0,0,0,0,0-.06s0,0,0,0l-.05,0L2.71,12l-.08.05.08.11-.08,0s0,0,0,.06.07.05.16,0,0,.16,0,.16Z"/><path class="cls-15" d="M2.25,12.31l.15-.07.09,0a.05.05,0,0,0,.06,0,.06.06,0,0,0,0-.05l0,0L2.53,12l-.09,0,0,.12-.06-.06a.07.07,0,0,0-.08,0s0,.08.07.14l-.14.07Z"/><path class="cls-15" d="M3.58,11.82a.68.68,0,1,1,1.36,0,.68.68,0,0,1-1.36,0Z"/><path class="cls-5" d="M3.67,11.82a.59.59,0,1,1,1.17,0,.59.59,0,0,1-1.17,0Z"/><circle class="cls-16" cx="4.26" cy="11.82" r="0.26"/><path class="cls-5" d="M4.09,11.82a.17.17,0,1,1,.34,0,.17.17,0,1,1-.34,0Z"/><path class="cls-15" d="M4.18,11.82a.07.07,0,0,1,.08-.08.08.08,0,0,1,.08.08.09.09,0,0,1-.08.08A.08.08,0,0,1,4.18,11.82Z"/><path class="cls-15" d="M3.67,11.74l.14.09a.34.34,0,0,0,0,.09s0,.05.06,0,0,0,0,0v-.06h.16l0-.1-.13,0a.17.17,0,0,1,0-.08,0,0,0,0,0,0-.07s-.07,0-.08.12l-.14-.08Z"/><path class="cls-15" d="M4.05,11.25v.16L4,11.47a0,0,0,0,0,0,.07,0,0,0,0,0,0,0s.05,0,.05,0l.09.13.08-.06-.08-.11.08,0s0,0,0-.06-.07-.05-.16,0,0-.16,0-.16Z"/><path class="cls-15" d="M4.62,11.32l-.15.07-.09,0a0,0,0,0,0-.06,0s0,0,0,0l.06,0-.06.14.08,0,.06-.12.06.06a.06.06,0,0,0,.07,0s0-.08-.07-.14l.14-.07Z"/><path class="cls-15" d="M4.87,11.89l-.14-.09a.51.51,0,0,0,0-.09s0-.05-.06,0,0,0,0,.05v.06H4.48v.1l.13,0a.17.17,0,0,1,0,.08s0,0,0,.07.07,0,.09-.12l.13.08Z"/><path class="cls-15" d="M4.48,12.39v-.17l.08-.06a0,0,0,0,0,0-.06s0,0,0,0l0,0L4.37,12l-.08.05.08.11-.08,0s0,0,0,.06.07.05.16,0,0,.16,0,.16Z"/><path class="cls-15" d="M3.91,12.31l.15-.07.09,0a.05.05,0,0,0,.06,0,.06.06,0,0,0,0-.05l-.06,0L4.19,12,4.1,12,4,12.11l0-.06a.07.07,0,0,0-.08,0s0,.08.07.14l-.14.07Z"/><path class="cls-15" d="M5.23,11.82a.68.68,0,1,1,.68.68A.68.68,0,0,1,5.23,11.82Z"/><path class="cls-5" d="M5.32,11.82a.6.6,0,0,1,.59-.59.59.59,0,0,1,.58.59.58.58,0,0,1-.58.58A.59.59,0,0,1,5.32,11.82Z"/><circle class="cls-16" cx="5.91" cy="11.82" r="0.26"/><path class="cls-5" d="M5.74,11.82a.17.17,0,0,1,.34,0,.17.17,0,0,1-.34,0Z"/><path class="cls-15" d="M5.83,11.82a.08.08,0,0,1,.16,0,.08.08,0,0,1-.16,0Z"/><path class="cls-15" d="M5.32,11.74l.14.09a.34.34,0,0,0,0,.09s0,.05.06,0,0,0,0,0,0-.06,0-.06h.16l0-.1-.13,0,0-.08a.05.05,0,0,0,0-.07s-.08,0-.09.12l-.13-.08Z"/><path class="cls-15" d="M5.7,11.25v.16a.32.32,0,0,0-.07.06s0,0,0,.07,0,0,.06,0l0,0,.1.13.07-.06-.08-.11.08,0s.05,0,.05-.06-.07-.05-.16,0,0-.16,0-.16Z"/><path class="cls-15" d="M6.27,11.32l-.15.07-.09,0a0,0,0,0,0,0,0,0,0,0,0,0,0,0l.06,0L6,11.61l.08,0,.06-.12.06.06a.06.06,0,0,0,.07,0s0-.08-.07-.14l.14-.07Z"/><path class="cls-15" d="M6.52,11.89l-.14-.09s0-.07,0-.09,0-.05-.07,0,0,0,0,.05v.06H6.13v.1l.14,0a.27.27,0,0,1,0,.08s0,0,0,.07.08,0,.09-.12L6.5,12Z"/><path class="cls-15" d="M6.13,12.39v-.17l.08-.06a0,0,0,0,0,0-.06s0,0,0,0l0,0L6,12l-.08.05.08.11-.08,0s-.05,0-.05.06.07.05.16,0,0,.16,0,.16Z"/><path class="cls-15" d="M5.56,12.31l.15-.07.09,0a.05.05,0,0,0,.06,0,.06.06,0,0,0,0-.05l0,0L5.84,12l-.09,0,0,.12-.06-.06a.07.07,0,0,0-.08,0s0,.08.07.14l-.14.07Z"/><path class="cls-15" d="M6.88,11.82a.68.68,0,1,1,1.35,0,.68.68,0,1,1-1.35,0Z"/><path class="cls-5" d="M7,11.82a.59.59,0,1,1,1.17,0,.59.59,0,0,1-1.17,0Z"/><path class="cls-15" d="M7.29,11.82a.27.27,0,0,1,.53,0,.27.27,0,0,1-.53,0Z"/><path class="cls-5" d="M7.39,11.82a.16.16,0,0,1,.17-.17.16.16,0,0,1,.16.17.17.17,0,0,1-.16.17A.17.17,0,0,1,7.39,11.82Z"/><circle class="cls-16" cx="7.55" cy="11.82" r="0.08"/><path class="cls-15" d="M7,11.74l.14.09a.34.34,0,0,0,0,.09s0,.05.06,0,0,0,0,0v-.06h.15v-.1l-.14,0a.27.27,0,0,1,0-.08.07.07,0,0,0,0-.07s-.08,0-.09.12L7,11.64Z"/><path class="cls-15" d="M7.34,11.25v.16a.32.32,0,0,0-.07.06,0,0,0,0,0,0,.07,0,0,0,0,0,.06,0l0,0,.09.13.07-.06-.08-.11.08,0s0,0,0-.06-.06-.05-.15,0v-.16Z"/><path class="cls-15" d="M7.91,11.32l-.15.07-.08,0a0,0,0,0,0-.06,0,0,0,0,0,0,0,0l.06,0-.06.14.09,0,0-.12.06.06a.06.06,0,0,0,.07,0s0-.08-.06-.14L8,11.38Z"/><path class="cls-15" d="M8.16,11.89,8,11.8a.34.34,0,0,0,0-.09s0-.05-.06,0,0,0,0,.05,0,.06,0,.06H7.77l0,.1.13,0,0,.08a.05.05,0,0,0,0,.07S8,12,8,11.91l.13.08Z"/><path class="cls-15" d="M7.78,12.39v-.17a.32.32,0,0,0,.07-.06s0,0,0-.06-.05,0-.06,0l0,0L7.66,12l-.07.05.08.11-.08,0s0,0,0,.06.06.05.15,0v.16Z"/><path class="cls-15" d="M7.21,12.31l.15-.07.08,0a.05.05,0,0,0,.06,0s0,0,0-.05l-.06,0L7.48,12,7.4,12l-.06.12-.06-.06a.06.06,0,0,0-.07,0s0,.08.06.14l-.14.07Z"/><path class="cls-15" d="M8.52,11.82a.68.68,0,1,1,1.36,0,.68.68,0,0,1-1.36,0Z"/><path class="cls-5" d="M8.61,11.82a.59.59,0,1,1,1.17,0,.59.59,0,0,1-1.17,0Z"/><circle class="cls-16" cx="9.2" cy="11.82" r="0.26"/><path class="cls-5" d="M9,11.82a.17.17,0,0,1,.34,0,.17.17,0,0,1-.34,0Z"/><path class="cls-15" d="M9.12,11.82a.07.07,0,0,1,.08-.08.08.08,0,0,1,.08.08.09.09,0,0,1-.08.08A.08.08,0,0,1,9.12,11.82Z"/><path class="cls-15" d="M8.61,11.74l.14.09a.34.34,0,0,0,0,.09s0,.05.06,0,0,0,0,0v-.06H9v-.1l-.13,0a.17.17,0,0,1,0-.08,0,0,0,0,0,0-.07s-.07,0-.08.12l-.14-.08Z"/><path class="cls-15" d="M9,11.25v.16l-.08.06a0,0,0,0,0,0,.07,0,0,0,0,0,.05,0s0,0,0,0l.09.13.08-.06-.08-.11.08,0s.05,0,.05-.06-.07-.05-.16,0,0-.16,0-.16Z"/><path class="cls-15" d="M9.56,11.32l-.15.07-.09,0a0,0,0,0,0-.06,0s0,0,0,0l.06,0-.06.14.08,0,.06-.12.06.06a.06.06,0,0,0,.07,0s0-.08-.07-.14l.14-.07Z"/><path class="cls-15" d="M9.81,11.89l-.15-.09a.34.34,0,0,0,0-.09s0-.05-.06,0,0,0,0,.05v.06H9.42v.1l.13,0a.17.17,0,0,1,0,.08s0,0,0,.07.07,0,.09-.12l.13.08Z"/><path class="cls-15" d="M9.42,12.39v-.17a.32.32,0,0,0,.07-.06s0,0,0-.06,0,0-.06,0l0,0L9.31,12l-.08.05.08.11-.08,0s-.05,0-.05.06.07.05.16,0,0,.16,0,.16Z"/><path class="cls-15" d="M8.85,12.31,9,12.24l.09,0s.05,0,.05,0,0,0,0-.05l-.06,0L9.13,12,9,12,9,12.11l-.05-.06a.07.07,0,0,0-.08,0s0,.08.07.14l-.14.07Z"/><path class="cls-15" d="M10.16,11.82a.68.68,0,1,1,.68.68A.68.68,0,0,1,10.16,11.82Z"/><path class="cls-5" d="M10.26,11.82a.59.59,0,0,1,.58-.59.6.6,0,0,1,.59.59.59.59,0,0,1-.59.58A.58.58,0,0,1,10.26,11.82Z"/><path class="cls-15" d="M10.58,11.82a.26.26,0,0,1,.26-.26.25.25,0,0,1,.26.26.26.26,0,0,1-.26.26A.26.26,0,0,1,10.58,11.82Z"/><path class="cls-5" d="M10.68,11.82a.16.16,0,0,1,.16-.17.16.16,0,0,1,.17.17.17.17,0,0,1-.17.17A.17.17,0,0,1,10.68,11.82Z"/><path class="cls-15" d="M10.76,11.82a.08.08,0,0,1,.08-.08.07.07,0,0,1,.08.08.08.08,0,0,1-.08.08A.09.09,0,0,1,10.76,11.82Z"/><path class="cls-15" d="M10.25,11.74l.14.09a.34.34,0,0,0,0,.09s0,.05.06,0,0,0,0,0v-.06h.15v-.1l-.14,0s0-.05,0-.08a.05.05,0,0,0,0-.07s-.08,0-.09.12l-.13-.08Z"/><path class="cls-15" d="M10.63,11.25v.16a.32.32,0,0,0-.07.06,0,0,0,0,0,0,.07,0,0,0,0,0,.06,0l.05,0,.09.13.07-.06-.08-.11a.21.21,0,0,1,.08,0s0,0,0-.06-.06-.05-.15,0v-.16Z"/><path class="cls-15" d="M11.2,11.32l-.15.07-.08,0a0,0,0,0,0-.06,0,0,0,0,0,0,0,0l.06,0-.06.14.09,0,.05-.12.06.06a.06.06,0,0,0,.07,0s0-.08-.06-.14l.14-.07Z"/><path class="cls-15" d="M11.45,11.89l-.14-.09a.34.34,0,0,0,0-.09s0-.05-.06,0,0,0,0,.05v.06h-.15v.1l.14,0,0,.08a.05.05,0,0,0,0,.07s.08,0,.09-.12l.13.08Z"/><path class="cls-15" d="M11.07,12.39v-.17a.32.32,0,0,0,.07-.06s0,0,0-.06-.05,0-.06,0l-.05,0L11,12l-.07.05.07.11-.08,0s0,0,0,.06.06.05.15,0,0,.16,0,.16Z"/><path class="cls-15" d="M10.49,12.31l.16-.07.08,0a.05.05,0,0,0,.06,0s0,0,0-.05l-.06,0,.06-.14-.08,0-.06.12-.06-.06a.06.06,0,0,0-.07,0s0,.08.06.14l-.14.07Z"/><path class="cls-15" d="M11.81,11.82a.68.68,0,0,1,1.36,0,.68.68,0,0,1-1.36,0Z"/><path class="cls-5" d="M11.9,11.82a.59.59,0,1,1,1.17,0,.59.59,0,0,1-1.17,0Z"/><path class="cls-15" d="M12.23,11.82a.25.25,0,0,1,.26-.26.26.26,0,0,1,.26.26.26.26,0,0,1-.26.26A.26.26,0,0,1,12.23,11.82Z"/><path class="cls-5" d="M12.32,11.82a.16.16,0,0,1,.17-.17.17.17,0,0,1,.17.17.18.18,0,0,1-.17.17A.17.17,0,0,1,12.32,11.82Z"/><path class="cls-15" d="M12.41,11.82a.07.07,0,0,1,.08-.08.08.08,0,0,1,.08.08.09.09,0,0,1-.08.08A.08.08,0,0,1,12.41,11.82Z"/><path class="cls-15" d="M11.9,11.74l.14.09a.34.34,0,0,0,0,.09s0,.05.06,0,0,0,0,0v-.06h.15v-.1l-.13,0a.17.17,0,0,1,0-.08s0-.05,0-.07-.07,0-.09.12l-.13-.08Z"/><path class="cls-15" d="M12.28,11.25v.16a.33.33,0,0,0-.08.06,0,0,0,0,0,0,.07,0,0,0,0,0,.06,0l.05,0,.09.13.08-.06-.08-.11a.21.21,0,0,1,.08,0s0,0,0-.06-.06-.05-.15,0,0-.16,0-.16Z"/><path class="cls-15" d="M12.84,11.32l-.15.07-.08,0a0,0,0,0,0-.06,0s0,0,0,0l.05,0-.06.14.09,0,.06-.12,0,.06a.07.07,0,0,0,.08,0s0-.08-.07-.14l.14-.07Z"/><path class="cls-15" d="M13.09,11.89,13,11.8a.34.34,0,0,0,0-.09s0-.05-.06,0,0,0,0,.05v.06h-.15v.1l.13,0a.17.17,0,0,1,0,.08,0,0,0,0,0,0,.07s.07,0,.09-.12l.13.08Z"/><path class="cls-15" d="M12.71,12.39v-.17a.32.32,0,0,0,.07-.06s0,0,0-.06,0,0-.06,0l0,0-.1-.12-.07.05.08.11-.08,0s0,0,0,.06.06.05.16,0a1.1,1.1,0,0,0,0,.16Z"/><path class="cls-15" d="M12.14,12.31l.15-.07.08,0a.05.05,0,0,0,.06,0s0,0,0-.05l-.06,0,.07-.14-.09,0-.06.12-.06-.06a.05.05,0,0,0-.07,0s0,.08.07.14l-.15.07Z"/></g></g></svg>