<svg xmlns="http://www.w3.org/2000/svg" viewBox="0 0 21.61 6.73"><defs><style>.cls-1{fill:#fff200;}.cls-2,.cls-5{fill:#2e3192;}.cls-3,.cls-7{fill:#ed1c24;}.cls-4,.cls-6{fill:#fff;}.cls-4,.cls-5,.cls-7{fill-rule:evenodd;}</style></defs><g id="Layer_2" data-name="Layer 2"><g id="Layer_1-2" data-name="Layer 1"><rect class="cls-1" y="0.02" width="6.71" height="6.71"/><path class="cls-2" d="M.24.3H1.72a1.7,1.7,0,0,0,.35,3.36h1.8a1.26,1.26,0,0,1,0,2.52H.24Z"/><path class="cls-3" d="M6.47,6.45H5a1.7,1.7,0,0,0-.35-3.36H2.85a1.26,1.26,0,1,1,0-2.52H6.47Z"/><path class="cls-4" d="M2.8,4.91a1,1,0,1,1,1,1A1,1,0,0,1,2.8,4.91Z"/><polygon class="cls-5" points="3.18 5.7 3.18 4.1 3.47 4.1 3.47 4.81 4.04 4.1 4.43 4.1 3.9 4.72 4.46 5.7 4.09 5.7 3.7 4.95 3.47 5.21 3.47 5.7 3.18 5.7"/><circle class="cls-6" cx="2.88" cy="1.81" r="1.02"/><path class="cls-7" d="M2.37,2.67V1h.54a1.76,1.76,0,0,1,.41,0,.43.43,0,0,1,.24.16.52.52,0,0,1,.1.33.53.53,0,0,1-.06.26A.45.45,0,0,1,3.28,2L2.93,2H2.71v.64Zm.34-1.4v.48h.18a.75.75,0,0,0,.27,0,.23.23,0,0,0,.11-.08.28.28,0,0,0,0-.13.23.23,0,0,0-.19-.23H2.71Z"/><path class="cls-3" d="M8.31,0h.38A.22.22,0,0,1,8.9.13a.34.34,0,0,1-.05.34.19.19,0,0,1-.16.07h-.3L8.48.35h.18A.08.08,0,0,0,8.74.26.07.07,0,0,0,8.66.18H8.4a.07.07,0,0,0-.06.07V.9H8.17V0Z"/><path class="cls-7" d="M9,.82a.09.09,0,1,1,.09.09A.09.09,0,0,1,9,.82Z"/><path class="cls-7" d="M10.21.82a.09.09,0,1,1,.09.09A.09.09,0,0,1,10.21.82Z"/><path class="cls-3" d="M9.86.26V.9H9.7V.26A.09.09,0,0,0,9.61.17H9.44A.07.07,0,0,1,9.37.1v0A.07.07,0,0,1,9.44,0h.68a.07.07,0,0,1,.06.07v0a.07.07,0,0,1-.06.07H10A.09.09,0,0,0,9.86.26Z"/><path class="cls-3" d="M9.17,5.07h.38s0,0,0,0,0,0,0,.07l-.63.66.67.9H9.15l-.46-.64-.19.19v.45H8.14V5.07H8.5v.69Z"/><polygon class="cls-3" points="11.05 5.07 10.9 5.45 10.09 5.45 10.09 5.72 10.82 5.72 10.82 6.08 10.09 6.08 10.09 6.35 11.08 6.35 11.08 6.73 10.09 6.73 9.78 6.73 9.72 6.73 9.72 5.07 9.75 5.07 10.09 5.07 11.05 5.07"/><polygon class="cls-3" points="12.54 5.07 12.76 5.07 12.88 5.07 12.88 6.73 12.52 6.73 12.52 5.97 12.16 6.73 12.05 6.73 12.02 6.73 11.91 6.73 11.55 5.97 11.55 6.73 11.18 6.73 11.18 5.07 11.31 5.07 11.52 5.07 12.03 6.14 12.54 5.07"/><path class="cls-3" d="M13.71,5.07H14l.71,1.66h-.9l-.18-.36H14c.07,0,.08-.06.06-.11l-.25-.58-.45,1.05H13Z"/><rect class="cls-3" x="16.36" y="5.07" width="0.36" height="1.66"/><path class="cls-3" d="M18,5.07h.36V6.73H18s-.66-.83-.68-.87-.06,0-.07,0v.85h-.36V5.07h.36l.67.87S18,6,18,5.84Z"/><path class="cls-3" d="M15.23,5.07h.9a.07.07,0,0,1,.08.07l-.12.31h-.82a.13.13,0,1,0,0,.26h.51a.49.49,0,0,1,.49.5.5.5,0,0,1-.49.52h-1V6.45a.09.09,0,0,1,.09-.09h.85a.17.17,0,0,0,.15-.16.13.13,0,0,0-.14-.13h-.49a.5.5,0,0,1,0-1Z"/><path class="cls-3" d="M18.81,5.41v1h.26a.51.51,0,0,0,.5-.5.5.5,0,0,0-.5-.49Zm-.36-.34h.62a.83.83,0,1,1,0,1.66h-.62Z"/><path class="cls-7" d="M20,5.9a.8.8,0,1,1,1.59,0A.8.8,0,1,1,20,5.9Zm.34,0a.47.47,0,0,1,.46-.48.48.48,0,0,1,0,1A.47.47,0,0,1,20.36,5.9Z"/><polygon class="cls-3" points="11.05 3.06 10.9 3.44 10.09 3.44 10.09 3.71 10.82 3.71 10.82 4.07 10.09 4.07 10.09 4.34 11.08 4.34 11.08 4.72 10.09 4.72 9.78 4.72 9.72 4.72 9.72 3.06 9.75 3.06 10.09 3.06 11.05 3.06"/><polygon class="cls-3" points="11.18 3.06 11.54 3.06 11.54 4.36 12.51 4.36 12.51 4.72 11.18 4.72 11.18 3.06"/><path class="cls-3" d="M13.33,3.06h.27l.72,1.66h-.9l-.18-.36h.42c.07,0,.08-.05.06-.11l-.25-.58-.45,1h-.4Z"/><path class="cls-3" d="M15.55,3.06h.36V4.72h-.36l-.69-.86a0,0,0,0,0-.06,0v.84h-.37V3.06h.37l.67.87s.07,0,.08-.1Z"/><rect class="cls-3" x="17.68" y="3.06" width="0.36" height="1.66"/><path class="cls-7" d="M17.47,3.06h-.76a.78.78,0,0,0-.69.8.86.86,0,0,0,.79.86h.61a.1.1,0,0,0,.11-.11v-.8a.12.12,0,0,0-.13-.14H17L16.77,4h.28c.07,0,.11,0,.11.09v.1s0,.12-.12.12h-.22a.47.47,0,0,1-.42-.5.46.46,0,0,1,.49-.47h.46Z"/><path class="cls-3" d="M8.14,3.06h1a.44.44,0,0,1,.41.25.61.61,0,0,1-.09.63.44.44,0,0,1-.33.14H8.54l.2-.39h.33a.13.13,0,0,0,.14-.13c0-.09,0-.13-.12-.13h-.5a.09.09,0,0,0-.09.1V4.72H8.14Z"/><rect class="cls-3" x="9.69" y="1.09" width="0.36" height="1.66"/><path class="cls-3" d="M13.54,1.09h1a.54.54,0,0,1,.47.24.5.5,0,0,1-.19.69.74.74,0,0,1-.26,0h-.09l.61.68h-.49L14,2.09l.17-.38h.39a.12.12,0,0,0,.14-.15c0-.09-.08-.12-.16-.12H14a.08.08,0,0,0-.07.09V2.75h-.36Z"/><path class="cls-3" d="M12.45,1.09h.27l.72,1.66h-.9l-.18-.36h.42c.07,0,.08-.05.06-.11l-.25-.58-.45,1.05h-.4Z"/><path class="cls-3" d="M11.27,1.09h.37V2.75h-.37l-.68-.86s-.06,0-.07,0v.84h-.36V1.09h.36L11.2,2s.06,0,.07-.1Z"/><path class="cls-3" d="M8.6,1.09h.9a.08.08,0,0,1,.08.07l-.09.31H8.64a.14.14,0,0,0-.15.13.13.13,0,0,0,.12.13h.51a.51.51,0,0,1,0,1h-1V2.47a.09.09,0,0,1,.1-.09h.84a.17.17,0,0,0,.15-.16.13.13,0,0,0-.14-.13H8.6a.5.5,0,0,1,0-1Z"/></g></g></svg>