<svg xmlns="http://www.w3.org/2000/svg" viewBox="0 0 9.73 10.16"><defs><style>.cls-1{fill:#fff;}</style></defs><g id="Layer_2" data-name="Layer 2"><g id="Layer_1-2" data-name="Layer 1"><path class="cls-1" d="M6.67,8.18A1.81,1.81,0,0,1,3.79,9.81,1.72,1.72,0,0,1,3.16,9,1.85,1.85,0,0,1,3.1,7.89a1.8,1.8,0,0,1-1.84.44A1.72,1.72,0,0,1,.19,7.41a1.81,1.81,0,0,1,1-2.51A1.8,1.8,0,0,1,0,3.5,1.73,1.73,0,0,1,.36,2.11,1.82,1.82,0,0,1,3,1.85,1.8,1.8,0,0,1,3.65.47,1.75,1.75,0,0,1,5.08,0,1.82,1.82,0,0,1,6.67,2,1.79,1.79,0,0,1,8.3,1.52a1.77,1.77,0,0,1,1.2.88,1.72,1.72,0,0,1,.23.79A1.76,1.76,0,0,1,9.59,4a1.78,1.78,0,0,1-.49.66,1.86,1.86,0,0,1-.74.38A1.77,1.77,0,0,1,9.65,6.49a1.74,1.74,0,0,1-.79,1.83A1.83,1.83,0,0,1,6.67,8.18ZM4.89,7.9a3.05,3.05,0,0,0,.6-.06A2.85,2.85,0,0,0,7,7a2.76,2.76,0,0,0,.73-2.53A2.79,2.79,0,0,0,6.48,2.59a2.94,2.94,0,0,0-3.85.59A2.79,2.79,0,0,0,2,5.23a2.45,2.45,0,0,0,.23.92A2.91,2.91,0,0,0,4.89,7.9Z"/><path class="cls-1" d="M4.89,7.79a2.8,2.8,0,0,1-2.07-.91A2.58,2.58,0,0,1,2.11,5.4,2.76,2.76,0,0,1,3.7,2.49,3,3,0,0,1,5,2.23,2.78,2.78,0,0,1,7.64,4.41a2.68,2.68,0,0,1-.85,2.65,2.67,2.67,0,0,1-1.44.69A3.57,3.57,0,0,1,4.89,7.79ZM3.58,7.05a1.84,1.84,0,0,1,1.23-.51A1.75,1.75,0,0,1,6.05,7,1.85,1.85,0,0,1,7.41,5a1.84,1.84,0,0,1-1.3-1.89,1.85,1.85,0,0,1-2.48,0A1.83,1.83,0,0,1,2.43,4.9a1.86,1.86,0,0,1,1,.85A1.83,1.83,0,0,1,3.58,7.05Z"/></g></g></svg>