<svg xmlns="http://www.w3.org/2000/svg" viewBox="0 0 15.41 9.79"><defs><style>.cls-1,.cls-4{fill:#00803e;}.cls-1{stroke:#fff;stroke-linecap:round;stroke-linejoin:round;stroke-width:0.19px;}.cls-2{fill:none;}.cls-3{fill:#fff;}</style></defs><g id="Layer_2" data-name="Layer 2"><g id="Layer_1-2" data-name="Layer 1"><path class="cls-1" d="M9.05,10.73a.19.19,0,0,1-.1,0,.21.21,0,0,1-.1-.06,0,0,0,0,1,0,0v0a.05.05,0,0,1,0,0h.07l.06,0,.08,0h.06a.05.05,0,0,0,0,0h0v0a0,0,0,0,1,0,0l0,0,0,0-.07,0-.06,0,0,0a.16.16,0,0,1,0-.07h0a.14.14,0,0,1,0-.07l0,0a.09.09,0,0,1,.07,0H9.1l.09,0,.07,0,0,0a0,0,0,0,1,0,0s0,0,0,0H9.19a.09.09,0,0,0,0,0l-.06,0H9l0,0H9v0H9l0,0,.06,0,.07,0a.1.1,0,0,1,.05,0l0,0a.16.16,0,0,1,0,.07h0a.19.19,0,0,1,0,.07.1.1,0,0,1-.05,0s0,0-.06,0Z" transform="translate(-1.77 -2.04)"/><path class="cls-1" d="M9.43,10.75s0,0,0,0l-.07-.3h0a.05.05,0,0,1,0,0h.08s0,0,0,0l0,.21.09-.21,0,0h.05l0,0,0,0,0,.21.09-.2,0,0h.08a.08.08,0,0,1,0,0v0h0l-.14.29s0,0,0,0H9.69l0,0,0-.21-.09.2,0,0h0Z" transform="translate(-1.77 -2.04)"/><path class="cls-1" d="M10.3,10.75l-.07,0h-.09l-.08,0-.07,0,0-.07a.27.27,0,0,1,0-.09h0a.19.19,0,0,1,0-.08l0-.07.07,0h.09l.09,0,.06,0,0,.06v.07a.05.05,0,0,1,0,0l0,0h-.24s0,.05,0,.06,0,0,.07,0h0l0,0h.07s0,0,0,0v0Zm-.05-.2a.14.14,0,0,0,0-.06.07.07,0,0,0-.06,0,.06.06,0,0,0-.06,0,.09.09,0,0,0,0,.06Z" transform="translate(-1.77 -2.04)"/><path class="cls-1" d="M10.76,10.75l-.07,0-.08,0-.09,0-.06,0a.21.21,0,0,1,0-.06.28.28,0,0,1,0-.09h0a.32.32,0,0,1,0-.09l.05-.06a.18.18,0,0,1,.07,0l.09,0a.15.15,0,0,1,.09,0,.1.1,0,0,1,0,0,.09.09,0,0,1,0,.07.13.13,0,0,1,0,.06.08.08,0,0,1,0,0h-.28a.09.09,0,0,0,0,.06.06.06,0,0,0,.06,0h.05l0,0h.06a0,0,0,0,1,0,0v0Zm0-.2s0-.05,0-.06a.05.05,0,0,0,0,0,.09.09,0,0,0-.07,0s0,0,0,.06Z" transform="translate(-1.77 -2.04)"/><path class="cls-1" d="M11,10.78H11l0,0,0,0v-.06l0-.19h0a.05.05,0,0,1,0,0l0,0,0,0h0v0a.05.05,0,0,1,0,0,.06.06,0,0,1,.05,0h0a.06.06,0,0,1,0,0v0h.08s0,0,0,0a.06.06,0,0,1,0,0H11l0,.18s0,0,0,0h0v0l0,0,0,0H11Z" transform="translate(-1.77 -2.04)"/><path class="cls-1" d="M11.5,10.7l-.07,0a.11.11,0,0,1-.08,0h-.09l-.06,0a.16.16,0,0,1,0-.07.19.19,0,0,1,0-.08h0l0-.09a.26.26,0,0,1,.12-.12l.09,0a.14.14,0,0,1,.09,0,.1.1,0,0,1,0,0,.09.09,0,0,1,0,.06.2.2,0,0,1,0,.07.05.05,0,0,1,0,0l-.05,0-.23,0a.05.05,0,0,0,0,.05s0,0,.06,0h.05l0,0h0l0,0s0,0,0,0v0Zm0-.19s0,0,0-.06,0,0,0,0a.09.09,0,0,0-.07,0l0,.06Z" transform="translate(-1.77 -2.04)"/><path class="cls-1" d="M11.64,10.38a.06.06,0,0,1,0-.05l0,0h0s0,0,0,0h0l0,0,0,0,0,0h0a.11.11,0,0,1,.11,0,.11.11,0,0,1,0,.1l0,.22,0,0-.05,0h0s0,0,0,0l0-.18a.13.13,0,0,0,0-.06h-.06a.05.05,0,0,0-.05,0,.06.06,0,0,0,0,.06l0,.18a.08.08,0,0,1,0,0l0,0s0,0,0,0,0,0,0,0Z" transform="translate(-1.77 -2.04)"/><path class="cls-1" d="M12.49,10.39l-.16-.22s0,0,0,0v0a.08.08,0,0,1,0-.05l.05,0h0l0,0,.12.18.17-.23,0,0h0a0,0,0,0,1,0,0s0,0,0,0a0,0,0,0,1,0,0v0l-.22.29,0,.16a.08.08,0,0,1,0,.05s0,0-.05,0h0s0,0,0,0Z" transform="translate(-1.77 -2.04)"/><path class="cls-1" d="M13,10.52h-.09a.11.11,0,0,1-.08,0l0-.06a.28.28,0,0,1,0-.09h0l0-.1.06-.08.08-.07.1,0a.17.17,0,0,1,.1,0,.11.11,0,0,1,.07,0l0,.06a.28.28,0,0,1,0,.09h0l0,.09-.06.09a.27.27,0,0,1-.08.07Zm0-.11.05,0,0,0,0,0a.09.09,0,0,0,0-.05h0v0s0,0,0,0l0,0h0l-.05,0a.08.08,0,0,0,0,0l0,0s0,0,0,.05h0v0l0,0,0,0Z" transform="translate(-1.77 -2.04)"/><path class="cls-1" d="M13.73,10.26a.08.08,0,0,1,0,.05s0,0-.05,0h0l0,0h0l0,0,0,0,0,0,0,0c-.05,0-.09,0-.11,0a.12.12,0,0,1,0-.11l0-.23a.08.08,0,0,1,0-.05s0,0,0,0h0a.05.05,0,0,1,0,0l0,.19s0,.05,0,.06,0,0,0,0l.06,0a.09.09,0,0,0,0-.07l0-.19a.08.08,0,0,1,0-.05s0,0,.05,0h0a.05.05,0,0,1,0,0Z" transform="translate(-1.77 -2.04)"/><path class="cls-1" d="M13.85,9.9s0,0,0-.05,0,0,0,0h0a.05.05,0,0,1,0,0v0l0-.07a.1.1,0,0,1,.05,0h0s0,0,0,0,0,0,0,0l0,0A.18.18,0,0,0,14,10a.36.36,0,0,0,0,.11v.12a.08.08,0,0,1,0,.05s0,0-.05,0h0s0,0,0,0Z" transform="translate(-1.77 -2.04)"/><path class="cls-1" d="M14.42,9.54a.14.14,0,0,1,0-.06l.05,0,.17-.07.12,0,.09,0a.12.12,0,0,1,.06.08.34.34,0,0,1,0,.11h0a.65.65,0,0,1,0,.13.57.57,0,0,1-.08.13.52.52,0,0,1-.1.11l-.13.08-.17.07h0a.05.05,0,0,1,0,0Zm.18.34.07-.05.07-.06s0,0,0-.08a.19.19,0,0,0,0-.08h0V9.54l0,0h-.06l-.07,0-.1,0,0,.38Z" transform="translate(-1.77 -2.04)"/><path class="cls-1" d="M15.08,9.78,15,9.8h0l0,0s0,0,0-.06h0a.24.24,0,0,1,0-.08.21.21,0,0,1,0-.06l.06-.06.07,0,.06,0h.05s0-.05,0-.06a.12.12,0,0,0-.07,0l0,0,0,0h0s0,0,0,0,0,0,0,0l0,0s0,0,0,0l.07,0,.07-.05.09,0h.06a.08.08,0,0,1,0,0,.19.19,0,0,1,0,.08l0,.22s0,0,0,.05a.07.07,0,0,1-.05,0s0,0,0,0a0,0,0,0,1,0,0h0l-.06.07Zm.05-.12a.13.13,0,0,0,.07-.06.25.25,0,0,0,0-.07v0h0l0,0a.15.15,0,0,0-.06.05.09.09,0,0,0,0,.06h0s0,0,0,0A.06.06,0,0,0,15.13,9.66Z" transform="translate(-1.77 -2.04)"/><path class="cls-1" d="M15.48,9.69l0,0h-.06s0,0,0,0,0,0,0,0l0,0h0l0,0s0,0,0,0h0l-.1-.29v0h0a.14.14,0,0,1,0-.06l.05,0h0s0,0,0,0l.06.22L15.73,9a.08.08,0,0,1,0-.05l0,0h0s0,0,0,0V9h0l-.19.5,0,.08,0,.06s0,0,0,0Z" transform="translate(-1.77 -2.04)"/><path class="cls-1" d="M16,9.24l-.07,0h-.09v0s0,0,0,0l0,0H16l.05,0,0,0s0,0,0,0h0s0,0,0,0H16l0,0h0l0,0a.08.08,0,0,1,0-.05h0a.19.19,0,0,1,0-.07l0-.07L16,8.8,16,8.75l.07,0,0,0h0s0,0,0,0,0,0,0,0a.08.08,0,0,1,0,0h-.06l0,0s0,0,0,0l0,0h.18a0,0,0,0,1,0,.05h0a.17.17,0,0,1,0,.07l0,.07L16,9.19Z" transform="translate(-1.77 -2.04)"/><rect class="cls-2" width="15.14" height="9.79"/><path class="cls-3" d="M6.85,9.53s0-.08.07-.07.12,0,.17,0l0,.06-.64.28v0s0,0,0,0a.17.17,0,0,1-.06.14c-.06,0-.12.05-.16,0a.25.25,0,0,1,0-.16h0a.11.11,0,0,0,0,.11s.16-.06.15-.08l-.07,0v0s0-.08,0-.09L7,9.54s-.09,0-.12,0Z" transform="translate(-1.77 -2.04)"/><path class="cls-3" d="M3.79,10.72s0,0,.07,0a.56.56,0,0,0,0,.07l.08.13h0l-.09-.14h0Z" transform="translate(-1.77 -2.04)"/><path class="cls-3" d="M6.39,9.55s0,0,.07,0a.56.56,0,0,0,0,.07l.08.13h0l-.09-.14h0Z" transform="translate(-1.77 -2.04)"/><path class="cls-3" d="M6,9.75v.08A1.12,1.12,0,0,1,6.1,10a.39.39,0,0,0,0-.09A1.94,1.94,0,0,0,6,9.75Z" transform="translate(-1.77 -2.04)"/><path class="cls-3" d="M6,9.71H6s0,0,0,0v0s0,0,0,.05H6v0H6Z" transform="translate(-1.77 -2.04)"/><path class="cls-3" d="M5.94,9.9V10s0,0,0,0l-.26.11,0,.06L6.05,10A.19.19,0,0,0,5.94,9.9Z" transform="translate(-1.77 -2.04)"/><path class="cls-3" d="M5.76,10.1l-1.56.71s0,0,0,0,0-.12-.1-.15v.07l0,0,0,.11s0,.07.09,0l1.57-.72Z" transform="translate(-1.77 -2.04)"/><path class="cls-3" d="M4,11l-.21.09c-.06,0-.07,0-.11,0a.15.15,0,0,1,0-.11h0s0,.07,0,.08L4,10.91s0-.07.05-.13.12.11.11.12l-.11,0Zm.06-.11,0,0v0S4.06,10.88,4.07,10.86Z" transform="translate(-1.77 -2.04)"/><path class="cls-3" d="M3.75,10.79l0,0s0,0,0,0,0,0,0,0,0,.09-.06.11,0-.06,0-.06,0,0,0,0S3.72,10.81,3.75,10.79Z" transform="translate(-1.77 -2.04)"/><rect class="cls-3" x="6.02" y="10.06" width="0.05" height="0.05" transform="translate(-6.46 12.85) rotate(-83.21)"/><polygon class="cls-3" points="4.25 8.05 4.25 8.1 4.2 8.09 4.21 8.05 4.25 8.05"/><path class="cls-3" d="M16.79,2.88V2.57H17l0,0a.07.07,0,0,1,0,.05.08.08,0,0,1,0,0,.09.09,0,0,1-.07,0h0l0,0,.06.09H17l0-.07,0,0s0,0,0,0h-.09v.14Zm0-.17H17s0,0,0,0v0a.05.05,0,0,0,0,0h-.15Zm.09.29a.27.27,0,1,1,.27-.27A.27.27,0,0,1,16.92,3Zm0-.5a.23.23,0,1,0,0,.46.23.23,0,1,0,0-.46Z" transform="translate(-1.77 -2.04)"/><path class="cls-4" d="M9.05,10.73a.19.19,0,0,1-.1,0,.21.21,0,0,1-.1-.06,0,0,0,0,1,0,0v0a.05.05,0,0,1,0,0h.07l.06,0,.08,0h.06a.05.05,0,0,0,0,0h0v0a0,0,0,0,1,0,0l0,0,0,0-.07,0-.06,0,0,0a.16.16,0,0,1,0-.07h0a.14.14,0,0,1,0-.07l0,0a.09.09,0,0,1,.07,0H9.1l.09,0,.07,0,0,0a0,0,0,0,1,0,0s0,0,0,0H9.19a.09.09,0,0,0,0,0l-.06,0H9l0,0H9v0H9l0,0,.06,0,.07,0a.1.1,0,0,1,.05,0l0,0a.16.16,0,0,1,0,.07h0a.19.19,0,0,1,0,.07.1.1,0,0,1-.05,0s0,0-.06,0Z" transform="translate(-1.77 -2.04)"/><path class="cls-4" d="M9.43,10.75s0,0,0,0l-.07-.3h0a.05.05,0,0,1,0,0h.08s0,0,0,0l0,.21.09-.21,0,0h.05l0,0,0,0,0,.21.09-.2,0,0h.08a.08.08,0,0,1,0,0v0h0l-.14.29s0,0,0,0H9.69l0,0,0-.21-.09.2,0,0h0Z" transform="translate(-1.77 -2.04)"/><path class="cls-4" d="M10.3,10.75l-.07,0h-.09l-.08,0-.07,0,0-.07a.27.27,0,0,1,0-.09h0a.19.19,0,0,1,0-.08l0-.07.07,0h.09l.09,0,.06,0,0,.06v.07a.05.05,0,0,1,0,0l0,0h-.24s0,.05,0,.06,0,0,.07,0h0l0,0h.07s0,0,0,0v0Zm-.05-.2a.14.14,0,0,0,0-.06.07.07,0,0,0-.06,0,.06.06,0,0,0-.06,0,.09.09,0,0,0,0,.06Z" transform="translate(-1.77 -2.04)"/><path class="cls-4" d="M10.76,10.75l-.07,0-.08,0-.09,0-.06,0a.21.21,0,0,1,0-.06.28.28,0,0,1,0-.09h0a.32.32,0,0,1,0-.09l.05-.06a.18.18,0,0,1,.07,0l.09,0a.15.15,0,0,1,.09,0,.1.1,0,0,1,0,0,.09.09,0,0,1,0,.07.13.13,0,0,1,0,.06.08.08,0,0,1,0,0h-.28a.09.09,0,0,0,0,.06.06.06,0,0,0,.06,0h.05l0,0h.06a0,0,0,0,1,0,0v0Zm0-.2s0-.05,0-.06a.05.05,0,0,0,0,0,.09.09,0,0,0-.07,0s0,0,0,.06Z" transform="translate(-1.77 -2.04)"/><path class="cls-4" d="M11,10.78H11l0,0,0,0v-.06l0-.19h0a.05.05,0,0,1,0,0l0,0,0,0h0v0a.05.05,0,0,1,0,0,.06.06,0,0,1,.05,0h0a.06.06,0,0,1,0,0v0h.08s0,0,0,0a.06.06,0,0,1,0,0H11l0,.18s0,0,0,0h0v0l0,0,0,0H11Z" transform="translate(-1.77 -2.04)"/><path class="cls-4" d="M11.5,10.7l-.07,0a.11.11,0,0,1-.08,0h-.09l-.06,0a.16.16,0,0,1,0-.07.19.19,0,0,1,0-.08h0l0-.09a.26.26,0,0,1,.12-.12l.09,0a.14.14,0,0,1,.09,0,.1.1,0,0,1,0,0,.09.09,0,0,1,0,.06.2.2,0,0,1,0,.07.05.05,0,0,1,0,0l-.05,0-.23,0a.05.05,0,0,0,0,.05s0,0,.06,0h.05l0,0h0l0,0s0,0,0,0v0Zm0-.19s0,0,0-.06,0,0,0,0a.09.09,0,0,0-.07,0l0,.06Z" transform="translate(-1.77 -2.04)"/><path class="cls-4" d="M11.64,10.38a.06.06,0,0,1,0-.05l0,0h0s0,0,0,0h0l0,0,0,0,0,0h0a.11.11,0,0,1,.11,0,.11.11,0,0,1,0,.1l0,.22,0,0-.05,0h0s0,0,0,0l0-.18a.13.13,0,0,0,0-.06h-.06a.05.05,0,0,0-.05,0,.06.06,0,0,0,0,.06l0,.18a.08.08,0,0,1,0,0l0,0s0,0,0,0,0,0,0,0Z" transform="translate(-1.77 -2.04)"/><path class="cls-4" d="M12.49,10.39l-.16-.22s0,0,0,0v0a.08.08,0,0,1,0-.05l.05,0h0l0,0,.12.18.17-.23,0,0h0a0,0,0,0,1,0,0s0,0,0,0a0,0,0,0,1,0,0v0l-.22.29,0,.16a.08.08,0,0,1,0,.05s0,0-.05,0h0s0,0,0,0Z" transform="translate(-1.77 -2.04)"/><path class="cls-4" d="M13,10.52h-.09a.11.11,0,0,1-.08,0l0-.06a.28.28,0,0,1,0-.09h0l0-.1.06-.08.08-.07.1,0a.17.17,0,0,1,.1,0,.11.11,0,0,1,.07,0l0,.06a.28.28,0,0,1,0,.09h0l0,.09-.06.09a.27.27,0,0,1-.08.07Zm0-.11.05,0,0,0,0,0a.09.09,0,0,0,0-.05h0v0s0,0,0,0l0,0h0l-.05,0a.08.08,0,0,0,0,0l0,0s0,0,0,.05h0v0l0,0,0,0Z" transform="translate(-1.77 -2.04)"/><path class="cls-4" d="M13.73,10.26a.08.08,0,0,1,0,.05s0,0-.05,0h0l0,0h0l0,0,0,0,0,0,0,0c-.05,0-.09,0-.11,0a.12.12,0,0,1,0-.11l0-.23a.08.08,0,0,1,0-.05s0,0,0,0h0a.05.05,0,0,1,0,0l0,.19s0,.05,0,.06,0,0,0,0l.06,0a.09.09,0,0,0,0-.07l0-.19a.08.08,0,0,1,0-.05s0,0,.05,0h0a.05.05,0,0,1,0,0Z" transform="translate(-1.77 -2.04)"/><path class="cls-4" d="M13.85,9.9s0,0,0-.05,0,0,0,0h0a.05.05,0,0,1,0,0v0l0-.07a.1.1,0,0,1,.05,0h0s0,0,0,0,0,0,0,0l0,0A.18.18,0,0,0,14,10a.36.36,0,0,0,0,.11v.12a.08.08,0,0,1,0,.05s0,0-.05,0h0s0,0,0,0Z" transform="translate(-1.77 -2.04)"/><path class="cls-4" d="M14.42,9.54a.14.14,0,0,1,0-.06l.05,0,.17-.07.12,0,.09,0a.12.12,0,0,1,.06.08.34.34,0,0,1,0,.11h0a.65.65,0,0,1,0,.13.57.57,0,0,1-.08.13.52.52,0,0,1-.1.11l-.13.08-.17.07h0a.05.05,0,0,1,0,0Zm.18.34.07-.05.07-.06s0,0,0-.08a.19.19,0,0,0,0-.08h0V9.54l0,0h-.06l-.07,0-.1,0,0,.38Z" transform="translate(-1.77 -2.04)"/><path class="cls-4" d="M15.08,9.78,15,9.8h0l0,0s0,0,0-.06h0a.24.24,0,0,1,0-.08.21.21,0,0,1,0-.06l.06-.06.07,0,.06,0h.05s0-.05,0-.06a.12.12,0,0,0-.07,0l0,0,0,0h0s0,0,0,0,0,0,0,0l0,0s0,0,0,0l.07,0,.07-.05.09,0h.06a.08.08,0,0,1,0,0,.19.19,0,0,1,0,.08l0,.22s0,0,0,.05a.07.07,0,0,1-.05,0s0,0,0,0a0,0,0,0,1,0,0h0l-.06.07Zm.05-.12a.13.13,0,0,0,.07-.06.25.25,0,0,0,0-.07v0h0l0,0a.15.15,0,0,0-.06.05.09.09,0,0,0,0,.06h0s0,0,0,0A.06.06,0,0,0,15.13,9.66Z" transform="translate(-1.77 -2.04)"/><path class="cls-4" d="M15.48,9.69l0,0h-.06s0,0,0,0,0,0,0,0l0,0h0l0,0s0,0,0,0h0l-.1-.29v0h0a.14.14,0,0,1,0-.06l.05,0h0s0,0,0,0l.06.22L15.73,9a.08.08,0,0,1,0-.05l0,0h0s0,0,0,0V9h0l-.19.5,0,.08,0,.06s0,0,0,0Z" transform="translate(-1.77 -2.04)"/><path class="cls-4" d="M16,9.24l-.07,0h-.09v0s0,0,0,0l0,0H16l.05,0,0,0s0,0,0,0h0s0,0,0,0H16l0,0h0l0,0a.08.08,0,0,1,0-.05h0a.19.19,0,0,1,0-.07l0-.07L16,8.8,16,8.75l.07,0,0,0h0s0,0,0,0,0,0,0,0a.08.08,0,0,1,0,0h-.06l0,0s0,0,0,0l0,0h.18a0,0,0,0,1,0,.05h0a.17.17,0,0,1,0,.07l0,.07L16,9.19Z" transform="translate(-1.77 -2.04)"/><path class="cls-4" d="M9.05,10.73a.19.19,0,0,1-.1,0,.21.21,0,0,1-.1-.06,0,0,0,0,1,0,0v0a.05.05,0,0,1,0,0h.07l.06,0,.08,0h.06a.05.05,0,0,0,0,0h0v0a0,0,0,0,1,0,0l0,0,0,0-.07,0-.06,0,0,0a.16.16,0,0,1,0-.07h0a.14.14,0,0,1,0-.07l0,0a.09.09,0,0,1,.07,0H9.1l.09,0,.07,0,0,0a0,0,0,0,1,0,0s0,0,0,0H9.19a.09.09,0,0,0,0,0l-.06,0H9l0,0H9v0H9l0,0,.06,0,.07,0a.1.1,0,0,1,.05,0l0,0a.16.16,0,0,1,0,.07h0a.19.19,0,0,1,0,.07.1.1,0,0,1-.05,0s0,0-.06,0Z" transform="translate(-1.77 -2.04)"/><path class="cls-4" d="M9.43,10.75s0,0,0,0l-.07-.3h0a.05.05,0,0,1,0,0h.08s0,0,0,0l0,.21.09-.21,0,0h.05l0,0,0,0,0,.21.09-.2,0,0h.08a.08.08,0,0,1,0,0v0h0l-.14.29s0,0,0,0H9.69l0,0,0-.21-.09.2,0,0h0Z" transform="translate(-1.77 -2.04)"/><path class="cls-4" d="M10.3,10.75l-.07,0h-.09l-.08,0-.07,0,0-.07a.27.27,0,0,1,0-.09h0a.19.19,0,0,1,0-.08l0-.07.07,0h.09l.09,0,.06,0,0,.06v.07a.05.05,0,0,1,0,0l0,0h-.24s0,.05,0,.06,0,0,.07,0h0l0,0h.07s0,0,0,0v0Zm-.05-.2a.14.14,0,0,0,0-.06.07.07,0,0,0-.06,0,.06.06,0,0,0-.06,0,.09.09,0,0,0,0,.06Z" transform="translate(-1.77 -2.04)"/><path class="cls-4" d="M10.76,10.75l-.07,0-.08,0-.09,0-.06,0a.21.21,0,0,1,0-.06.28.28,0,0,1,0-.09h0a.32.32,0,0,1,0-.09l.05-.06a.18.18,0,0,1,.07,0l.09,0a.15.15,0,0,1,.09,0,.1.1,0,0,1,0,0,.09.09,0,0,1,0,.07.13.13,0,0,1,0,.06.08.08,0,0,1,0,0h-.28a.09.09,0,0,0,0,.06.06.06,0,0,0,.06,0h.05l0,0h.06a0,0,0,0,1,0,0v0Zm0-.2s0-.05,0-.06a.05.05,0,0,0,0,0,.09.09,0,0,0-.07,0s0,0,0,.06Z" transform="translate(-1.77 -2.04)"/><path class="cls-4" d="M11,10.78H11l0,0,0,0v-.06l0-.19h0a.05.05,0,0,1,0,0l0,0,0,0h0v0a.05.05,0,0,1,0,0,.06.06,0,0,1,.05,0h0a.06.06,0,0,1,0,0v0h.08s0,0,0,0a.06.06,0,0,1,0,0H11l0,.18s0,0,0,0h0v0l0,0,0,0H11Z" transform="translate(-1.77 -2.04)"/><path class="cls-4" d="M11.5,10.7l-.07,0a.11.11,0,0,1-.08,0h-.09l-.06,0a.16.16,0,0,1,0-.07.19.19,0,0,1,0-.08h0l0-.09a.26.26,0,0,1,.12-.12l.09,0a.14.14,0,0,1,.09,0,.1.1,0,0,1,0,0,.09.09,0,0,1,0,.06.2.2,0,0,1,0,.07.05.05,0,0,1,0,0l-.05,0-.23,0a.05.05,0,0,0,0,.05s0,0,.06,0h.05l0,0h0l0,0s0,0,0,0v0Zm0-.19s0,0,0-.06,0,0,0,0a.09.09,0,0,0-.07,0l0,.06Z" transform="translate(-1.77 -2.04)"/><path class="cls-4" d="M11.64,10.38a.06.06,0,0,1,0-.05l0,0h0s0,0,0,0h0l0,0,0,0,0,0h0a.11.11,0,0,1,.11,0,.11.11,0,0,1,0,.1l0,.22,0,0-.05,0h0s0,0,0,0l0-.18a.13.13,0,0,0,0-.06h-.06a.05.05,0,0,0-.05,0,.06.06,0,0,0,0,.06l0,.18a.08.08,0,0,1,0,0l0,0s0,0,0,0,0,0,0,0Z" transform="translate(-1.77 -2.04)"/><path class="cls-4" d="M12.49,10.39l-.16-.22s0,0,0,0v0a.08.08,0,0,1,0-.05l.05,0h0l0,0,.12.18.17-.23,0,0h0a0,0,0,0,1,0,0s0,0,0,0a0,0,0,0,1,0,0v0l-.22.29,0,.16a.08.08,0,0,1,0,.05s0,0-.05,0h0s0,0,0,0Z" transform="translate(-1.77 -2.04)"/><path class="cls-4" d="M13,10.52h-.09a.11.11,0,0,1-.08,0l0-.06a.28.28,0,0,1,0-.09h0l0-.1.06-.08.08-.07.1,0a.17.17,0,0,1,.1,0,.11.11,0,0,1,.07,0l0,.06a.28.28,0,0,1,0,.09h0l0,.09-.06.09a.27.27,0,0,1-.08.07Zm0-.11.05,0,0,0,0,0a.09.09,0,0,0,0-.05h0v0s0,0,0,0l0,0h0l-.05,0a.08.08,0,0,0,0,0l0,0s0,0,0,.05h0v0l0,0,0,0Z" transform="translate(-1.77 -2.04)"/><path class="cls-4" d="M13.73,10.26a.08.08,0,0,1,0,.05s0,0-.05,0h0l0,0h0l0,0,0,0,0,0,0,0c-.05,0-.09,0-.11,0a.12.12,0,0,1,0-.11l0-.23a.08.08,0,0,1,0-.05s0,0,0,0h0a.05.05,0,0,1,0,0l0,.19s0,.05,0,.06,0,0,0,0l.06,0a.09.09,0,0,0,0-.07l0-.19a.08.08,0,0,1,0-.05s0,0,.05,0h0a.05.05,0,0,1,0,0Z" transform="translate(-1.77 -2.04)"/><path class="cls-4" d="M13.85,9.9s0,0,0-.05,0,0,0,0h0a.05.05,0,0,1,0,0v0l0-.07a.1.1,0,0,1,.05,0h0s0,0,0,0,0,0,0,0l0,0A.18.18,0,0,0,14,10a.36.36,0,0,0,0,.11v.12a.08.08,0,0,1,0,.05s0,0-.05,0h0s0,0,0,0Z" transform="translate(-1.77 -2.04)"/><path class="cls-4" d="M14.42,9.54a.14.14,0,0,1,0-.06l.05,0,.17-.07.12,0,.09,0a.12.12,0,0,1,.06.08.34.34,0,0,1,0,.11h0a.65.65,0,0,1,0,.13.57.57,0,0,1-.08.13.52.52,0,0,1-.1.11l-.13.08-.17.07h0a.05.05,0,0,1,0,0Zm.18.34.07-.05.07-.06s0,0,0-.08a.19.19,0,0,0,0-.08h0V9.54l0,0h-.06l-.07,0-.1,0,0,.38Z" transform="translate(-1.77 -2.04)"/><path class="cls-4" d="M15.08,9.78,15,9.8h0l0,0s0,0,0-.06h0a.24.24,0,0,1,0-.08.21.21,0,0,1,0-.06l.06-.06.07,0,.06,0h.05s0-.05,0-.06a.12.12,0,0,0-.07,0l0,0,0,0h0s0,0,0,0,0,0,0,0l0,0s0,0,0,0l.07,0,.07-.05.09,0h.06a.08.08,0,0,1,0,0,.19.19,0,0,1,0,.08l0,.22s0,0,0,.05a.07.07,0,0,1-.05,0s0,0,0,0a0,0,0,0,1,0,0h0l-.06.07Zm.05-.12a.13.13,0,0,0,.07-.06.25.25,0,0,0,0-.07v0h0l0,0a.15.15,0,0,0-.06.05.09.09,0,0,0,0,.06h0s0,0,0,0A.06.06,0,0,0,15.13,9.66Z" transform="translate(-1.77 -2.04)"/><path class="cls-4" d="M15.48,9.69l0,0h-.06s0,0,0,0,0,0,0,0l0,0h0l0,0s0,0,0,0h0l-.1-.29v0h0a.14.14,0,0,1,0-.06l.05,0h0s0,0,0,0l.06.22L15.73,9a.08.08,0,0,1,0-.05l0,0h0s0,0,0,0V9h0l-.19.5,0,.08,0,.06s0,0,0,0Z" transform="translate(-1.77 -2.04)"/><path class="cls-4" d="M16,9.24l-.07,0h-.09v0s0,0,0,0l0,0H16l.05,0,0,0s0,0,0,0h0s0,0,0,0H16l0,0h0l0,0a.08.08,0,0,1,0-.05h0a.19.19,0,0,1,0-.07l0-.07L16,8.8,16,8.75l.07,0,0,0h0s0,0,0,0,0,0,0,0a.08.08,0,0,1,0,0h-.06l0,0s0,0,0,0l0,0h.18a0,0,0,0,1,0,.05h0a.17.17,0,0,1,0,.07l0,.07L16,9.19Z" transform="translate(-1.77 -2.04)"/></g></g></svg>