<svg xmlns="http://www.w3.org/2000/svg" xmlns:xlink="http://www.w3.org/1999/xlink" viewBox="0 0 20.63 5.9"><defs><style>.cls-1{fill:#0857a7;}.cls-2{fill:#80c242;}.cls-3{fill:#fff;}.cls-4{fill:url(#linear-gradient);}.cls-5{fill:#70be47;}</style><linearGradient id="linear-gradient" x1="0.26" y1="3.9" x2="6.26" y2="1.98" gradientUnits="userSpaceOnUse"><stop offset="0" stop-color="#44c7f4"/><stop offset="1" stop-color="#0857a7"/></linearGradient></defs><g id="Layer_2" data-name="Layer 2"><g id="Layer_1-2" data-name="Layer 1"><path class="cls-1" d="M6.14,2.72a2.72,2.72,0,0,1-5.36.66A4.27,4.27,0,0,0,5.56,2.22a3.25,3.25,0,0,0,.38-.52A2.65,2.65,0,0,1,6.14,2.72Z"/><path class="cls-2" d="M5.94,1.7a3.25,3.25,0,0,1-.38.52A4.27,4.27,0,0,1,.78,3.38,2.84,2.84,0,0,1,.7,2.72a2.72,2.72,0,0,1,5.24-1Z"/><path class="cls-3" d="M6.14,1.16a2.77,2.77,0,0,1-.58,1.06A4.36,4.36,0,0,1,0,3.05L0,3A.63.63,0,0,1,.35,3a4.71,4.71,0,0,0,3.51-.47A1.81,1.81,0,0,1,3.11,2a4.83,4.83,0,0,0,2.58-.75A1.26,1.26,0,0,1,6.14,1.16Z"/><path class="cls-4" d="M3.6,3.79a4,4,0,0,0,1.65-1,3.88,3.88,0,0,0,.59-.76L5.9,2a.54.54,0,0,1,0-.11l0-.05c0-.05,0-.11.08-.16s0-.15.07-.22a2,2,0,0,0,.06-.23l0,0,0,0a4.72,4.72,0,0,1-.48.69A4.1,4.1,0,0,1,5,2.51a4.21,4.21,0,0,1-1.55.82,4.5,4.5,0,0,1-1.75.19,5.35,5.35,0,0,1-.87-.17A4.94,4.94,0,0,1,0,3H0V3H0v0c.06.06.12.1.17.16a1.33,1.33,0,0,1,.19.14l.2.12.21.11.09,0a3.27,3.27,0,0,0,.82.26A3.91,3.91,0,0,0,3.6,3.79Z"/><path class="cls-1" d="M18.63,3.82V1.68c0-.06,0-.07.07-.07h.71a1.39,1.39,0,0,1,.74.19,1,1,0,0,1,.48,1,1.07,1.07,0,0,1-1,1c-.31,0-.62,0-.93,0ZM19,1.93s0,0,0,0V3.47s0,0,.05,0h.47a.76.76,0,0,0,.77-.69A.75.75,0,0,0,19.81,2,2.27,2.27,0,0,0,19,1.93Z"/><path class="cls-1" d="M13.25,2.72a1.15,1.15,0,0,1,1.16-1.16,1.16,1.16,0,1,1,0,2.32A1.15,1.15,0,0,1,13.25,2.72Zm2,0a.81.81,0,1,0-1.61,0,.81.81,0,1,0,1.61,0Z"/><path class="cls-1" d="M15.89,2.72a1.16,1.16,0,1,1,1.16,1.16A1.15,1.15,0,0,1,15.89,2.72Zm2,0a.8.8,0,1,0-1.6,0,.8.8,0,1,0,1.6,0Z"/><path class="cls-1" d="M11.74,3.83h-.35a.2.2,0,0,1,0-.07V1.68c0-.06,0-.07.07-.07h1.49c.05,0,.07,0,.07.06v.2s0,.06-.06.06H11.74v.6c0,.05,0,.06.06.06h1c.07,0,.08,0,.08.08a.54.54,0,0,0,0,.18s0,.06-.06.06h-1c-.05,0-.06,0-.06.06v.86Z"/><path class="cls-1" d="M7.29,1.65V3.51a.31.31,0,0,0,.31.32h.24a0,0,0,0,0,.05-.05V1.91a.31.31,0,0,0-.32-.31H7.34A0,0,0,0,0,7.29,1.65Z"/><path class="cls-1" d="M10.55,2.56a1.08,1.08,0,0,0-1.1-.94H8.53a0,0,0,0,0,0,0V3.78s0,.05,0,.05h1a1.09,1.09,0,0,0,1-1.26Zm-.6.27a.56.56,0,0,1-.57.52H9.09s0,0,0,0v-1c0-.1-.06-.12-.1-.15s0,0,0,0h.32a.75.75,0,0,1,.33,0A.59.59,0,0,1,10,2.83Z"/><path class="cls-5" d="M20.61,5.38h0a.24.24,0,0,1-.19.16A.32.32,0,0,1,20,5.28a.37.37,0,0,1,0-.23.28.28,0,0,1,.23-.22.25.25,0,0,1,.17,0,.27.27,0,0,1,.17.2v.18h-.44a0,0,0,0,0,0,0,.26.26,0,0,0,0,.15.17.17,0,0,0,.16.06.11.11,0,0,0,.12-.09l0,0h.11Zm-.29-.25h.15s0,0,0,0a.19.19,0,0,0,0-.12.1.1,0,0,0-.08,0,.15.15,0,0,0-.19.09.26.26,0,0,0,0,.08s0,0,0,0Z"/><path class="cls-5" d="M7.9,5.54a.16.16,0,0,0,0,.07.12.12,0,0,0,.11,0l.08,0h0a0,0,0,0,1,0,0v.1l0,0a.27.27,0,0,1-.23,0,.28.28,0,0,1-.09-.1l-.06-.08a.05.05,0,0,0,0,0l-.08,0a.36.36,0,0,1-.25-.2.83.83,0,0,1,0-.15,1,1,0,0,1,0-.3,1,1,0,0,1,0-.1.38.38,0,0,1,.23-.18.49.49,0,0,1,.24,0,.34.34,0,0,1,.24.21A.61.61,0,0,1,8.17,5a.78.78,0,0,1,0,.26.36.36,0,0,1-.24.27Zm-.4-.46v0a.33.33,0,0,0,0,.17.26.26,0,0,0,.15.12h.1A.24.24,0,0,0,8,5.34.23.23,0,0,0,8,5.22.76.76,0,0,0,8,5a.5.5,0,0,0,0-.13.25.25,0,0,0-.41,0,.36.36,0,0,0,0,.09A.5.5,0,0,0,7.5,5.08Z"/><path class="cls-5" d="M14.81,5.08V4.63s0,0,0,0h.55s0,0,0,0v.07s0,0,0,0H15s0,0,0,0V5s0,0,0,0h.37a0,0,0,0,1,0,0h0c0,.12,0,.1-.1.1H15a0,0,0,0,0,0,0v.24s0,0,0,0h.41c0,.12,0,.1-.09.1h-.47a0,0,0,0,1,0,0V5.08Z"/><path class="cls-5" d="M11.43,4.84h.15a.26.26,0,0,1,0,.08l.15.4v0s0,0,0,0,.08-.3.13-.44,0,0,.06,0h.09v0l-.24.76a1.17,1.17,0,0,1-.05.11.35.35,0,0,1,0,.08.18.18,0,0,1-.14.06.35.35,0,0,1-.17,0s0,0,0,0V5.74s0,0,0,0l.12,0a.12.12,0,0,0,.08,0l0,0a.44.44,0,0,0,0-.15s0,0,0,0a1.67,1.67,0,0,1-.08-.2l-.18-.43S11.43,4.86,11.43,4.84Z"/><path class="cls-5" d="M17.92,5.36a.07.07,0,0,0,0-.06l.12-.41v0s0,0,0,0h.12s0,0,0,0c-.09.26-.17.51-.25.77a.37.37,0,0,1-.05.11.35.35,0,0,1-.05.08.21.21,0,0,1-.13.05.33.33,0,0,1-.17,0s0,0,0,0,0-.06,0-.1l0,0a.23.23,0,0,0,.11,0,.09.09,0,0,0,.07,0l0-.06a.69.69,0,0,0,.05-.13,0,0,0,0,0,0,0c0-.11-.08-.22-.13-.33l-.12-.29v0h.13s0,0,0,0l0,.06.14.39Z"/><path class="cls-5" d="M9.71,5.44l0,0a.22.22,0,0,1-.15.1.5.5,0,0,1-.17,0,.21.21,0,0,1-.13-.24.17.17,0,0,1,.08-.12.25.25,0,0,1,.14,0,.66.66,0,0,1,.2,0h0A.66.66,0,0,0,9.7,5a.13.13,0,0,0-.1-.09.17.17,0,0,0-.12,0A.1.1,0,0,0,9.41,5V5H9.3c-.05,0-.05,0,0,0a.17.17,0,0,1,.1-.13.17.17,0,0,1,.1,0h.2a.23.23,0,0,1,.18.2v.49s0,0,0,0h-.1a0,0,0,0,1,0,0S9.71,5.47,9.71,5.44Zm-.19,0h0a.17.17,0,0,0,.15-.18s0,0,0,0l-.15,0-.1,0a.1.1,0,0,0,0,.06.12.12,0,0,0,.06.14Z"/><path class="cls-5" d="M18.31,5.2a.78.78,0,0,1,0-.16.31.31,0,0,1,.29-.22.34.34,0,0,1,.17,0,.28.28,0,0,1,.17.22.53.53,0,0,1,0,.25.3.3,0,0,1-.28.24h-.13a.32.32,0,0,1-.23-.25S18.31,5.23,18.31,5.2Zm.15,0a.22.22,0,0,0,0,.14.16.16,0,0,0,.11.1.18.18,0,0,0,.22-.11.32.32,0,0,0,0-.27A.18.18,0,0,0,18.53,5a.25.25,0,0,0-.07.21Z"/><path class="cls-5" d="M13.7,5.19s0,.08,0,.12a.32.32,0,0,1-.3.25.3.3,0,0,1-.13,0,.28.28,0,0,1-.21-.21.66.66,0,0,1,0-.28.3.3,0,0,1,.3-.23h.11a.32.32,0,0,1,.21.18A.57.57,0,0,1,13.7,5.19Zm-.14,0a.4.4,0,0,0,0-.15.16.16,0,0,0-.15-.1h0a.22.22,0,0,0-.11,0,.24.24,0,0,0-.06.11.54.54,0,0,0,0,.18.36.36,0,0,0,0,.09.24.24,0,0,0,.08.06.2.2,0,0,0,.24-.11A.59.59,0,0,0,13.56,5.19Z"/><path class="cls-5" d="M8.86,5.43h0a.25.25,0,0,1-.27.11.22.22,0,0,1-.19-.21.17.17,0,0,1,0-.07V4.85h.14a.34.34,0,0,1,0,.1v.32a.22.22,0,0,0,0,.08.13.13,0,0,0,.11.09.19.19,0,0,0,.2-.11.32.32,0,0,0,0-.14V4.85H9a.17.17,0,0,1,0,.1v.58s0,0,0,0H8.87s0-.07,0-.1Z"/><path class="cls-5" d="M16.68,5.21h-.21a0,0,0,0,0,0,0,.25.25,0,0,0,.06.16.14.14,0,0,0,.08.05h.06a.13.13,0,0,0,.13-.09s0,0,0,0h.09s0,0,0,0a.24.24,0,0,1-.16.18.32.32,0,0,1-.42-.18.52.52,0,0,1,0-.25A.24.24,0,0,1,16.37,5a.27.27,0,0,1,.25-.15h.08a.23.23,0,0,1,.17.12.32.32,0,0,1,.05.23s0,0,0,0Zm-.06-.08h.17a.2.2,0,0,0,0-.13.08.08,0,0,0-.07,0,.2.2,0,0,0-.11,0,.2.2,0,0,0-.11.18h.16Z"/><path class="cls-5" d="M19.33,4.94a0,0,0,0,0,0,0,.24.24,0,0,1,.21-.1h.05a.23.23,0,0,1,.18.15.35.35,0,0,1,0,.14v.4h0a0,0,0,0,1,0,0h-.11s0,0,0,0V5.13a.22.22,0,0,0,0-.08.14.14,0,0,0-.13-.1.16.16,0,0,0-.17.08.28.28,0,0,0,0,.15v.34a0,0,0,0,1,0,0H19.2a.22.22,0,0,1,0-.11V4.86s0,0,0,0h.1s0,0,0,.08S19.32,4.94,19.33,4.94Z"/><path class="cls-5" d="M16.21,4.84s0,0,0,0c-.09.21-.17.41-.25.62,0,0,0,0-.05,0h-.09s0,0,0,0,0-.14-.08-.22l-.15-.39,0,0s0,0,0,0h.1s0,0,0,0,.05.15.08.22l.08.25v0s0,0,0,0h0v0L16,4.89c0-.06,0,0,.07,0Z"/><path class="cls-5" d="M12.63,5.23V5l0,0h-.07s0,0,0,0v0s0,0,.05,0h0c.06,0,.06,0,.06-.06V4.69a.2.2,0,0,1,.18-.16H13s0,0,0,0a.09.09,0,0,1,0,0s0,0,0,0a.08.08,0,0,0-.07,0,.07.07,0,0,0-.07.06v.12s.06,0,.09,0h.05v.07h-.12s0,0,0,0v.56s0,0,0,0h-.13v-.3Z"/><path class="cls-5" d="M11.33,4.84v0c0,.09,0,.07-.07.07h-.11s0,0,0,0v.41a.1.1,0,0,0,.09.08h.1s0,0,0,0,0,.08-.06.11h-.15A.18.18,0,0,1,11,5.39V5l0,0h-.09V4.85H11l0,0V4.67s0,0,0,0h.1s0,0,0,0v.12s0,0,0,0h.15Z"/><path class="cls-5" d="M10.24,5v.48s0,0,0,0h-.12a.28.28,0,0,1,0-.09V4.57s0,0,0,0h.09s0,0,0,0V5Z"/><path class="cls-5" d="M14.05,4.94l0,0a.18.18,0,0,1,.21-.08s0,0,0,0V5h-.09a.13.13,0,0,0-.13.08.49.49,0,0,0,0,.11v.37s0,0,0,0h-.11a0,0,0,0,1,0,0V4.84h.14v.09Z"/><path class="cls-5" d="M17.28,5s0,0,0,0a.18.18,0,0,1,.21-.08,0,0,0,0,1,0,0s0,.08,0,.12h-.07a.16.16,0,0,0-.16.11.39.39,0,0,0,0,.15v.25c0,.08,0,.07-.07.07h-.06a0,0,0,0,1,0,0V4.85h.13A.37.37,0,0,1,17.28,5Z"/><path class="cls-5" d="M10.68,4.84v.65s0,0,0,0h-.07s0,0,0,0V4.85h.14Z"/><path class="cls-5" d="M10.61,4.52a.09.09,0,0,1,.08.12s0,0-.06.05h0a.08.08,0,0,1-.09-.09S10.55,4.52,10.61,4.52Z"/></g></g></svg>