<svg xmlns="http://www.w3.org/2000/svg" viewBox="0 0 9.32 11.39"><defs><style>.cls-1{font-size:1.88px;font-family:FuturaBT-Bold, Futura Md BT;font-weight:700;}.cls-1,.cls-2{fill:#fff;}.cls-2{fill-rule:evenodd;}.cls-3{fill:#fff200;}.cls-4{fill:#231f20;}.cls-5{fill:#ed1c24;}</style></defs><g id="Layer_2" data-name="Layer 2"><g id="Layer_1-2" data-name="Layer 1"><text class="cls-1" transform="translate(0.42 10.95)">LENONG</text><path class="cls-2" d="M8.48,1.23H8.35V.32h.26A.35.35,0,0,1,8.85.4a.26.26,0,0,1,.09.21A.25.25,0,0,1,8.87.8a.26.26,0,0,1-.19.08l.26.35H8.78L8.48.81Zm0-.44h.06a.41.41,0,0,0,.21,0A.17.17,0,0,0,8.81.61.15.15,0,0,0,8.76.49a.31.31,0,0,0-.19,0H8.48Zm.15-.6a.58.58,0,1,0,.58.58A.58.58,0,0,0,8.63.19Zm0-.11a.7.7,0,1,1-.69.69A.69.69,0,0,1,8.63.08Z"/><circle class="cls-3" cx="4.59" cy="4.59" r="4.5" transform="translate(-1.4 7.09) rotate(-67.7)"/><path class="cls-4" d="M4.59,0A4.59,4.59,0,1,0,9.17,4.59,4.58,4.58,0,0,0,4.59,0Zm0,8.79a4.21,4.21,0,1,1,4.2-4.2A4.21,4.21,0,0,1,4.59,8.79Z"/><path class="cls-5" d="M3.86,3.25A.37.37,0,0,1,3.38,3a.39.39,0,0,1,.23-.5.38.38,0,0,1,.48.24A.41.41,0,0,1,3.86,3.25Z"/><path class="cls-5" d="M3.55,2.32a.27.27,0,0,1-.34-.18.3.3,0,0,1,.17-.36A.27.27,0,0,1,3.72,2,.3.3,0,0,1,3.55,2.32Z"/><path class="cls-5" d="M3.31,1.59a.19.19,0,0,1-.23-.12.2.2,0,0,1,.11-.24.18.18,0,0,1,.23.12A.2.2,0,0,1,3.31,1.59Z"/><path class="cls-5" d="M3.11,3.56a.36.36,0,0,1-.52-.13.41.41,0,0,1,.13-.55A.37.37,0,0,1,3.24,3,.4.4,0,0,1,3.11,3.56Z"/><path class="cls-5" d="M2.63,2.72a.26.26,0,0,1-.37-.09.29.29,0,0,1,.09-.39.27.27,0,0,1,.37.09A.31.31,0,0,1,2.63,2.72Z"/><path class="cls-5" d="M2.24,2.06A.17.17,0,0,1,2,2a.2.2,0,0,1,.06-.26.18.18,0,0,1,.24.06A.19.19,0,0,1,2.24,2.06Z"/><path class="cls-5" d="M2.71,4.22a.38.38,0,0,1-.53.1.42.42,0,0,1-.09-.56.35.35,0,0,1,.52-.09A.41.41,0,0,1,2.71,4.22Z"/><path class="cls-5" d="M1.94,3.66a.26.26,0,0,1-.37.07.31.31,0,0,1-.07-.4.26.26,0,0,1,.37-.07A.31.31,0,0,1,1.94,3.66Z"/><path class="cls-5" d="M1.34,3.21a.17.17,0,0,1-.25,0A.2.2,0,0,1,1,3a.19.19,0,0,1,.25,0A.2.2,0,0,1,1.34,3.21Z"/><path class="cls-5" d="M2.88,4.94a.38.38,0,1,1-.75-.09.37.37,0,0,1,.41-.35A.4.4,0,0,1,2.88,4.94Z"/><path class="cls-5" d="M2,4.83a.29.29,0,0,1-.3.25.28.28,0,0,1-.23-.31.26.26,0,0,1,.29-.25A.28.28,0,0,1,2,4.83Z"/><path class="cls-5" d="M1.22,4.74a.19.19,0,0,1-.2.17A.19.19,0,0,1,.86,4.7a.18.18,0,0,1,.36,0Z"/><path class="cls-5" d="M4.59,3.38a3.35,3.35,0,0,0-1.67.56c0,1.61.66,2.31,1.67,2.59V6.07s-1.1,0-1.48-1.68a1.38,1.38,0,0,1,1.48-.26Z"/><path class="cls-5" d="M4.59,1a.18.18,0,0,0-.18.18.18.18,0,0,0,.18.19Z"/><path class="cls-5" d="M4.59,1.62a.28.28,0,0,0-.27.28.27.27,0,0,0,.27.28Z"/><path class="cls-5" d="M4.59,2.37a.4.4,0,0,0,0,.8Z"/><path class="cls-5" d="M4.59,5.48a1.09,1.09,0,0,1-.53-.15v.33a1.09,1.09,0,0,0,.53.15Z"/><path class="cls-5" d="M3.5,4.55a.49.49,0,0,1,.82,0A.59.59,0,0,1,3.5,4.55Z"/><path class="cls-5" d="M3.53,4.17a.94.94,0,0,1,.84.28V4.16a1.93,1.93,0,0,0-.47,0A.87.87,0,0,0,3.53,4.17Z"/><path class="cls-5" d="M5.32,3.25A.37.37,0,0,0,5.8,3a.4.4,0,0,0-.23-.5.37.37,0,0,0-.48.24A.4.4,0,0,0,5.32,3.25Z"/><path class="cls-5" d="M5.62,2.32A.26.26,0,0,0,6,2.14a.29.29,0,0,0-.16-.36A.27.27,0,0,0,5.46,2,.28.28,0,0,0,5.62,2.32Z"/><path class="cls-5" d="M5.86,1.59a.18.18,0,0,0,.23-.12A.2.2,0,0,0,6,1.23a.17.17,0,0,0-.22.12A.18.18,0,0,0,5.86,1.59Z"/><path class="cls-5" d="M6.06,3.56a.36.36,0,0,0,.52-.13.42.42,0,0,0-.12-.55A.37.37,0,0,0,5.94,3,.41.41,0,0,0,6.06,3.56Z"/><path class="cls-5" d="M6.55,2.72a.26.26,0,0,0,.37-.09.31.31,0,0,0-.09-.39.26.26,0,0,0-.37.09A.29.29,0,0,0,6.55,2.72Z"/><path class="cls-5" d="M6.93,2.06A.17.17,0,0,0,7.17,2a.18.18,0,1,0-.3-.2A.2.2,0,0,0,6.93,2.06Z"/><path class="cls-5" d="M6.47,4.22a.36.36,0,0,0,.52.1.42.42,0,0,0,.1-.56.37.37,0,0,0-.53-.09A.41.41,0,0,0,6.47,4.22Z"/><path class="cls-5" d="M7.24,3.66a.26.26,0,0,0,.37.07.31.31,0,0,0,.07-.4.27.27,0,0,0-.38-.07A.3.3,0,0,0,7.24,3.66Z"/><path class="cls-5" d="M7.84,3.21a.17.17,0,0,0,.25,0,.19.19,0,1,0-.25,0Z"/><path class="cls-5" d="M6.3,4.94a.38.38,0,0,0,.41.35.4.4,0,0,0,.34-.44.38.38,0,1,0-.75.09Z"/><path class="cls-5" d="M7.23,4.83a.28.28,0,0,0,.29.25.28.28,0,0,0,.24-.31.27.27,0,1,0-.53.06Z"/><path class="cls-5" d="M8,4.74a.19.19,0,0,0,.19.17.19.19,0,0,0,.16-.21.17.17,0,0,0-.2-.16A.18.18,0,0,0,8,4.74Z"/><path class="cls-5" d="M4.59,3.38a3.38,3.38,0,0,1,1.67.56c0,1.61-.66,2.31-1.67,2.59V6.07s1.09,0,1.47-1.68a1.36,1.36,0,0,0-1.47-.26Z"/><path class="cls-5" d="M4.59,1a.17.17,0,0,1,.17.18.17.17,0,0,1-.17.19Z"/><path class="cls-5" d="M4.59,1.62a.28.28,0,0,1,.27.28.27.27,0,0,1-.27.28Z"/><path class="cls-5" d="M4.59,2.37a.38.38,0,0,1,.37.4.38.38,0,0,1-.37.4Z"/><path class="cls-5" d="M4.59,5.48a1.09,1.09,0,0,0,.53-.15v.33a1.09,1.09,0,0,1-.53.15Z"/><path class="cls-5" d="M5.68,4.55a.5.5,0,0,0-.83,0A.6.6,0,0,0,5.68,4.55Z"/><path class="cls-5" d="M5.65,4.17a1,1,0,0,0-.85.28V4.16a2.07,2.07,0,0,1,.48,0A.94.94,0,0,1,5.65,4.17Z"/><polygon class="cls-5" points="4.59 6.68 4.59 8.34 2 7.13 4.59 6.68"/><polygon class="cls-5" points="4.59 6.68 4.59 8.34 7.18 7.13 4.59 6.68"/><path class="cls-5" d="M3.08,6c0,.34-.07.62-.16.62S2.76,6.29,2.76,6s.07-.62.16-.62S3.08,5.61,3.08,6Z"/><path class="cls-5" d="M6.42,6c0,.34-.07.62-.16.62S6.1,6.29,6.1,6s.07-.62.16-.62S6.42,5.61,6.42,6Z"/></g></g></svg>