<svg xmlns="http://www.w3.org/2000/svg" xmlns:xlink="http://www.w3.org/1999/xlink" viewBox="0 0 20.4 8.49"><defs><style>.cls-1{fill-rule:evenodd;fill:url(#linear-gradient);}</style><linearGradient id="linear-gradient" y1="4.24" x2="20.4" y2="4.24" gradientUnits="userSpaceOnUse"><stop offset="0.15" stop-color="#cd982c"/><stop offset="0.52" stop-color="#fff6ab"/><stop offset="0.89" stop-color="#cd982c"/></linearGradient></defs><g id="Layer_2" data-name="Layer 2"><g id="Layer_1-2" data-name="Layer 1"><path class="cls-1" d="M3.7,3.27V5.22H3.22V3.27H3.7m7,.36h-.17v.47h.24l.07,0,.06,0,.05,0,0-.06V3.79l0-.06-.05,0,0,0-.08,0h-.08m-.05-.37h.16l.15,0,.12,0,.11,0,.09.06.08.08.06.1,0,.11v.23l0,.1-.05.08-.06.07-.06.06-.07,0h0l0,0,.07,0,0,.08,0,.09,0,.1,0,.09,0,.1,0,.09,0,.09,0,.06,0,.07,0,.07H11l0-.06,0-.07,0-.09,0-.11,0-.13,0-.09,0-.07,0,0,0,0,0,0h-.22v.75H10V3.3l.14,0h.46m5.8.37h-.16v.52h.21l.08,0,.06,0,.05,0,0-.05,0-.06V3.81l0-.06,0,0-.06,0-.08,0H16.4m-.16.91v.68h-.47V3.3l.11,0h.65l.13,0,.12,0,.11,0,.08.06.08.06.06.08,0,.1,0,.1V4l0,.11,0,.1-.05.08L17,4.35l-.1.07-.12,0-.12,0-.14,0h-.28M9.05,3.66H8.94l-.09,0-.09,0-.08,0-.07,0,0,.07-.06.07,0,.09,0,.1v.24l0,.1,0,.1.06.08.07.07.07,0,.09,0,.1,0h.3V4.47H8.9V4.08h.76v1l-.09,0-.09,0-.11,0-.12,0-.12,0h-.3l-.15,0-.14,0-.12-.06-.11-.06L8.21,5l-.09-.12L8,4.74,8,4.59l0-.16V4.11L8,4,8,3.83l.06-.11.07-.11.1-.09.1-.08.12-.07.13-.05.14,0,.14,0h.42l.11,0,.1,0,.09,0-.11.4-.09,0-.07,0-.08,0H9.05m-4,0H5l-.09,0-.08,0-.08,0-.06,0-.06.07,0,.08,0,.09,0,.1v.24l0,.1,0,.1.06.07.06.07.08.06.09,0,.1,0h.22l.09,0h.09l.07,0h0l.07.39-.07,0-.09,0-.1,0H4.85l-.15,0-.13,0-.12-.06-.11-.07L4.25,5l-.08-.09L4.1,4.77l0-.11,0-.12,0-.13v-.3L4,4l.05-.14.06-.12.08-.11.09-.09.1-.08.11-.07.12,0,.14,0,.13,0h.39l.1,0,.08,0,.08,0-.1.39-.1,0-.08,0-.1,0h-.1m1.64,0H6.62l-.09,0-.08,0-.08,0-.07,0,0,.07,0,.08,0,.09,0,.1v.24l0,.1,0,.1,0,.07.07.07.07.06.1,0,.1,0h.21l.1,0H7l.07,0h0l.07.39-.08,0L7,5.22l-.1,0H6.5l-.15,0-.13,0L6.1,5.12,6,5.05,5.89,5l-.07-.09-.07-.11,0-.11,0-.12,0-.13v-.3l0-.14,0-.14.06-.12.08-.11L6,3.51l.1-.08.11-.07.13,0,.13,0,.13,0h.39l.1,0,.08,0,.08,0-.11.39L7,3.69l-.09,0-.09,0H6.71m5.86,0h-.09l-.08,0-.06,0-.06.06,0,.07,0,.09,0,.1,0,.1v.24l0,.1,0,.1,0,.08,0,.08.06,0,.07,0,.08,0h.17l.07,0,.07,0,.06-.06.05-.07,0-.09,0-.09,0-.11V4.13L13,4l0-.1,0-.09,0-.07-.06-.06-.07,0-.08,0h-.09m0-.39h.14l.13,0,.13,0,.1.05.1.08.09.08.07.09.06.11,0,.11,0,.12,0,.13v.3l0,.16-.05.14-.05.12-.08.12-.1.1-.1.07L13,5.17l-.13,0-.14,0h-.3l-.14,0-.13,0L12,5.09,11.92,5l-.09-.1-.07-.11-.06-.12,0-.13,0-.15V4.11l0-.15,0-.14.06-.12.08-.12.09-.1L12,3.4l.12-.07.13-.05.14,0h.15m1.69,0V4.51l0,.11,0,.09,0,.06.06.05.07,0h.15l.07,0,0,0,.05,0,0-.07,0-.08,0-.1V3.27h.47V4.51l0,.14,0,.13,0,.11-.06.1-.08.08-.09.07-.1.05-.12,0-.12,0h-.26l-.12,0-.11,0-.09-.05L14,5.07,14,5,13.9,4.9l-.05-.12,0-.12,0-.15V3.27h.48M16.71,1h-13L1.33,4l2.3,3.47H16.78L19.08,4,16.71,1M16.9.61,19.46,3.9l.09.1L17,7.87H3.42L.86,4,3.51.61H16.9M17.1.3H3.31L.37,4,3.23,8.19H17.17L20,4,17.1.3m.14-.3,3.1,3.87L20.4,4,17.33,8.49H3.07L0,4,3.16,0H17.24"/></g></g></svg>