<svg xmlns="http://www.w3.org/2000/svg" xmlns:xlink="http://www.w3.org/1999/xlink" viewBox="0 0 10.02 11.97"><defs><style>.cls-1,.cls-2,.cls-3,.cls-4,.cls-5{fill-rule:evenodd;}.cls-1{fill:url(#GradientFill_1);}.cls-2{fill:#fff496;}.cls-3{fill:#00803e;}.cls-4{fill:url(#GradientFill_2);}.cls-5,.cls-6{fill:#fff;}</style><linearGradient id="GradientFill_1" x1="5" y1="9.96" x2="5" gradientUnits="userSpaceOnUse"><stop offset="0" stop-color="#cd982c"/><stop offset="0.09" stop-color="#cd982c"/><stop offset="0.16" stop-color="#fff496"/><stop offset="0.38" stop-color="#cd982c"/><stop offset="0.59" stop-color="#fff496"/><stop offset="0.72" stop-color="#cd982c"/><stop offset="1" stop-color="#cd982c"/></linearGradient><linearGradient id="GradientFill_2" x1="1.88" y1="9.62" x2="8.13" y2="0.34" gradientUnits="userSpaceOnUse"><stop offset="0" stop-color="#89c33f"/><stop offset="0.07" stop-color="#89c33f"/><stop offset="0.27" stop-color="#00a351"/><stop offset="0.78" stop-color="#00a351"/><stop offset="0.95" stop-color="#89c33f"/><stop offset="1" stop-color="#89c33f"/></linearGradient></defs><g id="Layer_2" data-name="Layer 2"><g id="Layer_1-2" data-name="Layer 1"><path class="cls-1" d="M10,0H3.3A3.29,3.29,0,0,0,0,3.28V10H6.71A3.28,3.28,0,0,0,10,6.68h0Z"/><path class="cls-2" d="M7,9.75A3.05,3.05,0,0,0,9.74,7,3.6,3.6,0,0,1,7,9.75Z"/><path class="cls-2" d="M3,.21A3,3,0,0,0,.25,3,3.6,3.6,0,0,1,3,.21Z"/><path class="cls-3" d="M9.26.73V6.68A2.55,2.55,0,0,1,6.71,9.23h-6v-6A2.56,2.56,0,0,1,3.3.73Z"/><path class="cls-4" d="M9,6.68V1H3.3A2.31,2.31,0,0,0,1,3.28H1V9H6.71A2.32,2.32,0,0,0,9,6.68Z"/><path class="cls-5" d="M4,3.11c0-.13.18-.25.28-.32a1.1,1.1,0,0,1,.42-.17c0,.06-.1.12-.14.16l-.16.13a1.66,1.66,0,0,1-.4.2Zm0,.07a.91.91,0,0,0,.83-.13A.4.4,0,0,0,4.6,3,1.71,1.71,0,0,0,4,3.18Zm.62-.28s.15.08.18.08A.71.71,0,0,0,5,3a1,1,0,0,0,.43-.11,1.57,1.57,0,0,0-.86,0Zm0-.08a1.37,1.37,0,0,0,.76-.38c-.14-.06-.49.12-.63.23s-.13.11-.13.15ZM2.92,4.12a.88.88,0,0,1,.13-.48,1.4,1.4,0,0,1,.13-.18.7.7,0,0,1,.16-.14,1.53,1.53,0,0,1-.42.8Zm-.68-1.3a1.48,1.48,0,0,1,.68-.59c0,.09-.19.3-.26.37a.69.69,0,0,1-.42.22ZM3,4.17c.21.08.73-.39.73-.54A1.28,1.28,0,0,0,3.14,4L3,4.17ZM5.12,2.71a1.34,1.34,0,0,1,.36-.16.83.83,0,0,1,.44,0c0,.1-.25.19-.34.22s-.37.07-.46,0ZM1.94,3.5c.07,0,.18-.09.22-.12a.69.69,0,0,0,.17-.17c0-.06.24-.35.22-.46l-.1.06a1.9,1.9,0,0,0-.51.69Zm0,4.37c0-.44,0-1,0-1.4,0,0,0-.44,0-.46L2,6.25a6,6,0,0,0,.47,1.1c0,.08.08.13.12.2l.12.2-.58.09-.2,0Zm0-5.08c.05-.08.1-.23.17-.27S2,3.1,2,3.22s-.06.13-.06.36c0,0,0,.4,0,.42a2.52,2.52,0,0,1,.13-.33c0-.07.13-.26.19-.28A1.16,1.16,0,0,1,2.13,4,.81.81,0,0,1,2,4.23s0,0,0,.06a1.15,1.15,0,0,0,0,.18A1.08,1.08,0,0,1,2,4.26a.52.52,0,0,1,.19-.14,1.81,1.81,0,0,1-.09.31,1.79,1.79,0,0,1-.19.41.32.32,0,0,0,0,.17A2.3,2.3,0,0,0,2,5.75a1.87,1.87,0,0,0,.08.32c0,.19.11.35.17.53l0,.07,0-.18a2,2,0,0,1,.13-1.33c0-.1.09-.2.14-.3.22-.44,0-.43,0-.74a1.08,1.08,0,0,0,0-.19,1.2,1.2,0,0,1,0-.2.59.59,0,0,1,.21.6c0,.07-.06.15-.08.21s.21-.35.61-.34c0,0-.15.16-.18.19-.33.29-.38.12-.6.53a1.89,1.89,0,0,0-.11.25c-.08.19-.27.73-.19.9a1.48,1.48,0,0,1,.34-.85,1.78,1.78,0,0,1,1.74-.55A.91.91,0,0,1,4.89,5,1.18,1.18,0,0,1,5,5.22a1.41,1.41,0,0,0-1.12-.43,1.88,1.88,0,0,0-1.11.43,1.31,1.31,0,0,0-.49,1,2.37,2.37,0,0,0,.25.92l.12.26a5,5,0,0,1-.28-.52c0-.06-.05-.13-.08-.18a3.08,3.08,0,0,0,.21.53c.08.14.15.27.24.41l0,0c.07,0,.89-.13,1-.14V5.47h1A1.86,1.86,0,0,0,5.71,6l.59.16a1.73,1.73,0,0,1,.54.2c.33.27.13.75-.41.75a.73.73,0,0,1-.55-.2.86.86,0,0,1-.22-.52L4.53,7a1.5,1.5,0,0,0,.3.48,1.2,1.2,0,0,0,.46.31A3.33,3.33,0,0,0,6.68,8a1.8,1.8,0,0,0,1.13-.42,1.27,1.27,0,0,0-.12-2.06,2,2,0,0,0-.54-.24l-.62-.17a2.11,2.11,0,0,1-.6-.17.27.27,0,0,1,0-.48.82.82,0,0,1,.65,0,.59.59,0,0,1,.29.44l0,0a2.34,2.34,0,0,0,.27-.14l.27-.15c.18-.1.38-.19.55-.3a.93.93,0,0,0-.11-.19,1.77,1.77,0,0,0-1.52-.56A2.08,2.08,0,0,0,5,4a.78.78,0,0,0-.21.23.33.33,0,0,1-.06.1h-1v-.7c-.1,0-.22,0-.31,0s0,0,.07-.05l.08,0,.16-.08V3.26s-.24.22-.36.24.17-.3.25-.39A.84.84,0,0,1,4,2.87c0,.13-.27.35-.29.38H6.22c0-.09.08-.51.09-.62a3.06,3.06,0,0,1,.05-.32A2,2,0,0,0,6.4,2c-.15,0-.34,0-.49,0H3.28c-.06,0-.07,0-.1,0L3,2.11a.81.81,0,0,1-.38.12c0-.11.21-.19.24-.24H2.74s-.12.16-.16.17,0-.11,0-.17H2.53a1.59,1.59,0,0,1-.37.77c-.07-.13.1-.5.18-.62L2.46,2H1.92c0,.14,0,.51,0,.7v.1Z"/><polygon class="cls-5" points="0 11.95 0 10.98 0.59 10.98 0.59 11.19 0.26 11.19 0.26 11.36 0.58 11.36 0.58 11.57 0.26 11.57 0.26 11.95 0 11.95"/><path class="cls-5" d="M1.19,11.75a.22.22,0,0,0,.18-.08.3.3,0,0,0,.08-.21.3.3,0,0,0-.08-.2.24.24,0,0,0-.36,0,.27.27,0,0,0-.07.2.28.28,0,0,0,.07.21.25.25,0,0,0,.18.08Zm.52-.29a.45.45,0,0,1,0,.2.45.45,0,0,1-.11.17l-.17.11a.64.64,0,0,1-.2,0,.69.69,0,0,1-.2,0,.64.64,0,0,1-.16-.11.66.66,0,0,1-.12-.17.5.5,0,0,1,0-.39.66.66,0,0,1,.12-.17A.64.64,0,0,1,1,11a.69.69,0,0,1,.2,0,.64.64,0,0,1,.2,0,.71.71,0,0,1,.17.11.45.45,0,0,1,.11.17A.43.43,0,0,1,1.71,11.46Z"/><path class="cls-5" d="M2.33,11.75a.25.25,0,0,0,.18-.08.3.3,0,0,0,.07-.21.29.29,0,0,0-.07-.2.24.24,0,0,0-.36,0,.27.27,0,0,0-.07.2.28.28,0,0,0,.07.21.23.23,0,0,0,.18.08Zm.52-.29a.45.45,0,0,1,0,.2.62.62,0,0,1-.11.17l-.17.11a.69.69,0,0,1-.2,0,.64.64,0,0,1-.2,0L2,11.83a.54.54,0,0,1-.15-.37.43.43,0,0,1,0-.19A.45.45,0,0,1,2,11.1L2.13,11a.68.68,0,0,1,.4,0l.17.11a.62.62,0,0,1,.11.17A.43.43,0,0,1,2.85,11.46Z"/><path class="cls-5" d="M3.25,11.73h0a.32.32,0,0,0,.22-.06.27.27,0,0,0,.08-.21.25.25,0,0,0-.08-.2.32.32,0,0,0-.22-.07h0v.54ZM3,12V11h.2a1.29,1.29,0,0,1,.32,0,.51.51,0,0,1,.17.07.54.54,0,0,1,.14.16.59.59,0,0,1,0,.23.53.53,0,0,1,0,.23.58.58,0,0,1-.14.17l-.16.07-.28,0H3Z"/><path class="cls-5" d="M4.45,11.63a.47.47,0,0,0,.11.1.19.19,0,0,0,.12,0l.09,0a.09.09,0,0,0,0-.07.1.1,0,0,0,0-.08l-.13-.05a.51.51,0,0,1-.21-.1.29.29,0,0,1,0-.17A.32.32,0,0,1,4.47,11,.32.32,0,0,1,4.71,11a.37.37,0,0,1,.15,0A.35.35,0,0,1,5,11l-.08.19-.1-.06-.09,0a.11.11,0,0,0-.08,0,.06.06,0,0,0,0,.06.05.05,0,0,0,0,0,.3.3,0,0,0,.1.05h0a.53.53,0,0,1,.21.09.24.24,0,0,1,.06.09.36.36,0,0,1,0,.11.31.31,0,0,1-.11.25.37.37,0,0,1-.27.09.52.52,0,0,1-.18,0,.42.42,0,0,1-.16-.11Z"/><polygon class="cls-5" points="5.31 11.95 5.31 11.21 5.09 11.21 5.09 10.98 5.79 10.98 5.79 11.21 5.57 11.21 5.57 11.95 5.31 11.95"/><path class="cls-5" d="M6.1,11.59h.26l-.1-.33a.1.1,0,0,1,0,0l0-.09,0,.07,0,.06-.09.33ZM5.72,12l.34-1h.33l.34,1H6.46l0-.18H6L6,12Z"/><polygon class="cls-5" points="6.88 11.95 6.88 11.21 6.66 11.21 6.66 10.98 7.36 10.98 7.36 11.21 7.14 11.21 7.14 11.95 6.88 11.95"/><rect class="cls-6" x="7.47" y="10.98" width="0.27" height="0.97"/><path class="cls-5" d="M8.41,11.75a.25.25,0,0,0,.18-.08.3.3,0,0,0,.07-.21.29.29,0,0,0-.07-.2.25.25,0,0,0-.18-.08.26.26,0,0,0-.19.08.32.32,0,0,0-.07.2.33.33,0,0,0,.07.21.26.26,0,0,0,.19.08Zm.52-.29a.65.65,0,0,1,0,.2.66.66,0,0,1-.12.17.56.56,0,0,1-.17.11.63.63,0,0,1-.19,0,.64.64,0,0,1-.2,0A.71.71,0,0,1,8,11.83a.54.54,0,0,1-.15-.37.43.43,0,0,1,0-.19A.45.45,0,0,1,8,11.1.71.71,0,0,1,8.21,11a.64.64,0,0,1,.2,0,.69.69,0,0,1,.2,0,.64.64,0,0,1,.16.11.66.66,0,0,1,.12.17A.65.65,0,0,1,8.93,11.46Z"/><path class="cls-5" d="M9.07,12V11h.25l.37.5s0,0,0,.06l.06.11s0-.08,0-.11V11H10v1H9.76l-.37-.5s0,0,0-.06a.54.54,0,0,1,0-.11.41.41,0,0,0,0,.11V12Z"/></g></g></svg>