<svg xmlns="http://www.w3.org/2000/svg" viewBox="0 0 18.01 7.25"><defs><style>.cls-1,.cls-3{fill:#fff;stroke:#fff;stroke-linejoin:round;stroke-width:0.36px;}.cls-2{fill:#ed1c24;}.cls-3,.cls-4{fill-rule:evenodd;}.cls-4{fill:#00aeef;}</style></defs><g id="Layer_2" data-name="Layer 2"><g id="Layer_1-2" data-name="Layer 1"><path class="cls-1" d="M4,.51,4.49.19h0V.4c0,.11,0,.25,0,.39a.76.76,0,0,1-.89,0S3.82.65,4,.51ZM3.65,2.42,3.85,6V3.72a.37.37,0,0,0,0-.15.19.19,0,0,1,0-.12.38.38,0,0,1,0-.1c0-.05,0-.77,0-.93Zm-.13,0h0l.24,4.41V7L3.67,3.71h0v0a.29.29,0,0,0-.06-.15.76.76,0,0,1,0-.11V3.3S3.53,2.62,3.52,2.42Zm1-1.15v3A5.16,5.16,0,0,1,6.78,1.74,8.81,8.81,0,0,1,11.91.81a14.56,14.56,0,0,1,2.77.27S13.45,1,12.51,1a14.52,14.52,0,0,0-2.89.23A6.52,6.52,0,0,0,5.49,3.78,9.61,9.61,0,0,0,4.25,6a10.9,10.9,0,0,0-.4,1.09v0L3.74,7l-.18-.22L3.49,3.56a.18.18,0,0,0,0-.05.76.76,0,0,0,0-.11.34.34,0,0,1,0-.11V3.2s0-.61,0-.78h0l.24,4.3-.17-.2-.06-3a.18.18,0,0,0,0,0,.3.3,0,0,0,0-.11.3.3,0,0,1,0-.11.28.28,0,0,1,0-.09s0-.56,0-.75H3.15l.22,4.1-.16-.18L3.14,3.41a.18.18,0,0,0,0-.05.3.3,0,0,0,0-.11.76.76,0,0,1,0-.11.28.28,0,0,0,0-.09s0-.49,0-.64H3L3.19,6.3,3,6.1,3,3.37a.18.18,0,0,0,0-.05.34.34,0,0,0-.05-.11.76.76,0,0,1,0-.11V3s0-.46,0-.6l0,0L3,6.08l-.14-.17,0-2.6a.18.18,0,0,0,0-.05.34.34,0,0,0-.05-.11.76.76,0,0,1,0-.11V3s0-.32,0-.44l-.06,0,.18,3.34-.15-.18,0-2.49a.16.16,0,0,0,0,0,.76.76,0,0,0,0-.11.21.21,0,0,1,0-.12.28.28,0,0,1,0-.09V2.63l0,0,.17,3-.14-.16,0-2.35V3.11L2.42,3a.76.76,0,0,1,0-.11.28.28,0,0,0,0-.09V2.63l0,0,.16,2.86-.14-.16L2.3,3.08a.18.18,0,0,0,0-.05.76.76,0,0,0,0-.11.19.19,0,0,1,0-.11.28.28,0,0,1,0-.09V2.56l0,0,.14,2.7-.13-.15L2.13,3a.18.18,0,0,0,0,0,.76.76,0,0,0,0-.11.19.19,0,0,1,0-.11.28.28,0,0,1,0-.09V2.49l0,0L2.12,5,2,4.88,2,2.94a.18.18,0,0,0,0,0,.76.76,0,0,0,0-.11.19.19,0,0,1,0-.11.34.34,0,0,1,0-.09V2.42l0,0,.12,2.42-.11-.13L1.78,2.84a.18.18,0,0,0,0,0,.76.76,0,0,0,0-.11.17.17,0,0,1,0-.11.28.28,0,0,1,0-.09V2.34l0,0L1.76,4.6l-.11-.13,0-1.65a.18.18,0,0,0,0,0,.76.76,0,0,0,0-.11.3.3,0,0,1,0-.11.28.28,0,0,1,0-.09V2.28l0,0L1.6,4.41l-.12-.14,0-1.55a.18.18,0,0,0,0-.05.19.19,0,0,0,0-.1.84.84,0,0,1,0-.12V2.36a.75.75,0,0,1,0-.15l-.05,0,.11,2-.11-.12,0-1.41V2.61a.34.34,0,0,0-.05-.11.76.76,0,0,1,0-.11V2.3a.86.86,0,0,1,0-.16l-.05,0L1.24,4l-.11-.12c0-.25,0-1.1,0-1.24a.34.34,0,0,0,0-.15s0,0,0-.06a.38.38,0,0,1,0-.12V2.07L1,2l0,.54.07,1.19L1,3.66c0-.21,0-1,0-1.09a.36.36,0,0,0,0-.18l0-.07a.19.19,0,0,1,0-.07L.83,2h0l0,.52.05,1L.76,3.42.72,2,.18,1.73l1.27-.49-1,.49,2,.74L4.44,1.31ZM3.85,6V6Z"/><path class="cls-2" d="M4,.51,4.49.19h0V.4c0,.11,0,.25,0,.39a.76.76,0,0,1-.89,0S3.82.65,4,.51ZM3.65,2.42,3.85,6V3.72a.37.37,0,0,0,0-.15.19.19,0,0,1,0-.12.38.38,0,0,1,0-.1c0-.05,0-.77,0-.93Zm-.13,0h0l.24,4.41V7L3.67,3.71h0v0a.29.29,0,0,0-.06-.15.76.76,0,0,1,0-.11V3.3S3.53,2.62,3.52,2.42Zm1-1.15v3A5.16,5.16,0,0,1,6.78,1.74,8.81,8.81,0,0,1,11.91.81a14.56,14.56,0,0,1,2.77.27S13.45,1,12.51,1a14.52,14.52,0,0,0-2.89.23A6.52,6.52,0,0,0,5.49,3.78,9.61,9.61,0,0,0,4.25,6a10.9,10.9,0,0,0-.4,1.09v0L3.74,7l-.18-.22L3.49,3.56a.18.18,0,0,0,0-.05.76.76,0,0,0,0-.11.34.34,0,0,1,0-.11V3.2s0-.61,0-.78h0l.24,4.3-.17-.2-.06-3a.18.18,0,0,0,0,0,.3.3,0,0,0,0-.11.3.3,0,0,1,0-.11.28.28,0,0,1,0-.09s0-.56,0-.75H3.15l.22,4.1-.16-.18L3.14,3.41a.18.18,0,0,0,0-.05.3.3,0,0,0,0-.11.76.76,0,0,1,0-.11.28.28,0,0,0,0-.09s0-.49,0-.64H3L3.19,6.3,3,6.1,3,3.37a.18.18,0,0,0,0-.05.34.34,0,0,0-.05-.11.76.76,0,0,1,0-.11V3s0-.46,0-.6l0,0L3,6.08l-.14-.17,0-2.6a.18.18,0,0,0,0-.05.34.34,0,0,0-.05-.11.76.76,0,0,1,0-.11V3s0-.32,0-.44l-.06,0,.18,3.34-.15-.18,0-2.49a.16.16,0,0,0,0,0,.76.76,0,0,0,0-.11.21.21,0,0,1,0-.12.28.28,0,0,1,0-.09V2.63l0,0,.17,3-.14-.16,0-2.35V3.11L2.42,3a.76.76,0,0,1,0-.11.28.28,0,0,0,0-.09V2.63l0,0,.16,2.86-.14-.16L2.3,3.08a.18.18,0,0,0,0-.05.76.76,0,0,0,0-.11.19.19,0,0,1,0-.11.28.28,0,0,1,0-.09V2.56l0,0,.14,2.7-.13-.15L2.13,3a.18.18,0,0,0,0,0,.76.76,0,0,0,0-.11.19.19,0,0,1,0-.11.28.28,0,0,1,0-.09V2.49l0,0L2.12,5,2,4.88,2,2.94a.18.18,0,0,0,0,0,.76.76,0,0,0,0-.11.19.19,0,0,1,0-.11.34.34,0,0,1,0-.09V2.42l0,0,.12,2.42-.11-.13L1.78,2.84a.18.18,0,0,0,0,0,.76.76,0,0,0,0-.11.17.17,0,0,1,0-.11.28.28,0,0,1,0-.09V2.34l0,0L1.76,4.6l-.11-.13,0-1.65a.18.18,0,0,0,0,0,.76.76,0,0,0,0-.11.3.3,0,0,1,0-.11.28.28,0,0,1,0-.09V2.28l0,0L1.6,4.41l-.12-.14,0-1.55a.18.18,0,0,0,0-.05.19.19,0,0,0,0-.1.84.84,0,0,1,0-.12V2.36a.75.75,0,0,1,0-.15l-.05,0,.11,2-.11-.12,0-1.41V2.61a.34.34,0,0,0-.05-.11.76.76,0,0,1,0-.11V2.3a.86.86,0,0,1,0-.16l-.05,0L1.24,4l-.11-.12c0-.25,0-1.1,0-1.24a.34.34,0,0,0,0-.15s0,0,0-.06a.38.38,0,0,1,0-.12V2.07L1,2l0,.54.07,1.19L1,3.66c0-.21,0-1,0-1.09a.36.36,0,0,0,0-.18l0-.07a.19.19,0,0,1,0-.07L.83,2h0l0,.52.05,1L.76,3.42.72,2,.18,1.73l1.27-.49-1,.49,2,.74L4.44,1.31ZM3.85,6V6Z"/><path class="cls-3" d="M14.45,5.46h0a.14.14,0,0,0,.08-.14V4.05a.23.23,0,0,0,0-.11l0,0,0,0h-.1v-.1h.76v.1a.19.19,0,0,0-.13,0s-.07.07-.07.15V5.3c0,.07,0,.12.06.14a.16.16,0,0,0,.13,0v.07h-.76V5.48A.1.1,0,0,0,14.45,5.46Z"/><path class="cls-3" d="M11.65,3.86c-.15,0-.16,0-.19.19v.87a.5.5,0,0,0,.12.28c0,.06.16.1.26.1a.43.43,0,0,0,.22-.1.5.5,0,0,0,.13-.33v-.8a.21.21,0,0,0,0-.15.27.27,0,0,0-.19,0v-.1h.8v.09c-.13,0-.17.07-.18.22V5.17a.76.76,0,0,0,0,.14.19.19,0,0,0,0,.1.27.27,0,0,0,.17.08v.06h-.59V5.32a.74.74,0,0,1-.21.17.69.69,0,0,1-.35.08.61.61,0,0,1-.52-.6v-.9A.33.33,0,0,0,11,3.88h-.13v-.1h.76Z"/><path class="cls-3" d="M15.27,5a.66.66,0,0,0,.07.2.21.21,0,0,0,0,.06l0,.06a.3.3,0,0,0,.25.09.24.24,0,0,0,.25-.24c0-.08-.14-.21-.23-.26l-.18-.15a2.39,2.39,0,0,1-.22-.21.46.46,0,0,1-.09-.29A.57.57,0,0,1,15.35,4a.39.39,0,0,1,.34-.18.64.64,0,0,1,.23,0l.07,0,0,0a.06.06,0,0,0,0,0,.14.14,0,0,0,0-.06h.07v.5h-.06A.42.42,0,0,0,16,4.13L15.92,4a.27.27,0,0,0-.25-.1c-.07,0-.19.13-.19.19a.26.26,0,0,0,0,.17l.09.08a.73.73,0,0,0,.15.11l.15.11a1.26,1.26,0,0,1,.18.14.47.47,0,0,1,.14.32.62.62,0,0,1-.11.37.55.55,0,0,1-.45.17l-.13,0-.13,0,0,0h-.05l0,0s0,0,0,.06H15.2V5Z"/><path class="cls-3" d="M17.64,3.88a.08.08,0,0,0,.07,0l0,0s0,0,0,0h.08v.65h-.07a.73.73,0,0,0-.17-.37.51.51,0,0,0-.37-.13.38.38,0,0,0-.36.22,1.2,1.2,0,0,0-.1.52.87.87,0,0,0,0,.19s0,.08,0,.14a.52.52,0,0,0,.46.38.41.41,0,0,0,.3-.08,1.79,1.79,0,0,0,.24-.24l0,.19a.89.89,0,0,1-.23.22,1,1,0,0,1-.39.14.93.93,0,0,1-.6-.23.9.9,0,0,1-.27-.68A.92.92,0,0,1,16.59,4a.9.9,0,0,1,.88-.2Z"/><path class="cls-3" d="M6.52,5.46h0a.14.14,0,0,0,.08-.14V4.05a.23.23,0,0,0,0-.11l0,0,0,0h-.1v-.1h.76v.1a.19.19,0,0,0-.13,0S7,4,7,4.05V5.3c0,.07,0,.12.06.14a.16.16,0,0,0,.13,0v.07H6.45V5.48A.12.12,0,0,0,6.52,5.46Z"/><path class="cls-3" d="M7.48,5.42l0,0,0,0a.15.15,0,0,0,0-.08V4.1l-.18-.19-.13,0v-.1h.65l.9,1.12V4.12a.26.26,0,0,0,0-.18.28.28,0,0,0-.19-.07v-.1h.57v.1a.33.33,0,0,0-.16,0s0,.07,0,.15V5.61H8.84L7.72,4.27v.91a.34.34,0,0,0,0,.17l0,0,0,.05a.23.23,0,0,0,.11,0v.07h-.6V5.49A.24.24,0,0,0,7.48,5.42Z"/><path class="cls-3" d="M9.28,5.45s.06-.07.06-.15V4a.18.18,0,0,0-.06-.15l-.13,0V3.77h.76v.09a.37.37,0,0,0-.16.05.35.35,0,0,0,0,.19v.43l.42-.45L10.19,4a.11.11,0,0,0,0-.06s0-.06,0-.07h-.12V3.77h.68v.09a.54.54,0,0,0-.29.11c-.07.07-.26.26-.47.51l.66.87.09.1.08,0h.08v.07h-.76V5.48h.07s0,0,0,0a.06.06,0,0,0,0,0l0-.07-.46-.57V5.3a.16.16,0,0,0,.07.15.17.17,0,0,0,.12,0v.07H9.15V5.48A.23.23,0,0,0,9.28,5.45Z"/><path class="cls-3" d="M13.8,5.33a.43.43,0,0,0,.07-.27.29.29,0,0,0-.17-.31.94.94,0,0,0-.34,0v.57a.16.16,0,0,0,.16.13A.41.41,0,0,0,13.8,5.33Zm-.42-1.39v.63a.46.46,0,0,0,.31-.08.28.28,0,0,0,.09-.23A.39.39,0,0,0,13.72,4l0,0,0,0a.28.28,0,0,0-.12,0h-.14ZM13,5.44c.05,0,.07-.07.07-.15V4A.16.16,0,0,0,13,3.89l-.14,0V3.77h.76a1.18,1.18,0,0,1,.35,0,.4.4,0,0,1,.27.39.31.31,0,0,1-.1.26.57.57,0,0,1-.23.12h0a.54.54,0,0,1,.23.1.41.41,0,0,1,.2.36.53.53,0,0,1-.17.38.4.4,0,0,1-.23.1,1.38,1.38,0,0,1-.29,0h-.79V5.47A.24.24,0,0,0,13,5.44Z"/><path class="cls-4" d="M14.45,5.46h0a.14.14,0,0,0,.08-.14V4.05a.23.23,0,0,0,0-.11l0,0,0,0h-.1v-.1h.76v.1a.19.19,0,0,0-.13,0s-.07.07-.07.15V5.3c0,.07,0,.12.06.14a.16.16,0,0,0,.13,0v.07h-.76V5.48A.1.1,0,0,0,14.45,5.46Z"/><path class="cls-4" d="M11.65,3.86c-.15,0-.16,0-.19.19v.87a.5.5,0,0,0,.12.28c0,.06.16.1.26.1a.43.43,0,0,0,.22-.1.5.5,0,0,0,.13-.33v-.8a.21.21,0,0,0,0-.15.27.27,0,0,0-.19,0v-.1h.8v.09c-.13,0-.17.07-.18.22V5.17a.76.76,0,0,0,0,.14.19.19,0,0,0,0,.1.27.27,0,0,0,.17.08v.06h-.59V5.32a.74.74,0,0,1-.21.17.69.69,0,0,1-.35.08.61.61,0,0,1-.52-.6v-.9A.33.33,0,0,0,11,3.88h-.13v-.1h.76Z"/><path class="cls-4" d="M15.27,5a.66.66,0,0,0,.07.2.21.21,0,0,0,0,.06l0,.06a.3.3,0,0,0,.25.09.24.24,0,0,0,.25-.24c0-.08-.14-.21-.23-.26l-.18-.15a2.39,2.39,0,0,1-.22-.21.46.46,0,0,1-.09-.29A.57.57,0,0,1,15.35,4a.39.39,0,0,1,.34-.18.64.64,0,0,1,.23,0l.07,0,0,0a.06.06,0,0,0,0,0,.14.14,0,0,0,0-.06h.07v.5h-.06A.42.42,0,0,0,16,4.13L15.92,4a.27.27,0,0,0-.25-.1c-.07,0-.19.13-.19.19a.26.26,0,0,0,0,.17l.09.08a.73.73,0,0,0,.15.11l.15.11a1.26,1.26,0,0,1,.18.14.47.47,0,0,1,.14.32.62.62,0,0,1-.11.37.55.55,0,0,1-.45.17l-.13,0-.13,0,0,0h-.05l0,0s0,0,0,.06H15.2V5Z"/><path class="cls-4" d="M17.64,3.88a.08.08,0,0,0,.07,0l0,0s0,0,0,0h.08v.65h-.07a.73.73,0,0,0-.17-.37.51.51,0,0,0-.37-.13.38.38,0,0,0-.36.22,1.2,1.2,0,0,0-.1.52.87.87,0,0,0,0,.19s0,.08,0,.14a.52.52,0,0,0,.46.38.41.41,0,0,0,.3-.08,1.79,1.79,0,0,0,.24-.24l0,.19a.89.89,0,0,1-.23.22,1,1,0,0,1-.39.14.93.93,0,0,1-.6-.23.9.9,0,0,1-.27-.68A.92.92,0,0,1,16.59,4a.9.9,0,0,1,.88-.2Z"/><path class="cls-4" d="M6.52,5.46h0a.14.14,0,0,0,.08-.14V4.05a.23.23,0,0,0,0-.11l0,0,0,0h-.1v-.1h.76v.1a.19.19,0,0,0-.13,0S7,4,7,4.05V5.3c0,.07,0,.12.06.14a.16.16,0,0,0,.13,0v.07H6.45V5.48A.12.12,0,0,0,6.52,5.46Z"/><path class="cls-4" d="M7.48,5.42l0,0,0,0a.15.15,0,0,0,0-.08V4.1l-.18-.19-.13,0v-.1h.65l.9,1.12V4.12a.26.26,0,0,0,0-.18.28.28,0,0,0-.19-.07v-.1h.57v.1a.33.33,0,0,0-.16,0s0,.07,0,.15V5.61H8.84L7.72,4.27v.91a.34.34,0,0,0,0,.17l0,0,0,.05a.23.23,0,0,0,.11,0v.07h-.6V5.49A.24.24,0,0,0,7.48,5.42Z"/><path class="cls-4" d="M9.28,5.45s.06-.07.06-.15V4a.18.18,0,0,0-.06-.15l-.13,0V3.77h.76v.09a.37.37,0,0,0-.16.05.35.35,0,0,0,0,.19v.43l.42-.45L10.19,4a.11.11,0,0,0,0-.06s0-.06,0-.07h-.12V3.77h.68v.09a.54.54,0,0,0-.29.11c-.07.07-.26.26-.47.51l.66.87.09.1.08,0h.08v.07h-.76V5.48h.07s0,0,0,0a.06.06,0,0,0,0,0l0-.07-.46-.57V5.3a.16.16,0,0,0,.07.15.17.17,0,0,0,.12,0v.07H9.15V5.48A.23.23,0,0,0,9.28,5.45Z"/><path class="cls-4" d="M13.8,5.33a.43.43,0,0,0,.07-.27.29.29,0,0,0-.17-.31.94.94,0,0,0-.34,0v.57a.16.16,0,0,0,.16.13A.41.41,0,0,0,13.8,5.33Zm-.42-1.39v.63a.46.46,0,0,0,.31-.08.28.28,0,0,0,.09-.23A.39.39,0,0,0,13.72,4l0,0,0,0a.28.28,0,0,0-.12,0h-.14ZM13,5.44c.05,0,.07-.07.07-.15V4A.16.16,0,0,0,13,3.89l-.14,0V3.77h.76a1.18,1.18,0,0,1,.35,0,.4.4,0,0,1,.27.39.31.31,0,0,1-.1.26.57.57,0,0,1-.23.12h0a.54.54,0,0,1,.23.1.41.41,0,0,1,.2.36.53.53,0,0,1-.17.38.4.4,0,0,1-.23.1,1.38,1.38,0,0,1-.29,0h-.79V5.47A.24.24,0,0,0,13,5.44Z"/></g></g></svg>