<svg xmlns="http://www.w3.org/2000/svg" viewBox="0 0 18.37 5.88"><defs><style>.cls-1{fill:#005aa9;}.cls-2{fill:#ec1c24;}.cls-3{fill:#ffd300;}</style></defs><g id="Layer_2" data-name="Layer 2"><g id="Layer_1-2" data-name="Layer 1"><path class="cls-1" d="M3.47,0c-.25,0-.4.2-.4.48V2.66c0,.28.15.48.4.48s.41-.2.41-.48V.48C3.88.2,3.73,0,3.47,0Z"/><path class="cls-1" d="M5.39.87H5.2V.74c0-.13.08-.18.29-.16A.21.21,0,0,0,5.75.35.25.25,0,0,0,5.66.14.89.89,0,0,0,5.16,0a.89.89,0,0,0-.55.16.63.63,0,0,0-.2.49V.87h0a.28.28,0,0,0-.3.27.3.3,0,0,0,.32.28h0v1.3a.39.39,0,0,0,.41.42.36.36,0,0,0,.38-.41V1.42h.19a.29.29,0,0,0,.32-.27A.28.28,0,0,0,5.39.87Z"/><path class="cls-1" d="M7.7.79a.39.39,0,0,0-.31.15A.84.84,0,0,0,6.9.79,1.16,1.16,0,0,0,5.7,2,1.11,1.11,0,0,0,6.9,3.17.91.91,0,0,0,7.39,3a.35.35,0,0,0,.31.15.43.43,0,0,0,.41-.48V1.27A.43.43,0,0,0,7.7.79ZM6.51,2c0-.51.25-.6.41-.6H7c.18,0,.32.16.32.62s-.16.58-.33.58h0C6.74,2.6,6.51,2.51,6.51,2Z"/><path class="cls-1" d="M2.75,2.53C2.71,2.4,2,.43,2,.34A.42.42,0,0,0,1.83.12.93.93,0,0,0,1.4,0,.91.91,0,0,0,1,.12.44.44,0,0,0,.81.34C.78.43.09,2.4.05,2.53a.41.41,0,0,0,0,.39.41.41,0,0,0,.37.22.37.37,0,0,0,.39-.28c.06-.21.1-.31.1-.31h1l.1.31a.37.37,0,0,0,.39.28.41.41,0,0,0,.37-.22A.41.41,0,0,0,2.75,2.53ZM1.09,1.87l.31-1,.3,1Z"/><path class="cls-2" d="M11.64.77c-.44,0-.87.59-1,.81a1.56,1.56,0,0,1,.05-.22.61.61,0,0,0-.05-.48.28.28,0,0,0-.26-.11c-.41,0-.8.52-1,.77a1.31,1.31,0,0,0,.06-.23c0-.11.08-.31,0-.42a.28.28,0,0,0-.25-.1,1.11,1.11,0,0,0-.41.09l0,0,0,0s.05,0,0,.37a13.52,13.52,0,0,1-.33,1.44.32.32,0,0,0,0,.31.32.32,0,0,0,.27.11,1.29,1.29,0,0,0,.35-.06h0v0s-.1-.14,0-.39A4,4,0,0,1,10,1.33l0,0h0a.07.07,0,0,1,0,.05c0,.31-.17.84-.25,1.19,0,.08,0,.14,0,.19a.38.38,0,0,0,0,.31.3.3,0,0,0,.25.09,1.29,1.29,0,0,0,.35-.06l0,0,0,0s-.09-.12,0-.4a4.25,4.25,0,0,1,.81-1.31.08.08,0,0,1,.06,0h0a.11.11,0,0,1,0,.08s0,.06,0,.12c-.06.24-.16.74-.22,1.08a.55.55,0,0,0,.06.46.33.33,0,0,0,.27.1A.85.85,0,0,0,11.8,3l0,0,0,0s-.15-.14-.08-.54.12-.58.17-.81l0-.26v0a.58.58,0,0,0,0-.48A.3.3,0,0,0,11.64.77Z"/><path class="cls-2" d="M14.2.79a.45.45,0,0,0-.3.1.91.91,0,0,0-.45-.12,1,1,0,0,0-.53.16,1.69,1.69,0,0,0-.6.7A1.44,1.44,0,0,0,12.22,3a.4.4,0,0,0,.35.17c.23,0,.54-.1,1-.82a2,2,0,0,0,0,.36c0,.4.28.44.39.44.3,0,.4-.13.4-.14l0,0h0s-.14-.14-.05-.88A3.78,3.78,0,0,1,14.62.91v0h0A1.2,1.2,0,0,0,14.2.79ZM12.91,2.62c-.06,0-.09-.1-.09-.21a2.22,2.22,0,0,1,.35-1.14.28.28,0,0,1,.21-.11c.18,0,.35.19.4.24A5.41,5.41,0,0,1,13,2.56.17.17,0,0,1,12.91,2.62Z"/><path class="cls-2" d="M16.48.77c-.32,0-.71.53-.87.78,0-.11.06-.27.09-.41a.28.28,0,0,0,0-.25.32.32,0,0,0-.27-.1A1.63,1.63,0,0,0,15,.87l0,0,0,0S15,1,15,1.3s-.25,1.13-.34,1.45a.33.33,0,0,0,0,.3.39.39,0,0,0,.31.1,1.17,1.17,0,0,0,.34-.06h0v0s-.08-.12,0-.36A2.76,2.76,0,0,1,16,1.58a.3.3,0,0,1,.11,0,.21.21,0,0,1,.15.1v0l0,0a1.34,1.34,0,0,0,.29-.43.44.44,0,0,0,0-.37A.19.19,0,0,0,16.48.77Z"/><path class="cls-2" d="M18.34,1.06a2.49,2.49,0,0,1-.61.05h-.08c0-.08.07-.29.12-.5a.35.35,0,0,0,0-.29.31.31,0,0,0-.27-.1A2,2,0,0,0,17,.31l0,0,0,0c.1.11,0,.6-.05.78a7.55,7.55,0,0,0-.26,1.45c0,.39.21.59.63.59A1.06,1.06,0,0,0,18,3a.27.27,0,0,0,.1-.28.36.36,0,0,0-.05-.14l0,0,0,0a.84.84,0,0,1-.26.14l-.16,0a.17.17,0,0,1-.14,0c-.1-.1,0-.45,0-.56s.11-.51.13-.59h.35a.41.41,0,0,0,.46-.41V1Z"/><path class="cls-3" d="M17.3,5.51H0v.37H17.3A1.08,1.08,0,0,0,18.36,5,1.35,1.35,0,0,1,17.3,5.51Z"/><path class="cls-2" d="M18.37,4.18v-.3H1.07A1.07,1.07,0,0,0,0,5v.3H17.3A1.07,1.07,0,0,0,18.37,4.18Z"/></g></g></svg>