<svg xmlns="http://www.w3.org/2000/svg" viewBox="0 0 19.02 6.14"><defs><style>.cls-1{fill:#ed1c24;}.cls-1,.cls-2,.cls-3{fill-rule:evenodd;}.cls-2{fill:#fff200;}.cls-3{fill:#fff;}</style></defs><g id="Layer_2" data-name="Layer 2"><g id="Layer_1-2" data-name="Layer 1"><path class="cls-1" d="M12.12,2l.09.12L12.27,2Zm-1.79.78,0,.19.07-.2Zm-2,0-.1,0-.06,0-.08.09-.21.86.08,0v-.1l0-.27L8.18,3l.14-.2Zm1.66,1L9.76,4l-.2.16h.35l.22-.65ZM5.65,1.93l.13-.08.4.53.19-.1.29.07V2.09L7.21,2,7.77.94,8.56,2l0,.05h.54L9,2.26,9.1,2.2l.2-.06.29,0,.22,0,.18,0,.09.07,1.29-.7.05.36L13.2.38l.63.72L13.5,2,13.73,2,14,2l.14.06.1.07.17.15.36-.3-.11-.16,0-.15V1.58l0-.23.08-.12.16-.13.14-.05.15,0,.17,0,.14.09.07.06.09.17v.14l0,.11,0,.12-.07.1L15.45,2l-.11.07.33.27-.28,1.31.28-.26.4.38.05,0-.06-.16-.18-.36-.07-.16,0-.19,0-.12,0-.23.05-.2.06-.12L16,2.11,16.17,2,16.34,2l.17,0h.13l.22,0L17,2l.22.08.13.06.33.21.07.07.05.14,0,.15-.13.19-.37.29.07.14.11.35V4l-.05.24-.09.17-.1.12-.1.08L17,4.67l-.09,0-.21,0-.09,0h-.15l-.23,0L16,4.66l-.14-.07-.19-.14-.12-.14-.71.48-.17.08h-.24l-.09,0-.11-.09-.08-.12L14,4.19l0-.16L14,4.15l-.22.18-.27.17-.32.15-.36.1L11.36,5l.53-1.8L11.84,3l-.23.29-.14.24-.15.33-.14.4-.17.7L9.62,5l.1-.28-.15.09-.19.1L9.18,5H8.92l-.16,0-.17-.06-.2-.13-.17-.18-.07-.1-.78.4L7.14,5,6.82,5l-.13-.21-.07-.28-.88.77-.4-.52,0,0L4,4.94l-.21.22-.22.16-.67.32-.56.22L1.91,6l-.37.09-.28,0H1l-.44,0L.14,6.06,0,6l1.43-.79L2,4.9l.4-.28.28-.22L3,4.12,3,4l.18-.21.14-.19.25-.42L4.11,2l.09-.24H4l-.53,0-1.35,0,.74-.68L3.19.93,3.5.84,3.82.76,4.37.68l.4-.05L5,.58,5.4.41l.42-.2L6.37,0l.19,0Z"/><path class="cls-2" d="M15.29,1.33H15.1l-.08,0L15,1.47l0,.12v.09l0,.07.08,0h.18l.08-.05.09-.14V1.47l0-.09Zm.07,1.12L15,2.18l-.31.3-.35,1.69.14.36.07.07h.08l.09,0,.78-.52L15.59,4h.08l.06.05.18.21.17.12.17.08.29,0,.2,0,.12,0L17,4.31l.09-.11.06-.11,0-.12V3.7l-.08-.27L17,3.18,16.81,3l-.11-.16,0-.12,0-.08.14-.1.12,0,.13,0,.1.06.08.1.07.12.12-.09.05-.07V2.55l-.33-.22-.28-.09-.23,0-.22,0-.21.07-.11.12-.05.11,0,.28,0,.19.07.16.18.36.1.27.07.23v.09l0,.06-.09,0-.15,0-.16-.07L15.88,4l-.21-.21-.13.12-.17.1-.2.09-.12,0,0,0ZM13.5,1.16,13.17.78,12,1.74l.42-.19.12,0h.06l0,.07-.31,1-.6,2,1-.17L13,4.38l.28-.13.24-.15.2-.16L14,3.66l.09-.13.15-.23.08-.21,0-.19,0-.15-.09-.22,0-.07-.15-.14-.16-.07h-.15l-.14,0-.22.1-.08.06-.12,0-.06,0,0-.08.06-.26.13-.4ZM11.22,2.51,11.15,2l-.9.48v.06l.41-.13h.1l0,0V2.5l0,0L10,4.68l.75,0,.13-.51.15-.43.16-.35.15-.27.26-.33.11-.1.1-.07.08,0H12l0,0,.05.08v0l.09-.14-.26-.37-.57.36h-.08Zm2.21.21h0l.09,0,.06.08v.07l0,.1-.07.2-.11.2-.16.22-.13.14-.11.1-.11.06h-.08l-.05,0,0-.11,0-.19.14-.44.12-.22.16-.15.1,0ZM5,2.54l1-2.12L5.51.68,5.05.85,4.83.91,4.4,1,3.87,1l-.3.07-.28.09-.23.11-.15.14H4.06l.55.05-.23.6L3.85,3.33l-.27.45L3.43,4l-.18.21-.08.1-.32.32-.3.23-.42.29-.55.34-.72.39H1l.47-.06.36-.08.45-.15.54-.21.64-.31L3.64,5l.18-.2L4.31,4l.26-.46L4.82,3l.24-.17.08,0,.05,0v.06l0,.14L4.51,4.58l.62-.09.59-1.23.07-.1.06-.06.07,0,0,0,0,.17L5.47,4.41l.31.4.86-.76.08,0h0l0,0,0,.08v.12l.11.4,0,.06h.09l.14-.09,1-.53.07.15.1.15.14.15.19.11L9,4.69l.13,0,.14,0,.16-.07.17-.12H9.32l-.23-.08L9,4.27l-.07-.1.13,0,.32-.18.18-.15.18-.19.14-.24L10,3l0-.22,0-.12L10,2.51l-.11-.08-.16,0H9.6l-.24,0-.16,0L9,2.54l-.19.12-.26.25-.16.21-.15.34,0,.22v.23l-.7.37-.07,0,.35-1.42,0-.06.1-.12L8,2.58l.12-.05.15,0h.19l.09-.12H8.12L8.06,2.3l.16-.25-.41-.57-.41.81-.46.06v.13h.38L6.91,3.71,6.52,4H6.46l0-.06,0-.11.39-1.12-.43-.11-.31.17-.39-.52-.57.38H5.05l0-.05Zm4.18.54.07,0,.08,0,.06.08v.1l-.07.15-.1.17-.11.1-.06,0H9L9,3.62l0-.11,0-.18.11-.17Z"/><path class="cls-3" d="M18.66,1.59l-.17,0h-.21v.56h.12V1.87h.06l.13.24h.14l-.14-.25.09,0,0-.11,0-.08Zm-.26.19V1.65h.16l0,.06,0,.06H18.4Zm-.27-.12.09-.13.12-.08.15,0,.14,0,.13.08.08.13,0,.17,0,.17-.08.13-.13.08-.15,0-.14,0-.12-.08L18.13,2l0-.17Zm-.13,0,0,.22,0,.22.12.17.17.1.2,0,.2,0,.17-.1L19,2.05l0-.22,0-.22-.12-.17-.17-.1-.2,0-.2,0-.17.1Z"/></g></g></svg>