<svg xmlns="http://www.w3.org/2000/svg" viewBox="0 0 18.46 8.54"><defs><style>.cls-1,.cls-2{fill:#fff;}.cls-1{fill-rule:evenodd;}</style></defs><g id="Layer_2" data-name="Layer 2"><g id="Layer_1-2" data-name="Layer 1"><path class="cls-1" d="M6.89,5.7c1.5,0,1.79-1.68,3-2.87.15-.15.69.35.48.67s-.5.71-.78,1.12S8.86,5.85,9.08,6s.69-.32.93-.54.46-.54.69-.77a5.27,5.27,0,0,1,1.14-1.79c.21-.2.71-.61,1-.5a1.37,1.37,0,0,1,.83,1c0,.55-.59,1.4-.73,1.3-.74-.56.25-1.41.07-1.53s-.72.52-1,.89a3.51,3.51,0,0,0-.66,1.23c-.12.57,0,.9.7.77a3.66,3.66,0,0,0,2-1.43c.1-.16.15-.34.23-.5a5.1,5.1,0,0,1,.93-1.24c.49-.46.93-.7,1.48-.23a1.28,1.28,0,0,1,.41.48c.14.46-.36,1.28-.59,1.54-.37.42-1.17,1.09-1.74.36-.28.75,0,1.21.67,1a3.7,3.7,0,0,0,1.46-.9c.39-.34.63-.84.74-.87a.37.37,0,0,1,.27.37c0,.87-2,2.5-3.42,1.64a1.57,1.57,0,0,1-.53-.58,2.88,2.88,0,0,1-2.1.83,1.42,1.42,0,0,1-1.16-.77c-.36.3-.84.87-1.49.74-.34-.06-.57-.44-.76-.77a2.42,2.42,0,0,1-1.9.6l-.4.72c0,.06-.08,0-.11,0a.64.64,0,0,1-.36-1,9.89,9.89,0,0,1-1.21-.72c-.42.37-1.65,2-2.93,2S-.68,6.11.59,4.93A3.09,3.09,0,0,1,4,4.5C4.61,3.89,7.25.72,8.17.17,8.7-.15,9.2,0,9.34.42,9.56,1,9,1.75,8.74,2.24,8.13,3.31,7.48,4.69,6.89,5.7m-2.1-.8a5.9,5.9,0,0,0,1.14.61c.76-1.44,1.7-3,2.39-4.37C7.13,2.36,5.89,3.59,4.79,4.9M16.28,3.08c-.28,0-1.58,1.55-1.34,1.77s1-.69,1.24-1.21c.08-.15.33-.59.1-.56M1.11,5.59C.9,5.87.61,6.43,1,6.7S2.09,6.33,2.48,6A10.23,10.23,0,0,0,3.66,4.88a2.18,2.18,0,0,0-2.55.71"/><path class="cls-1" d="M12.16,1.58a.71.71,0,0,1-.95.22.7.7,0,0,1,0-1,.69.69,0,0,1,.94-.22.71.71,0,0,1,0,1"/><polygon class="cls-2" points="6.84 8.19 6.37 8.19 6.37 8.52 6.26 8.52 6.26 7.83 6.37 7.83 6.37 8.1 6.84 8.1 6.84 7.83 6.94 7.83 6.94 8.52 6.84 8.52 6.84 8.19"/><path class="cls-2" d="M7.59,8.32H7.25l-.09.2H7.05l.32-.69h.11l.32.69H7.68Zm-.17-.4-.13.31h.26Z"/><polygon class="cls-2" points="8.4 7.83 8.51 7.83 8.21 8.52 8.1 8.52 7.79 7.83 7.9 7.83 8.15 8.41 8.4 7.83"/><polygon class="cls-2" points="8.61 7.83 9.17 7.83 9.17 7.92 8.72 7.92 8.72 8.12 9.16 8.12 9.16 8.21 8.72 8.21 8.72 8.43 9.18 8.43 9.18 8.52 8.61 8.52 8.61 7.83"/><path class="cls-2" d="M10.16,8.32H9.82l-.09.2H9.62l.32-.69h.11l.32.69h-.12ZM10,7.92l-.13.31h.26Z"/><polygon class="cls-2" points="10.59 7.97 10.58 7.97 10.58 8.52 10.48 8.52 10.48 7.83 10.6 7.83 11.05 8.38 11.05 8.38 11.05 7.83 11.15 7.83 11.15 8.52 11.03 8.52 10.59 7.97"/><path class="cls-2" d="M12.17,8.32h-.34l-.09.2h-.11l.31-.69h.12l.31.69h-.11ZM12,7.92l-.13.31h.26Z"/><rect class="cls-2" x="12.49" y="7.83" width="0.1" height="0.69"/><path class="cls-2" d="M13.36,8.08a.21.21,0,0,0-.23-.18.28.28,0,0,0,0,.55.22.22,0,0,0,.24-.2h.11a.33.33,0,0,1-.35.29.34.34,0,0,1-.36-.37.34.34,0,0,1,.36-.36.32.32,0,0,1,.35.27Z"/><polygon class="cls-2" points="13.63 7.83 14.18 7.83 14.18 7.92 13.73 7.92 13.73 8.12 14.17 8.12 14.17 8.21 13.73 8.21 13.73 8.43 14.19 8.43 14.19 8.52 13.63 8.52 13.63 7.83"/><path class="cls-2" d="M14.71,7.83h.35a.29.29,0,0,1,.31.33c0,.2-.09.36-.3.36h-.36Zm.36.6c.16,0,.19-.14.19-.26s0-.25-.21-.25h-.23v.51Z"/><path class="cls-2" d="M16,8.32h-.34l-.09.2h-.11l.31-.69h.12l.31.69h-.12Zm-.17-.4-.14.31H16Z"/><polygon class="cls-2" points="16.77 7.83 16.9 7.83 16.59 8.23 16.59 8.52 16.49 8.52 16.49 8.23 16.18 7.83 16.32 7.83 16.54 8.14 16.77 7.83"/><path class="cls-2" d="M17.87,2.39a.58.58,0,0,1-.59-.59.59.59,0,1,1,1.18,0,.58.58,0,0,1-.59.59m0-1.14a.55.55,0,1,0,.55.55.55.55,0,0,0-.55-.55"/><path class="cls-2" d="M17.73,2.22h-.11V1.39h.29a.26.26,0,0,1,.26.26.26.26,0,0,1-.26.26h-.18Zm0-.41h.18a.16.16,0,1,0,0-.32h-.18Z"/><polygon class="cls-2" points="18.15 2.21 17.96 1.82 17.86 1.87 18.03 2.21 18.15 2.21"/></g></g></svg>