<svg xmlns="http://www.w3.org/2000/svg" xmlns:xlink="http://www.w3.org/1999/xlink" viewBox="0 0 23.87 8.48"><defs><style>.cls-1{fill:#facfb5;}.cls-2{fill:#231f20;}.cls-20,.cls-28,.cls-3{fill:#fff200;}.cls-10,.cls-11,.cls-12,.cls-13,.cls-14,.cls-3,.cls-4,.cls-5,.cls-6,.cls-7,.cls-8,.cls-9{stroke:#231f20;}.cls-10,.cls-11,.cls-12,.cls-13,.cls-14,.cls-25,.cls-26,.cls-27,.cls-28,.cls-3,.cls-4,.cls-5,.cls-6,.cls-7,.cls-8,.cls-9{stroke-miterlimit:10;}.cls-25,.cls-28,.cls-3{stroke-width:0.05px;}.cls-10,.cls-11,.cls-12,.cls-13,.cls-14,.cls-4,.cls-5,.cls-6,.cls-7,.cls-8,.cls-9{stroke-width:0.02px;}.cls-4{fill:url(#radial-gradient);}.cls-5{fill:url(#radial-gradient-2);}.cls-6{fill:url(#radial-gradient-3);}.cls-7{fill:url(#radial-gradient-4);}.cls-8{fill:url(#radial-gradient-5);}.cls-9{fill:url(#radial-gradient-6);}.cls-10{fill:url(#radial-gradient-7);}.cls-11{fill:url(#radial-gradient-8);}.cls-12{fill:url(#radial-gradient-9);}.cls-13{fill:url(#radial-gradient-10);}.cls-14{fill:url(#radial-gradient-11);}.cls-15{fill:#880304;}.cls-16{fill:#2e3192;}.cls-17{fill:#ed1c24;}.cls-18{fill:#8dc63f;}.cls-19{fill:#0072bc;}.cls-21{fill:#92278f;}.cls-22{fill:#a8218b;}.cls-23{fill:#ec008c;}.cls-24{fill:#fff;}.cls-25,.cls-26,.cls-27{fill:none;}.cls-25,.cls-28{stroke:#ed1c24;}.cls-26{stroke:#ec008c;stroke-width:0.02px;}.cls-27{stroke:#2e3192;stroke-width:0.07px;}</style><radialGradient id="radial-gradient" cx="-2487.58" cy="0.28" r="1.24" gradientTransform="matrix(-1, 0, 0, 1, -2484.75, 0)" gradientUnits="userSpaceOnUse"><stop offset="0.03" stop-color="#461113"/><stop offset="0.13" stop-color="#461113"/><stop offset="0.82" stop-color="#fff"/></radialGradient><radialGradient id="radial-gradient-2" cx="-2486.81" cy="0.65" r="1.4" gradientTransform="matrix(-1, 0, 0, 1, -2484.75, 0)" gradientUnits="userSpaceOnUse"><stop offset="0.13" stop-color="#461113"/><stop offset="0.82" stop-color="#fff"/></radialGradient><radialGradient id="radial-gradient-3" cx="-2485.94" cy="1.15" r="1.45" xlink:href="#radial-gradient-2"/><radialGradient id="radial-gradient-4" cx="-2485.54" cy="1.71" r="1.5" xlink:href="#radial-gradient-2"/><radialGradient id="radial-gradient-5" cx="-2485.12" cy="2.64" r="1.58" xlink:href="#radial-gradient-2"/><radialGradient id="radial-gradient-6" cx="-2484.96" cy="3.38" r="1.6" xlink:href="#radial-gradient-2"/><radialGradient id="radial-gradient-7" cx="-2485.13" cy="4.19" r="1.55" xlink:href="#radial-gradient-2"/><radialGradient id="radial-gradient-8" cx="-2485.68" cy="5" r="1.47" xlink:href="#radial-gradient-2"/><radialGradient id="radial-gradient-9" cx="-2486.01" cy="5.6" r="1.35" xlink:href="#radial-gradient-2"/><radialGradient id="radial-gradient-10" cx="-2486.92" cy="6.09" r="1.26" xlink:href="#radial-gradient-2"/><radialGradient id="radial-gradient-11" cx="-2487.61" cy="6.23" r="1.03" xlink:href="#radial-gradient-2"/></defs><g id="Layer_2" data-name="Layer 2"><g id="Layer_1-2" data-name="Layer 1"><path class="cls-1" d="M5.73,2.17s.2,0,.15.31-.07.13,0,.33a2.41,2.41,0,0,1,.44.79c0,.21-.11.18-.36,0A.65.65,0,0,0,6,4,.16.16,0,0,1,6,4.15a.65.65,0,0,0-.1.42c0,.22,0,.45-.26.43s-.7-.31-1,0a3.73,3.73,0,0,1-.4-.22s0-1.71,0-1.71A2.26,2.26,0,0,1,5.73,2.17Z"/><path class="cls-2" d="M5.86,2.25a1,1,0,0,1,0,.27c0,.1,0,.13.12.36a1.55,1.55,0,0,1,.34.69c0,.16-.08.15-.18.08s-.23-.22-.4,0A1,1,0,0,1,6,3.67,1.87,1.87,0,0,0,6,4c0,.1.09.2-.24.14,0,.07.1.09.16.09a.47.47,0,0,0-.1.32c0,.12.06.36-.06.43s-.35,0-.45,0S4.8,4.72,4.61,5l-.11.14s.18-.21.32-.23A1,1,0,0,1,5.36,5a.45.45,0,0,0,.49,0c.11-.11,0-.35,0-.46A.67.67,0,0,1,6,4.18c.06,0,.14-.08,0-.24a.73.73,0,0,1,0-.25s.16.16.28.12.11-.25,0-.49-.47-.62-.45-.72S6,2.42,5.86,2.25Z"/><path class="cls-2" d="M5.62,2.48s0,.13,0,.13a1.16,1.16,0,0,0-.34,0,2.06,2.06,0,0,0-.31.23,1.16,1.16,0,0,1,.42-.15,2,2,0,0,1,.31,0A.38.38,0,0,0,5.62,2.48Z"/><path class="cls-2" d="M5.68,2.85l-.29-.07a.65.65,0,0,0-.45.12,1.18,1.18,0,0,1,.41-.06A.11.11,0,0,0,5.48,3c.07,0,.1-.1.1-.1S5.66,2.9,5.68,2.85Z"/><path class="cls-2" d="M5.73,3.36a1.81,1.81,0,0,0-.28.89A.88.88,0,0,1,5.73,3.36Z"/><path class="cls-2" d="M5.73,4a.48.48,0,0,0,0,.18C5.67,4.16,5.66,4.09,5.73,4Z"/><path class="cls-3" d="M3.92,4.46a2.67,2.67,0,0,1,.48.29c.28.21.36.31.22.35s0,.1-.09.1,0,.13-.11.09S4.26,5.16,4,5l-.38-.24A.27.27,0,0,1,3.92,4.46Z"/><path class="cls-3" d="M4.53,5.2a4.8,4.8,0,0,0-.86-.56"/><path class="cls-3" d="M4.63,5.1a3.13,3.13,0,0,0-.89-.57"/><path class="cls-4" d="M5.19,1.12A5.64,5.64,0,0,0,3.94.46,6.36,6.36,0,0,0,2.36,0,.87.87,0,0,0,2.6.67a16.09,16.09,0,0,0,2.7,1C5.6,1.74,5.19,1.12,5.19,1.12Z"/><path class="cls-5" d="M5.18,1.91a3.17,3.17,0,0,0-1.53-1A6.86,6.86,0,0,0,1.58.34c-.07.08,0,.57.57.73l2.22.64C4.66,1.8,5.1,2,5.18,1.91Z"/><path class="cls-6" d="M4.92,2S5,1.7,3.68,1.4A7.88,7.88,0,0,0,1,1.1c0,.11.27.55.48.65S4,2,4,2,4.89,2.12,4.92,2Z"/><path class="cls-7" d="M4.63,2.17S4.55,2,3.51,1.75a8,8,0,0,0-3-.07c-.08.09.22.58.82.64s3.29-.07,3.29-.07Z"/><path class="cls-8" d="M4.53,2.34a11.44,11.44,0,0,0-2.85-.12C.57,2.34.15,2.38.15,2.48S.21,3,1,3s2.28-.14,2.3-.13.91-.14.91-.14Z"/><path class="cls-9" d="M4.37,2.67A7.62,7.62,0,0,0,2,2.77,5.09,5.09,0,0,0,0,3.4c0,.1.28.67,1.25.43S4.11,3,4.11,3Z"/><path class="cls-10" d="M4.11,3a4.21,4.21,0,0,0-1.76.19A10.37,10.37,0,0,0,.1,4.44c-.07.1.3.53,1.22.14a15.34,15.34,0,0,0,2-1.09L4,3.26A1.12,1.12,0,0,0,4.11,3Z"/><path class="cls-11" d="M4,3.1a3.12,3.12,0,0,0-1.83.59A14,14,0,0,0,.54,5.16c-.05.14.37.31.78.14a10.31,10.31,0,0,0,1.5-1.13l1.12-.92Z"/><path class="cls-12" d="M4,3.2A3.69,3.69,0,0,0,2.72,4,15.21,15.21,0,0,0,1.17,5.49c-.1.22.49.48,1.16-.12a11.15,11.15,0,0,0,1.52-1.9Z"/><path class="cls-13" d="M3.94,3.44l-.15.05a2.28,2.28,0,0,0-.89.75A11.58,11.58,0,0,0,1.93,6c-.11.16-.19.3,0,.32s.63.08,1-.63,1-1.94,1-1.94Z"/><path class="cls-14" d="M3.75,4a1.86,1.86,0,0,0-.43.5c-.15.29-.5,1.29-.67,1.77s-.07.42.07.4a1.08,1.08,0,0,0,.83-1C3.7,4.93,3.68,4.22,3.75,4Z"/><path class="cls-15" d="M5.48,1.75S5.67,1,4.37.57a1.89,1.89,0,0,0,.1.34S5.06,1.77,5.48,1.75Z"/><path class="cls-16" d="M5,1.85A3.38,3.38,0,0,0,4.34.9,1.33,1.33,0,0,0,4.05.74a2.39,2.39,0,0,0,.2.52C4.34,1.37,5,1.77,5,1.85Z"/><path class="cls-17" d="M4.85,2s-.54-.6-.63-.67a4.69,4.69,0,0,0-.63-.23L4,1.58S4.56,2,4.85,2Z"/><polygon class="cls-18" points="4.63 2.11 3.82 1.52 3.42 1.4 3.68 1.69 4.63 2.11"/><path class="cls-15" d="M4.47,2.22l-.69-.47a1.11,1.11,0,0,0-.77,0,3.61,3.61,0,0,1,.41.2S4.36,2.21,4.47,2.22Z"/><path class="cls-19" d="M4.43,2.32s-1-.27-1.21-.29a.54.54,0,0,0-.35.08,2,2,0,0,0,.46.24c.15,0,1.1,0,1.1,0Z"/><path class="cls-20" d="M4.28,2.43s-1.13,0-1.2,0a4.31,4.31,0,0,0-.4.18,1,1,0,0,0,.56.08l1-.1Z"/><path class="cls-17" d="M4.11,2.71A2.1,2.1,0,0,0,2.72,3,1.77,1.77,0,0,1,3.91,3,.31.31,0,0,0,4.11,2.71Z"/><path class="cls-16" d="M4,3a1.79,1.79,0,0,0-1.43.29A4,4,0,0,1,4,3.26.27.27,0,0,0,4,3Z"/><path class="cls-2" d="M3.85,3.28a4.9,4.9,0,0,0-1.44.55,2.16,2.16,0,0,1,1.18-.66l.35,0Z"/><path class="cls-18" d="M3.76,3.47a.83.83,0,0,0-.41.15L3,3.91s-.38.24-.41.24a1.58,1.58,0,0,1,.49-.55,2.86,2.86,0,0,1,.65-.24Z"/><path class="cls-21" d="M3.74,3.76l-.26.07a4.8,4.8,0,0,1-.83.7,2.13,2.13,0,0,1,1-.93c.11,0,.13,0,.13,0Z"/><path class="cls-22" d="M3.68,3.83,3.34,4a5.72,5.72,0,0,0-.62,1,1.49,1.49,0,0,1,1-.73.74.74,0,0,1,.08-.34Z"/><path class="cls-23" d="M3.66,4.27h-.4a4.24,4.24,0,0,0-.48,1c.22-.41.45-.76.74-.83s.15-.07.15-.07Z"/><path class="cls-23" d="M3.62,4.42a.44.44,0,0,0-.44.28c-.07.3-.31,1.21-.31,1.21a1.92,1.92,0,0,0,.64-.35.57.57,0,0,0,.23-.49S3.77,4.46,3.62,4.42Z"/><path class="cls-24" d="M4.07,5.1a1.52,1.52,0,0,1-.91.67c.24-.16.23-.2.23-.2l-.17,0,.39-.32-.36.17.36-.32-.28.08L3.61,5l-.24,0,.24-.24H3.39l.22-.12-.25,0,.3-.14H3.39l.22-.12L3.35,4.4l.26-.05-.22,0,.22-.07-.18,0,.23-.12-.24,0,.24-.14L3.45,4l.16-.11h-.2l.29-.16-.31,0,.28-.07-.2-.08.26,0-.28-.21.29.05-.22-.2.28.08-.18-.12.23,0-.26-.19L3.85,3l-.17-.23.2.1-.15-.21.21.13-.17-.2L4,2.71l-.15-.2.26.13-.17-.21.2.11L3.93,2.3l.24.12L4,2.2l.29.14L4,2.11l.21.11-.14-.17.21.13L4.15,2l.33.21L4.32,1.9,4.51,2l-.1-.27.23.18L4.5,1.66l.26.22-.17-.3.25.21-.09-.24.14.14-.08-.28L5,1.69l-.09-.32.19.29-.07-.29.14.22-.08-.31.22.28-.09-.28.19.28,0-.35A2,2,0,0,1,5.78,2,2,2,0,0,0,4.17,3.7,3.35,3.35,0,0,0,4.07,5.1Z"/><path class="cls-20" d="M4,3.75A2.12,2.12,0,0,1,5.73,1.8l.14.47A1.62,1.62,0,0,0,4.25,3.8Z"/><path class="cls-25" d="M4.25,3.8A1.62,1.62,0,0,1,5.87,2.27"/><path class="cls-26" d="M4.09,3.69A2,2,0,0,1,5.75,2"/><path class="cls-27" d="M4.07,3.76A2,2,0,0,1,5.78,1.94"/><polyline class="cls-25" points="5.85 2.23 5.63 2.03 5.57 2.29 5.29 2.13 5.17 2.42 4.94 2.32 4.9 2.57 4.64 2.55 4.6 2.83 4.4 2.89 4.42 3.1 4.22 3.22 4.28 3.45 4.11 3.6 4.17 3.78"/><path class="cls-2" d="M4.2,4a1.75,1.75,0,0,1,0,.62A4.53,4.53,0,0,1,4,5.77V5.26a1.48,1.48,0,0,1-.28.46,1.38,1.38,0,0,0,.17-.67l-.09.16a2.16,2.16,0,0,0,0-.57.47.47,0,0,0,0,.2,1,1,0,0,1,0-.29.68.68,0,0,0-.08.24s-.15-.37.12-.54A.17.17,0,0,1,4,4Z"/><path class="cls-28" d="M3.85,3.85a.26.26,0,1,0,.26-.25A.26.26,0,0,0,3.85,3.85Z"/><line class="cls-25" x1="4.11" y1="3.7" x2="4.11" y2="4.01"/><line class="cls-25" x1="4.28" y1="3.85" x2="3.94" y2="3.85"/><path class="cls-17" d="M4.2,4a0,0,0,0,0,0,0,0,0,0,0,0,0,0,0,0,0,0,0,0,0A0,0,0,0,0,4.24,4Z"/><path class="cls-17" d="M4,4A0,0,0,0,0,4,4,0,0,0,0,0,4,4a0,0,0,0,0,0,0Z"/><path class="cls-17" d="M4.2,3.75a0,0,0,0,0,0,0,0,0,0,0,0,0,0,0,0,0,0,0,0,0A0,0,0,0,0,4.24,3.75Z"/><path class="cls-17" d="M4,3.75l0,0a0,0,0,0,0,0,0,0,0,0,0,0,0,0Z"/><path class="cls-24" d="M14,8.48a3.54,3.54,0,0,1-1.24-.23l-.06.18H11.16L11.33,8s.34-.91.47-1.28h0l-.63,1.74H9.58L9.75,8l.37-1-.57,1.5H7V7.81H6.4L6,8.41H4.2L7.05,4.65H8.49l0,2.29L9.1,5.42h1.46A1.67,1.67,0,0,1,11,5.35a.81.81,0,0,1,.64.25,2.18,2.18,0,0,1,.93-.24.88.88,0,0,1,.69.28,1.66,1.66,0,0,1,.26-.39,2.4,2.4,0,0,1,1.6-.63h0A3.08,3.08,0,0,1,16.44,5l.33.18-.18.28h0a5.62,5.62,0,0,1,.7-.11h.3a2.45,2.45,0,0,1,1.13.22.86.86,0,0,1,.2.18l.13-.33h.35a1.48,1.48,0,0,1,.75-.75A2.08,2.08,0,0,1,21,4.44a4.33,4.33,0,0,1,.59,0l.39.09-.31.88a2.42,2.42,0,0,1,.94-.18h0a1.24,1.24,0,0,1,.95.37,1,1,0,0,1,.24.83,1.63,1.63,0,0,1-.23.7l-.45,1-.16,0a5.75,5.75,0,0,1-1.22.19h-.21c-.92-.09-1.17-.58-1.22-1a1.67,1.67,0,0,1,.17-.92h0L19.83,8.4H18.35l0,0H16.74v0l-.29,0a1,1,0,0,1-.9-.43,1.91,1.91,0,0,1-.86.4A3.08,3.08,0,0,1,14,8.48ZM13.32,7a1.65,1.65,0,0,0,.8.28,1.74,1.74,0,0,1-.76-.54h0l-.08.22Zm1.5-1.09.27.13a1.58,1.58,0,0,1,.84.65l0,0,.29-.75L16,6.32l-.3-.25a1.13,1.13,0,0,0-.57-.24h0A.63.63,0,0,0,14.82,5.88Z"/><path class="cls-24" d="M14,8.41a3.39,3.39,0,0,1-1.25-.24h0l-.07.2H11.26L11.4,8s.43-1.16.51-1.39h0a.56.56,0,0,0-.18,0l-.62,1.72H9.68L9.81,8c.31-.88.45-1.25.5-1.4a.38.38,0,0,0-.16,0L9.5,8.35H7.05V7.74H6.37L6,8.34H4.34L7.08,4.72H8.42l.06,2.59.67-1.82h1.42A1.61,1.61,0,0,1,11,5.42a.74.74,0,0,1,.62.27,2.2,2.2,0,0,1,.95-.26.78.78,0,0,1,.71.35,1.43,1.43,0,0,1,.29-.48,2.32,2.32,0,0,1,1.55-.61h0A3.1,3.1,0,0,1,16.41,5l.26.15L16,6.22,15.72,6a1.25,1.25,0,0,0-.62-.26h0c-.27,0-.35.1-.35.13s0,.06.35.18a1.45,1.45,0,0,1,.84.7l.12-.1.46-1.16.13,0a4.19,4.19,0,0,1,.69-.11h.29a2.26,2.26,0,0,1,1.09.21.75.75,0,0,1,.26.27l.16-.41h.35a1.44,1.44,0,0,1,.72-.76A2.19,2.19,0,0,1,21,4.51a4.1,4.1,0,0,1,.58,0l.31.07-.35,1a2.38,2.38,0,0,1,1.07-.25h0a1.15,1.15,0,0,1,.9.34,1,1,0,0,1,.22.79,1.62,1.62,0,0,1-.22.66l-.44,1L23,8.2a5,5,0,0,1-1.2.19h-.2c-.87-.08-1.12-.54-1.16-.92a1.67,1.67,0,0,1,.22-1h-.21l-.67,1.85H18.33L19,6.48H19v0c-.07.21-.48,1.33-.6,1.67l-.08.2H16.84l0,0-.1,0-.3,0a.88.88,0,0,1-.86-.45v0a1.87,1.87,0,0,1-.9.45A3,3,0,0,1,14,8.41ZM13.28,7a1.68,1.68,0,0,0,.87.3h0a.7.7,0,0,0,.24,0l-.14,0a1.68,1.68,0,0,1-.95-.69.83.83,0,0,1,0,.12v0s0,.12-.1.26ZM22,7.28l0,0h.14l.21,0Zm-4.78,0-.07,0h-.05Zm4.11-1.52.1-.07-.08,0Z"/><path class="cls-2" d="M13,6.61c0,.08-.55,1.47-.55,1.47h-.82s.44-1.18.52-1.41.05-.4-.32-.35a.75.75,0,0,0-.37.14l-.58,1.63h-.83s.47-1.33.52-1.49,0-.32-.3-.29a1.06,1.06,0,0,0-.36.12L9.32,8.08H8.5l.85-2.31h.84L10.1,6s1.25-.74,1.44.08c.84-.52,1.52-.47,1.59,0A1.22,1.22,0,0,1,13,6.61ZM15,6.33c-.38-.15-.53-.27-.53-.45s.19-.37.63-.39a1.39,1.39,0,0,1,.83.32l.38-.55A2.52,2.52,0,0,0,15.2,5a2,2,0,0,0-1.39.53.87.87,0,0,0-.22.93,1.41,1.41,0,0,0,.8.55c.32.11.42.2.43.28s0,.32-.62.34a1.94,1.94,0,0,1-1.08-.35l-.24.66a3,3,0,0,0,1.76.16,1.21,1.21,0,0,0,1-.9C15.75,6.73,15.35,6.48,15,6.33Zm3.73.09L18.09,8.1h-.84l.1-.26a2.44,2.44,0,0,1-.64.23c-.32.07-.74,0-.85-.26a.81.81,0,0,1,.34-.91,2.67,2.67,0,0,1,1.66-.4c.07-.22-.07-.36-.49-.36a3.25,3.25,0,0,0-.89.16l.22-.56a4.46,4.46,0,0,1,.64-.1,2.5,2.5,0,0,1,1.21.16C18.8,6,18.78,6.19,18.7,6.42ZM17.7,7a1.52,1.52,0,0,0-.62.07c-.36.11-.52.41-.27.54s.68-.11.68-.11ZM21.07,5.7h-.65a.6.6,0,0,1,.31-.33,1,1,0,0,1,.64,0l.19-.52a2.36,2.36,0,0,0-1.26.08,1.29,1.29,0,0,0-.65.78H19.3l-.2.51h.35l-.71,1.84h.85l.62-1.71.05-.13h.65Zm2.45.75a1.27,1.27,0,0,1-.19.56H21.52s-.09.46.5.56a1.79,1.79,0,0,0,1.09-.26h.09l-.27.63a4.38,4.38,0,0,1-1.3.17c-.53,0-.86-.27-.91-.68a1.59,1.59,0,0,1,.46-1.2,2.05,2.05,0,0,1,1.49-.6C23.39,5.64,23.57,6.06,23.52,6.45Zm-1-.32a.91.91,0,0,0-.77.45h1S22.9,6.12,22.48,6.13ZM8.15,5l.08,3.08h-.9V7.47H6.23l-.42.59H4.9L7.23,5Zm-.8.87-.7,1h.69Z"/></g></g></svg>