<svg xmlns="http://www.w3.org/2000/svg" viewBox="0 0 15.29 11.8"><defs><style>.cls-1{font-size:1.37px;font-family:BigBearBoldBold;}.cls-1,.cls-5{fill:#fff;}.cls-2{letter-spacing:-0.06em;}.cls-3{letter-spacing:0em;}.cls-4{letter-spacing:0em;}.cls-6{fill:#ed1c24;}.cls-7{fill:#f7941d;}.cls-8{fill:#00a651;}</style></defs><g id="Layer_2" data-name="Layer 2"><g id="Layer_1-2" data-name="Layer 1"><text class="cls-1" transform="translate(1.15 11.45)">P<tspan class="cls-2" x="0.73" y="0">T</tspan><tspan x="1.33" y="0">. CIT</tspan><tspan class="cls-3" x="3.71" y="0">R</tspan><tspan class="cls-4" x="4.45" y="0">A FOOD ABADI</tspan></text><path class="cls-5" d="M2.17,3.58a2.44,2.44,0,0,0-.62.87,2.7,2.7,0,0,0-.22,1.07,2.6,2.6,0,0,0,.23,1.11,2.33,2.33,0,0,0,.67.89A2.25,2.25,0,0,0,3.17,8a3.56,3.56,0,0,0,1.09.14,5.92,5.92,0,0,0,.76,0A4.23,4.23,0,0,0,5.73,8a.25.25,0,0,0,.15-.15l.34-1v.22a1.19,1.19,0,0,1,0,.39A.31.31,0,0,1,6,7.67a.23.23,0,0,0,.13.42h0l1.9,0a.24.24,0,0,0,.22-.15.24.24,0,0,0-.06-.25A.66.66,0,0,1,8,7.38a2.16,2.16,0,0,1,0-.54V6a1.14,1.14,0,0,1,.28,0s0,0,0,0a.23.23,0,0,0,.22.17h0A.23.23,0,0,0,8.79,6V5a.23.23,0,0,0-.23-.24h0l-.09,0a.41.41,0,0,1-.17,0H8V4.16h.19a1.36,1.36,0,0,1,.4,0,.35.35,0,0,1,.16.14.24.24,0,0,0,.27.1.23.23,0,0,0,.16-.23l0-1A.23.23,0,0,0,9,3,.27.27,0,0,0,8.8,3a.1.1,0,0,1-.07,0H8.61L6.16,3a.22.22,0,0,0-.22.17.22.22,0,0,0,.1.26.25.25,0,0,1,.13.14,1,1,0,0,1,0,.41V6.66a.22.22,0,0,0,0-.08.26.26,0,0,0-.27,0,3.7,3.7,0,0,1-.73.32A2,2,0,0,1,4.49,7a1.11,1.11,0,0,1-.94-.4,1.72,1.72,0,0,1-.34-1.12,1.94,1.94,0,0,1,.26-1,.79.79,0,0,1,.74-.34,1.86,1.86,0,0,1,1,.32.23.23,0,0,0,.36-.2l0-1A.22.22,0,0,0,5.36,3L4.3,2.9h0a4.24,4.24,0,0,0-1.14.15A2.6,2.6,0,0,0,2.17,3.58Z"/><path class="cls-5" d="M15.29,5.44a3.81,3.81,0,0,0-2.2-3.31h0a1.34,1.34,0,0,0,0-.56,1.21,1.21,0,0,0-.63-.75.19.19,0,0,0-.19,0,.2.2,0,0,0-.14.14h0A.51.51,0,0,0,12,.78a1.24,1.24,0,0,0-.81-.56A.22.22,0,0,0,11,.27a.22.22,0,0,0-.08.13h0A1.23,1.23,0,0,0,10,0h0A.23.23,0,0,0,9.8.08a.25.25,0,0,0-.05.19.09.09,0,0,0,0,0l-.08,0A1.39,1.39,0,0,0,8.59.43a.22.22,0,0,0-.12.15.25.25,0,0,0,0,.19,1.53,1.53,0,0,0,.66.48,1.11,1.11,0,0,0-.3.31.21.21,0,0,0,0,.19s0,0,0,0H3.66A3.76,3.76,0,0,0,0,5.44a1.93,1.93,0,0,0,0,.24v.26A3.89,3.89,0,0,0,3.89,9.83H11.4a3.89,3.89,0,0,0,3.89-3.89v-.5Z"/><path class="cls-6" d="M5.66,7.78A3,3,0,0,1,5,7.91a5.7,5.7,0,0,1-.74,0,3.63,3.63,0,0,1-1-.13,2.2,2.2,0,0,1-.84-.47,2.2,2.2,0,0,1-.62-.81,2.52,2.52,0,0,1,0-2,2.09,2.09,0,0,1,.57-.8,2.33,2.33,0,0,1,.88-.47,3.79,3.79,0,0,1,1.07-.15l1.06.09,0,1a2.08,2.08,0,0,0-1.18-.36,1,1,0,0,0-.94.45A2.16,2.16,0,0,0,3,5.46a2,2,0,0,0,.39,1.26,1.32,1.32,0,0,0,1.12.49,2.67,2.67,0,0,0,.75-.11A4.22,4.22,0,0,0,6,6.76Z"/><path class="cls-6" d="M8.63,4a1.46,1.46,0,0,0-.46,0H7.75V5.07h.51a.79.79,0,0,0,.26,0h0V6h0a.28.28,0,0,0-.2-.22,2.33,2.33,0,0,0-.43,0H7.75V6.84a2.9,2.9,0,0,0,0,.6.91.91,0,0,0,.26.4l-1.9,0a.58.58,0,0,0,.24-.32,1.89,1.89,0,0,0,.06-.45V4a1.5,1.5,0,0,0-.07-.51.59.59,0,0,0-.23-.24l2.45,0h.16a.33.33,0,0,0,.14,0l0,1A.53.53,0,0,0,8.63,4Z"/><path class="cls-6" d="M13.35,7.39c0-.1-.12-.27-.22-.53v0L11.8,3.24l-1.72,0a.9.9,0,0,1,.2.18.35.35,0,0,1,.07.23.79.79,0,0,1,0,.23c0,.11-.07.21-.11.33L9.23,7A2.19,2.19,0,0,1,9,7.5a2,2,0,0,1-.28.36l1.43,0A.66.66,0,0,1,10,7.62a.31.31,0,0,1,0-.17A.64.64,0,0,1,10,7.21c0-.09,0-.17.07-.24h0l0-.11,0-.14h0l.31-.91h0l.46-1.38L11.79,7h0l.05.16.05.12s0,.09,0,.15a.39.39,0,0,1-.07.25,2.41,2.41,0,0,1-.22.2h2.12v0A1.68,1.68,0,0,1,13.35,7.39Z"/><path class="cls-7" d="M9.07,1.69a1.32,1.32,0,0,0,1.55-.3A1.13,1.13,0,0,0,9.07,1.69Z"/><path class="cls-7" d="M10.94,2.45a1.33,1.33,0,0,0,1.51.47A1.13,1.13,0,0,0,10.94,2.45Z"/><path class="cls-7" d="M10,1.93a1.34,1.34,0,0,0,1.58,0A1.14,1.14,0,0,0,10,1.93Z"/><path class="cls-7" d="M10,.23a1.16,1.16,0,0,0,1,1A1,1,0,0,0,10,.23Z"/><path class="cls-7" d="M11.12.45a1.16,1.16,0,0,0,.79,1.12A1,1,0,0,0,11.12.45Z"/><path class="cls-7" d="M12.28,1a1.17,1.17,0,0,0,.46,1.3A1,1,0,0,0,12.28,1Z"/><path class="cls-7" d="M8.7.63A1.34,1.34,0,0,0,10.24,1,1.13,1.13,0,0,0,8.7.63Z"/><path class="cls-7" d="M9.18,5.71a2.58,2.58,0,0,0,.36.21,3,3,0,0,0,.43.19,3,3,0,0,0,.59.13,2.36,2.36,0,0,0,.7,0A2.6,2.6,0,0,0,12,6a1.78,1.78,0,0,0,.65-.47A1.57,1.57,0,0,0,13,4.8,2.26,2.26,0,0,0,13,4a2.9,2.9,0,0,0-.24-.79,3.71,3.71,0,0,0-.4-.67A4,4,0,0,0,11.89,2a4.12,4.12,0,0,0-.9-.59l-.28-.12-.1,0,.1,0a1.82,1.82,0,0,1,.31.07,3.2,3.2,0,0,1,1,.48,3.29,3.29,0,0,1,.58.5A3.42,3.42,0,0,1,13.1,3a3,3,0,0,1,.29.88,2.44,2.44,0,0,1,0,1,2,2,0,0,1-.46.88,2.17,2.17,0,0,1-.37.31,2.91,2.91,0,0,1-1.25.42,3.15,3.15,0,0,1-.77,0,3.45,3.45,0,0,1-.6-.22A2.58,2.58,0,0,1,9.5,6l-.24-.19Z"/><path class="cls-8" d="M15.05,5.45A3.54,3.54,0,0,0,13,2.34a.5.5,0,0,1-.05.13,3.39,3.39,0,0,1,2,3.08h0a3.38,3.38,0,0,1-3.38,3.39H3.77A3.39,3.39,0,0,1,.38,5.55h0A3.39,3.39,0,0,1,3.77,2.16H10L9.82,2H3.67A3.54,3.54,0,0,0,.24,5.45c0,.08,0,.15,0,.23v.26A3.67,3.67,0,0,0,3.89,9.6H11.4a3.66,3.66,0,0,0,3.66-3.66V5.68A1.77,1.77,0,0,0,15.05,5.45Z"/></g></g></svg>