<svg xmlns="http://www.w3.org/2000/svg" xmlns:xlink="http://www.w3.org/1999/xlink" viewBox="0 0 21.43 10.42"><defs><style>.cls-1{fill:none;}.cls-2{fill:#fff;}.cls-3{fill:#231f20;}.cls-4{fill:#d1181f;}.cls-5{clip-path:url(#clip-path);}.cls-6{fill:url(#linear-gradient);}.cls-7{fill:#fff200;}.cls-8{fill:#ffe0b5;}</style><clipPath id="clip-path"><path class="cls-1" d="M18.46,5.61H3A1.82,1.82,0,0,0,3,9.24H18.46a1.82,1.82,0,0,0,0-3.63"/></clipPath><linearGradient id="linear-gradient" x1="-2717.74" y1="574.42" x2="-2717.56" y2="574.42" gradientTransform="matrix(0, -20.35, -20.35, 0, 11699.82, -55294.88)" gradientUnits="userSpaceOnUse"><stop offset="0" stop-color="#ea1c24"/><stop offset="0.41" stop-color="#ea1e24"/><stop offset="0.55" stop-color="#eb2523"/><stop offset="0.66" stop-color="#ed3021"/><stop offset="0.74" stop-color="#ef411f"/><stop offset="0.82" stop-color="#f2571c"/><stop offset="0.88" stop-color="#f57318"/><stop offset="0.94" stop-color="#f99314"/><stop offset="0.99" stop-color="#feb70f"/><stop offset="1" stop-color="#ffbf0e"/></linearGradient></defs><g id="Layer_2" data-name="Layer 2"><g id="Layer_1-2" data-name="Layer 1"><path class="cls-2" d="M18.48,4.53h-4.8v0a.58.58,0,0,0,.07-.42,2,2,0,0,0-.08-.38,1.46,1.46,0,0,0-.14-.21.76.76,0,0,0-.16-.24,1.1,1.1,0,0,0-.26-.81.51.51,0,0,0-.41-.2,2.13,2.13,0,0,0-.32-.42A1,1,0,0,0,12,1.48a1.07,1.07,0,0,0-.24-.14.51.51,0,0,1-.15-.07A2.7,2.7,0,0,0,11.7.75.62.62,0,0,0,11.2,0a1.2,1.2,0,0,0-.64.07c-.58.22-.69.49-.69.49s0,0-.13.18a1.15,1.15,0,0,0,0,.52,1,1,0,0,0-.34.17A.5.5,0,0,0,9,1.69a.72.72,0,0,0-.25.39.61.61,0,0,0-.09.14.93.93,0,0,0-.75.65.79.79,0,0,0,0,.52,1.46,1.46,0,0,0-.29,1.14H3a2.95,2.95,0,1,0,0,5.89H18.48a2.95,2.95,0,1,0,0-5.89"/><path class="cls-3" d="M2.93,10.05a2.59,2.59,0,0,1,0-5.17H18.5a2.59,2.59,0,0,1,0,5.17Z"/><path class="cls-4" d="M3,9.62A2.15,2.15,0,1,1,3,5.33H18.46a2.15,2.15,0,1,1,0,4.29Z"/><g class="cls-5"><rect class="cls-6" x="1.17" y="5.61" width="19.09" height="3.63"/></g><path class="cls-7" d="M3.56,6.51v.55A1,1,0,0,0,3.29,7c-.1,0-.23,0-.24.16s.59.32.56.9c0,.24-.16.65-.87.66a1.29,1.29,0,0,1-.35,0v-.6a1,1,0,0,0,.24.06c.08,0,.25,0,.24-.17s-.51-.35-.52-.82c0-.18.09-.67.82-.68a1.4,1.4,0,0,1,.4,0"/><path class="cls-7" d="M4.78,6.49V7.84c0,.26-.12.3-.18.3S4.42,8,4.42,7.85V6.49H3.79V7.84c0,.26,0,.89.8.89s.82-.62.82-.89V6.49Z"/><polygon class="cls-7" points="5.6 8.68 6.24 8.68 6.35 7.67 6.85 8.68 7.32 7.67 7.46 8.68 8.1 8.68 7.75 6.49 7.25 6.49 6.83 7.45 6.41 6.49 5.9 6.49 5.6 8.68"/><path class="cls-7" d="M9.39,6.43A1.19,1.19,0,0,0,8.17,7.58a1.22,1.22,0,0,0,2.44,0A1.19,1.19,0,0,0,9.39,6.43m0,1.69a.56.56,0,0,1-.57-.54.57.57,0,0,1,1.14,0,.56.56,0,0,1-.57.54"/><path class="cls-2" d="M13.45,6.43a1.19,1.19,0,0,0-1.22,1.15,1.22,1.22,0,0,0,2.44,0,1.19,1.19,0,0,0-1.22-1.15m0,1.69a.56.56,0,0,1-.57-.54A.56.56,0,0,1,13.45,7a.55.55,0,0,1,.57.54.56.56,0,0,1-.57.54"/><path class="cls-2" d="M16,6.43a1.15,1.15,0,1,0,1.22,1.15A1.18,1.18,0,0,0,16,6.43m0,1.69a.56.56,0,0,1-.57-.54A.56.56,0,0,1,16,7a.55.55,0,0,1,.57.54.56.56,0,0,1-.57.54"/><polygon class="cls-2" points="10.8 6.49 10.8 8.67 11.43 8.67 11.43 7.86 11.93 7.86 11.93 7.29 11.43 7.29 11.43 7.07 12.23 7.07 12.12 6.49 10.8 6.49"/><path class="cls-2" d="M18,6.49h-.56V8.67H18c.18,0,1.21-.13,1.24-1.07A1.12,1.12,0,0,0,18,6.49M18,8.09v-1a.51.51,0,0,1,.53.51c0,.46-.53.52-.53.52"/><path class="cls-3" d="M10.48,1.69s-.44-.48-.3-.78.89-.56,1-.35-.24,1.1-.26,1.13"/><path class="cls-8" d="M8.92,2.7a.37.37,0,0,0-.39,0,.41.41,0,0,0,0,.63c.22.18,1-.31.39-.67"/><path class="cls-3" d="M8.92,2.71s0,0,0,0Z"/><polyline class="cls-3" points="8.92 2.71 8.92 2.71 8.92 2.71"/><path class="cls-3" d="M8.94,2.74s0,0,0,0h0"/><polygon class="cls-3" points="8.94 2.72 8.93 2.73 8.95 2.72 8.94 2.72"/><polygon class="cls-3" points="8.94 2.71 8.94 2.72 8.95 2.72 8.95 2.71 8.95 2.71 8.94 2.71"/><path class="cls-3" d="M9,2.76H9s0,0,0,0,0,0,0,0,0,0,0,0,0,0,0,0"/><polyline class="cls-3" points="9.15 3.21 9.15 3.21 9.15 3.21"/><polygon class="cls-3" points="9.06 3.33 9.05 3.33 9.05 3.33 9.06 3.33"/><polyline class="cls-3" points="9.17 3.1 9.18 3.1 9.17 3.1"/><polygon class="cls-3" points="8.46 3.26 8.47 3.25 8.47 3.25 8.46 3.25 8.46 3.26"/><polyline class="cls-3" points="8.93 3.45 8.92 3.46 8.93 3.45"/><polyline class="cls-3" points="9.18 3.05 9.18 3.05 9.18 3.05 9.18 3.05 9.18 3.05"/><polyline class="cls-3" points="9.11 3.31 9.11 3.32 9.11 3.31"/><path class="cls-3" d="M9,2.85H9"/><polyline class="cls-3" points="9.07 2.89 9.06 2.89 9.07 2.89"/><polyline class="cls-3" points="9.08 2.91 9.08 2.91 9.08 2.91"/><path class="cls-3" d="M9,2.86s0,0,0,0h0s0,0,0,0H9"/><path class="cls-3" d="M9.15,3.2h0"/><polyline class="cls-3" points="9.16 3.15 9.16 3.15 9.16 3.15"/><polyline class="cls-3" points="9.2 2.97 9.2 2.97 9.2 2.97"/><polyline class="cls-3" points="9.15 3.16 9.16 3.15 9.15 3.16"/><polyline class="cls-3" points="9.19 3.03 9.19 3.03 9.19 3.03"/><path class="cls-3" d="M8.64,2.8h0"/><path class="cls-3" d="M8.48,3.21h0"/><polyline class="cls-3" points="8.45 3.22 8.45 3.22 8.45 3.22 8.45 3.23 8.45 3.22"/><polyline class="cls-3" points="8.58 2.83 8.58 2.83 8.58 2.83"/><polyline class="cls-3" points="8.84 3.27 8.84 3.26 8.84 3.27"/><polyline class="cls-3" points="8.5 3.27 8.5 3.28 8.5 3.28 8.5 3.27"/><path class="cls-3" d="M8.28,3.06s0,0,0,0h0s0,0,0,0"/><polygon class="cls-3" points="8.65 2.8 8.65 2.8 8.65 2.8 8.65 2.8"/><polyline class="cls-3" points="8.31 2.88 8.31 2.88 8.31 2.88"/><path class="cls-3" d="M8.46,3.25h0s0,0,0,0"/><path class="cls-3" d="M8.28,3.17h0s0,0,0,0,0,0,0,0,0,0,0,0,0,0,0,0h0v0l0,0v0l0,0,0,0,0,0h0l0,0h0l.06,0h.17l.18,0s0,0,0,0h0s0,0,0,0,0,0,0,0H9a0,0,0,0,1,0,0v0s0,0,0,0,0-.05,0-.08H9s0,0,0,0l0,0a0,0,0,0,1,0,0s0,0,0,0h0s0,0,0,0h0s0,0,0,0,0,0,0,0h0s0,0,0,0,0,0,0,0,0,0,0,0h0s0,0,0,0,0,0,0,0,0,0,0,0,0,0,0,0,0,0,0,0,0,0,0,0v0s0,0,0,0,0,0,0,0h0s0,0,0,0h0s0,0,0,0h0s0,0,0,0,0,0,0,0h0s0,0,0,0h0s0,0,0,0h0s0,0,0,0,0,0,0,0h0s0,0,0,0h0s0,0,0,0h0s0,0,0,0h0a0,0,0,0,0,0,0,0,0,0,0,1,0,0h0l0,0a0,0,0,0,1,0,0s0,0,0,0h0v0s0,0,0,0h0l0,0h0s0,0,0,0,0,0,0,0,0,0,0,0h0s0,0,0,0,0,0,0,0,0,0,0,0h0v0h0s0,0,0,0h0s0,0,0,0h0s0,0,0,0,0,0,0,0,0,0,0,0h0a0,0,0,0,0,0,0H9s0,0,0,0H9s0,0,0,0l0,0s0,0,0,0v0H9s0,0,0,0a0,0,0,0,1,0,0s0,0,0,0H9s0,0,0,0,0,0,0,0,0,0,0,0H9s0,0,0,0H9s0,0,0,0,0,0,0,0h0l0,0h0s0,0,0,0,0,0,0,0,0,0,0,0h0a0,0,0,0,0,0,0h0s0,0,0,0,0,0,0,0h0v0s0,0,0,0h0s0,0,0,0,0,0,0,0,0,0,0,0h0s0,0,0,0h0a0,0,0,0,1,0,0s0,0,0,0h0s0,0,0,0h0s0,0,0,0h0s0,0,0,0h0s0,0-.06.05v0H9s0,0-.05.06h0s0,0,0,0l0,0s0,0,0,0h0a.08.08,0,0,0,0,.06s0,0,0,0,0,0,0,0h0s0,0,0,0h0l-.1,0h0s0,0,0,0h0s0,0,0,0,0,0,0,0,0-.05,0,0v0s0,0,0,0v0s0,0,0,0,0,0,0,0,0,0,0,0h0s0,0,0,0h0s0,0,0,0h0s0,0,0,0h0s0,0,0,0,0,0,0,0l0,0s0,0,0,0,0,0,0,0,0,0,0,0h0s0,0,0,0,0,0,0,0H8.46l0,0a0,0,0,0,1,0,0s0,0,0,0,0,0,0,0h0s0,0,0,0,0,0,0,0h0s0,0,0,0a0,0,0,0,1,0,0s0,0,0,0h0s0,0,0,0,0,0,0,0h0l0,0h0s0,0,0,0h0s0,0,0,0l0,0h0s0,0,0,0h0s0,0,0,0h0a0,0,0,0,1,0,0s0,0,0,0,0,0,0,0,0,0,0,0,0,0,0,0h0s0,0,0,0,0,0,0,0h0a0,0,0,0,1,0,0s0,0,0,0h0l0,0s0,0,0,0h0s0,0,0,0h0s0,0,0,0,0,0,0,0,0,0,0,0h0s0,0,0,0h0a0,0,0,0,1,0,0l0,0h0s0,0,0,0v0h0s0,0,0,0,0,0,0,0a0,0,0,0,0,0,0s0,0,0,0h0l0,0h0v0h0s0,0,0,0,0,0,0,0h0v0h0v0h0v0h0s0,0,0,0h0s0,0,0,0,0,0,0,0,0,0,0,0,0,0,0,0,0,0,0,0h0s0,0,0,0h0s0,0,0,0v0s0,0,0,0l0,0v0h0v0l0,0v0a0,0,0,0,0,0,0s0,0,0,0,0,0,0,0h0s0,0,0,0,0,0,0,0,0,0,0,0h0s0,0,0,0h0s0,0,0,0,0,0,0-.05h0a.07.07,0,0,0-.06-.06h0a0,0,0,0,0,0,0s0,0,0,0,0,0,0,0h0s0,0,0,0,0,0,0,0,0,0,0,0h0s0,0,0,0h0s0,0,0,0h0s0,0,0,0a.07.07,0,0,1,0,0l0,0,0,0a.08.08,0,0,0,0,0h0v0s0,0,0,0v0h0v0s0,0,0,0h0s0,0,0,0h0s0,0,0,0,0,0,0,0h0s0,0,0,0l0,0s0,0,0,0h0s0,0,0,0h0s0,0,0,0h0s0,0,0,0h0s0,0,0,0h0s0,0,0,0h0s0,0,0,0h0s0,0,0,0a0,0,0,0,1,0,0h0s0,0,0,0M9.19,3h0s0,0,0,0m0,.11s0,0,0,0a0,0,0,0,0,0,0h0s0,0,0,0h0M9.07,2.9Zm0,0h0m0,.09s0,0,0,0h0m-.43.34v0s0,0,0,0h0m-.25-.12s0,0,0,0h0s0,0,0,0"/><polyline class="cls-3" points="8.54 3.26 8.54 3.26 8.54 3.26"/><path class="cls-3" d="M8.43,3.22h0"/><path class="cls-3" d="M9,2.72H9s0,0,0,0H9"/><polygon class="cls-3" points="8.97 2.79 8.96 2.8 8.97 2.8 8.97 2.79"/><path class="cls-3" d="M9,2.89H9s0,0,0,0"/><path class="cls-3" d="M9.09,2.77h0s0,0,0,0,0,0,0,0"/><path class="cls-3" d="M9,2.91s0,0,0,0,0,0,0,0"/><path class="cls-3" d="M9.14,2.82s0,0,0,0,0,0,0,0"/><path class="cls-3" d="M9.09,2.92s0,0,0,0h0a0,0,0,0,1,0,0h0"/><path class="cls-3" d="M9.15,2.83a0,0,0,0,0,0,0s0,0,0,0h0"/><path class="cls-3" d="M9.07,3h0s0,0,0,0"/><path class="cls-3" d="M9.15,2.87h0a0,0,0,0,1,0,0h0s0,0,0,0"/><path class="cls-3" d="M9.18,2.89h0s0,0,0,0"/><path class="cls-3" d="M9.17,2.91h0"/><path class="cls-3" d="M9.07,3.06h0"/><path class="cls-3" d="M9.21,3.07s0,0,0,0,0,0,0,0"/><polyline class="cls-3" points="9.21 3.1 9.21 3.1 9.21 3.1"/><polyline class="cls-3" points="9.07 3.36 9.07 3.36 9.07 3.36"/><path class="cls-3" d="M9.08,3.35a0,0,0,0,0,0,0,0,0,0,0,1,0,0h0"/><path class="cls-3" d="M9,3.39s0,0,0,0H9"/><path class="cls-3" d="M8.63,3.3h0"/><polygon class="cls-3" points="8.62 3.31 8.62 3.31 8.62 3.3 8.62 3.31"/><polyline class="cls-3" points="8.61 3.29 8.61 3.29 8.61 3.29"/><path class="cls-3" d="M8.61,3.29Z"/><polyline class="cls-3" points="8.61 3.29 8.62 3.28 8.61 3.29 8.61 3.29"/><path class="cls-3" d="M8.61,3.29h0s0,0,0,0h0"/><path class="cls-3" d="M8.6,3.29s0,0,0,0,0,0,0,0,0,0,0,0,0,0,0,0"/><polyline class="cls-3" points="8.58 3.31 8.59 3.31 8.58 3.31 8.58 3.31 8.58 3.31"/><polygon class="cls-3" points="8.57 3.28 8.58 3.27 8.57 3.27 8.57 3.28"/><path class="cls-3" d="M8.57,3.26h0"/><path class="cls-3" d="M8.56,3.24s0,0,0,0h0s0,0,0,0"/><path class="cls-3" d="M8.5,3.22h0Z"/><path class="cls-3" d="M8.44,3.25s0,0,0,0h0"/><path class="cls-3" d="M8.52,3.2h0"/><path class="cls-3" d="M8.51,3.19h0a0,0,0,0,0,0,0l0,0s0,0,0,0h0"/><path class="cls-3" d="M8.47,3.23h0s0,0,0,0"/><polygon class="cls-3" points="8.48 3.15 8.47 3.14 8.47 3.14 8.48 3.15"/><polygon class="cls-3" points="8.48 3.14 8.49 3.14 8.48 3.13 8.48 3.14"/><polygon class="cls-3" points="8.49 3.13 8.49 3.13 8.49 3.14 8.49 3.13"/><path class="cls-3" d="M8.49,3.11h0s0,0,0,0a0,0,0,0,1,0,0"/><path class="cls-3" d="M8.27,3h0"/><path class="cls-3" d="M8.29,3h0s0,0,0,0,0,0,0,0Z"/><path class="cls-3" d="M8.38,2.8s0,0,0,0v0h0v0h0s0,0,0,0"/><path class="cls-3" d="M8.86,2.71v0"/><path class="cls-8" d="M12.39,2.7a.35.35,0,0,1,.38,0,.4.4,0,0,1,0,.63c-.22.18-1-.31-.38-.67"/><path class="cls-3" d="M12.38,2.69h0Z"/><polyline class="cls-3" points="12.38 2.69 12.37 2.69 12.38 2.69"/><path class="cls-3" d="M12.34,2.7s0,0,0,0,0,0,0,0"/><polygon class="cls-3" points="12.36 2.71 12.35 2.7 12.35 2.71 12.36 2.71"/><polyline class="cls-3" points="12.36 2.71 12.36 2.71 12.36 2.71 12.36 2.72 12.36 2.71 12.36 2.71"/><path class="cls-3" d="M12.31,2.71h0s0,0,0,0,0,0,0,0,0,0,0,0,0,0,0,0"/><polyline class="cls-3" points="12.27 3.13 12.27 3.13 12.27 3.13"/><polygon class="cls-3" points="12.36 3.2 12.36 3.21 12.36 3.21 12.36 3.2"/><polyline class="cls-3" points="12.21 3.08 12.21 3.07 12.21 3.08"/><polygon class="cls-3" points="12.89 3.29 12.89 3.29 12.89 3.29 12.89 3.29 12.89 3.29"/><polyline class="cls-3" points="12.48 3.25 12.49 3.25 12.48 3.25"/><polygon class="cls-3" points="12.19 3.04 12.2 3.04 12.2 3.04 12.19 3.04 12.19 3.04"/><polyline class="cls-3" points="12.35 3.16 12.35 3.17 12.35 3.16"/><path class="cls-3" d="M12.2,2.79h0"/><polyline class="cls-3" points="12.16 2.84 12.16 2.83 12.16 2.84"/><polyline class="cls-3" points="12.14 2.87 12.14 2.87 12.14 2.87"/><path class="cls-3" d="M12.19,2.8s0,0,0,0h0v0h0s0,0,0,0"/><path class="cls-3" d="M12.27,3.13h0"/><polyline class="cls-3" points="12.23 3.11 12.23 3.11 12.23 3.11"/><polyline class="cls-3" points="12.21 2.98 12.21 2.98 12.21 2.98"/><polyline class="cls-3" points="12.23 3.11 12.23 3.11 12.23 3.11"/><polyline class="cls-3" points="12.2 3.02 12.2 3.02 12.2 3.02"/><path class="cls-3" d="M12.77,2.6h0s0,0,0,0h0v0h0"/><path class="cls-3" d="M12.94,3.26h0s0,0,0,0l0,0h0"/><polyline class="cls-3" points="12.92 3.25 12.92 3.25 12.91 3.25 12.91 3.25 12.92 3.25"/><polyline class="cls-3" points="12.87 2.69 12.88 2.69 12.87 2.69"/><polyline class="cls-3" points="12.38 3.43 12.38 3.43 12.38 3.43"/><polyline class="cls-3" points="12.88 3.33 12.88 3.33 12.88 3.33 12.88 3.33"/><path class="cls-3" d="M12.82,3.06h0"/><polygon class="cls-3" points="12.76 2.59 12.76 2.59 12.76 2.59 12.76 2.59"/><polyline class="cls-3" points="12.79 2.96 12.79 2.95 12.79 2.96"/><path class="cls-3" d="M12.9,3.27l0,0h0s0,0,0,0"/><path class="cls-3" d="M12.8,3.12h0a0,0,0,0,1,0,0,0,0,0,0,0,0,0s0,0,0,0,0,0,0,0h0l0,0a0,0,0,0,1,0,0v0h-.15l-.11,0,0,0s0,0,0,0v0s0,0,0,0h0a0,0,0,0,0,0,0s0,0,0,0a.11.11,0,0,1-.07,0h0s0,0,0,0,0,0,0,0,0,0,0,0v0h0s0,0,0,0v0s0,0,0,0,0,0,0,0h0s0,0,0,0,0,0,0,0l0,0s0,0,0,0,0,0,0,0,0,0,0,0h0s0,0,0,0h0s0,0,0,0h0s0,0,0,0h0v0s0,0,0,0h0s0,0,0,0,0,0,0,0h0s0,0,0,0h0s0,0,0,0h0s0,0,0,0h0s0,0,0,0h0s0,0,0,0h0v0s0,0,0,0h0s0,0,0,0h0s0,0,0,0h0s0,0,0,0l0,0h0a0,0,0,0,1,0,0s0,0,0,0,0,0,0,0,0,0,0,0,0,0,0,0h0s0,0,0,0h0s0,0,0,0h0s0,0,0,0,0,0,0,0v0h0s0,0,0,0,0,0,0,0,0,0,0,0h0s0,0,0,0h0s0,0,0,0,0,0,0,0,0,0,0,0h0s0,0,0,0h0s0,0,0,0,0,0,0,0h0v0s0,0,0,0,0,0,0,0a0,0,0,0,1,0,0v0h0s0,0,0,0h0s0,0,0,0,0,0,0,0h0l0,0h0s0,0,0,0h0v0h0l0,0s0,0,0,0,0,0,0,0h0s0,0,0,0h0l0,0s0,0,0,0,0,0,0,0h0s0,0,0,0h0s0,0,0,0h0V3s0,0,0,0h0s0,0,0,0h0s0,0,0,0h0v0h0s0,0,.05,0h0s0,0,0,0h0l0,.1h0v0a.24.24,0,0,0,.08.06s0,0,0,0,0,0,.06,0,0,0,0,0,0,0,0,0h0l0,0s0,0,.07,0,0,0,0,0,0,0,0,0h0a0,0,0,0,0,0,0s0,0,0,0,0,0,0,0l.14,0s0,0,0,0,0,0,0,0h0s0,0,.05,0,0,0,0,0,0,0,0,0v0h0s0,0,0,0,0,0,0,0,0,0,0,0,0,0,0,0h0s0,0,0,0h0s0,0,0,0h0s0,0,0,0h0s0,0,0,0,0,0,0-.05,0,0,0,0,0,0,0,0v0s0,0,0,0h0s0,0,0,0h0a0,0,0,0,1,0,0s0,0,0,0l0,0s0,0,0,0,0,0,0,0,0,0,0,0h0a.08.08,0,0,0,0,0s0,0,0,0,0,0,0,0,0,0,0,0h0s0,0,0,0h0s0,0,0,0h0s0,0,0,0a0,0,0,0,1,0,0h0a0,0,0,0,1,0,0h0s0,0,0,0h0s0,0,0,0h0s0,0,0,0h0s0,0,0,0h0s0,0,0,0,0,0,0,0,0,0,0,0,0,0,0,0,0,0,0,0,0,0,0,0h0s0,0,0,0,0,0,0,0h0s0,0,0,0v0s0,0,0,0,0,0,0,0a0,0,0,0,1,0,0,0,0,0,0,1,0,0v0h0s0,0,0,0h0s0,0,0,0h0a0,0,0,0,0,0,0s0,0,0,0,0,0,0,0a0,0,0,0,1,0,0,0,0,0,0,1,0,0h0s0,0,0,0h0s0,0,0,0V3h0a0,0,0,0,1,0,0s0,0,0,0a0,0,0,0,0,0,0h0s0,0,0,0,0,0,0,0,0,0,0,0a0,0,0,0,1,0,0h0l0,0h0s0,0,0,0l0,0h0a0,0,0,0,0,0,0s0,0,0,0h0s0,0,0,0h-.07s0,0,0,0,0,0,0,0h0s0,0,0,0,0,0,0,0h0s0,0,0,0,0,0,0,0,0,0,0,0,0,0,0,0,0,0,0,0h0s0,0-.06,0h0s0,0,0,0,0,0,0,0l0,0v0s0,0,0,0h0l0,0s0,0,0,0l0,0s0,0,0,0,0,0,0,0,0,0,0,0h0s0,0,0,0,0,0,0,0,0,0,0,0h0s0,0,0,0h0s0,0,0,0,0,0,0,0h0l.07,0h0s0,0,0,0,0,0,0,0,0,0,0,0,0,0,0,0,0,0,0,0,0,0,0,0,0,0,0,0h0s0,0,0,0v0h0s0,0,0,0h0s0,0,0,0h0s0,0,0,0,0,0,0,0l0,0s0,0,0,0,0,0,0,0h0a0,0,0,0,1,0,0h0v0s0,0,0,0,0,0,0,0h0s0,0,0,0h0s0,0,0,0h0s0,0,0,0h0s0,0,0,0,0,0,0,0h0s0,0,0,0,0,0,0,0h0s0,0,0,0h0s0,0,0,0,0,0,0,0,0,0,0,0h0s0,0,0,0M12.2,3h0m0,.08s0,0,0,0v0h0a0,0,0,0,1,0,0s0,0,0,0m0-.21Zm0,.06h0m0,.12s0,0,0,0V3m.55.43v0h0m.22-.23h0"/><polyline class="cls-3" points="12.9 3.38 12.9 3.38 12.9 3.38"/><path class="cls-3" d="M12.9,3.23h0"/><path class="cls-3" d="M12.33,2.77h0a0,0,0,0,0,0,0s0,0,0,0h0"/><polygon class="cls-3" points="12.28 2.71 12.27 2.7 12.27 2.71 12.28 2.71"/><path class="cls-3" d="M12.15,2.78h0"/><path class="cls-3" d="M12.28,2.83h0a0,0,0,0,0,0,0h0"/><path class="cls-3" d="M12.13,2.81s0,0,0,0,0,0,0,0"/><path class="cls-3" d="M12.25,2.88s0,0,0,0h0"/><path class="cls-3" d="M12.14,2.89v0h0v0h0s0,0,0,0"/><path class="cls-3" d="M12.25,2.89h0s0,0,0,0h0s0,0,0,0"/><path class="cls-3" d="M12.1,2.91h0s0,0,0,0a.06.06,0,0,0,0,0"/><path class="cls-3" d="M12.21,2.9h0s0,0,0,0h0s0,0,0,0"/><path class="cls-3" d="M12.22,2.93h0"/><path class="cls-3" d="M12.21,2.93h0l0,0"/><path class="cls-3" d="M12.1,3.11h0s0,0,0,0"/><path class="cls-3" d="M12.23,3h0"/><polyline class="cls-3" points="12.24 3.06 12.24 3.05 12.24 3.06"/><polyline class="cls-3" points="12.38 3.18 12.38 3.18 12.38 3.18"/><path class="cls-3" d="M12.37,3.18h0"/><path class="cls-3" d="M12.41,3.21s0,0,0,0a0,0,0,0,0,0,0"/><path class="cls-3" d="M12.71,3.52s0,0,0,0,0,0,0,0"/><polygon class="cls-3" points="12.73 3.5 12.73 3.5 12.74 3.51 12.73 3.5"/><polyline class="cls-3" points="12.79 3.5 12.79 3.5 12.79 3.5"/><polyline class="cls-3" points="12.79 3.5 12.79 3.5 12.79 3.5"/><polyline class="cls-3" points="12.78 3.5 12.78 3.51 12.79 3.5 12.78 3.5"/><path class="cls-3" d="M12.81,3.49h0s0,0,0,0h0Z"/><path class="cls-3" d="M12.84,3.46s0,0,0,0,0,0,0,0,0,0,0,0,0,0,0,0"/><path class="cls-3" d="M12.82,3.44h0"/><polygon class="cls-3" points="12.87 3.42 12.88 3.42 12.88 3.42 12.87 3.42"/><path class="cls-3" d="M12.89,3.41h0"/><path class="cls-3" d="M12.93,3.39s0,0,0,0h0a0,0,0,0,1,0,0"/><path class="cls-3" d="M12.94,3.29h0Z"/><path class="cls-3" d="M12.89,3.26s0,0,0,0h0"/><path class="cls-3" d="M13,3.29s0,0,0,0,0,0,0,0"/><path class="cls-3" d="M13,3.27h0s0,0,0,0h0s0,0,0,0h0s0,0,0,0"/><path class="cls-3" d="M12.92,3.27h0a0,0,0,0,1,0,0s0,0,0,0"/><polygon class="cls-3" points="12.99 3.19 12.99 3.18 12.99 3.18 12.99 3.19"/><polygon class="cls-3" points="13 3.18 13 3.19 13 3.17 13 3.18"/><polygon class="cls-3" points="13.01 3.17 13.01 3.17 13.01 3.18 13.01 3.17"/><path class="cls-3" d="M13,3.14h0s0,0,0,0h0"/><path class="cls-3" d="M12.8,3h0"/><path class="cls-3" d="M12.83,3h0a0,0,0,0,1,0,0s0,0,0,0Z"/><path class="cls-3" d="M12.79,2.88h0s0,0,0,0h0s0,0,0,0"/><path class="cls-3" d="M12.43,2.65s0,0,0,0a0,0,0,0,0,0,0"/><path class="cls-8" d="M10.74,4,13,3.54s-.67-.43-.79-.77-.3-1-1.45-1h-.11c-1.16,0-1.34.67-1.46,1s-.79.77-.79.77L10.63,4V4h.11Z"/><path class="cls-8" d="M13.24,4.27c0,.92-1.15,1.67-2.57,1.67S8.1,5.19,8.1,4.27s1.15-1.66,2.57-1.66,2.57.75,2.57,1.66"/><path class="cls-3" d="M8.48,3.35h0"/><path class="cls-3" d="M8.59,3.24l-.05,0-.06,0,.06,0,.05,0"/><path class="cls-3" d="M8.47,3.35v0h0l0,0"/><path class="cls-3" d="M8.48,3.34h0"/><path class="cls-3" d="M9,5.39v0Z"/><path class="cls-3" d="M9.05,5.5l0,0,0,0"/><path class="cls-3" d="M8.9,5.34h0"/><path class="cls-3" d="M8.15,4.4l0-.05s0,0,0,.05"/><path class="cls-3" d="M9.46,5.92h0"/><path class="cls-3" d="M9,5.69a0,0,0,0,1,0,0H9Z"/><path class="cls-3" d="M8.82,5.31h0"/><path class="cls-3" d="M9.62,6a0,0,0,0,1,0,0,0,0,0,0,1,0,0"/><polyline class="cls-3" points="9.07 5.52 9.07 5.52 9.07 5.51 9.07 5.52"/><path class="cls-3" d="M8.83,5.59l0,0a0,0,0,0,1,0,0"/><path class="cls-3" d="M8.15,4.4v0"/><path class="cls-3" d="M8.39,3.46h0"/><polyline class="cls-3" points="12.23 5.57 12.24 5.56 12.23 5.57"/><path class="cls-3" d="M11.64,5.75h0"/><path class="cls-3" d="M11.11,6s.09,0,.12,0h0V6l.1,0a.06.06,0,0,1,.06,0V6h0l.11,0,.08,0h0c.1,0,.12-.06.24-.1s0,0,0,0l.06,0s-.06,0,0,0,0,0,0,0h0l0,0s0,0,0,0h0l.06,0,.08,0h0l0,0h-.05l0,0h.07l0,0,0,0,.06,0h0l-.08,0-.08,0h0l-.07,0h0l-.07,0s0,0,0,0h0l-.06,0h0l-.1,0h0l-.07,0h0l-.08,0h0s0,0-.06,0,0,0,0,0,0,0-.09,0,0,0,0,0l-.1,0s0,0-.08,0h0c-.08,0-.13,0-.21,0h0s0,0-.1,0h0s0,0-.07,0-.08,0-.1,0a.24.24,0,0,0-.14,0s0,0,0,0,0,0,0,0,0,0-.09,0,.09-.06,0-.07h0s0,0,0,0,0,0,0,0h-.09s.05,0,.05,0-.15,0-.21,0v0c-.08,0,0,0-.11,0s0,0,0,0,0,0,0,0h0s0,0,0,0v0l-.1-.07-.1,0s0,0,.05,0l-.06,0-.07,0H9.87l-.06,0s0-.07,0-.07,0,0,.05,0-.05,0-.09,0-.08,0-.08,0l0,0s0,0,0,0H9.61s.07.09.09.07,0,0,0,0,0,0-.1,0,0,0,0,0l0,0s-.05,0-.06,0H9.37l0,0s0,0,0,.07,0,0-.06,0,0,0,.06,0,0,0,.06,0,0,.06.06.08,0,0,0,0a.11.11,0,0,0-.09-.07.24.24,0,0,1-.1,0s0,0,0-.05,0,0,0,0h.06c-.07,0,0,0,0,0v0a.07.07,0,0,1-.05,0v0s-.05,0,0,0v0l0,0,0,0c-.07,0,0,0-.08,0s0,0,0,0,0-.11,0-.14H9l0-.06s0,0,0,0h0l0,0s0,0,0,0v0h0l0,0a0,0,0,0,1-.06,0l0,0a.05.05,0,0,0,0,0s0,0,0,0a0,0,0,0,1,0,0h0v0l0,0,0,0s0,.06,0,.06,0,0,0-.05,0,0,0,0,0,0,0,0l0-.06a.14.14,0,0,1,0-.06s0,0,0,0h0s0,0,0,.05h0s0,0,0,0a.21.21,0,0,1,0-.06h0v.06L8.4,5a.22.22,0,0,1-.05-.08.36.36,0,0,1,0-.09l0,0s0,0,0,0,0,.05.06,0v0h0v0s0,0,0,0h0s0-.08-.06-.09v0s0,0,0,0l0-.07s0,0,0,0a.17.17,0,0,1,0,.05s0,0,0,0a.15.15,0,0,1,0,.08.2.2,0,0,1,0,.07s0,0,0,0a.07.07,0,0,0,0,0,.06.06,0,0,0,0,0,.13.13,0,0,0,0-.06l0-.05h0l0,0s.06,0,0-.1l0,0v0a.07.07,0,0,0,0,0l0,0v0s0,0,0,0v-.1a0,0,0,0,1,0,0,.29.29,0,0,1,0-.13s0,0,0-.06a.11.11,0,0,0,0,0s0,0,0,0a.11.11,0,0,0,0,0s0,0,0,0,0-.08,0,0,0-.07,0-.1l0-.05v0a1.51,1.51,0,0,1,.09-.18s0,0,0,0-.05.1-.08.11l0,0,0,0,0,0a.05.05,0,0,1,0,0l0,0h0l0,0,0-.06s0,0,0,0v0l0,0s0,0,0,0h0v0l.06-.08h0l.05-.06h0s0,.06-.05.06,0,0,.05-.06a.45.45,0,0,1-.07.07l0,0,0,0h0l0,0,0,0,0,.06s0,0,0,0a.25.25,0,0,1,0,.07l0,.08,0,.08v0a.09.09,0,0,0,0,0l0,0h0c0,.06,0,0,0,0h0c0,.07,0,0,0,.08s0,0,0,0,0,0,0,0a0,0,0,0,0,0,0v0a.13.13,0,0,0,0,.06l0,0,0,0a.41.41,0,0,0,0,.11v.11a.34.34,0,0,0,0,.1v.1s0,0,0,0,0,.06,0,.09,0,0,0,.06h0a.38.38,0,0,0,0,.1v0h0v0h0l0,.07,0,0,0,0,0,.06a.09.09,0,0,1,0,.06c0-.05,0,0,0,0a.09.09,0,0,0,0,0,.05.05,0,0,0,0,0,.39.39,0,0,0,.08.1s0,0,0,0v0h0s.06.06.09.09.05.06.08.07,0,0,0,0l.14.12h0s0,0,0,0l0,0a.1.1,0,0,0,0,0l.05,0s0,0,0,0,.05,0,.08,0,0,0,0,0,0,0,0,0,0,0,0,0h.05v0s0,0,0,0,0,0,.06,0,0,0,0,0,.05,0,0,0,.13.05.1,0,0,0-.06,0,0,0,.07,0v0h0l.08,0s0,0,.06,0,0,0,0,0V6h.06l0,0,.05,0,0,0a.18.18,0,0,0,.07,0s0,0,.07,0,.06,0,.09,0h.06a.1.1,0,0,1,.09,0h-.08l-.11,0,.15,0a.32.32,0,0,0,.14,0s0,0,0,0,.1,0,.08,0l.06,0,0,0,.05,0h0l.13,0h.12a.53.53,0,0,0,.25,0h0s0,0,0,0h.12s0,0,0,0M9.66,6h0s0,0,0,0M8,4.33H8v0s0,0,0,0M9.71,5.77h0v0Zm.35.08,0,0h0Zm.38.2h0s0,0,.06,0,0,0-.06,0M9.8,6h0s0,0,0,0,0,0,0,0,.07,0,.07,0M9,5.66H9v0H9v0m-.13-.1s0-.06-.07-.08,0,0,0,.07,0,0,0,0M10.08,6V6h0l0,0s.08,0,.1,0-.07-.06-.07,0M8.59,5.34l0-.06s0,0,0,0,0,.07,0,.08l0,0m0,0s0,.06,0,.11,0,0,0,0,0,0,0,0,0,0,0,0Zm0,.11h0s0,0,0,0l0,0h0m-.29-.3h0s0,0,0,0v0s0,0,0,0m.22.23,0,0s0,0,0,0m-.19-.24.05.06s-.05,0-.05-.06M8.14,3.88h0v0h0m-.05.42h0v0Zm.08.37h0a.08.08,0,0,0,0,0s0,0,0,0,0,0,0-.07,0,0,0,0,0-.07,0-.06v.08l0,.06h0m.29.43v0a0,0,0,0,1,0,0s0,0,0,0v0m.07.06,0,0v0h0l0,0s0,0,0,0a.11.11,0,0,1,0,0m0,0v0h0v0l0,0,0,0v0h0m.64.48c.06,0,0-.07,0-.11l0,0s0,0,0,0,0,0-.05,0,0,0,0,0l0,0,0,0h0s.06,0,.08,0m.39.14h.05l-.05,0Zm1.21.14s.06,0,.08,0l-.08,0m.53,0h-.06s.05,0,.08,0,0,0,0,0m.35-.08h0Zm0,0h0m.31-.1h0Zm0,0s0,0-.06,0,0,0,0,0l0,0h0l.05,0h0m-.18.07h0s0,0,0,0h.07s0,0,0,0h0M12,5.69h0s0,0,0,0m-1,.25s0,0,0,0v0H11s0,0,0,0M9.74,5.85s-.07,0-.08,0,.11,0,.08,0m-.12,0s0,0,0,0h0s0,0,0,0h0m.71.13,0,0h0Zm.42,0h.05s0,0-.06,0h0s0,0,0,0h0Zm.72-.1s0,0,0,0h0M10.53,6s0,0,0,0h0s0,0,.06,0h0s0,0,0,0-.07,0-.05,0m1-.12s0,0,.06,0,0,0-.06,0m-.71.16h0Z"/><path class="cls-3" d="M11.54,5.78h0"/><path class="cls-3" d="M9.57,5.65h0"/><polygon class="cls-3" points="9.49 5.61 9.49 5.61 9.49 5.61 9.49 5.61"/><path class="cls-3" d="M8.38,3.48s0,0,0,0a0,0,0,0,1,0,0"/><path class="cls-3" d="M8.31,3.57s0,0,0,0l0,0"/><path class="cls-3" d="M8.36,3.5l0,0v0a0,0,0,0,0,0,0"/><path class="cls-3" d="M8.18,3.85s0,0,0,0v0c0,.08,0,0,0,0s0,0,0,.06"/><path class="cls-3" d="M8.14,4s0,0,0,0a0,0,0,0,1,0,0"/><path class="cls-3" d="M8.14,4a.06.06,0,0,1,0,0s0,0,0-.07,0,0,0,0"/><path class="cls-3" d="M8.31,4.72s0,0,0,0l0,0s0,0,0,0"/><path class="cls-3" d="M8.35,4.87s0,0,0,0l0,0Z"/><path class="cls-3" d="M8.2,4.94h0Z"/><path class="cls-3" d="M8.47,5l0,0s0,0,0,0"/><polygon class="cls-3" points="8.58 5.06 8.57 5.04 8.61 5.09 8.58 5.06"/><polygon class="cls-3" points="8.68 5.18 8.69 5.17 8.71 5.21 8.68 5.18"/><path class="cls-3" d="M10.23,5.84s-.07,0-.09,0,0,0,.09,0"/><path class="cls-3" d="M11.48,5.8h-.06c.05,0,0,0,.06,0"/><polyline class="cls-3" points="12.69 5.26 12.68 5.26 12.69 5.26"/><path class="cls-3" d="M12.64,5.3l0,0,0,0"/><path class="cls-3" d="M12.7,5.26h0"/><polygon class="cls-3" points="12.69 5.26 12.69 5.26 12.7 5.26 12.69 5.26"/><path class="cls-3" d="M13.07,4.39a0,0,0,0,1,0,0Z"/><path class="cls-3" d="M13.14,4.36h0"/><polyline class="cls-3" points="13.07 4.43 13.07 4.42 13.07 4.43"/><path class="cls-3" d="M13,4.9h0s0,0,0,0"/><path class="cls-3" d="M13.36,4.15h0s0,0,0,0"/><path class="cls-3" d="M13.34,4.37h0Z"/><path class="cls-3" d="M13.09,4.47h0"/><path class="cls-3" d="M13.37,4.07h0"/><polyline class="cls-3" points="13.14 4.35 13.14 4.35 13.14 4.35 13.14 4.35"/><path class="cls-3" d="M13.32,4.44h0s0,0,0,0"/><path class="cls-3" d="M13,4.9h0s0,0,0,0"/><path class="cls-3" d="M12.72,5.22h0"/><polyline class="cls-3" points="12.68 3.22 12.68 3.22 12.68 3.22"/><polyline class="cls-3" points="12.82 3.42 12.82 3.43 12.82 3.42"/><path class="cls-3" d="M13.1,3.5s0,0,0,0h0v0h0l0,0s0,0,0,0h0v0h0l0,0,0,0h0l0,0s0,0,0,0,0,0,0,0,0,0,0,0,0,0,0,0,0,0,0,0h0s0,0,0,0h0l0,0h0s0,0,0,0,0,0,0,0h0s0,0,0,0h0l0,0v0h0s0,0,0,0h0v0s0,0,0,0a0,0,0,0,0,0,0v0h0a0,0,0,0,1,0,0h0s0,0,0,0a0,0,0,0,1,0,0h0a0,0,0,0,1,0,0h0s0,0,0,0,0,0,0,0,0,0,0,0,0,0,0,0,0,0,0,0,0,0,0,0h0v0h0s0,0,0,0,0,0,0,.05l0,0s0,0,0,0h0s0,0,0,0,0,0,.08,0,0,.06,0,.06,0,0,0,0,0,0,0,0-.06,0-.06,0h0s0,0,0,0h0v0s0,0,0,0,.07,0,.06.06h0s.06,0,0,0,0,0,0,0h0s0,0,0,0h0s-.07.08-.05.1,0,0,0,0a0,0,0,0,0,0,.06s0,0,0,0-.05,0-.08,0,0,0,0,0,0,0,0,0,0,0,0,0h0s0,0,0,0l0,0s.07,0,0-.05,0,0,.05,0,0,0,0,0-.06,0-.08,0,0,0,0,0a0,0,0,0,0,0,0,0,0,0,0,1,0,0l.06,0s0,0,0,0,0,0,0,0-.05,0,0,0a.07.07,0,0,0,.05,0h.06s0,0,0,0,0,0,0,0-.06,0-.07,0l0,0s0,0,0,0h0l0,0h0s0,0,0,0h0s0,0,0,0h0l0,0h0l0,0h0s.06,0,0,0h0s0,0,0,0,0,0,0,0h0s0,0,0,0h0l-.05,0s0,0,.05,0,0,0,0,0,0,0,0,0,0,0,0,0,0,0-.06,0h0s0,0,0,0,0,0,0,.05h0a0,0,0,0,1,0,.07s0,0-.05,0,0,0,0,0l0,0h0s0,0,0,0,0,0,0,0l0,0s0,0,0,0h0s0,0,.07,0,0,0,0,0-.07,0-.07,0h0v0s-.06,0-.07,0H13s0,0,0,0l0,0h0s0,0,0,0l0,0h0s0,0,0,0,0,0,0,0l-.06.06-.06,0h0a.05.05,0,0,1,0,0s0,0,0,0h0s0,0,0,0h0s0,0-.05,0h0v0h0v0l0,0h0l0,0h0l0,0s0,0,0,0,0,0,.07,0h0l0,0h0s0,0,0,0l0,0,0,0,.05,0h0s0,0,0,0h0s0,0,0,0,0,0,0,0S13,5,13,5L13.07,5l.06-.06h0s0,0,0,0,0,0,0,0,0,0,0,0l0,0h0s0-.06.08-.08,0,0,0,0a.08.08,0,0,0,.08-.07h0l0,0h0l0,0,0,0s0,0,0,0h0s0,0,0,0,0,0,0,0h0l0,0h0s0,0,0,0,0,0,0,0l0,0h0s0,0,0,0,0,0,.06,0l0,0h0c-.06,0,0,0,0,0h0s0,0,0,0v0s0,0,0,0,0,0,0,0,0,0-.05,0h0s0,0,0-.07,0,0,0,0h0V4l0,0s0-.06,0-.08,0,0,0,0,0,0,0,0h0a.05.05,0,0,0,0,0s0,0,0,0a.22.22,0,0,0,.07.06.13.13,0,0,1,0-.06,0,0,0,0,1,0,0l0,0h0s0,0,0,0,0,0,0,0v0h0a.12.12,0,0,1-.06-.08.12.12,0,0,0,0-.1h0v0s0,0,0,0m.25.56h0s0,0,0,0M13,5s0,0,0,0h0m.12-.9h0Zm0-.14h0V4Zm.1-.2h0s0,0,0,0,0,0,0,0m.09.26s0,0,0,0,0,0,0,0,0,0,0,0-.05,0,0,0m0,.37h0Zm0,.06s0,0,0,0,.06,0,.06,0,0,0,0,0m0-.54h0v0s0,0,0-.05,0,0,0,0m0,.67-.06,0s.05,0,.06,0h0m-.06,0,.07,0s0,0-.05,0,0,0,0,0Zm.1,0h0s0,0,0,0v0h0m-.06.16h0s0,0,0,0m0-.13v0s0,0,0,0m-.06.11v0s0,0,0,0m-.32.39h0v0ZM13,5h0Zm.08-.13h0s0,0,0,0h0s-.07,0,0,0,0,0-.05,0a.11.11,0,0,0,0-.06h0m.07-.19h0s0,0,0,0h0m0,0h0s0,0,0,0m0,0h0l0,0Zm.1-.31c-.08,0-.05,0-.09,0s.06,0,.06,0,0,0,0,0l0,0h0s0,0,0,0m0-.16v0ZM13,3.68s0,0,0,0l0,0m-.11-.18v0s0,0,0,0h0m-.08-.11h0v0Zm0,0s0,0,0,0h0Zm-.09-.09h0Zm0,0s0,0,0,0h0s0,0,0,0h0m.05.05h0v0a0,0,0,0,0,0,0h0s0,0,0,0h0m-.05-.08h0s0,0,0,0m.26.32s0,0,0,0h0s0,0,0,0h0m.18.45s0,0,0,0,0,0,0,0m0,0s0,0,0,0,0,0,0,0,0,0,0,0h0m-.07-.28,0,0h0v0h0m0-.17s0,0,0,0,0,0,0,0h0M13,3.41s0,0,0,0,0,0,0,0m.23.32s0,0,0,0h0s0,0,0,0h0s0,0,0,0,0,0,0,0M13,3.4s0,0,0,0,0,0,0,0m.23.2h0v0h0Z"/><polyline class="cls-3" points="12.85 3.45 12.84 3.44 12.85 3.45"/><path class="cls-3" d="M13.08,4.16h0"/><polygon class="cls-3" points="13.07 4.19 13.07 4.19 13.07 4.19 13.07 4.19"/><path class="cls-3" d="M12.73,5.21s0,0,0,0h0"/><path class="cls-3" d="M12.77,5.18h0"/><path class="cls-3" d="M12.74,5.21v0"/><path class="cls-3" d="M12.84,5.09h0s0,0,0,0,0,0,0,0"/><polyline class="cls-3" points="12.87 5.06 12.87 5.07 12.87 5.06"/><path class="cls-3" d="M12.87,5.05h0s0,0,0,0"/><path class="cls-3" d="M13,4.75h0v0"/><path class="cls-3" d="M13,4.71s0,0,0,0l0,0Z"/><polygon class="cls-3" points="13.18 4.79 13.18 4.79 13.18 4.79 13.18 4.79"/><path class="cls-3" d="M13,4.64h0"/><polygon class="cls-3" points="13.02 4.58 13.01 4.59 13.02 4.57 13.02 4.58"/><polygon class="cls-3" points="13.05 4.53 13.04 4.53 13.06 4.52 13.05 4.53"/><path class="cls-3" d="M13.08,3.9s0,0,0,0,0,0,0,0"/><path class="cls-3" d="M12.87,3.47v0s0,0,0,0"/><path class="cls-3" d="M12,2.9h0s0,0,0,0"/><path class="cls-3" d="M12.23,3a.4.4,0,0,1-.11,0l-.1,0,.11,0h.1"/><path class="cls-3" d="M12,2.85h0l0,0"/><path class="cls-3" d="M12,2.89h0"/><path class="cls-3" d="M9.32,3h0Z"/><path class="cls-3" d="M9.11,3h0"/><path class="cls-3" d="M9.47,2.93l0,0,0,0"/><path class="cls-3" d="M10.83,3.1h.08a.06.06,0,0,1-.05,0h0"/><path class="cls-3" d="M9.29,2.35h0s0,0,0,0"/><path class="cls-3" d="M9.16,2.82h0"/><path class="cls-3" d="M9.56,2.83h0l0,0"/><path class="cls-3" d="M9.41,2.19h0"/><polyline class="cls-3" points="9.06 2.98 9.06 2.98 9.07 2.98 9.06 2.98"/><path class="cls-3" d="M9.27,2.8h0"/><path class="cls-3" d="M10.83,3.1h0"/><path class="cls-3" d="M11.83,2.81s0,0,0,0,0,0,0,0"/><path class="cls-3" d="M12.39,2.71h0"/><path class="cls-3" d="M12,1.88h0"/><path class="cls-3" d="M11.16,1.73c.06,0,.1,0,.14.05h0v0l.05,0h.1s0,0,0,0v0h0l0,0,0,0h0l0,0v0h0l0,0,.06.05.05,0,0,0V2l0,0V2s0,0,0,0l0,0,.05,0,0,.05,0,0,0,.05s0,0,0,0,0,.07,0,.08,0-.08,0,0h0a0,0,0,0,1,0,0v0h0l0,0s0,0,0,0,0,0,0,0l0,0,0,0,0,0a.14.14,0,0,1,0,.07l0,0h0s0,0,0,0V2.55s0,0,0,.06v0a0,0,0,0,0,0,0v0h0s0,0,0,0,0,0,0,0v0h0l0,0s0-.12,0-.08l0,.08s0,0,0,0v0a.28.28,0,0,1,0-.09V2.51h0s0,0,0,0,0-.06,0-.12v0h0s0,0,0,0a.08.08,0,0,1,0-.05s0,0,0-.06,0,0,0,0a.16.16,0,0,0,0-.08s0-.06,0-.09v0l0,0,0,0a.25.25,0,0,1,0-.07v0l0,0,0,0s0,0,0-.09V2l0,0,0,0s0,0,0,0,0,0,0,0a.05.05,0,0,0,0,0l-.06,0s0,0,0,.07,0-.07-.09-.11,0,0,0,0a.08.08,0,0,1,0,0l0,0,0,0h-.1l0,0a.08.08,0,0,1,0,0h.05l0,0h0s0,0,0,0l-.07,0,0,0,0,0a.35.35,0,0,0-.15-.07s0,0,0,0,0-.07-.13-.07v0s-.05,0,0,0-.06,0-.11,0H11l-.06,0a.4.4,0,0,0-.21,0c-.05,0,0,0,0,.06s-.07,0-.13,0,.13-.05,0-.07l0,0h.05s0,0,0,0h-.13s.07,0,.08,0l-.16,0h-.16a.11.11,0,0,0-.06,0l0,0s0,0-.07,0,0,0-.05.05,0,0,0,0-.06,0-.06,0l-.06,0,0,0-.16,0a.34.34,0,0,0-.14.05s.07,0,.1,0a.48.48,0,0,0-.19.09l-.08.07-.08.06s0,0,0,0,0,0,0,0,0,0,0,0l0,0s0,0-.07,0l-.06.07c0,.05-.07.1-.1.09h0V2s-.05,0,0,0v0a.05.05,0,0,0,0,0l0,.06.08-.06a.13.13,0,0,0,0-.07s0,0,0,0,0,0,0,0,0,0,0,0a.14.14,0,0,1,0,.07s0,0,0,0l-.05,0v0l0,0,0,0a.43.43,0,0,0,0,.11s0,0,0,.07l0,0v0S9,2.51,9,2.52s0,.08,0,.09,0,0,0-.06v0s0,0,0,0v0l0,0a.1.1,0,0,0,.05,0l0,0,0,0s0,0,0,0,0,0-.05.05l0,.07a.31.31,0,0,1,0,.08l0,.07s0,0,0,0,0,0-.05.09V2.66c0,.06,0,.07,0,.07s0,0,0,.06v0a.15.15,0,0,1,0,.07v0h0v0a.1.1,0,0,1,0,0v0h0s0,0,0,0v0h0V3H9l0,0H9L9,3h.11s0,0,0,0H9.3a0,0,0,0,1,0,0h.11s0,0,0,0h0s0,0,0,0v0l0,0h0l0,0s0,0,0,0h.05a.18.18,0,0,1,.07-.1l0,0,0,0,0,0s0,0,0,0,0,0,0,0h0v0h0a.06.06,0,0,1,0,0s0,0,0,0h0s0,0,0,0h0s0,0,0,0h0l0,0v0h0l0,0a.14.14,0,0,1,0,.06s0,0,0,0h0v0s0,0,0,0v0l0,0s0,0,0,0h0v0h0v0h0v0h0l.05,0s0,0,0,0a1,1,0,0,1,.08.11,1.21,1.21,0,0,0,.15.22s-.06-.07-.08,0l.05.08L10.3,3h0l.07.06.05,0h0s0,0,0,0h0s0,0,0,0h.13a.25.25,0,0,0-.09,0l0,0h0s0,0,0,0A.18.18,0,0,1,10.29,3a.32.32,0,0,1,0-.09s0,0,0,0l0,0a.28.28,0,0,0,.08.12.29.29,0,0,0,.17,0h.06a.11.11,0,0,1,0,0l0,0h0l.05,0a.58.58,0,0,1-.14,0,.14.14,0,0,1,.11,0h.1l0,0,0,0,0,0,0,0,.14-.1s0,0,0,0,0,0,0,0,0,0,0,0l0,0s0,0,0,0,.08-.09,0,0a.76.76,0,0,1,.08-.11l.05-.06,0,0,0,0,.06,0,.06,0a.09.09,0,0,1,.07,0l0,0s0,0,0,0l-.08-.07h-.09a.06.06,0,0,1,.07,0l0,0,0,0,0,0h0l0,0,0,.05h0a.09.09,0,0,1,0,.06.08.08,0,0,1,0,0s0,0,.05.09,0,0,0,0l.05.06a.13.13,0,0,1,0,.07h0l0,0v0h0a.62.62,0,0,0,.08.12v0l0,.05,0,0h0l0,0s0,0,0-.05a.05.05,0,0,1,0,0l0,0,0,0v0h0v0h0s0,0,0,0l0-.05a0,0,0,0,1,0,0l0,0h0v0a.31.31,0,0,1-.07-.09v0h0v0a.1.1,0,0,0,0-.05s0,0,0,0l0,0,0,0-.07,0h-.07l-.07,0-.06.05,0,0v0h0l-.08.11,0,0v0c0,.07,0,0-.06,0h0s0,0,0,.06,0,0,0,0l0,0s0,0,0,0L11,2.83l0,0h0l-.09.07a.2.2,0,0,1-.11,0H10.6l-.08,0s0,0,0,0h0a0,0,0,0,0,0,0l-.05,0h0l0,0s0,0,0,0h-.05l0-.05,0,0,0,0,0,0h0l0,0h0l-.11-.16-.06-.08s0,0,0-.05l0,0,0,0,0,0h0s0,0,0,0l0,0s0,0,0,0a.15.15,0,0,0-.1,0,.13.13,0,0,0-.12,0,.29.29,0,0,0-.1.09s0,0,0,0h0l0,0,0,0h0l-.06.07-.06.06s-.07,0-.08.08,0,0,0,0l-.08.07-.1,0h0v0H9.15s0,0,0,0v0h0s0,0,0,0h0c.05,0,0,0,.07,0V2.64h0v0s0,0,0,0,0,0,0,0l0,0,0,0h0s0-.07,0,0a.15.15,0,0,1,0-.08,0,0,0,0,1,0,0s0,0,0,0,0,0,0,.07,0-.06,0-.09h0l0,0,0,0,0,0v0l0,0s0,0,0,0l0,0,0,0,0,0H9.44l.05,0,0,0h.05a.05.05,0,0,0,0,0s0,0,0,0l0,0h0l.05,0,0,0h0l0,0h0l0,0h0l0,0,.06,0,0,0h0l0,0,0,0,0,0h0l0,0a.6.6,0,0,1,.16-.08l.16-.06s-.05,0,0,0,0,0,.06,0,0,0,0,0,0-.05.06-.06h.45l.17,0H11s0,0,0,0,0,0,0,0l.07,0,.06,0s0,0,0,0m-1.73.41,0,0a0,0,0,0,1,0,0h0s0,0,0,0m1.45.78s0,0,0,0h0l.05,0h0M9.29,2V2h0V2M9.7,1.7h0Zm.57,0h.05a0,0,0,0,1,0,0h0M9.52,2s0,0,0,0,0,0,0,0h0s0,0,0,0a0,0,0,0,0,0,0l0,0s0,0,0,0m-.37.85h0m.13,0h.06l.06,0s0,0,0,0l-.06,0,0,0s0,0,0,0M9.8,1.77H9.75s0,0,0,0h0s0,0,0,0m-.2.78,0,0,0,0s.05,0,.05,0,0,0-.05,0,0,0,0,0l0,0m0,0-.05,0-.06,0a.11.11,0,0,1,0,0h0s0,0,0,0Zm-.11,0v.07s0,0,0,0h0v0l0,0s0,0,0,0m.57-.08v0h0s0,0,0,0v0s0,0,0,0m-.48,0,0,0,0,0s0,0,0-.06m.45,0,0,0,0,0h0l0,0h0s0,0,0,0,0,0,0,0l0,0m1.25,0v0l0,0v0h0M11,3V3h0l0,0h0m-.51,0h0a0,0,0,0,1,0,0,0,0,0,0,0,0,0h.06s0,0,0,0h.1s0,0,0,0h0l0,0s0,0,0,0h-.11l-.09,0h0m-.5-.53,0,0s0,0,0,0,0,0,0,0h0s0,0,0,0l0,0m-.11,0h0l0,0h0l0,0h0l0,0h0l-.05,0s0,0,0,0m0,0h0l0,0a.07.07,0,0,0,0,0,.07.07,0,0,1,0,0l0,0h0M9,2.75H9l0,0v0H9v0a.09.09,0,0,1,0,.05H9V2.81a.37.37,0,0,1,0,.08v0H9l0,0a0,0,0,0,1,0,0v0H9v0H9v0H9a0,0,0,0,0,0,0s0,0,0-.06m.2-.55,0,0v0h0v0l0,0Zm1.55-.67s.08,0,.1,0h-.1m.74.13,0,0,0,0s0,0,.05,0l.06,0s0,0,0,0m.44.3h0v0Zm0-.06s0,0,0,0v0Zm.31.38h0v0Zm0,0v0s0,0,0,0h0l0,0s0,0,0,0,0,0,0,0v0s0,0,0,0h0v0s0,0,0,0,0,0,0,0v0M12,2h0s0,0,0,0l0,0s0-.06,0-.08,0,.06,0,.08,0,0,0,0l0,0,0,0s0,0,0,0l0,0H12a0,0,0,0,0,0,0m.17.34v0s0,0,0,0,0,.06,0,0M11,1.57s0,0-.06,0l0,0s0,0,0,0h0s0,0,0,0h0M9.37,2h0l0,0,0,0s0,0,0,0L9.33,2s0,0,0,0m-.09.13s0,0,0,0,0,0,0,0,0,0,.06-.06h0m.83-.53h0m.58,0s.06,0,.07,0h-.08s0,0,0,0h0Zm.94.23s0,0,0,0l0,0m-1.26-.21c.07,0,0,0,0,0h0c.06,0,0,0,.08,0h0s0,0,0,0-.1,0-.08,0m1.3.25s0,0,0,0a0,0,0,0,0,0,0s0,0-.05-.06m-.9-.2h0Z"/><path class="cls-3" d="M11.84,1.79s0,0,0,0l0,0"/><path class="cls-3" d="M9.09,2.22v0"/><polygon class="cls-3" points="9.02 2.33 9.02 2.33 9.01 2.34 9.02 2.33"/><path class="cls-3" d="M11.79,2.8s0,0,0,0,0,0,0,0"/><path class="cls-3" d="M11.71,2.65a.17.17,0,0,0,0,.05.08.08,0,0,1,0-.05"/><path class="cls-3" d="M11.79,2.76a.17.17,0,0,1-.06-.06l.06.06"/><path class="cls-3" d="M11.39,2.49l0,0,0,0,0,0v0h0"/><path class="cls-3" d="M11.29,2.59l0,0s0,0,0,0"/><path class="cls-3" d="M11.28,2.63a.17.17,0,0,1-.07,0s.06,0,.08-.08,0,0,0,0"/><path class="cls-3" d="M10.25,3s0,0,0,0h0l0,0,0,0s0,0,0,0"/><path class="cls-3" d="M10.12,2.78s0,0,0,0h0Z"/><path class="cls-3" d="M10.26,2.71h0Z"/><path class="cls-3" d="M10,2.61v.05s0-.06,0-.05"/><path class="cls-3" d="M9.86,2.55h0"/><path class="cls-3" d="M9.76,2.6h0l0,0,0,0,0,0Z"/><path class="cls-3" d="M9.91,1.57s-.08.05-.1.07,0,0,0,0a.06.06,0,0,0,.06,0"/><path class="cls-3" d="M11.76,1.74h0l0,0,0,0h0s0,0,0,0h0l0,0"/><path class="cls-3" d="M12.34,2.78A1.44,1.44,0,0,0,11,1.55h-.69A1.42,1.42,0,0,0,9,2.78c-.06.25.35.24.6-.11s.25-.33.53,0,.35.37.53.36.28,0,.54-.36.28-.38.53,0,.66.36.61.11"/><polyline class="cls-3" points="9.62 3.31 9.62 3.31 9.62 3.31"/><polyline class="cls-3" points="9.61 3.3 9.61 3.3 9.61 3.3"/><polyline class="cls-3" points="10.36 3.13 10.37 3.13 10.36 3.13"/><polyline class="cls-3" points="10.03 3.33 10.04 3.33 10.03 3.33"/><polyline class="cls-3" points="9.63 3.29 9.63 3.29 9.63 3.29"/><polyline class="cls-3" points="10.38 3.17 10.38 3.17 10.38 3.17"/><polyline class="cls-3" points="9.73 3.32 9.73 3.31 9.73 3.32"/><polyline class="cls-3" points="10.2 3 10.2 3 10.2 3"/><path class="cls-3" d="M10.17,3s0,0,0,0h0s0,0,0,0h0s0,0,0,0h0s0,0,0,0,0,0,0,0h0s0,0,0,0,0,0,0,0h0s0,0,0,0,0,0,0,0V3h0s0,0,0,0,0,0,0,0h0a0,0,0,0,1,0,0s0,0,0,0l0,0s0,0,0,0,0,0,0,0,0,0,0,0,0,0,0,0h0V3l0,0s0,0,0,0h0s0,0,0,0h0s0,0,0,0h0s0,0,0,0,0,0,0,0,0,0,0,0l0,0h0s0,0,0,0,0,0,0,0V3s0,0,0,0h0s0,0,0,0V3s0,0,0,0l0,0h0a0,0,0,0,0,0,0V3h0s0,0,0,0V3s0,0,0,0V3s0,0,0,0,0,0,0,0V3a.06.06,0,0,1,0,0s0,0,0,0,0,0,0,0V3h0s0,0,0,0,0,0,0,0,0,0,0,0,0,0,0,0,0,0,0,0V3h0s0,0,0,0,0-.05,0,0V3h0s0,0,0,0h0s0,0,0,0h0V3h0s0,0,0,0,0,0,0,0,0,0,0,0V3h0s0,0,0,0,0,0,0,0,0,0,0,0h0s0,0,0,0,0,0,0,0h0s0,0,0,0h0s0,0,0,0a0,0,0,0,0,0,0s0,0,0,0l0,0V3s0,0,0,0,0,0,0,0,0,0,0,0h0a0,0,0,0,1,0,0s0,0,0,0h0s0,0,0,0h0s0,0,0,0h0s0,0,0,0,0,0,0,0,0,0,0,0,0,0,0,0,0,0,0,0,0,0,0,0,0,0,0,0v0h0a.23.23,0,0,0,0,0,0,0,0,0,0,0,0s0,0,0,0v0h0v0s0,0,0,0,0,0,0,0h0s0,0,0,0,0,0,0,0v0h0a.08.08,0,0,1,0-.05s0,0,0,0,0,0,0,0,0,0,0,0,0,0,0,0,0,0,0,0,0,0,0,0v0h0s0,0,0,0l0,0a0,0,0,0,1,0,0v0s0,0,0,0,0,0,0,0h0s0,0,0,0l0,0s0,0,0,0v0h0s0,0,0,0l0,0h0s0,0,0,0,0,0,0,0,0,0,0,0l0,0s0,0,0,0h0l0,0s0,0,0,0h0v0s0,0,0,0,0,0,0,.05,0,0,0,0h0s0,0,0,0l0,0h0s0,0,0,0v0s0,0,0,0,0,0,0,0h0s0,0,0,0l-.06-.06s0,0,0,0,0,0,0,0v0h0a0,0,0,0,0,0,0h0s0,0,0,0h0l0,0s0,0,0,0h0s0,0,0,0,0,0,0,0a0,0,0,0,1,0,0s0,0,0,0h0l0,0a0,0,0,0,0,0,0h0s0,0,0,0,0,0,0,0,0,0,0,0h0v0h0l0,0s0,0,0,0a0,0,0,0,1,0,0h0s0,0,0,0l0,0s0,0,0,0h0v0s0,0,0,0v0h0s0,0,0,0a0,0,0,0,0,0,0v0s0,0,0,0l0,0s0,0,0,0l0,0s0,0,0,0h0s0,0,0,0h0a.1.1,0,0,0,0,0l0-.05s0,0,0,0l0,0s0,0,0,0h0l0-.05h0a.1.1,0,0,1,0,0s0,0,0,0l0,0h0v0h0v0h0s0,0,0,0h0l0,0,0,0h0s0,0,0,0,0,0,0,0a.14.14,0,0,0,0,0v0s0,0,0,0,0,0,0,0,0,0,0,0v0h0s0,0,0,0h0s0,0,0,0a0,0,0,0,0,0,0s0,0,0,0h0a0,0,0,0,1,0,0s0,0,0,0h0s0,0,0,0v0s0,0,0,0h0v0h0v0h0s0,0,0,0v0h0v0s0,0,0,0h0v0h0s0,0,0,0v.1h0s0,0,0,0v0h0v0a0,0,0,0,1,0,0h0s0,0,0,0,0,0,0,0v0h0s0,0,0,0a0,0,0,0,0,0,0,.1.1,0,0,0,0,0s0,0,0,0a.15.15,0,0,1,0,0h0s0,0,0,0,0,0,0,0h0s0,0,0,0h0s0,0,0,0v0s0,0,0,0h0s0,0,0,0h0a0,0,0,0,1,0,0s0,0,0,0,0,0,0,0,0,0,0,0,0,0,0,0,0,0,0,0h0l0,0h0v0s0,0,0,0h0l0,0s0,0,0,0l0,0s0,0,0,0,0,0,0,0,0,0,0,0h0s0,0,0,0h0s0,0,.07,0l0,0s0,0,0,0,0,0,0,0h0l0,0h0s0,0,0,0h0a.07.07,0,0,1,.06,0h0s0,0,0,0h0s0,0,0,0l0,0h0l.06-.05s0,0,0,0,0,0,0,0l0,0s0,0,0,0h0s0,0,0,0v0h0a0,0,0,0,1,0,0h0s0,0,0,0h0s0,0,0,0,0,0,0,0h0s0,0,0,0,0,0,0,0,0,0,0,0v0s0,0,0,0l0,0h0s0,0,0,0v0s0,0,0,0,0,0,0,0h0s0,0,0,0l0,0s0,0,0,0,0,0,0,0,0,0,0,0v0h0s0,0,0,0h0s0,0,0,0l0,0h0s0,0,0,0,0,0,0,0l0,0s0,0,0,0,0,0,0,0v0a.09.09,0,0,1,0,.05s0,0,0,0h0s0,0,0,0h0s0,0,0,0v0h0s0,0,0,0h0v0h0s0,0,0,0l0,0s0,0,0,0h0s0,0,0,0,0,0,0,0,0,0,0,0,0,0,0,0v0s0,0,0,0a.06.06,0,0,0,0,0,0,0,0,0,1,0,0h0"/><polyline class="cls-3" points="9.63 3.29 9.63 3.29 9.63 3.28 9.63 3.29"/><polyline class="cls-3" points="10.04 2.97 10.03 2.98 10.04 2.97"/><polyline class="cls-3" points="9.92 2.96 9.92 2.96 9.92 2.96"/><polyline class="cls-3" points="9.54 3.18 9.54 3.18 9.54 3.18"/><polyline class="cls-3" points="11.91 3.17 11.9 3.17 11.91 3.17"/><polyline class="cls-3" points="11.9 3.19 11.9 3.19 11.9 3.19"/><polyline class="cls-3" points="11.3 3.4 11.3 3.41 11.3 3.4"/><polyline class="cls-3" points="11.22 3.03 11.22 3.03 11.22 3.03"/><polyline class="cls-3" points="11.88 3.16 11.88 3.16 11.88 3.16"/><polyline class="cls-3" points="11.27 3.4 11.27 3.41 11.27 3.4"/><polyline class="cls-3" points="11.85 3.03 11.85 3.03 11.85 3.03"/><polyline class="cls-3" points="11.41 3.35 11.4 3.34 11.41 3.35"/><path class="cls-3" d="M11.39,3.3a.05.05,0,0,0,0,0h0s0,0,0,0v0s0,0,0,0,0,0,0,0v0h0s0,0,0,0,0,0,0,0h0v0a0,0,0,0,0,0,0v0s0,0,0,0h0s0,0,0,0h0l0,0,0,0s0,0,0,0h0v0s0,0,0,0a.06.06,0,0,1,0,0s0,0,0,0a0,0,0,0,1,0,0v0s0,0,0,.07v0s0,0,0,0h0s0,0,0,0h0s0,0,0,0,0,0,0,0h0s0,0,0,0,0,0,0,0v0s0,0,0,0h0s0,0,0,0v0h0s0,0,0,0v0s0,0,0,0a0,0,0,0,0,0,0v0h0v0s0,0,0,0h0s0,0,0,0v0h0v0h0v0s0,0,0,0,0,0,0,0l0,0v0s0,0,0,0,0,0,0,0,0,0,0,0v0h0v0a0,0,0,0,1,0,0h0s0,0,0,0h0v0s0,0,0,0h0v0s0,0,0,0v0s0,0,0,0v0s0,0,0,0h0s0,0,0,0v0s0,0,0,0a0,0,0,0,1,0,0v0s0,0,0,0h0s0,0,0,0,0,0,0,0,0,0,0,0v0a.49.49,0,0,0,0,.07h0a.43.43,0,0,0,0,0s0,0,0,0h0l0,0v0h0s0,0,0,0v0h0s0,0,0,0h0s0,0,0,0,0,0,0,0,0,0,0,0l0,0,0,0s0,0,0,0v0h0s0,0,0,0,0,0,0,0a0,0,0,0,0,0,0l0,0h0v0a0,0,0,0,1,0,0s0,0,0,0v0h0s0,0,0,0,0,0,0,0l0,0h0l0,.05s0,0,0,0l0,0s0,0,0,0l0,0s0,0,0,0,0,0,0,0l0,0h0s0,0,0,0l0,0s0,0,0,0h0s0,0,0,0h0s0,0,0,0,0,0,0,0a0,0,0,0,1,0,0,0,0,0,0,0,0,0s0,0,0,0v0s0,0,0,0l0,0s0,0,0,0l0,0h0l0,0s0,0,0,0h0l0,0s0,0,0,0,0,0,0,0h0l0,0s0,0,0,0,0,0,.05,0l0,0h0s0,0,0,0l0,0s0,0,0,0,0,0,0,0v0l0,0h0s0,0,0,0a.15.15,0,0,1-.05.06s0,0,0,0l0,0,0,0h0s0,0,0,0h0v0h0s0,0,0,0h0l0,0s0,0,0,0h0l0,0h0s0,0,0,0h0s0,0,0,0h0s0,0,0,0,0,0,0,0h0v0h0l0,0s0,0,0,0l0,0s0,0,0,0,0,0,0,0,0,0,0,0,0,0,0,0h0s0,0,0,0v0h0s0,0,0,0,0,0,0,0,0,0,0,0,0,0,0,0l0,0s0,0,0,0,0,0,0,0h0l0,0h0l0,0s0,0,0,0,0,0,0,0l0,0h0s0,0,0,0a.08.08,0,0,1,0,0s0,0,0,0l0,0s0,0,0,0,0,0,0,0,0,0,0,0h0s0,0,0,0h0V3s0,0,0,0h0s0,0,0,0V3s0,0,0,0,0,0,0,0h0s0,0,0,0V3s0,0,0,0,0,0,0,0,0,0,0,0V3s0,0,0,0h0s0,0,0,0h0s0,0,0,0V3s0,0,0,0h0s0,0,0,0,0,0,0,0h0s0,0,0,0a0,0,0,0,1,0,0s0,0,0,0a0,0,0,0,0,0,0s0,0,0,0,0,0,0,0h0V3h0s0,0,0,0a0,0,0,0,0,0,0h0s0,0,0,0,0,0,0,0,0,0,0,0h0V3s0,0,0,0,0,0,0,0h0V3s0,0,0,0,0,0,0,0,0,0,0,0,0,0,0,0,0,0,0,0h0v0s0,0-.05,0h0a0,0,0,0,0,0,0s0,0,0,0,0,0,0,0v0l-.06,0h0s0,0,0,0a0,0,0,0,0,0,0V3s0,0,0,0,0,0,0,0h0s0,0,0,0h0s0,0,0,0a0,0,0,0,1,0,0s0,0,0,0h0V3s0,0,0,0h0s0,0,0,0,0,0,0,0,0,0,0,0,0,0,0,0,0,0,0,0,0,0,0,0,0,0,0,0h0s0,0,0,0h0v0s0,0,0,0h0v0s0,0,0,0v0s0,0,0,0,0,0,0,0,0,0,0,0h0s0,0,0,0h0s0,0,0,.08l0,0s0,0,0,0h0s0,0,0,0l0,0h0v0h0s0,.06,0,.06h0s0,0,0,0h0s0,0,0,0l0,0v0h0s0,0,0,0l.07,0s0,0,0,0,0,0,0,0,0,0,0,0,0,0,0,0h0s0,0,0,0h0v0h0s0,0,0,0h0s0,0,0,0,0,0,0,0,0,0,0,0h0s0,0,0,0l0,0s0,0,0,0h0s0,0,0,0l0,0h0s0,0,0,0h0s0,0,0,0h0s0,0,0,0h0s0,0,0,0h0s0,0,0,0l0,0s0,0,0,0,0,0,0,0v0h0s0,0,0,0h0s0,0,0,0h0v0s0,0,0,0v0h0s0,0,0,0v0a.13.13,0,0,1,0-.05h0s0,0,0,0,0,0,0,0v0l0,0h0v0s0,0,0,0v0s0,0,0,0h0s0,0,0,0a0,0,0,0,0,0,0s0,0,0,0,0,0,0,0v0s0,0,0,0v0l0,0h0l0,0s0,0,0,0l0,0v0"/><polyline class="cls-3" points="11.88 3.16 11.88 3.15 11.88 3.16 11.88 3.16"/><polyline class="cls-3" points="11.47 3.28 11.46 3.28 11.47 3.28"/><polyline class="cls-3" points="11.52 3.26 11.52 3.26 11.52 3.26"/><polyline class="cls-3" points="11.79 3.27 11.79 3.27 11.79 3.27"/><path class="cls-2" d="M9,4.51c-.06.3.4,1,1.64,1h0c1.24,0,1.7-.73,1.64-1l-.07-.19A.79.79,0,0,0,12,4.07a5.06,5.06,0,0,0-1.31-.15h0a4.94,4.94,0,0,0-1.3.15.72.72,0,0,0-.3.32Z"/><path class="cls-3" d="M9.06,4.39Z"/><polyline class="cls-3" points="9.06 4.39 9.06 4.38 9.06 4.39"/><path class="cls-3" d="M9.09,4.34s0,0,0,0,0,0,0,0"/><polygon class="cls-3" points="9.07 4.36 9.08 4.36 9.08 4.35 9.07 4.36"/><polygon class="cls-3" points="9.07 4.36 9.07 4.36 9.07 4.34 9.07 4.35 9.07 4.36"/><path class="cls-3" d="M9.11,4.31h0s0,0,0,0,0,0,0,0,0,0,0,0,0,0,0,0"/><polyline class="cls-3" points="9.73 3.93 9.73 3.93 9.73 3.93"/><polygon class="cls-3" points="9.93 3.9 9.94 3.9 9.93 3.9 9.93 3.9"/><path class="cls-3" d="M9.6,4h0"/><polygon class="cls-3" points="10.9 3.94 10.89 3.95 10.89 3.95 10.9 3.94 10.9 3.94"/><path class="cls-3" d="M10.16,3.86h0"/><polyline class="cls-3" points="9.53 3.99 9.53 3.99 9.53 3.99 9.53 3.99 9.53 3.99"/><polyline class="cls-3" points="9.86 3.89 9.87 3.89 9.86 3.89"/><path class="cls-3" d="M9.24,4.18h0"/><polyline class="cls-3" points="9.3 4.14 9.3 4.14 9.3 4.14"/><polyline class="cls-3" points="9.33 4.12 9.33 4.12 9.33 4.12"/><path class="cls-3" d="M9.25,4.18s0,0,0,0h0s0,0,0,0"/><path class="cls-3" d="M9.73,3.93h0"/><polyline class="cls-3" points="9.66 3.96 9.67 3.96 9.66 3.96"/><polyline class="cls-3" points="9.43 4 9.43 4 9.43 4"/><polyline class="cls-3" points="9.68 3.95 9.67 3.96 9.68 3.95"/><polyline class="cls-3" points="9.5 3.99 9.5 3.99 9.5 3.99"/><path class="cls-3" d="M11.84,4.1h0s0,0,0,0h0v0s0,0,0,0"/><path class="cls-3" d="M11,4h0s0,0,0,0h0V4"/><polyline class="cls-3" points="10.96 3.95 10.96 3.95 10.96 3.95 10.95 3.95 10.96 3.95"/><polyline class="cls-3" points="11.69 4.07 11.69 4.06 11.69 4.07"/><polyline class="cls-3" points="10.15 4 10.14 4 10.15 4"/><polygon class="cls-3" points="10.84 3.96 10.84 3.95 10.83 3.95 10.84 3.96"/><path class="cls-3" d="M11.22,3.87h0"/><polygon class="cls-3" points="11.84 4.11 11.85 4.11 11.84 4.11 11.84 4.11"/><polyline class="cls-3" points="11.44 3.88 11.45 3.88 11.44 3.88"/><path class="cls-3" d="M10.92,3.94h0a0,0,0,0,0,0,0"/><path class="cls-3" d="M11.1,3.85h0s-.06,0-.09,0,0,0,0,0h0l-.28,0h0c-.16,0-.31,0-.47,0,0,0,0,0,0,0h0s0,0,0,0h-.07s0,0,0,0,0,0-.05,0a.15.15,0,0,1-.06.05h0s0,0,0,0H9.9s0,0,0,0l0,0s0,0,0,0h0s0,0,0,0,0,0,0,0l-.05,0s0,0,0,0,0,0,0,0h0s0,0,0,0,.05,0,0,0h0v0h0a0,0,0,0,0,0,0h0l0,0h0s0,0,0,0h0s0,0,0,0,0,0,0,0h0l0,0h0s0,0,0,0h0s0,0,0,0H9.5s0,0,0,0H9.43s0,0-.06,0,0,0,0,0l0,0h0s0,0,0,0h0s0,0,0,0h0s0,0,0,0,0,0,0,0h0s0,0,0,0,0,0,0,0,0,0,0,0h0s0,0,0,0,0,0,0,0h0s0,0,0,0h0v0h0s0,0,0,0v0h0s0,0,0,0,0,0,0,0,0,0,0,0h0s0,0,0,0h0s0,0,0,0,0,0,0,0,0,0,0,0h0s0,0,0,0h0s0,0,0,0,0,0,0,0h0s0,0,0,0,0,0,0,0,0,0,0,0,0,0,0,0v0h0s0,0,0,0h0s0,0,0,0h0l0,0s0,0,0,0h0s0,0,0,0h0s0,0,0,0H9.4s0,0,0,0h0s0,0,0,0,0,0,0,0,0,0,0,0h0s0,0,0,0h0s.09,0,.11,0h.05s0,0,0,0h0s0,0,0,0h0s0,0,0,0l0,0h0s0,0,0,0h.12V4h0L10,4h0l.06,0s0,0,0,0h0l.07,0s0,0,0,0h.24s0,0,0,0,0,0,0,0h0l.05,0s0,0,0,0l0,0V4h0s0,0,0,0,0,0,0,0,0,0,0,0h0s0,0,0,0V4h0s0,0,0,0h0s0,0,0,0h0s0,0,0,0h0s0,0,0,0h.07s0,0,0,0h.08l0,0V4h0l-.06,0s0,0,0,0h0l0,0s0,0,0,0a0,0,0,0,1,0,0s0,0,0,0h0s0,0,0,0h0s0,0,0,0h0s0,0,0,0h0s0,0,0,0l0,0h0s0,0,0,0h0s0,0,0,0h0s0,0,0,0h0s0,0,0,0h0s0,0,0,0h0s0,0,0,0h0s0,0,0,0h0s0,0,0,0l0,0h0l.06,0a0,0,0,0,0,0,0s0,0,0,0h0s0,0,0,0,0,0,0,0,0,0,0,0h0s0,0,0,0,0,0,0,0,0,0,0,0h0s0,0,0,0V4s0,0,0,0h.16s0,0,0,0,0,0,0,0h.12s.06,0,.09,0h0s0,0,0,0h0s0,0,.07,0,0,0,0,0,0,0,0,0h0s0,0,0,0,0,0,0,0,0,0,0,0H12s0,0,0,0,0,0,0,0h0s0,0,.06,0h0v0s0,0,.06,0a0,0,0,0,1,0,0h0s0,0,0,0h0s0,0,0,0,0,0,0,0,0,0,0,0h0s0,0,0,0,0,0,0,0,0,0,0,0h0l0,0h0s0,0,0,0h0a.08.08,0,0,0,0,0s0,0,0,0h0a.18.18,0,0,0,0-.1s0,0,0,0,0,0,0,0,0,0,0,0h0s0,0,0,0,0,0,0,0,0,0,0,0h0l0,0h0s0,0,0,0h0s0,0,0,0h0s0,0,0,0a.24.24,0,0,1-.12,0,.42.42,0,0,0-.12,0s0,0,0,0h0s0,0,0,0h0s0,0,0,0h0s0,0,0,0,0,0-.07,0a0,0,0,0,1,0,0h0s0,0-.05,0h0s0,0,0,0a0,0,0,0,0,0,0h0s0,0,0,0,0,0,0,0h-.05v0s0,0,0,0h0s-.05,0-.07,0M9.44,4h0s0,0,0,0m.13,0s0,0,0,0h0a0,0,0,0,1,0,0s0,0,0,0m-.25.15h0Zm0,0h0m.15,0h0m1-.1s0,0,0,0,0,0,0,0h0m.46,0h0s0,0,0,0"/><polyline class="cls-3" points="10.8 3.98 10.81 3.98 10.8 3.98"/><path class="cls-3" d="M11,3.94h0"/><path class="cls-3" d="M9.09,4.27h0s0,0,0,0a.05.05,0,0,1,0,0Z"/><polygon class="cls-3" points="9.15 4.29 9.16 4.29 9.15 4.29 9.15 4.29"/><path class="cls-3" d="M9.28,4.19h0"/><path class="cls-3" d="M9.17,4.16h0"/><path class="cls-3" d="M9.31,4.17s0,0,0,0,0,0,0,0"/><path class="cls-3" d="M9.24,4.09h0"/><path class="cls-3" d="M9.35,4.1s0,0,0,0h0l0,0h0s0,0,0,0"/><path class="cls-3" d="M9.26,4.08h0s0,0,0,0"/><path class="cls-3" d="M9.39,4.11h0a0,0,0,0,1,0,0h0"/><path class="cls-3" d="M9.3,4.07h0s0,0,0,0h0s0,0,0,0"/><path class="cls-3" d="M9.33,4h0"/><path class="cls-3" d="M9.35,4h0V4l0,0"/><path class="cls-3" d="M9.61,4.05h0"/><path class="cls-3" d="M9.54,4s0,0,0,0h0"/><polyline class="cls-3" points="9.58 3.95 9.58 3.95 9.58 3.95"/><polyline class="cls-3" points="9.93 3.87 9.94 3.87 9.93 3.87"/><path class="cls-3" d="M9.93,3.88s0,0,0,0l0,0s0,0,0,0"/><path class="cls-3" d="M10,3.87h0"/><path class="cls-3" d="M10.56,4s0,0,0,0h0"/><polygon class="cls-3" points="10.58 3.99 10.59 3.99 10.59 4 10.58 3.99"/><polyline class="cls-3" points="10.64 4 10.63 4 10.64 4"/><path class="cls-3" d="M10.63,4h0Z"/><polyline class="cls-3" points="10.63 4 10.63 4 10.63 4 10.63 4"/><path class="cls-3" d="M10.65,4h0s0,0,0,0h0"/><path class="cls-3" d="M10.69,4s0,0,0,0,0,0,0,0,0,0,0,0,0,0,0,0"/><path class="cls-3" d="M10.68,4h0"/><polygon class="cls-3" points="10.74 3.99 10.75 4 10.75 3.99 10.74 3.99"/><path class="cls-3" d="M10.77,4h0"/><path class="cls-3" d="M10.82,4s0,0,0,0h0s0,0,0,0"/><path class="cls-3" d="M10.92,4a0,0,0,0,0,0,0h0Z"/><path class="cls-3" d="M10.92,3.94s0,0,0,0h0"/><path class="cls-3" d="M10.94,4h0"/><path class="cls-3" d="M11,4h0V4s0,0,0,0l0,0s0,0,0,0"/><path class="cls-3" d="M10.93,4h0s0,0,0,0"/><polygon class="cls-3" points="11.05 3.99 11.07 3.99 11.07 3.99 11.05 3.99"/><polygon class="cls-3" points="11.07 4 11.07 4 11.08 3.99 11.07 4"/><polygon class="cls-3" points="11.09 4 11.08 4 11.07 4 11.09 4"/><path class="cls-3" d="M11.12,4h0"/><polyline class="cls-3" points="11.26 3.86 11.26 3.87 11.27 3.86 11.26 3.86"/><path class="cls-3" d="M11.28,3.88h0Z"/><path class="cls-3" d="M11.56,3.92s0,0,0,0,0,0,0,0,0,0,0,0h0"/><path class="cls-3" d="M12.18,4.27h0s0,0,0,0"/><path class="cls-3" d="M12.31,4.51s0,0,0,0Z"/><polyline class="cls-3" points="12.31 4.52 12.31 4.52 12.31 4.52"/><path class="cls-3" d="M12.31,4.58s0,0,0,0,0,0,0,0"/><rect class="cls-3" x="12.31" y="4.56" width="0.01" height="0.01" transform="translate(4.58 15.17) rotate(-74.22)"/><path class="cls-3" d="M12.32,4.55Z"/><path class="cls-3" d="M12.3,4.63v0s0,0,0,0,0,0,0,0,0,0,0,0,0,0,0,0"/><polyline class="cls-3" points="11.76 5.34 11.75 5.34 11.76 5.34"/><polygon class="cls-3" points="11.53 5.46 11.51 5.46 11.52 5.46 11.53 5.46"/><path class="cls-3" d="M11.88,5.24h0"/><polygon class="cls-3" points="10.34 5.5 10.34 5.49 10.34 5.49 10.34 5.5 10.34 5.5"/><path class="cls-3" d="M11.25,5.55h0"/><polygon class="cls-3" points="11.96 5.19 11.95 5.19 11.96 5.19 11.96 5.19"/><polyline class="cls-3" points="11.61 5.44 11.6 5.44 11.61 5.44"/><path class="cls-3" d="M12.2,4.83h0"/><polyline class="cls-3" points="12.16 4.9 12.16 4.9 12.16 4.9"/><polyline class="cls-3" points="12.12 4.95 12.12 4.95 12.12 4.95"/><path class="cls-3" d="M12.2,4.84s0,0,0,0h0v0h0v0"/><path class="cls-3" d="M11.76,5.34h0"/><polyline class="cls-3" points="11.82 5.29 11.81 5.29 11.82 5.29"/><polyline class="cls-3" points="12.06 5.12 12.06 5.12 12.06 5.12"/><polyline class="cls-3" points="11.8 5.3 11.81 5.29 11.8 5.3"/><polyline class="cls-3" points="11.99 5.17 11.98 5.17 11.99 5.17"/><path class="cls-3" d="M9.31,5h0s0,0,0,0h0"/><path class="cls-3" d="M10.27,5.47h0s0,0,0,0h0s0,0,0,0"/><polyline class="cls-3" points="10.26 5.48 10.26 5.49 10.26 5.49 10.27 5.49 10.26 5.48"/><polyline class="cls-3" points="9.45 5.12 9.45 5.12 9.45 5.12"/><path class="cls-3" d="M11.24,5.41h0"/><polygon class="cls-3" points="10.4 5.49 10.41 5.49 10.41 5.49 10.4 5.49"/><path class="cls-3" d="M9.93,5.51s0,0,0,0h0"/><polygon class="cls-3" points="9.31 4.99 9.31 4.99 9.31 4.99 9.31 4.99"/><polyline class="cls-3" points="9.66 5.42 9.66 5.41 9.66 5.42"/><path class="cls-3" d="M10.31,5.5h0"/><path class="cls-3" d="M10.07,5.56h0s.07,0,.1,0,0,0,.07,0h0a1.71,1.71,0,0,0,.39,0h0a2.84,2.84,0,0,0,.58,0s0,0,0,0h.09s0,0,0,0,0,0,.07,0,0,0,.06-.06h0s0,0,0,0l0,0v0h0l0,0h0l0,0s0,0,0,0h0s0,0,0,0,0,0,0,0,0,0,.06,0h0s0,0,0,0h0s0,0,0,0-.06,0,0,0,0,0,0,0h.05v0s0,0,0,0,0,0,0,0h0l0,0h0s0,0,0,0h0s0,0,0,0,0,0,0,0h0l0,0h0s0,0,0,0h0l0,0v0s0,0,0,0l0,0h0l0,0h0s0,0,0,0h.07s0,0,.06,0,0,0,0,0V5s.05,0,.06,0,0,0,0,0h0s0,0,0,0h0s0,0,0,0,0,0,0,0v0h0a0,0,0,0,1,0,0s0,0,0,0,0,0,0,0,0,0,0,0,0,0,0,0,0,0,0,0,0,0,0,0,0,0,0,0h0v0h0s0,0,0,0v0h0a0,0,0,0,0,0,0s0,0,0,0,0,0,0,0h0s0,0,0,0h0s0,0,0,0h0s0,0,0,0,0,0,0,0,0,0,0,0h0s0,0,0,0h0s0,0,0,0h0s0,0,0,0,0,0,0,0,0,0,0,0v0s0,0,0,0h0s0,0,0,0h0s0,0,0,0h0s0,0,0,0,0,.05,0,0v0h0s0,0,0,0v0s0,0,0,0l0,0h0v0h0s0,0,0,0,0,0,0,0h0l-.06,0V5a0,0,0,0,0,0,0h0s0,0,0,0V5s0,0,0,0,0,0,0,0,0,0,0,0h0V5h0l0,0h0s-.08.07-.1.11h0v0h0s0,0,0,0,0,0,0,0h0s0,0,0,0h0s0,0,0,0,0,0,0,0h0s0,0,0,0h0a.66.66,0,0,1-.15,0v0h0a.84.84,0,0,0-.14.06h0s0,0-.07,0,0,0,0,0,0,0,0,0h0a.12.12,0,0,0-.08,0s0,0,0,0,0,0,0,0h-.06s0,0,0,0,0,0,0,0l-.21,0s0,0,0,0,0,0,0,0h0l-.07,0s0,0,0,0,0,0,0,0v0h0l0,0h0s0,0,0,0,0,0,0,0h0s0,0,0,0h0s0,0,0,0h0s0,0,0,0a.06.06,0,0,1,0,0s0,0,0,0,0,0-.06,0h-.06s0,0,0,0,0,0-.06,0h0l0,0v0h0s0,0,.07,0,0,0,0,0h0l0,0s0,0,0,0,0,0,0,0,0,0,0,0h0s0,0,0,0,0,0,0,0h0s0,0,0,0h0s0,0,0,0h0s0,0,0,0h0s0,0,0,0l0,0h0s0,0,0,0,0,0,0,0,0,0-.05,0h0s0,0,0,0h0s0,0,0,0h0s0,0,0,0h0s0,0,0,0,0,0,0,0h-.09s0,0,0,0,0,0,0,0,0,0,0,0h0s0,0,0,0,0,0,0,0h0s0,0,0,0,0,0,0,0h0s0,0-.06,0,0,0,0,0,0,0,0,0l0,0h0l0,0s-.06,0-.1,0h0s0,0,0,0,0,0,0,0l-.09,0h0l-.05,0h0l-.09-.06h0l-.06,0s0,0,0,0h0l0,0s0,0-.07,0,0,0,0,0h0l0,0s0,0,0,0,0,0,0,0,0,0,0,0,0,0,0,0,0,0,0,0h0s0,0,0,0h0s0,0,0,0,0,0-.06,0h0s0,0,0,0v0l0,0s0,0,0,0,0,0,0,0,0,0,0,0,0,0,0,0h0s0,0,0,0,0,0,0,0,0,0,0,0H9v0H9s0,0,0,0H9s0,0,0,0H9s0,.08,0,.13,0,0,0,.08l0,0s0,0,0,0h0s0,0,0,0,0,0,0,0h0L9.1,5l0,0V5h0s0,0,0,0h0s0,0,0,0a.63.63,0,0,1,.12.1.32.32,0,0,0,.12.11s0,0,0,0l0,0h0l0,0,0,0h0s0,0,0,0,.06,0,.09,0h0s0,0,.06,0h0s0,0,0,0v0a0,0,0,0,0,0,0h0s0,0,0,0,0,0,0,0h0s0,0,0,0h0s0,0,.08,0m2-.44h0m-.13.1h0l0,0h0l0,0m.22-.3h0ZM12.09,5h0m-.15.12h0m-1.12.38h0m-.57,0v0h0s0,0,0,0"/><polyline class="cls-3" points="10.45 5.47 10.44 5.47 10.45 5.47"/><path class="cls-3" d="M10.25,5.49h0"/><path class="cls-3" d="M12.33,4.67h0s0,0,0,0,0,0,0,.05h0"/><polygon class="cls-3" points="12.27 4.66 12.26 4.67 12.27 4.67 12.27 4.66"/><path class="cls-3" d="M12.16,4.84h0"/><path class="cls-3" d="M12.28,4.82h0v0h0"/><path class="cls-3" d="M12.14,4.88s0,0,0,0,0,0,0,0"/><path class="cls-3" d="M12.23,4.93s0,0,0,0,0,0,0,0"/><path class="cls-3" d="M12.1,5h0s0,0,0,0,0,0,0,0,0,0,0,0"/><path class="cls-3" d="M12.21,5a0,0,0,0,0,0,0h0s0,0,0,0"/><path class="cls-3" d="M12.05,5h0l0,0,0,0"/><path class="cls-3" d="M12.17,5h0s0,0,0,0,0,0,0,0,0,0,0,0"/><path class="cls-3" d="M12.15,5V5h0s0,0,0,0"/><path class="cls-3" d="M12.13,5h0v0h0s0,0,0,0"/><path class="cls-3" d="M11.85,5.17h0"/><path class="cls-3" d="M12,5.22l0,0s0,0,0,0"/><polyline class="cls-3" points="11.92 5.25 11.92 5.25 11.92 5.25"/><polyline class="cls-3" points="11.53 5.48 11.52 5.48 11.53 5.48"/><path class="cls-3" d="M11.53,5.47h0l0,0s0,0,0,0"/><path class="cls-3" d="M11.43,5.5s0,0,0,0h0"/><path class="cls-3" d="M10.74,5.46h0"/><polygon class="cls-3" points="10.72 5.47 10.72 5.46 10.71 5.46 10.72 5.47"/><polyline class="cls-3" points="10.65 5.46 10.66 5.46 10.65 5.46"/><polyline class="cls-3" points="10.66 5.45 10.66 5.46 10.66 5.45"/><polyline class="cls-3" points="10.66 5.46 10.66 5.45 10.66 5.45 10.66 5.46"/><path class="cls-3" d="M10.63,5.46h0s0,0,0,0Z"/><path class="cls-3" d="M10.59,5.46h0s0,0,0,0,0,0,.06,0,0,0,0,0"/><path class="cls-3" d="M10.6,5.48s0,0,0,0h0"/><polygon class="cls-3" points="10.53 5.46 10.52 5.46 10.51 5.46 10.53 5.46"/><path class="cls-3" d="M10.49,5.46h0s0,0,0,0"/><path class="cls-3" d="M10.43,5.44s0,0,0,0h0s0,0,0,0"/><path class="cls-3" d="M10.31,5.46h0Z"/><path class="cls-3" d="M10.3,5.5s0,0,0,0h0"/><path class="cls-3" d="M10.29,5.44h0s0,0,0,0"/><path class="cls-3" d="M10.26,5.44s0,0,0,0h0s0,0,0,0,0,0,0,0v0h0"/><path class="cls-3" d="M10.29,5.48h0s0,0,0,0,0,0,0,0"/><polygon class="cls-3" points="10.15 5.43 10.13 5.43 10.13 5.43 10.15 5.43"/><polygon class="cls-3" points="10.14 5.42 10.14 5.42 10.12 5.42 10.14 5.42"/><polygon class="cls-3" points="10.12 5.41 10.12 5.41 10.13 5.41 10.12 5.41"/><path class="cls-3" d="M10.07,5.4h0"/><path class="cls-3" d="M9.87,5.5h0"/><path class="cls-3" d="M9.85,5.48h0Z"/><path class="cls-3" d="M9.53,5.33h0l-.05,0s0,0,0,0h0"/><path class="cls-3" d="M9,4.6H9s0,0,0,0"/><path class="cls-3" d="M9.32,3.59s0,0,0,0Z"/><polyline class="cls-3" points="9.32 3.6 9.31 3.6 9.32 3.6"/><path class="cls-3" d="M9.31,3.61h0s0,0,0,0"/><polygon class="cls-3" points="9.32 3.6 9.31 3.6 9.32 3.61 9.32 3.6"/><polygon class="cls-3" points="9.32 3.6 9.32 3.6 9.33 3.61 9.32 3.6"/><path class="cls-3" d="M9.3,3.62h0s0,0,0,0,0,0,0,0a0,0,0,0,1,0,0h0"/><polyline class="cls-3" points="9.33 3.84 9.33 3.84 9.33 3.84"/><polygon class="cls-3" points="9.32 3.9 9.32 3.9 9.32 3.9 9.32 3.9"/><polyline class="cls-3" points="9.32 3.79 9.32 3.79 9.32 3.79"/><polygon class="cls-3" points="9.12 4.09 9.11 4.08 9.11 4.08 9.12 4.09 9.12 4.09"/><polyline class="cls-3" points="9.31 3.97 9.31 3.97 9.31 3.97"/><polygon class="cls-3" points="9.32 3.77 9.32 3.77 9.32 3.77 9.32 3.77"/><polyline class="cls-3" points="9.34 3.88 9.34 3.88 9.34 3.88"/><polyline class="cls-3" points="9.28 3.67 9.28 3.67 9.28 3.67"/><polyline class="cls-3" points="9.28 3.69 9.28 3.69 9.28 3.69"/><polyline class="cls-3" points="9.28 3.7 9.28 3.7 9.28 3.7"/><path class="cls-3" d="M9.28,3.67h0a0,0,0,0,0,0,0h0"/><path class="cls-3" d="M9.33,3.84h0"/><polyline class="cls-3" points="9.32 3.81 9.32 3.82 9.32 3.81"/><polyline class="cls-3" points="9.34 3.75 9.34 3.75 9.34 3.75"/><polyline class="cls-3" points="9.32 3.82 9.32 3.82 9.32 3.82"/><polyline class="cls-3" points="9.33 3.77 9.33 3.77 9.33 3.77"/><path class="cls-3" d="M8.89,4.19h0"/><path class="cls-3" d="M9.09,4.08h0l0,0h0v0"/><polyline class="cls-3" points="9.1 4.1 9.1 4.1 9.11 4.1 9.11 4.1 9.1 4.1"/><polyline class="cls-3" points="8.92 4.18 8.93 4.18 8.92 4.18"/><polyline class="cls-3" points="9.19 3.9 9.19 3.9 9.19 3.9"/><polygon class="cls-3" points="9.12 4.07 9.12 4.07 9.12 4.07 9.12 4.07"/><path class="cls-3" d="M9.12,4.22h0"/><polygon class="cls-3" points="8.88 4.19 8.88 4.19 8.88 4.19 8.88 4.19"/><polyline class="cls-3" points="9.07 4.26 9.07 4.26 9.07 4.26"/><path class="cls-3" d="M9.11,4.09h0"/><path class="cls-3" d="M9.15,4.2h0s0,0,0,0,0,0,0,0h0l0,0,0,0a0,0,0,0,1,0,0h0A.41.41,0,0,0,9.31,4s0,0,0,0h0s0,0,0,0V4h0s0,0,0,0l0,0h0s0,0,0,0,0,0,0,0h0s0,0,0,0h0s0,0,0,0h0s0,0,0,0h0s0,0,0,0h0s0,0,0,0h0s0,0,0,0h0s0,0,0,0h0a0,0,0,0,0,0,0h0s0,0,0,0h0s0,0,0,0,0,0,0,0h0s0,0,0,0h0s0,0,0,0h0s0,0,0,0h0a0,0,0,0,1,0,0h0a0,0,0,0,1,0,0h0s0,0,0,0h0s0,0,0,0h0s0,0,0,0h0s0,0,0,0h0s0,0,0,0h0s0,0,0,0h0s0,0,0,0h0s0,0,0,0h0s0,0,0,0h0a0,0,0,0,1,0,0h0s0,0,0,0h0l0,0h0l0,0h0s0,0,0,0h0s0,0,0,0h0s0,0,0,0l0,0h0s0,0,0,0,0,0,0,0h0s0,0,0,0l0,0s0,0,0,0,0,0,0,0h0V4s0,0,0,0h0l0,0h0s0,0,0,0h0s0,0,0,0h0V4h0s0,0,0,0,0,0,0,0h0a0,0,0,0,1,0,0h0v0l0,0h0s0,0,0,0h0s0,0,0,0h0s0,0,0,0h0s0,0,0,0h0s0,0,0,0h0s0,0,0,0h0v0h0s0,0,0,0h0s0,0,0,0h0v0h0s0,0,0,0,0,0,0,0l0,0h0s0,0,0,0h0s0,0,0,0h0s0,0,0,0h0s0,0,0,0,0,0,0,0a0,0,0,0,0,0,0H9s0,0,0,0H9s0,0,0,0H9s0,0,0,0v0H9v0H9s0,0,0,0H9s0,0,0,0h0s0,0,0,0h0s0,0,0,0,0,0,0,0h0s0,0,0,0,0,0,0,0,0,0,0,0h0v0h0s0,0,0,0h0v0h0s0,0,0,0h0s0,0,0,0h0s0,0,0,0h0v0s0,0,0,0,0,0,0,0h0s0,0,0,0,0,0,0,0v0h0s0,0,0,0h0s0,0,0,0h0s0,0,0,0v0h0s0,0,0,0h0s0,0,0,0,0,0,0,0H9s0,0,0,0H9s0,0,0,0H9s0,0,0,0H9.1v0s0,0,0,0h0s0,0,0,0h0s0,0,0,0v0s0,0,0,0h0s0,0,0,0m.19-.45h0m0,0a0,0,0,0,1,0,0s0,0,0,0h0s0,0,0,0m0-.1Zm0,0h0m0,0h0M9.17,4h0m0,.13h0"/><polyline class="cls-3" points="9.1 4.04 9.1 4.04 9.1 4.04"/><polyline class="cls-3" points="9.11 4.11 9.12 4.11 9.11 4.11"/><path class="cls-3" d="M9.34,3.63h0Z"/><polygon class="cls-3" points="9.29 3.63 9.28 3.63 9.28 3.63 9.29 3.63"/><path class="cls-3" d="M9.26,3.67h0"/><path class="cls-3" d="M9.35,3.67h0"/><path class="cls-3" d="M9.25,3.68h0"/><path class="cls-3" d="M9.35,3.69h0"/><path class="cls-3" d="M9.28,3.71h0"/><path class="cls-3" d="M9.35,3.7h0"/><path class="cls-3" d="M9.26,3.71h0"/><polyline class="cls-3" points="9.33 3.71 9.35 3.71 9.34 3.71 9.34 3.71 9.33 3.71"/><path class="cls-3" d="M9.35,3.72h0"/><path class="cls-3" d="M9.34,3.72h0"/><path class="cls-3" d="M9.24,3.77h0"/><path class="cls-3" d="M9.34,3.78a0,0,0,0,0,0,0v0"/><polyline class="cls-3" points="9.35 3.8 9.35 3.79 9.35 3.8"/><polyline class="cls-3" points="9.34 3.9 9.34 3.91 9.34 3.9"/><path class="cls-3" d="M9.34,3.9h0v0s0,0,0,0"/><path class="cls-3" d="M9.33,3.92h0"/><path class="cls-3" d="M9.12,4h0"/><polygon class="cls-3" points="9.13 3.99 9.13 3.99 9.12 3.99 9.13 3.99"/><polyline class="cls-3" points="9.11 4 9.11 4 9.11 4"/><path class="cls-3" d="M9.11,4Z"/><polyline class="cls-3" points="9.11 4 9.11 3.99 9.11 4 9.11 4"/><path class="cls-3" d="M9.11,4h0Z"/><path class="cls-3" d="M9.11,4h0s0,0,0,0,0,0,0,0,0,0,0,0"/><path class="cls-3" d="M9.13,4h0s0,0,0,0"/><polygon class="cls-3" points="9.1 4.02 9.1 4.02 9.1 4.03 9.1 4.02"/><path class="cls-3" d="M9.1,4h0a0,0,0,0,0,0,0"/><path class="cls-3" d="M9.08,4h0"/><polygon class="cls-3" points="9.09 4.07 9.08 4.06 9.08 4.07 9.09 4.07"/><path class="cls-3" d="M9.12,4.1s0,0,0,0h0"/><path class="cls-3" d="M9.07,4.06h0"/><path class="cls-3" d="M9.07,4.07h0s0,0,0,0h0"/><path class="cls-3" d="M9.1,4.09h0"/><polygon class="cls-3" points="9.06 4.09 9.06 4.1 9.06 4.1 9.06 4.09"/><polygon class="cls-3" points="9.05 4.09 9.05 4.09 9.05 4.09 9.05 4.09"/><polygon class="cls-3" points="9.05 4.09 9.05 4.09 9.05 4.09 9.05 4.09"/><path class="cls-3" d="M9,4.09H9s0,0,0,0H9"/><polyline class="cls-3" points="9.11 4.23 9.11 4.22 9.11 4.23 9.11 4.23"/><path class="cls-3" d="M9.1,4.22v0s0,0,0,0h0Z"/><path class="cls-3" d="M9,4.27H9s0,0,0,0"/><path class="cls-3" d="M8.81,4.28h0a0,0,0,0,0,0,0"/><path class="cls-3" d="M12,3.62Z"/><polyline class="cls-3" points="11.99 3.62 11.98 3.63 11.99 3.62"/><path class="cls-3" d="M12,3.64s0,0,0,0,0,0,0,0"/><polygon class="cls-3" points="11.99 3.63 11.98 3.63 11.99 3.64 11.99 3.63"/><polygon class="cls-3" points="11.99 3.63 11.99 3.63 12 3.64 11.99 3.63"/><path class="cls-3" d="M12,3.65h0s0,0,0,0h0"/><polyline class="cls-3" points="12.08 3.83 12.08 3.84 12.08 3.83"/><polygon class="cls-3" points="12.11 3.88 12.11 3.88 12.11 3.88 12.11 3.88"/><polyline class="cls-3" points="12.05 3.81 12.05 3.81 12.05 3.81"/><polygon class="cls-3" points="12.17 4.14 12.17 4.14 12.17 4.14 12.17 4.14 12.17 4.14"/><polyline class="cls-3" points="12.15 3.93 12.15 3.93 12.15 3.93"/><polygon class="cls-3" points="12.04 3.79 12.04 3.79 12.04 3.79 12.04 3.79 12.04 3.79"/><polyline class="cls-3" points="12.12 3.86 12.12 3.86 12.12 3.86"/><polyline class="cls-3" points="11.97 3.71 11.97 3.71 11.97 3.71"/><polyline class="cls-3" points="11.97 3.73 11.97 3.73 11.97 3.73"/><polyline class="cls-3" points="11.97 3.74 11.97 3.74 11.97 3.74"/><path class="cls-3" d="M12,3.71h0"/><path class="cls-3" d="M12.08,3.84h0"/><polyline class="cls-3" points="12.06 3.82 12.06 3.83 12.06 3.82"/><polyline class="cls-3" points="12.05 3.76 12.05 3.76 12.05 3.76"/><polyline class="cls-3" points="12.06 3.83 12.06 3.83 12.06 3.83"/><polyline class="cls-3" points="12.04 3.78 12.04 3.78 12.04 3.78"/><path class="cls-3" d="M12.36,4.36h0s0,0,0,0h0s0,0,0,0"/><path class="cls-3" d="M12.17,4.17h0l0,0h0"/><polyline class="cls-3" points="12.18 4.16 12.18 4.16 12.18 4.15 12.18 4.15 12.18 4.16"/><polyline class="cls-3" points="12.32 4.33 12.32 4.33 12.32 4.33"/><polyline class="cls-3" points="12.02 3.98 12.01 3.98 12.02 3.98"/><polygon class="cls-3" points="12.15 4.14 12.15 4.14 12.15 4.13 12.15 4.14"/><path class="cls-3" d="M12.3,4.13s0,0,0,0h0"/><polygon class="cls-3" points="12.36 4.36 12.36 4.36 12.36 4.36 12.36 4.36"/><polyline class="cls-3" points="12.34 4.17 12.34 4.17 12.34 4.17"/><path class="cls-3" d="M12.18,4.14h0s0,0,0,0"/><path class="cls-3" d="M12.28,4.11h0s0,0,0,0,0,0,0,0h0l0,0V4h0s0-.06-.06-.1h0s0,0,0,0h0s0,0,0,0h0s0,0,0,0h0a0,0,0,0,1,0,0h0s0,0,0,0h0s0,0,0,0h0s0,0,0,0h0s0,0,0,0h0s0,0,0,0h0s0,0,0,0,0,0,0,0h0s0,0,0,0h0s0,0,0,0h0s0,0,0,0h0s0,0,0,0h0s0,0,0,0h0l0,0h0s0,0,0,0h0s0,0,0,0h0a0,0,0,0,1,0,0,0,0,0,0,1,0,0h0s0,0,0,0h0s0,0,0,0h0s0,0,0,0,0,0,0,0h0s0,0,0,0,0,0,0,0h0s0,0,0,0h0s0,0,0,0h0s0,0,0,0h0a0,0,0,0,1,0,0h0s0,0,0,0h0s0,0,0,0h0s0,0,0,0h0v0h0s0,0,0,0h0s0,0,0,0,0,0,0,0h0s0,0,0,0h0s0,0,0,0h0s0,0,0,0h0s0,0,0,0a0,0,0,0,1,0,0s0,0,0,0h0s0,0,0,0,0,0,0,0l0,0h0l0,0h0s0,0,0,0h0s0,0,0,0h0s0,0,0,0h0s0,0,0,0h0v0h0l0,0s0,0,0,0,0,0,0,0,0,0,0,0h0s0,0,0,0,0,0,0,0h0s0,0,0,0h0s0,0,0,0h0a0,0,0,0,1,0,0h0v0h0s0,0,0,0h0s0,0,0,0h0s0,0,0,0l0,0h.05l0,0h0s0,0,0,0h0s0,0,0,0h0s0,0,0,0h0v0s0,0,0,0h0s0,0,0,0,0,0,0,0h.07s0,0,0,0h0a0,0,0,0,1,0,0s0,0,0,0h0s0,0,0,0h0s0,0,0,0,0,0,0,0,0,0,0,0h0v0s0,0,0,0h0v0s0,0,0,0,0,0,0,0,0,0,0,0,0,0,0,0h0s0,0,0,0,0,0,0,0l0,0h0a0,0,0,0,0,0,0s0,0,0,0h0s0,0,0,0h0s0,0,0,0h0s0,0,0,0h0s0,0,0,0,0,0,0,0h0s0,0,0,0,0,0,0,0,0,0,0,0v0h0a0,0,0,0,0,0,0h0s0,0,0,0h0v0h0s0,0,0,0v0h0v0h0s0,0,0,0,0,0,0,0M12,3.76h0m0,0h0s0,0,0,0h0s0,0,0,0M12,3.73Zm0,0h0m0,0h0m.11.26h0s0,0,0,0h0m.12.08h0"/><polyline class="cls-3" points="12.12 4.15 12.12 4.15 12.12 4.15"/><polyline class="cls-3" points="12.19 4.15 12.19 4.14 12.19 4.15"/><path class="cls-3" d="M12,3.65h0s0,0,0,0Z"/><polygon class="cls-3" points="11.96 3.66 11.95 3.67 11.96 3.67 11.96 3.66"/><path class="cls-3" d="M11.94,3.72h0s0,0,0,0"/><path class="cls-3" d="M12,3.69h0"/><path class="cls-3" d="M11.94,3.73h0"/><path class="cls-3" d="M12,3.71s0,0,0,0,0,0,0,0"/><path class="cls-3" d="M12,3.75h0"/><path class="cls-3" d="M12,3.72h0s0,0,0,0"/><path class="cls-3" d="M12,3.76h0"/><path class="cls-3" d="M12,3.73h0"/><path class="cls-3" d="M12,3.74h0"/><path class="cls-3" d="M12,3.74h0"/><path class="cls-3" d="M12,3.83a0,0,0,0,0,0,0h0"/><path class="cls-3" d="M12.07,3.79h0"/><polyline class="cls-3" points="12.08 3.8 12.07 3.8 12.08 3.8"/><polyline class="cls-3" points="12.13 3.88 12.13 3.88 12.13 3.88"/><path class="cls-3" d="M12.12,3.87h0"/><path class="cls-3" d="M12.13,3.89h0"/><path class="cls-3" d="M12.07,4.1h0"/><polygon class="cls-3" points="12.08 4.1 12.07 4.1 12.07 4.11 12.08 4.1"/><polyline class="cls-3" points="12.08 4.12 12.07 4.12 12.08 4.12"/><path class="cls-3" d="M12.07,4.12Z"/><polyline class="cls-3" points="12.07 4.12 12.07 4.12 12.07 4.12 12.07 4.12"/><path class="cls-3" d="M12.08,4.12h0Z"/><path class="cls-3" d="M12.09,4.13s0,0,0,0,0,0,0,0,0,0,0,0h0"/><path class="cls-3" d="M12.11,4.12h0"/><polygon class="cls-3" points="12.1 4.14 12.1 4.14 12.11 4.14 12.1 4.14"/><path class="cls-3" d="M12.11,4.15h0"/><path class="cls-3" d="M12.11,4.17h0"/><polygon class="cls-3" points="12.15 4.17 12.14 4.17 12.15 4.17 12.15 4.17"/><path class="cls-3" d="M12.18,4.14s0,0,0,0h0"/><path class="cls-3" d="M12.14,4.19h0"/><path class="cls-3" d="M12.15,4.19h0l0,0s0,0,0,0h0s0,0,0,0"/><path class="cls-3" d="M12.17,4.16h0"/><polygon class="cls-3" points="12.18 4.2 12.18 4.2 12.18 4.2 12.18 4.2"/><polygon class="cls-3" points="12.18 4.21 12.17 4.21 12.18 4.21 12.18 4.21"/><polygon class="cls-3" points="12.18 4.21 12.18 4.21 12.17 4.21 12.18 4.21"/><path class="cls-3" d="M12.18,4.23h0s0,0,0,0"/><polyline class="cls-3" points="12.31 4.13 12.3 4.14 12.31 4.14 12.31 4.13"/><path class="cls-3" d="M12.3,4.15h0a0,0,0,0,1,0,0h0Z"/><path class="cls-3" d="M12.35,4.2h0"/><path class="cls-3" d="M12.5,4.35h0"/><path class="cls-3" d="M11,1.69h0"/><polyline class="cls-3" points="10.99 1.69 10.99 1.69 10.99 1.69"/><polyline class="cls-3" points="10.31 1.14 10.32 1.15 10.31 1.14"/><polyline class="cls-3" points="10.24 0.67 10.25 0.68 10.24 0.67"/><polyline class="cls-3" points="11.04 1.6 11.03 1.6 11.04 1.6"/><polyline class="cls-3" points="10.33 1.24 10.34 1.24 10.33 1.24"/><polyline class="cls-3" points="11.19 1.34 11.19 1.33 11.19 1.34"/><polyline class="cls-3" points="10.48 0.82 10.48 0.82 10.48 0.82"/><path class="cls-3" d="M10.46.79s0,0,0,0,0,0,0,0,0,0,0,0,0,0,0,0,0,0,0,0,0,0,0,0,0,0,0,0,0,0,0,0,0,0,0,0l0,0s0,0,0,0,0,0,0,0h0s0,0,0,0,0,0,0,0h0a0,0,0,0,0,0,0s0,0,0,0,0,0,0,0,0,0,0,0h0v0s0,0,0,0h0s0,0,0,0,0,0,0,0,0,0,0,0,0,0,0,0a.08.08,0,0,1,0,0s0,0,0,0h0s0,0,.06-.05,0,0,0,.05,0,0,0,0,0,0,0,0h0l0,0s0,0,0,0,0,0,0,0,0,0,0,0h0s0,0,0,0,0,0,0,0,0,0,0,0v0s0,0,0,0h0s0,0,0,0v0s0,0,0,0,0,0,0,0,0,0,0,0h0a0,0,0,0,0,0,0h0s0,0,0,0h0s0,0,0,0,0,0,0,0,0,0,0,0h0s0,0,0,0,0,0,0,0,0,0,0,0,0,0,0,0,0,0,0,0,0,0,0,0v0s0,0,0,0h0s0,0,0,0a0,0,0,0,0,0,0h0s0,0,0,0h0s0,0,0,0,0,0,0,0,0,0,0,0a0,0,0,0,1,0,0h0a0,0,0,0,0,0,0h0s0,0,0,0,0,0,0,0h0s0,0,0,0,0,0,0,0h0s0,0,0,0,0,0,0,0a0,0,0,0,1,0,0v0s0,0,0,0h0s0,0,0,0a0,0,0,0,1,0,0s0,0,0,0,0,0,0,0h0a0,0,0,0,1,0,0s0,0,0,0h0s0,0,0,0h0s0,0,0,0,0,0,0,0,0,0,0,0l0,0s0,0-.05,0,0,.05,0,.06,0,0,0,0h0s0,0,0,.06,0,0,0,0V1h0s0,0,0,0a0,0,0,0,1,0,0,0,0,0,0,0,0,0s0,0,0,0h0V1a0,0,0,0,1,0,0s0,0,0,0,0,.06,0,.06,0,0,0,.06,0,0,0,0,0,0,0-.06a0,0,0,0,0,0,0s0,0,0,0,0,0,0,0,0,0,0,0h0l0,0h0v0h0s0,0,0,0,0,0,0,0h0v0s0,0,0,0,0,0,0,0l0,0h0s0,0,0,0,0,0,0,.06h0s0,0,0,0,0,0,0,0,0,0,0,0,0,0,0,0,0,0,0,0v0s0,0,0,0h0a.06.06,0,0,1,0,0,0,0,0,0,1,0,0s0,0,0,0,0,0,0,0l0,0h0s0,0,0,0,0,0,0,0,0,0,0,0,0,0,0,0h0s0,0,0,0h0s0,0,0,0,0,0,0,0,0,0,0,0,0,0,0,0a0,0,0,0,1,0,0s0,0,0,0v0s0,0,0,0,0,0,0,0,0,0,0,0h0v0s0,0,0,0,0,0,0,0,0,0,0,0h0v0h0s0,0,0-.05a0,0,0,0,1,0,0s0,0,0,0,0,0,0,0h0s0,0,0,.05a0,0,0,0,1,0,.05h0s0,0,0,0H11s0,0,0,0h0s0,0,0,0h0s0,0,0,0h0a.1.1,0,0,0,0,0h0a0,0,0,0,0,0,0,0,0,0,0,1,0,0s0,0,0,0a0,0,0,0,0,0,0s0,0,0,0,0,0,0,0,0,0,0,0l0,0s0,0,0,0v0s0,0,0,0a0,0,0,0,1,0,0h0s0,0,0,0a0,0,0,0,0,0,0s0,0,0,0v0s0,0,0,0v0h0s0,0,0,0a0,0,0,0,1,0,0s0,0,0,0h0s0,0,0,0,0,0,0,0,0,0,0,0,0,0,0,0,0,0,0,0,0,0,0,0,0,0,0,0h0v0s0-.05,0-.06h0a.06.06,0,0,0,0,0s0,0,0,0a.06.06,0,0,0,0-.06l0,0s0,0,0,0h0a0,0,0,0,1,0,0s0,0,0,0,0,0,0,0h0v0h0s0,0,0,0,0,0,0-.05,0,0,0,0a0,0,0,0,1,0,0s0,0,0,0,0,0,0,0l0,0a.06.06,0,0,1,0,0s0,0,0,0,0,0,0,0,0,0,0,0,0,0,0,0h0v0s0,0,0,0h0v0h0s0,0,0-.06h0s0,0,0-.05h0s0,0,0,0,0,0,0,0,0,0,0,0,0,0,0,0a0,0,0,0,0,0,0,0,0,0,0,1,0,0s0,0,0,0a0,0,0,0,1,0,0v0s0,0,0,0h0s0,0,0,0,0,0,0,0h0s0,0,0-.06h0s0,0,0,0h0a0,0,0,0,0,0,0s0,0,0,0,0,0,0,0v0h0s0-.07,0-.11a0,0,0,0,1,0,0s0,0,0,0,0,0,0,0,0,0,0,0,0,0,0-.05h0v0s0,0,0,0h0a0,0,0,0,0,0,0,.06.06,0,0,1,0,0s0,0,0,0h0s0,0,0,0,0,0,0,0,0,0,0,0a0,0,0,0,1,0,0h0s0,0,0,0,0,0,0,0v0h0s0,0,0,0h0s0,0,0,0,0,0,0,0,0,0,0,0a0,0,0,0,1,0,0v0a0,0,0,0,0,0,0s0,0,0,0v0a0,0,0,0,1,0,0l0,0h0l0,0h-.13a0,0,0,0,0,0,0l0,0s0,0,0,0h0s0,0-.06,0,0,0,0,0l-.19,0h0s-.08,0-.11,0,0,0,0,0a0,0,0,0,1,0,0s0,0,0,0,0,0,0,0h0v0h0s0,0,0,0h0l0,0-.06,0s0,0,0,0h0s0,0,0,0h0s0,0,0,0,0,0-.05,0,0,0,0,0,0,0,0,0l0,0,0,0s0,0,0,0,0,0,0,0,0,0,0,0,0,0,0,0,0,0,0,0,0,0,0,0,0,0,0,0h0a.05.05,0,0,0,0,.05h0v0s0,0,0,0h0v0s0,0,0,0a0,0,0,0,0,0,0v0s0,0,0,0a.05.05,0,0,0,0,0v0h0a0,0,0,0,1,0,0V1a.07.07,0,0,0,0,.05h0v0a.35.35,0,0,0,0,.12h0s0,0,0,0,0,0,0,0a.07.07,0,0,0,.05,0s0,0,0,0,0,0,0,0,0,0,0,0,0,0,0,0,0,0,0,0h0a1.43,1.43,0,0,1,.14.2h0l0,0h0s0,0,0,0h0s0,0,0,.05,0,0,0,0h0s0,0,0,0,0,0,0-.06,0,0,0,0,0,0,0,0,0,0,0,0,0,0,0,0h0s0,0,0,0h0s0,0,0,0h0s0,0,0,0v0h0s0,0,0,0,0,0,0,0a0,0,0,0,0,0,0s0,0,0-.05h0s0,0,0,0,0,0,0,0,0,0,0,0h0s0,0,0,0,0,0,0,0h0s0,0,0,0h0s0,0,0,0v0s0,0,0,0,0,0,0,0a0,0,0,0,1,0,0s0,0,0,0h0s0,0,0,0a0,0,0,0,0,0,0s0,0,0,0h0v0s0,0,0,0h0s0,0,0,0,0,0,0,0h0s0,0,0,0,0,0,0,0a0,0,0,0,0,0,0s0,0,0,0,0,0,0,0,0,0,0,0h0a0,0,0,0,0,0,0h0s0,0,0,0h0s0,0,0,0,0,0,0,0,0,0,0,0,0,0,0,0a0,0,0,0,1,0,0h0s0,0,0,0h0s0,0,0,0a0,0,0,0,0,0,0s0,0,0,0,0,0,0,0v0s0,0,0,0,0,0,0-.06,0,0,0,0,0,0,0,0,0,0,0,0,0,0,0,0h0a0,0,0,0,1,0,0h0"/><polyline class="cls-3" points="11.04 1.6 11.04 1.6 11.03 1.6 11.04 1.6"/><polyline class="cls-3" points="10.8 0.64 10.8 0.64 10.8 0.64"/><polyline class="cls-3" points="11.04 0.6 11.04 0.6 11.04 0.6"/><polyline class="cls-3" points="10.94 1.58 10.94 1.57 10.94 1.58"/><path class="cls-4" d="M11.15,1.53h0a1.27,1.27,0,0,0-.79,0,.08.08,0,0,1-.06-.14,1.39,1.39,0,0,1,.9,0,.07.07,0,0,1,.05.09.07.07,0,0,1-.07.06"/><path class="cls-3" d="M10.17,3.44h0s0,0,0,0H10s0,0,0,0h0a0,0,0,0,0,0,0H9.85s0,0,0,0h.08a0,0,0,0,0,0,0h0s0,0,0,0h.15s0,0,0,0h0"/><polyline class="cls-3" points="10.16 3.46 10.16 3.45 10.16 3.45 10.15 3.44 10.15 3.44 10.15 3.44 10.15 3.45 10.16 3.46"/><polyline class="cls-3" points="10.16 3.44 10.16 3.43 10.16 3.43 10.16 3.43 10.16 3.43 10.16 3.43 10.16 3.43 10.16 3.43 10.15 3.43 10.15 3.44 10.14 3.44 10.15 3.44 10.15 3.44 10.16 3.43 10.16 3.43 10.16 3.43 10.16 3.43 10.15 3.43 10.15 3.43 10.15 3.44 10.15 3.44 10.15 3.44 10.15 3.44 10.15 3.44 10.15 3.44 10.15 3.44 10.15 3.44 10.16 3.44 10.15 3.44 10.16 3.44 10.16 3.44 10.16 3.44 10.17 3.44 10.17 3.44 10.17 3.44 10.17 3.44 10.17 3.44 10.17 3.44 10.17 3.44 10.16 3.44 10.16 3.44 10.16 3.44 10.16 3.44 10.16 3.44 10.16 3.44 10.16 3.44 10.16 3.44 10.16 3.44 10.16 3.44 10.15 3.44 10.16 3.44"/><polyline class="cls-3" points="10.04 3.36 10.04 3.36 10.04 3.36"/><polyline class="cls-3" points="9.96 3.37 9.96 3.37 9.96 3.37"/><polyline class="cls-3" points="9.97 3.38 9.97 3.38 9.97 3.38"/><polyline class="cls-3" points="10.04 3.36 10.04 3.35 10.04 3.36"/><polygon class="cls-3" points="10.13 3.43 10.13 3.43 10.13 3.43 10.13 3.43"/><polygon class="cls-3" points="10.07 3.35 10.07 3.35 10.07 3.35 10.07 3.35"/><polyline class="cls-3" points="10.11 3.38 10.1 3.38 10.11 3.38 10.11 3.38"/><polyline class="cls-3" points="10.14 3.41 10.14 3.41 10.14 3.41"/><polyline class="cls-3" points="10.05 3.35 10.05 3.35 10.05 3.35"/><polyline class="cls-3" points="10.2 3.51 10.2 3.51 10.2 3.51"/><polygon class="cls-3" points="10.17 3.44 10.17 3.44 10.16 3.44 10.17 3.44"/><polyline class="cls-3" points="9.93 3.38 9.93 3.38 9.93 3.38"/><polyline class="cls-3" points="9.94 3.52 9.93 3.51 9.93 3.51 9.93 3.51 9.94 3.52"/><polyline class="cls-3" points="10.13 3.43 10.13 3.43 10.13 3.43"/><polygon class="cls-3" points="9.93 3.51 9.93 3.51 9.93 3.51 9.93 3.51"/><polyline class="cls-3" points="9.89 3.41 9.89 3.41 9.89 3.41"/><polygon class="cls-3" points="9.92 3.4 9.92 3.4 9.93 3.4 9.93 3.4 9.92 3.4 9.92 3.4 9.92 3.4 9.92 3.4 9.92 3.4 9.92 3.4 9.93 3.4 9.93 3.4 9.92 3.4 9.92 3.4"/><polyline class="cls-3" points="9.87 3.43 9.87 3.44 9.87 3.44 9.87 3.43"/><polyline class="cls-3" points="9.86 3.46 9.86 3.46 9.86 3.46 9.86 3.46"/><polyline class="cls-3" points="10.2 3.55 10.2 3.55 10.2 3.55"/><polyline class="cls-3" points="10.13 3.43 10.13 3.43 10.13 3.43 10.13 3.43"/><polyline class="cls-3" points="9.91 3.45 9.91 3.45 9.91 3.45 9.91 3.45 9.91 3.45"/><polyline class="cls-3" points="10.05 3.43 10.05 3.43 10.05 3.43"/><polyline class="cls-3" points="9.9 3.47 9.9 3.47 9.9 3.47 9.89 3.47 9.89 3.47 9.89 3.47 9.89 3.47 9.89 3.47 9.89 3.47 9.89 3.47 9.89 3.47 9.89 3.47 9.89 3.47 9.9 3.47 9.9 3.47 9.9 3.47"/><path class="cls-3" d="M10.2,3.55Z"/><path class="cls-3" d="M10.21,3.55h0s0,0,0,0h0v0h0s0,0,0,0h0a0,0,0,0,0,0,0h0l0,0h0v0h-.09s0,0,0,0h0s0,0,0,0h0s0,0,0,0h0c0,.05,0,0,0,0h0s0,0,0,0h0v0h0v0h0v0h0s0,0,0,0h0v0h0l0,0h0s0,0,0,0h0l0,0h0v0h0v0h0v0h0l0,0h0s0,0,0,0h0s0,0,0,0h0v0h0v0h0s0,0,0,0h0s0,0,0,0h0v0h0v0h0v0h0s0,0,0,0h0v0h0v0h0s0,0,0,0h0s0,0,0,0h0v0h0v0h0v0h0s0,0,0,0H10s0,0,0,0h.09a0,0,0,0,0,0,0h0s0,0,0,0h0s0,0,0,0H10v0h0v0h0s0,0,0,0h0a0,0,0,0,0,0,0h0s0,0,0,0h0s0,0,0,0h0s0,0,0,0h0s0,0,0,0h0s0,0,0,0h0s0,0,0,0h0s0,0,0,0h0s0,0,0,0h0a0,0,0,0,0,0,0h0v0h0s0,0,0,0h0s0,0,0,0h0s0,0,0,0H10s0,0,0,0h0s0,0,0,0h0l0,0h0v0h0s0,0,0,0h0s0,0,0,0h0s0,0,0,0h0s0,0,0,0h0l0,0h0s0,0,0,0h0s0,0,0,0h0l0,0h0s0,0,0,0h0v0h0s0,0,0,0h.1s0,0,0,0h0a0,0,0,0,0,0,0h0s0,0,0,0h0l0,0h0l0,0h0v0h0v0h0m-.06-.07h0m0,0h0m0,0h0"/><polygon class="cls-3" points="10.13 3.5 10.13 3.51 10.13 3.5 10.13 3.5 10.13 3.5"/><polyline class="cls-3" points="10.04 3.36 10.04 3.36 10.04 3.36 10.04 3.36"/><polyline class="cls-3" points="10.07 3.44 10.07 3.44 10.07 3.44 10.07 3.44 10.07 3.44 10.07 3.44"/><polyline class="cls-3" points="10.08 3.38 10.08 3.38 10.08 3.38"/><polyline class="cls-3" points="10.09 3.39 10.09 3.39 10.09 3.39 10.09 3.39 10.09 3.39 10.09 3.39 10.09 3.39 10.1 3.38 10.1 3.38 10.09 3.38 10.09 3.38 10.09 3.38 10.09 3.38 10.09 3.38 10.09 3.38 10.1 3.38 10.1 3.38 10.09 3.39 10.09 3.39 10.09 3.39 10.09 3.39 10.09 3.39 10.09 3.39 10.09 3.39 10.09 3.39"/><path class="cls-3" d="M10.09,3.4Z"/><polyline class="cls-3" points="9.95 3.41 9.95 3.42 9.95 3.42 9.95 3.42"/><polyline class="cls-3" points="9.96 3.4 9.96 3.39 9.96 3.39 9.96 3.39 9.96 3.39 9.96 3.39 9.96 3.39 9.96 3.39 9.96 3.39 9.96 3.4"/><polygon class="cls-3" points="9.91 3.45 9.91 3.45 9.91 3.45 9.91 3.45"/><path class="cls-3" d="M10,3.4h0"/><polygon class="cls-3" points="10.14 3.43 10.14 3.44 10.14 3.44 10.14 3.43"/><polyline class="cls-3" points="10.14 3.44 10.14 3.44 10.14 3.44"/><polyline class="cls-3" points="10.14 3.44 10.14 3.44 10.14 3.44"/><polyline class="cls-3" points="10.13 3.42 10.13 3.43 10.13 3.42"/><path class="cls-3" d="M10.12,3.42h0a0,0,0,0,0,0,0"/><path class="cls-3" d="M10.12,3.39h0"/><polyline class="cls-3" points="10.11 3.38 10.11 3.38 10.11 3.38"/><polyline class="cls-3" points="10.01 3.36 10.01 3.35 10.01 3.36"/><polyline class="cls-3" points="9.99 3.38 10 3.38 9.99 3.38 9.99 3.38"/><polyline class="cls-3" points="9.96 3.37 9.96 3.37 9.96 3.37 9.96 3.37 9.96 3.37 9.96 3.37 9.96 3.37 9.96 3.37 9.96 3.37 9.96 3.37 9.96 3.37 9.96 3.38 9.96 3.37"/><polyline class="cls-3" points="9.85 3.45 9.86 3.45 9.85 3.45"/><polygon class="cls-3" points="9.86 3.54 9.86 3.54 9.85 3.54 9.85 3.54 9.85 3.54 9.85 3.54 9.85 3.55 9.85 3.55 9.85 3.55 9.85 3.54 9.85 3.54 9.85 3.54 9.85 3.54 9.85 3.54 9.86 3.54 9.86 3.54"/><polyline class="cls-3" points="10.04 3.48 10.04 3.48 10.05 3.48 10.04 3.48"/><path class="cls-3" d="M11.5,3.45h-.11s0,0,0,0h-.16s0,0,0,0h0s0,0,0,0h0s0,0,0,0,0,0,0,0h0s0,0,0,0h.16s0,0,0,0h0s0,0,0,0h0"/><polyline class="cls-3" points="11.5 3.46 11.5 3.46 11.49 3.46 11.49 3.45 11.49 3.44 11.49 3.45 11.49 3.46 11.5 3.46"/><polyline class="cls-3" points="11.49 3.44 11.49 3.44 11.49 3.44 11.49 3.44 11.49 3.44 11.49 3.44 11.49 3.44 11.49 3.44 11.49 3.44 11.49 3.44 11.48 3.45 11.48 3.45 11.48 3.45 11.49 3.44 11.49 3.44 11.49 3.44 11.49 3.44 11.49 3.44 11.49 3.44 11.48 3.44 11.48 3.44 11.48 3.44 11.48 3.44 11.48 3.44 11.48 3.44 11.49 3.44 11.49 3.44 11.49 3.44 11.49 3.44 11.49 3.44 11.49 3.44 11.49 3.45 11.49 3.45 11.5 3.45 11.51 3.45 11.51 3.45 11.51 3.45 11.51 3.45 11.5 3.45 11.5 3.45 11.5 3.45 11.5 3.45 11.5 3.45 11.5 3.45 11.5 3.45 11.5 3.45 11.5 3.45 11.5 3.45 11.49 3.45 11.49 3.45 11.49 3.44 11.49 3.44 11.49 3.44"/><polyline class="cls-3" points="11.37 3.37 11.37 3.37 11.37 3.37"/><polyline class="cls-3" points="11.29 3.38 11.29 3.38 11.29 3.38"/><polyline class="cls-3" points="11.3 3.39 11.3 3.39 11.3 3.39"/><polyline class="cls-3" points="11.37 3.37 11.37 3.36 11.37 3.37"/><polyline class="cls-3" points="11.46 3.44 11.46 3.44 11.46 3.44 11.46 3.44"/><polygon class="cls-3" points="11.4 3.36 11.4 3.36 11.4 3.35 11.4 3.36"/><polyline class="cls-3" points="11.45 3.39 11.44 3.39 11.44 3.39 11.45 3.39"/><polyline class="cls-3" points="11.48 3.42 11.48 3.42 11.48 3.42"/><path class="cls-3" d="M11.38,3.36Z"/><polyline class="cls-3" points="11.53 3.52 11.53 3.52 11.53 3.52"/><polygon class="cls-3" points="11.5 3.45 11.5 3.45 11.5 3.45 11.5 3.45"/><polyline class="cls-3" points="11.27 3.38 11.27 3.38 11.27 3.38"/><polyline class="cls-3" points="11.27 3.53 11.27 3.52 11.26 3.52 11.27 3.52 11.27 3.53"/><polyline class="cls-3" points="11.46 3.44 11.46 3.44 11.46 3.44"/><polygon class="cls-3" points="11.26 3.52 11.26 3.52 11.26 3.52 11.26 3.52"/><polyline class="cls-3" points="11.22 3.41 11.22 3.42 11.22 3.41"/><polygon class="cls-3" points="11.25 3.41 11.25 3.41 11.26 3.41 11.26 3.41 11.25 3.4 11.25 3.4 11.25 3.4 11.25 3.4 11.25 3.4 11.25 3.4 11.26 3.41 11.26 3.41 11.26 3.41 11.25 3.41"/><polyline class="cls-3" points="11.21 3.44 11.2 3.44 11.2 3.44 11.21 3.44"/><polyline class="cls-3" points="11.19 3.47 11.19 3.47 11.19 3.47 11.19 3.47"/><polyline class="cls-3" points="11.54 3.56 11.53 3.56 11.54 3.56"/><polyline class="cls-3" points="11.46 3.44 11.46 3.44 11.46 3.44 11.46 3.44"/><polyline class="cls-3" points="11.24 3.46 11.24 3.46 11.24 3.46 11.24 3.46 11.24 3.46"/><polyline class="cls-3" points="11.39 3.44 11.39 3.44 11.39 3.44"/><polyline class="cls-3" points="11.23 3.48 11.23 3.48 11.23 3.48 11.23 3.48 11.23 3.48 11.22 3.48 11.22 3.48 11.22 3.48 11.22 3.48 11.22 3.48 11.22 3.48 11.22 3.48 11.23 3.48 11.23 3.48 11.23 3.48 11.23 3.48"/><path class="cls-3" d="M11.54,3.56h0v0h0s0,0,0,0h0s0,0,0,0h0a0,0,0,0,1,0,0h0s0,0,0,0h-.09s0,0,0,0h0s0,0,0,0h0s0,0,0,0h0s0,0,0,0h0s0,0,0,0h0s0,0,0,0,0,0,0,0H11.3s0,0,0,0h0v0h0s0,0,0,0h0s0,0,0,0h0v0h0v0h0v0h0s0,0,0,0h0v0h0l0,0h0s0,0,0,0h0v0h0v0h0l0,0h0v0h0v0h0l0,0h0s0,0,0,0h0s0,0,0,0h0v0h0v0h0v0h0s0,0,0,0h0s0,0,0,0h0v0h0s0,0,0,0h0s0,0,0,0h0s0,0,0,0h.11s0,0,0,0h0s0,0,0,0h0a0,0,0,0,0,0,0h.05s0,0,0,0h-.05s0,0,0,0h0s0,0,0,0h0s0,0,0,0h-.09s0,0,0,0h0s0,0,0,0h0a0,0,0,0,0,0,0h0v0h0v0h0v0h0v0h0s0,0,0,0h0a0,0,0,0,0,0,0h0s0,0,0,0h0s0,0,0,0h0v0h0v0h0a0,0,0,0,0,0,0h0s0,0,0,0h0s0,0,0,0h0l0,0h.05s0,0,0,0h0v0h0v0h0v0h0s0,0,0,0h0v0h0s0,0,0,0h0v0h0s0,0,0,0h.05s0,0,0,0h0v0h0s0,0,0,0h0v0h0s0,0,0,0h0s0,0,0,0h0s0,0,0,0h0v0h0v0h0s0,0,0,0h0v0h0Zm-.06-.07h0m0,0h0m0,0h0"/><polygon class="cls-3" points="11.46 3.51 11.46 3.52 11.46 3.51 11.46 3.51 11.46 3.51"/><polyline class="cls-3" points="11.37 3.37 11.37 3.37 11.37 3.37 11.37 3.37"/><polyline class="cls-3" points="11.4 3.45 11.4 3.45 11.4 3.45 11.4 3.45 11.4 3.45 11.4 3.45"/><polyline class="cls-3" points="11.41 3.39 11.41 3.39 11.41 3.39"/><polyline class="cls-3" points="11.42 3.4 11.42 3.4 11.42 3.4 11.42 3.4 11.42 3.39 11.42 3.39 11.42 3.39 11.43 3.38 11.43 3.38 11.43 3.38 11.43 3.39 11.43 3.39 11.43 3.39 11.43 3.38 11.43 3.38 11.43 3.38 11.43 3.38 11.42 3.39 11.42 3.39 11.42 3.4 11.42 3.4 11.42 3.4 11.42 3.4 11.42 3.4 11.42 3.4 11.42 3.4 11.42 3.4"/><path class="cls-3" d="M11.42,3.41h0Z"/><polyline class="cls-3" points="11.28 3.42 11.28 3.42 11.28 3.42 11.28 3.42"/><polyline class="cls-3" points="11.29 3.4 11.29 3.4 11.29 3.4 11.29 3.4 11.3 3.4 11.3 3.4 11.29 3.4 11.29 3.4 11.29 3.4 11.29 3.4"/><polygon class="cls-3" points="11.24 3.46 11.24 3.46 11.24 3.46 11.24 3.46"/><path class="cls-3" d="M11.3,3.41h0"/><polygon class="cls-3" points="11.47 3.44 11.47 3.44 11.47 3.44 11.47 3.44"/><polyline class="cls-3" points="11.47 3.44 11.48 3.44 11.47 3.44"/><polyline class="cls-3" points="11.48 3.45 11.48 3.44 11.48 3.45"/><polyline class="cls-3" points="11.46 3.43 11.46 3.44 11.46 3.43"/><path class="cls-3" d="M11.46,3.42h0v0"/><path class="cls-3" d="M11.46,3.4h0"/><polyline class="cls-3" points="11.44 3.39 11.45 3.39 11.44 3.39"/><polyline class="cls-3" points="11.34 3.37 11.35 3.36 11.34 3.37"/><polyline class="cls-3" points="11.33 3.38 11.33 3.39 11.33 3.39 11.33 3.38"/><polyline class="cls-3" points="11.29 3.38 11.29 3.38 11.29 3.38 11.3 3.38 11.3 3.38 11.3 3.38 11.3 3.38 11.3 3.38 11.29 3.38 11.29 3.38 11.29 3.38 11.29 3.38 11.29 3.39 11.29 3.38"/><polyline class="cls-3" points="11.19 3.46 11.19 3.46 11.19 3.46"/><polygon class="cls-3" points="11.19 3.55 11.19 3.55 11.18 3.55 11.18 3.55 11.18 3.55 11.18 3.55 11.18 3.55 11.18 3.56 11.19 3.56 11.18 3.55 11.18 3.55 11.18 3.55 11.18 3.55 11.18 3.55 11.18 3.55 11.19 3.55 11.19 3.55"/><polyline class="cls-3" points="11.38 3.49 11.38 3.49 11.38 3.49 11.38 3.49"/></g></g></svg>