<svg xmlns="http://www.w3.org/2000/svg" xmlns:xlink="http://www.w3.org/1999/xlink" viewBox="0 0 21.08 8.61"><defs><style>.cls-1{isolation:isolate;}.cls-2{fill:#d1d3d4;mix-blend-mode:multiply;}.cls-3{fill:#fff;}.cls-4{fill:url(#radial-gradient);}.cls-5{fill:url(#radial-gradient-2);}.cls-6{fill:url(#linear-gradient);}</style><radialGradient id="radial-gradient" cx="10.16" cy="5.32" r="6.75" gradientUnits="userSpaceOnUse"><stop offset="0" stop-color="#8dc63f"/><stop offset="1" stop-color="#005826"/></radialGradient><radialGradient id="radial-gradient-2" cx="10.92" cy="2.83" r="6.65" gradientUnits="userSpaceOnUse"><stop offset="0" stop-color="#00aeef"/><stop offset="0.99" stop-color="#0072bc"/></radialGradient><linearGradient id="linear-gradient" x1="10.48" y1="2.52" x2="10.48" y2="0.43" gradientUnits="userSpaceOnUse"><stop offset="0" stop-color="#00aeef" stop-opacity="0"/><stop offset="0.24" stop-color="#1ab6f1" stop-opacity="0.24"/><stop offset="1" stop-color="#6dcff6"/></linearGradient></defs><g class="cls-1"><g id="Layer_2" data-name="Layer 2"><g id="Layer_1-2" data-name="Layer 1"><ellipse class="cls-2" cx="10.61" cy="4.51" rx="10.48" ry="4.1"/><ellipse class="cls-3" cx="10.48" cy="4.1" rx="10.48" ry="4.1"/><path class="cls-4" d="M14.21,5a.63.63,0,0,1,.06.17,1.5,1.5,0,0,1,0,.2c0,.06,0,.11,0,.16v.29c0,.06,0,.11,0,.16a.33.33,0,0,1,0,.12.09.09,0,0,1-.08,0,0,0,0,0,1,0,0,.13.13,0,0,1,0-.08s0-.11,0-.2V5.37a.53.53,0,0,1,0-.12V5s0-.06,0-.09,0,0,0,0,0,0,0,0A.93.93,0,0,0,14.21,5ZM7.4,6.19a1.54,1.54,0,0,0-.17.34c0,.09,0,.14,0,.14h.07s0,0,.05,0l0,0,0-.08,0-.1,0-.13s0-.06,0-.1V6A.71.71,0,0,0,7.4,6.19Zm10.92-.91-.11.11-.13.09-.14.06-.14,0a.33.33,0,0,1-.17,0,.38.38,0,0,1-.11-.11.36.36,0,0,1-.08-.15,1.1,1.1,0,0,1,0-.18.63.63,0,0,1,0-.19.68.68,0,0,1,.07-.2h0l-.08-.07a.87.87,0,0,0-.15-.13l-.13-.09h0a1.07,1.07,0,0,1,.07.19,1.38,1.38,0,0,1,0,.22,1,1,0,0,1,0,.17,1,1,0,0,1-.06.18.51.51,0,0,1-.09.16.34.34,0,0,1-.12.12l-.15.09a.47.47,0,0,1-.17,0,.41.41,0,0,1-.23-.06.36.36,0,0,1-.15-.15.67.67,0,0,1-.09-.21.91.91,0,0,1,0-.23,1.23,1.23,0,0,1,0-.29h0A.87.87,0,0,0,16,4.48l-.13-.09h0a1.06,1.06,0,0,1,.06.19,1.38,1.38,0,0,1,0,.22.5.5,0,0,1,0,.17,1,1,0,0,1,0,.18l-.09.16a.49.49,0,0,1-.13.12.38.38,0,0,1-.15.09.47.47,0,0,1-.17,0,.38.38,0,0,1-.22-.06A.33.33,0,0,1,15,5.35a.67.67,0,0,1-.09-.21,1.79,1.79,0,0,1,0-.23h0l-.2,0-.21,0a1.24,1.24,0,0,1,.1.2c0,.06.05.13.08.21a.83.83,0,0,1,0,.22v.06s0,.07,0,.11a.39.39,0,0,1,0,.14.83.83,0,0,1,0,.15,1,1,0,0,1-.07.15.38.38,0,0,1-.09.13.27.27,0,0,1-.12.09.42.42,0,0,1-.15,0,.33.33,0,0,1-.15,0,.47.47,0,0,1-.1-.1.53.53,0,0,1-.08-.15c0-.06,0-.12,0-.18a1.23,1.23,0,0,1,0-.19,1.28,1.28,0,0,1,0-.19V5.53a.76.76,0,0,0,0-.16l-.05,0-.09,0-.09,0-.09,0h-.15l-.09,0-.1-.08A1,1,0,0,1,13,5.28l-.11.11-.13.09-.14.06-.14,0a.33.33,0,0,1-.17,0,.6.6,0,0,1-.12-.11l0,0-.2.1-.14.06-.16,0c-.05,0-.1,0-.14-.12a.81.81,0,0,1,0-.35,1.28,1.28,0,0,1,0-.19l0-.23h0l-.39.79s0,.07-.07.08l-.08,0-.1,0a.16.16,0,0,1-.06-.08s0-.06,0-.1v0l-.11.1-.15.1a.35.35,0,0,1-.17,0,.23.23,0,0,1-.16-.06A.52.52,0,0,1,10,5.32a.38.38,0,0,1-.09.09l-.11.08-.14,0a.3.3,0,0,1-.13,0l-.14,0a.27.27,0,0,1-.12-.09l0,0-.1,0L9,5.51l-.12,0H8.8a.21.21,0,0,1-.15-.07,1,1,0,0,1-.12-.19v0h0l-.09.1-.11.09-.11.09L8,5.71s0,0-.06.09a2.65,2.65,0,0,0,0,.27.28.28,0,0,0,0,.08l0,.14a.49.49,0,0,1,0,.15.53.53,0,0,1,0,.15.61.61,0,0,1-.07.14.63.63,0,0,1-.1.12l-.14.08a.47.47,0,0,1-.17,0l-.15,0-.12-.05A.39.39,0,0,1,7,6.79a.24.24,0,0,1,0-.15A.62.62,0,0,1,7,6.31a1.32,1.32,0,0,0,.08-.14l.07-.11a1.47,1.47,0,0,1,.1-.13l.18-.19a1.17,1.17,0,0,1,.16-.15l0-.18-.17.11a.35.35,0,0,1-.17,0,.34.34,0,0,1-.14,0L7,5.45l0,0-.1,0-.13,0-.12,0H6.54a.18.18,0,0,1-.15-.07.52.52,0,0,1-.12-.19A1.07,1.07,0,0,1,6.18,5a1.77,1.77,0,0,1,0-.33V4.64l0,0A.87.87,0,0,0,6,4.48l-.13-.09h0a1.07,1.07,0,0,1,.07.19,1.38,1.38,0,0,1,0,.22A1,1,0,0,1,5.9,5a.55.55,0,0,1-.06.18.51.51,0,0,1-.09.16.34.34,0,0,1-.12.12l-.15.09a.47.47,0,0,1-.17,0,.41.41,0,0,1-.23-.06.36.36,0,0,1-.15-.15.25.25,0,0,1,0-.07l-.21.17-.22.14a.64.64,0,0,1-.2.08l-.18,0a.48.48,0,0,1-.18,0,.33.33,0,0,1-.14-.1.38.38,0,0,1-.09-.15.49.49,0,0,1,0-.21s0-.07,0-.12,0-.09,0-.15,0-.13,0-.21,0-.17.06-.24l-.39,0L3,4.56l-.09.27a2.25,2.25,0,0,1-.08.24,1.07,1.07,0,0,1-.07.19c0,.06,0,.11,0,.15a.86.86,0,0,1-.15.23.19.19,0,0,1-.12.06H2.38l-.07,0,0,0a.13.13,0,0,1,0-.06v0A3.09,3.09,0,0,1,2.4,5c.06-.16.11-.3.15-.44l-.15,0-.14,0a.4.4,0,0,1-.12-.1.37.37,0,0,1-.08-.14v0a.09.09,0,0,1,0,0,0,0,0,0,1,0,0l.06,0,.09.09h.44L2.78,4l.09-.26a.83.83,0,0,0,0-.15s.21-.92-.46-.92A1.36,1.36,0,0,0,1,3.83,2.45,2.45,0,0,0,1,4.1C1,6.24,5.24,8,10.48,8c4,0,7.48-1,8.85-2.48a1.22,1.22,0,0,1-.56.12A.45.45,0,0,1,18.32,5.28Z"/><path class="cls-5" d="M12.47,5.18a.05.05,0,0,1,0,0,.09.09,0,0,1,0,0,.61.61,0,0,1,0-.17,2.11,2.11,0,0,1,.08-.22.44.44,0,0,1,.13-.21.7.7,0,0,1,.17-.13v.38c0,.06,0,.11,0,.14a.15.15,0,0,0,0,.07s-.05.1-.08.14l0,0,0,0a.09.09,0,0,1-.05,0l-.05,0-.09,0A.05.05,0,0,1,12.47,5.18Zm1-1.31.06-.19a1.36,1.36,0,0,0,0-.17.55.55,0,0,0,0-.17,1.16,1.16,0,0,0,0-.17.31.31,0,0,0,0-.11.05.05,0,0,0-.05,0,.09.09,0,0,0-.08.06.52.52,0,0,0-.07.15l0,.21a2.07,2.07,0,0,0,0,.22,1.68,1.68,0,0,0,0,.2V4a.76.76,0,0,0,0,.15.49.49,0,0,0,0,.12v.17h0l.15-.4ZM5.27,5.25a.15.15,0,0,0,.1,0,.14.14,0,0,0,.1,0,.41.41,0,0,0,.08-.13s0-.12.06-.19a1.5,1.5,0,0,0,0-.2.53.53,0,0,0,0-.13l0-.1a.2.2,0,0,0-.06-.07.11.11,0,0,0-.08,0,.14.14,0,0,0-.11.06.45.45,0,0,0-.1.13,1.34,1.34,0,0,0-.07.18,1.52,1.52,0,0,0,0,.23.49.49,0,0,0,0,.12.36.36,0,0,0,0,.09A.23.23,0,0,0,5.27,5.25Zm4.36,0,0,0a.14.14,0,0,0,.1,0,.36.36,0,0,0,.08-.12L9.92,5a.74.74,0,0,0,0-.12l.11-.49-.12,0-.11.08-.09.12a1.31,1.31,0,0,0-.09.17.7.7,0,0,0-.06.17.71.71,0,0,0,0,.14v.08a.14.14,0,0,0,0,.06A.1.1,0,0,0,9.63,5.26Zm5-1.57a1.83,1.83,0,0,0,.14-.28.67.67,0,0,0,0-.19.27.27,0,0,0,0-.11.08.08,0,0,0-.08,0,.12.12,0,0,0-.11,0,1.16,1.16,0,0,0-.07.15,3.73,3.73,0,0,0-.15.38l-.08.29c0,.09,0,.16,0,.22l0,.18c.07-.11.14-.22.2-.33A3.49,3.49,0,0,0,14.59,3.69Zm-5.5.1a2.56,2.56,0,0,0,.12-.32,2,2,0,0,0,.06-.3V3.09a0,0,0,0,0,0,0,.12.12,0,0,0-.09.06,1,1,0,0,0-.1.15A2.24,2.24,0,0,0,9,3.59l-.07.22,0,.2c0,.14,0,.26,0,.36q.07-.12.15-.27C9,4,9.05,3.89,9.09,3.79Zm9.68.08.06-.19c0-.06,0-.12.05-.17a1.11,1.11,0,0,0,0-.17,1.16,1.16,0,0,0,0-.17.31.31,0,0,0,0-.11.05.05,0,0,0,0,0,.1.1,0,0,0-.09.06.52.52,0,0,0-.07.15l-.05.21a2.07,2.07,0,0,0,0,.22,1.68,1.68,0,0,0,0,.2V4a.76.76,0,0,0,0,.15.49.49,0,0,0,0,.12v.17h0c.05-.13.11-.26.15-.4ZM6.83,3.79c0-.11.08-.22.11-.32A1.28,1.28,0,0,0,7,3.17a.19.19,0,0,0,0-.08s0,0,0,0a.12.12,0,0,0-.09.06,1,1,0,0,0-.09.15c0,.07-.07.17-.12.32l-.06.22,0,.2a1.81,1.81,0,0,0,0,.36l.14-.27ZM16.6,5.25a.15.15,0,0,0,.1,0,.14.14,0,0,0,.1,0,.41.41,0,0,0,.08-.13s0-.12.06-.19a1.5,1.5,0,0,0,0-.2.53.53,0,0,0,0-.13l0-.1-.06-.07a.11.11,0,0,0-.08,0,.14.14,0,0,0-.11.06.45.45,0,0,0-.1.13,1.34,1.34,0,0,0-.07.18,1.52,1.52,0,0,0,0,.23.49.49,0,0,0,0,.12.36.36,0,0,0,0,.09A.16.16,0,0,0,16.6,5.25Zm-1.3,0a.16.16,0,0,0,.1,0,.12.12,0,0,0,.1,0,.41.41,0,0,0,.08-.13.53.53,0,0,0,.06-.19.71.71,0,0,0,0-.2.53.53,0,0,0,0-.13.17.17,0,0,0,0-.1.18.18,0,0,0,0-.07.11.11,0,0,0-.08,0,.17.17,0,0,0-.12.06.45.45,0,0,0-.1.13,1.27,1.27,0,0,0-.06.18.8.8,0,0,0,0,.23s0,.08,0,.12l0,.09A.23.23,0,0,0,15.3,5.25Zm2.56,0,.09,0,.05,0a.09.09,0,0,0,.05,0l.05,0,0,0s.05-.09.08-.14a.15.15,0,0,1,0-.07.82.82,0,0,0,0-.14V4.36a.7.7,0,0,0-.17.13.54.54,0,0,0-.13.21,2.11,2.11,0,0,0-.08.22.61.61,0,0,0,0,.17.09.09,0,0,0,0,0,.05.05,0,0,0,0,0S17.84,5.21,17.86,5.21Zm-7.38-5c-3.8,0-7.08.91-8.59,2.22a2,2,0,0,1,.58-.08c.92,0,.84,1,.84,1a1.09,1.09,0,0,1,0,.17c0,.06,0,.13,0,.21L3.19,4c0,.09,0,.17-.08.27l.34,0,.39,0L4,3.69c.06-.18.13-.36.2-.53A.5.5,0,0,1,4.31,3a.22.22,0,0,1,.14,0h.06s0,0,0,0a.1.1,0,0,1,0,.05s0,0,0,.06v.09a.54.54,0,0,1,0,.1l-.07.2c0,.07,0,.14-.08.22s0,.15-.08.22a2.17,2.17,0,0,0-.07.24l.14,0h.24l0,0s0,0,0,0v0a.13.13,0,0,1,0,.06l0,0,0,0H4.39l-.11,0-.1,0s0,.18-.08.4a1.58,1.58,0,0,0,0,.28.29.29,0,0,0,0,.17.18.18,0,0,0,.14,0,.15.15,0,0,0,.09,0,.37.37,0,0,0,.12-.07.79.79,0,0,0,.15-.12L4.8,5l0,0h0a.38.38,0,0,1,0-.1,1.18,1.18,0,0,1,.05-.35A.77.77,0,0,1,5,4.31a.72.72,0,0,1,.53-.22.8.8,0,0,1,.27,0A1,1,0,0,1,6,4.25l.16.13a.17.17,0,0,1,0-.07l0-.25.07-.24a2.69,2.69,0,0,1,.13-.4,2.44,2.44,0,0,1,.14-.28,2.09,2.09,0,0,1,.16-.22.6.6,0,0,1,.18-.15.35.35,0,0,1,.19-.06.21.21,0,0,1,.12,0,.23.23,0,0,1,.07.07.29.29,0,0,1,0,.1.41.41,0,0,1,0,.11,1.43,1.43,0,0,1,0,.29,1.71,1.71,0,0,1-.09.3,2.55,2.55,0,0,1-.13.29c0,.1-.1.2-.16.3l-.16.29a2.6,2.6,0,0,0-.15.28l0,0s0,0,0,.05l0,.06a.13.13,0,0,0,0,.06V5a.17.17,0,0,0,0,.07.14.14,0,0,0,0,.07s0,0,0,0H6.7l.08,0,.09,0,0,0a1.15,1.15,0,0,1,0-.19L7,4.63A1.85,1.85,0,0,1,7,4.38a1.54,1.54,0,0,1,.08-.19.32.32,0,0,1,.1-.1.38.38,0,0,1,.13,0,.16.16,0,0,1,.09,0,.1.1,0,0,1,0,.08s0,0,0,0a.08.08,0,0,1,0,0s0,.1,0,.16l0,.26,0,.25a1.11,1.11,0,0,0,0,.17.17.17,0,0,0,0,.07s0,0,0,.06l0,0a.11.11,0,0,0,.06,0,.16.16,0,0,0,.1,0,.62.62,0,0,0,.08-.12A.58.58,0,0,0,7.65,5l0-.12.12-.56a.13.13,0,0,1,0-.09l.07-.07.08,0h.09a.08.08,0,0,1,.07,0,.05.05,0,0,1,0,.06s0,0,0,0l0,.11,0,.15-.05.24c0,.11,0,.19,0,.25S8,5.25,8,5.42l.1-.06.12-.1.14-.16A1.71,1.71,0,0,0,8.44,5a2.11,2.11,0,0,1,0-.26,3.67,3.67,0,0,1,0-.39l0-.25.06-.24c0-.17.09-.3.13-.4l.15-.28A1.25,1.25,0,0,1,9,2.92a.6.6,0,0,1,.18-.15.33.33,0,0,1,.19-.06.2.2,0,0,1,.11,0l.07.07a.3.3,0,0,1,0,.1.41.41,0,0,1,0,.11,1.43,1.43,0,0,1,0,.29c0,.1-.06.2-.1.3a1.51,1.51,0,0,1-.13.29l-.15.3c-.06.1-.11.2-.17.29l-.15.28s0,0,0,0l0,.05v.06l0,.06V5s0,0,0,.07a.64.64,0,0,0,0,.07l0,0H9l.08,0,.09,0,0,0,0-.18a1.72,1.72,0,0,1,.1-.26,2.55,2.55,0,0,1,.14-.24.91.91,0,0,1,.17-.17.76.76,0,0,1,.19-.12.54.54,0,0,1,.21,0l.05,0,0,0,0,0,0,0h.18l0,0a.08.08,0,0,1,0,0,.19.19,0,0,1,0,.08.92.92,0,0,1,0,.16c0,.06,0,.12,0,.18l0,.21a.74.74,0,0,0,0,.19.27.27,0,0,0,0,.11s0,0,0,0h.07l.07,0,.07,0L10.63,5a.93.93,0,0,0,.13-.15,1,1,0,0,1,0-.16,2.36,2.36,0,0,1,0-.28c0-.08,0-.15,0-.21a.27.27,0,0,1,.06-.12.2.2,0,0,1,.13,0,.12.12,0,0,1,.12,0,.23.23,0,0,1,0,.13.18.18,0,0,1,0,.06.22.22,0,0,1,0,.08v.1s0,.07,0,.11,0,.07,0,.09v0h0l0,0,0-.1.06-.13s0-.07,0-.1l.05-.09,0,0a.23.23,0,0,1,.11-.11.28.28,0,0,1,.13,0,.14.14,0,0,1,.12.06.29.29,0,0,1,.05.17.15.15,0,0,1,0,.06.29.29,0,0,1,0,.09.78.78,0,0,1,0,.14c0,.06,0,.11,0,.16s0,.09,0,.13,0,.08,0,.12a.38.38,0,0,0,0,.16.07.07,0,0,0,.07.06l.05,0s.06,0,.06,0l.07,0,.06,0v0a.63.63,0,0,1,0-.19.68.68,0,0,1,.07-.2,1.74,1.74,0,0,1,.1-.19.7.7,0,0,1,.16-.19.59.59,0,0,1,.19-.13.79.79,0,0,1,.22,0,1.18,1.18,0,0,1,0-.34L13,3.47a1.51,1.51,0,0,1,.11-.32,1.17,1.17,0,0,1,.14-.25.86.86,0,0,1,.18-.16.32.32,0,0,1,.18-.06.21.21,0,0,1,.12,0,.25.25,0,0,1,.08.1.58.58,0,0,1,.05.14,1,1,0,0,1,0,.17v.11a1.05,1.05,0,0,1-.07.4L13.65,4a2.75,2.75,0,0,1-.15.36c-.08.18-.14.3-.16.37s0,0,0,0,0,0,0,.06,0,0,0,.08V5a.19.19,0,0,0,0,.08.15.15,0,0,0,0,.07l0,.05a.06.06,0,0,0,.05,0h.06l.08,0,.07,0,.08,0L13.77,5V5c0-.12,0-.25.05-.38a3.07,3.07,0,0,1,.07-.42A2.71,2.71,0,0,1,14,3.77a3.56,3.56,0,0,1,.13-.39,2.25,2.25,0,0,1,.16-.31.81.81,0,0,1,.2-.21.46.46,0,0,1,.24-.08l.11,0a.21.21,0,0,1,.1.06A.2.2,0,0,1,15,3a.41.41,0,0,1,0,.16.88.88,0,0,1,0,.21,1,1,0,0,1-.08.24,1.59,1.59,0,0,1-.12.27l-.15.28-.18.28a2.35,2.35,0,0,1-.19.25v0l.05,0h.14a.68.68,0,0,0,.26,0l.16-.06v0A.77.77,0,0,1,15,4.31a.6.6,0,0,1,.22-.16.73.73,0,0,1,.3-.06.77.77,0,0,1,.27,0,1.08,1.08,0,0,1,.24.12,1.45,1.45,0,0,1,.19.17l.07-.11a.63.63,0,0,1,.23-.16.73.73,0,0,1,.3-.06.84.84,0,0,1,.27,0,1,1,0,0,1,.23.12.89.89,0,0,1,.2.19l.06.06h0a.7.7,0,0,1,.16-.19A.72.72,0,0,1,18,4.18a.79.79,0,0,1,.22,0,1.18,1.18,0,0,1,0-.34l.08-.32a1.51,1.51,0,0,1,.11-.32.87.87,0,0,1,.15-.25.64.64,0,0,1,.17-.16.32.32,0,0,1,.18-.06.21.21,0,0,1,.12,0,.25.25,0,0,1,.08.1.58.58,0,0,1,.05.14,1,1,0,0,1,0,.17v.11a1.05,1.05,0,0,1-.07.4L19,4a2.75,2.75,0,0,1-.15.36c-.08.18-.14.3-.16.37s-.26.57.23.57c.73,0,1-1,1.05-1.09V4.1C20,2,15.71.23,10.48.23Z"/><ellipse class="cls-6" cx="10.48" cy="1.48" rx="4.24" ry="1.05"/></g></g></g></svg>