<svg xmlns="http://www.w3.org/2000/svg" xmlns:xlink="http://www.w3.org/1999/xlink" viewBox="0 0 16.92 8.37"><defs><style>.cls-1{isolation:isolate;}.cls-2,.cls-8{fill:#fff;}.cls-3{fill:#2e3191;}.cls-4{fill:url(#linear-gradient);}.cls-5{mix-blend-mode:multiply;}.cls-6,.cls-7{fill:#231f20;}.cls-6,.cls-8{stroke:#2e3192;stroke-linejoin:round;stroke-width:0.24px;}.cls-9{fill:#8dc63f;}</style><linearGradient id="linear-gradient" x1="8.46" y1="7.43" x2="8.46" y2="0.78" gradientUnits="userSpaceOnUse"><stop offset="0.68" stop-color="#00aeef" stop-opacity="0"/><stop offset="1" stop-color="#00aeef" stop-opacity="0.8"/></linearGradient></defs><g class="cls-1"><g id="Layer_2" data-name="Layer 2"><g id="Layer_1-2" data-name="Layer 1"><path class="cls-2" d="M16.92,1.68A19.07,19.07,0,0,0,8.46,0,19.1,19.1,0,0,0,0,1.68v5A19.1,19.1,0,0,0,8.46,8.37a19.07,19.07,0,0,0,8.46-1.68Z"/><path class="cls-3" d="M8.46.24A19.44,19.44,0,0,0,.25,1.78V6.25a10.09,10.09,0,0,1,2.09-.19A16.53,16.53,0,0,1,4,6.15a28.68,28.68,0,0,1,3.38.66,23.16,23.16,0,0,0,4.25.7h1.22c.34,0,.69,0,.86,0a8.59,8.59,0,0,0,2.93-1V1.78A19.38,19.38,0,0,0,8.46.24Z"/><path class="cls-4" d="M8.46,7.43a18.65,18.65,0,0,1-7.4-1.34v-4A18.65,18.65,0,0,1,8.46.78a18.61,18.61,0,0,1,7.4,1.34v4A18.61,18.61,0,0,1,8.46,7.43Z"/><g class="cls-5"><path class="cls-6" d="M5.61,2.33l-.08,0a2.31,2.31,0,0,0-.31.16,3.74,3.74,0,0,0-.37.24,5.62,5.62,0,0,0-.47.38l-.31.29-.23.23-.12.13-.11.12L3.52,4s0,.08-.06.11l0,.07,0,0a2.39,2.39,0,0,0-.16.32,3,3,0,0,0-.09.29.94.94,0,0,1,0,.09.07.07,0,0,1,0,0v.08a.09.09,0,0,1,0,.09s-.06,0-.1.06l-.15,0H2.46a.2.2,0,0,1-.08,0,.07.07,0,0,1,0,0v0h0c0-.06,0-.12.08-.2l.1-.24.12-.27.12-.27a.47.47,0,0,0,0-.17V3.83c0-.07,0-.14,0-.23s0-.14,0-.23a1.51,1.51,0,0,0-.05-.28c0-.19-.08-.35-.11-.47a.74.74,0,0,0-.1-.23l0,0a.05.05,0,0,1,0,0s0-.05.07-.07l.12,0h.3a.68.68,0,0,1,.21,0q.11,0,.12.09t.09.36c0,.12.05.25.07.4a3.5,3.5,0,0,1,.06.48s0,.05,0,.05h.06l.32-.33a4.28,4.28,0,0,0,.29-.33,1.41,1.41,0,0,0,.21-.31.78.78,0,0,0,.09-.27.09.09,0,0,1,0-.05.1.1,0,0,1,.1-.06h.89c.09,0,.14,0,.14.06Z"/><path class="cls-6" d="M5.89,3.74a1.34,1.34,0,0,1-.07.18c0,.06-.06.13-.09.21l-.11.24-.12.25c0,.08-.06.16-.08.23a.34.34,0,0,0,0,.19s0,0,0,.06l0,0a.09.09,0,0,1,0,.08l-.12,0-.11,0H5l-.15,0a.13.13,0,0,1-.08-.11.65.65,0,0,1,0-.11.61.61,0,0,1,.05-.12,1.17,1.17,0,0,1,0-.11l0-.07h0A1.55,1.55,0,0,1,4.64,5a1.67,1.67,0,0,1-.28.18A.82.82,0,0,1,4,5.27a.47.47,0,0,1-.17,0l-.12-.1a.36.36,0,0,1-.07-.19.73.73,0,0,1,.08-.36,1.18,1.18,0,0,1,.14-.23,1.07,1.07,0,0,1,.25-.21A1.5,1.5,0,0,1,4.5,4,2.48,2.48,0,0,1,5,3.92h0a0,0,0,0,1,0,0l0,0L5,4a.74.74,0,0,0-.35.14,1.7,1.7,0,0,0-.23.24.77.77,0,0,0-.12.24.45.45,0,0,0,0,.17s0,.08,0,.09H4.4a.32.32,0,0,0,.17-.07,1.2,1.2,0,0,0,.21-.19A3,3,0,0,0,5,4.41a2.2,2.2,0,0,0,.18-.28,2.1,2.1,0,0,0,.13-.26.54.54,0,0,0,0-.19.16.16,0,0,0-.1-.15.46.46,0,0,0-.21,0l-.15,0-.15,0L4.6,3.6l-.07,0h0s0,0,0,0a.18.18,0,0,1,0-.13.42.42,0,0,1,.14-.12.82.82,0,0,1,.25-.11,1.38,1.38,0,0,1,.37-.05,1.08,1.08,0,0,1,.35.05.48.48,0,0,1,.19.11.31.31,0,0,1,.09.13s0,.08,0,.1A1,1,0,0,1,5.89,3.74Z"/><path class="cls-6" d="M8.38,2.21a.18.18,0,0,1-.08.09H8.25l0,0-.05,0-.05,0H8a.5.5,0,0,0-.34.18,1.47,1.47,0,0,0-.13.17l-.16.27c-.06.12-.13.26-.21.44,0,0,0,0,0,0h.37a0,0,0,0,1,0,0s0,0,0,.07a.21.21,0,0,1-.09,0H7.15l0,0s0,0,0,0a4,4,0,0,0-.15.39c-.06.14-.12.29-.17.44s-.12.3-.19.45a2.78,2.78,0,0,1-.22.42,1.8,1.8,0,0,1-.26.34l-.17.15-.17.1-.17.07-.2,0h0q-.09,0-.09-.06s0,0,0,0l0,0a1.44,1.44,0,0,0,.22-.25,4.2,4.2,0,0,0,.24-.38C5.89,5,6,4.83,6,4.68s.15-.31.21-.46l.18-.41c.06-.13.1-.24.14-.32a0,0,0,0,0,0,0,.05.05,0,0,0,0,0H6.25s0,0,0,0a.09.09,0,0,1,0-.09.19.19,0,0,1,.09,0H6.6l.05,0a0,0,0,0,0,0,0c.09-.2.18-.37.26-.52a1.55,1.55,0,0,1,.28-.36,1.26,1.26,0,0,1,.29-.2,1.06,1.06,0,0,1,.26-.1L8,2h.27l.15,0v0h0v0S8.39,2.17,8.38,2.21Z"/><path class="cls-6" d="M8.34,3.47q-.06.12-.12.27c-.06.12-.12.24-.18.38s-.12.28-.19.42a1.2,1.2,0,0,0-.15.39s0,0,0,.05a.28.28,0,0,0,0,.09.17.17,0,0,1,0,.07.06.06,0,0,1,0,.06l-.16,0-.21,0-.15,0S7,5.2,7,5.16v0l.12-.29c0-.12.1-.24.16-.36s.13-.28.21-.43l.08-.17a1.42,1.42,0,0,0,.08-.18,1,1,0,0,0,.05-.16.18.18,0,0,0,0-.12s0,0,0,0v0a.06.06,0,0,1,0,0,.09.09,0,0,1,.06,0h.51s.07,0,.07.05A1.07,1.07,0,0,1,8.34,3.47Zm.24-.58a.39.39,0,0,1-.27.1.26.26,0,0,1-.18-.05.22.22,0,0,1-.08-.15.24.24,0,0,1,0-.12.44.44,0,0,1,.08-.11l.12-.07.14,0a.35.35,0,0,1,.18,0,.22.22,0,0,1,.08.15A.29.29,0,0,1,8.58,2.89Z"/><path class="cls-6" d="M10.68,3.53a.64.64,0,0,1-.06.16l-.09.21c0,.07-.07.15-.11.23s-.14.27-.2.41a1.42,1.42,0,0,0-.14.39.65.65,0,0,0,0,.18s0,0-.05.08l-.13,0-.14,0H9.65l-.16,0a.12.12,0,0,1-.06-.1V5.07s0,0,0,0,.06-.17.11-.28.11-.23.15-.34L9.9,4a.36.36,0,0,0,0-.09s0-.06,0-.09l0-.09a.07.07,0,0,0,0,0s0,0,0,0l-.08,0s0,0,0,0L9.54,4c-.11.11-.2.22-.29.32L9,4.65a1.59,1.59,0,0,0-.17.25L8.79,5a.43.43,0,0,0,0,.07l0,.06a.25.25,0,0,1-.17.12.85.85,0,0,1-.23,0l-.14,0c-.05,0-.08,0-.08-.07v0h0A1.21,1.21,0,0,1,8.15,5l.09-.19.09-.22.11-.22L8.7,3.8s0-.1.06-.15a.5.5,0,0,0,0-.13.26.26,0,0,0,0-.11,0,0,0,0,0,0,0V3.31a.09.09,0,0,1,.07,0l.14,0h.35c.05,0,.07,0,.07,0a.58.58,0,0,1,0,.2c0,.09-.07.18-.11.27S9.19,4,9.15,4s-.08.17-.11.23,0,0,0,0h.05v0l.07-.08A2.3,2.3,0,0,1,9.33,4l.25-.26.28-.25a1.66,1.66,0,0,1,.3-.19.56.56,0,0,1,.27-.08.47.47,0,0,1,.16,0,.2.2,0,0,1,.1.16A.45.45,0,0,1,10.68,3.53Z"/><path class="cls-6" d="M13.45,2.26l-.06.18c0,.08-.08.19-.14.3l-.18.38-.19.4c-.07.13-.13.24-.18.35l-.12.26c-.08.15-.15.3-.22.45a1.16,1.16,0,0,0-.12.43s0,0,0,0a.08.08,0,0,0,0,0s0,0,0,0a.07.07,0,0,1,0,.07l-.11,0-.12,0h-.1l-.19,0a.11.11,0,0,1-.07-.11s0,0,0-.06,0,0,0,0,0-.06,0-.11l.07-.16a2.38,2.38,0,0,1,.14-.27v0h-.05a2.46,2.46,0,0,1-.42.43,1.54,1.54,0,0,1-.32.22.81.81,0,0,1-.21.09l-.11,0a.22.22,0,0,1-.19-.09A.31.31,0,0,1,10.51,5a1,1,0,0,1,0-.33,2.22,2.22,0,0,1,.14-.38,2.06,2.06,0,0,1,.23-.37,2.13,2.13,0,0,1,.33-.34,1.74,1.74,0,0,1,.4-.23,1.14,1.14,0,0,1,.46-.09.62.62,0,0,1,.21,0l.12,0s0,0,0,0a3.79,3.79,0,0,0,.26-.56.92.92,0,0,0,.09-.36h0a0,0,0,0,0,0,0l0,0,.06,0h.54s0,0,0,0ZM12.22,3.37a.47.47,0,0,0-.25.07,1.32,1.32,0,0,0-.26.22,1.61,1.61,0,0,0-.24.28,2.8,2.8,0,0,0-.2.32c0,.1-.1.2-.13.28a.68.68,0,0,0,0,.21s0,.07.08.07a.35.35,0,0,0,.19-.09,2.51,2.51,0,0,0,.25-.23l.26-.31c.09-.11.17-.22.24-.32l.17-.27a.5.5,0,0,0,.07-.16S12.3,3.37,12.22,3.37Z"/><path class="cls-6" d="M15.16,3.62,15,3.68a.31.31,0,0,0-.11.08,1,1,0,0,0-.08.11.54.54,0,0,0,0,.15,1.26,1.26,0,0,1-.14.53,1.65,1.65,0,0,1-.29.39,1.12,1.12,0,0,1-.4.25,1.06,1.06,0,0,1-.42.09,1,1,0,0,1-.32,0A.66.66,0,0,1,13,5.11a.94.94,0,0,1-.12-.18.54.54,0,0,1-.05-.21,1,1,0,0,1,0-.29,1.41,1.41,0,0,1,.09-.32,2.21,2.21,0,0,1,.18-.34,1.58,1.58,0,0,1,.28-.3,1.45,1.45,0,0,1,.36-.22,1.4,1.4,0,0,1,.47-.08h.1l.15,0,.13,0a.1.1,0,0,1,.06.09v0a.08.08,0,0,1-.07,0s0,0,0,0h-.15a.51.51,0,0,0-.35.14,1.72,1.72,0,0,0-.33.33,2.26,2.26,0,0,0-.22.44,1,1,0,0,0-.06.45.38.38,0,0,0,.07.22.29.29,0,0,0,.22.08A.44.44,0,0,0,14,5a1.12,1.12,0,0,0,.2-.18,1,1,0,0,0,.13-.29,1.25,1.25,0,0,0,0-.35,1.46,1.46,0,0,0,0-.17c0-.05-.05-.08-.06-.11l-.07,0s0,0,0-.05,0,0,0,0a.12.12,0,0,1,.05-.05.81.81,0,0,1,.31-.14,1.7,1.7,0,0,1,.41,0h.17l.08,0s0,0,0,.05S15.2,3.6,15.16,3.62Z"/><path class="cls-6" d="M5.54,5.36a14.65,14.65,0,0,0-3.19.43l0,0a12.58,12.58,0,0,1,3-.23A2.42,2.42,0,0,0,5.54,5.36Z"/><path class="cls-6" d="M7.88,5.46c-.52-.06-1-.09-1.5-.1a1.83,1.83,0,0,1-.21.27c.53,0,1.11.07,1.75.15,4.06.49,5.58.07,6.8-.53A16.9,16.9,0,0,1,7.88,5.46Z"/><path class="cls-7" d="M5.61,2.33l-.08,0a2.31,2.31,0,0,0-.31.16,3.74,3.74,0,0,0-.37.24,5.62,5.62,0,0,0-.47.38l-.31.29-.23.23-.12.13-.11.12L3.52,4s0,.08-.06.11l0,.07,0,0a2.39,2.39,0,0,0-.16.32,3,3,0,0,0-.09.29.94.94,0,0,1,0,.09.07.07,0,0,1,0,0v.08a.09.09,0,0,1,0,.09s-.06,0-.1.06l-.15,0H2.46a.2.2,0,0,1-.08,0,.07.07,0,0,1,0,0v0h0c0-.06,0-.12.08-.2l.1-.24.12-.27.12-.27a.47.47,0,0,0,0-.17V3.83c0-.07,0-.14,0-.23s0-.14,0-.23a1.51,1.51,0,0,0-.05-.28c0-.19-.08-.35-.11-.47a.74.74,0,0,0-.1-.23l0,0a.05.05,0,0,1,0,0s0-.05.07-.07l.12,0h.3a.68.68,0,0,1,.21,0q.11,0,.12.09t.09.36c0,.12.05.25.07.4a3.5,3.5,0,0,1,.06.48s0,.05,0,.05h.06l.32-.33a4.28,4.28,0,0,0,.29-.33,1.41,1.41,0,0,0,.21-.31.78.78,0,0,0,.09-.27.09.09,0,0,1,0-.05.1.1,0,0,1,.1-.06h.89c.09,0,.14,0,.14.06Z"/><path class="cls-7" d="M5.89,3.74a1.34,1.34,0,0,1-.07.18c0,.06-.06.13-.09.21l-.11.24-.12.25c0,.08-.06.16-.08.23a.34.34,0,0,0,0,.19s0,0,0,.06l0,0a.09.09,0,0,1,0,.08l-.12,0-.11,0H5l-.15,0a.13.13,0,0,1-.08-.11.65.65,0,0,1,0-.11.61.61,0,0,1,.05-.12,1.17,1.17,0,0,1,0-.11l0-.07h0A1.55,1.55,0,0,1,4.64,5a1.67,1.67,0,0,1-.28.18A.82.82,0,0,1,4,5.27a.47.47,0,0,1-.17,0l-.12-.1a.36.36,0,0,1-.07-.19.73.73,0,0,1,.08-.36,1.18,1.18,0,0,1,.14-.23,1.07,1.07,0,0,1,.25-.21A1.5,1.5,0,0,1,4.5,4,2.48,2.48,0,0,1,5,3.92h0a0,0,0,0,1,0,0l0,0L5,4a.74.74,0,0,0-.35.14,1.7,1.7,0,0,0-.23.24.77.77,0,0,0-.12.24.45.45,0,0,0,0,.17s0,.08,0,.09H4.4a.32.32,0,0,0,.17-.07,1.2,1.2,0,0,0,.21-.19A3,3,0,0,0,5,4.41a2.2,2.2,0,0,0,.18-.28,2.1,2.1,0,0,0,.13-.26.54.54,0,0,0,0-.19.16.16,0,0,0-.1-.15.46.46,0,0,0-.21,0l-.15,0-.15,0L4.6,3.6l-.07,0h0s0,0,0,0a.18.18,0,0,1,0-.13.42.42,0,0,1,.14-.12.82.82,0,0,1,.25-.11,1.38,1.38,0,0,1,.37-.05,1.08,1.08,0,0,1,.35.05.48.48,0,0,1,.19.11.31.31,0,0,1,.09.13s0,.08,0,.1A1,1,0,0,1,5.89,3.74Z"/><path class="cls-7" d="M8.38,2.21a.18.18,0,0,1-.08.09H8.25l0,0-.05,0-.05,0H8a.5.5,0,0,0-.34.18,1.47,1.47,0,0,0-.13.17l-.16.27c-.06.12-.13.26-.21.44,0,0,0,0,0,0h.37a0,0,0,0,1,0,0s0,0,0,.07a.21.21,0,0,1-.09,0H7.15l0,0s0,0,0,0a4,4,0,0,0-.15.39c-.06.14-.12.29-.17.44s-.12.3-.19.45a2.78,2.78,0,0,1-.22.42,1.8,1.8,0,0,1-.26.34l-.17.15-.17.1-.17.07-.2,0h0q-.09,0-.09-.06s0,0,0,0l0,0a1.44,1.44,0,0,0,.22-.25,4.2,4.2,0,0,0,.24-.38C5.89,5,6,4.83,6,4.68s.15-.31.21-.46l.18-.41c.06-.13.1-.24.14-.32a0,0,0,0,0,0,0,.05.05,0,0,0,0,0H6.25s0,0,0,0a.09.09,0,0,1,0-.09.19.19,0,0,1,.09,0H6.6l.05,0a0,0,0,0,0,0,0c.09-.2.18-.37.26-.52a1.55,1.55,0,0,1,.28-.36,1.26,1.26,0,0,1,.29-.2,1.06,1.06,0,0,1,.26-.1L8,2h.27l.15,0v0h0v0S8.39,2.17,8.38,2.21Z"/><path class="cls-7" d="M8.34,3.47q-.06.12-.12.27c-.06.12-.12.24-.18.38s-.12.28-.19.42a1.2,1.2,0,0,0-.15.39s0,0,0,.05a.28.28,0,0,0,0,.09.17.17,0,0,1,0,.07.06.06,0,0,1,0,.06l-.16,0-.21,0-.15,0S7,5.2,7,5.16v0l.12-.29c0-.12.1-.24.16-.36s.13-.28.21-.43l.08-.17a1.42,1.42,0,0,0,.08-.18,1,1,0,0,0,.05-.16.18.18,0,0,0,0-.12s0,0,0,0v0a.06.06,0,0,1,0,0,.09.09,0,0,1,.06,0h.51s.07,0,.07.05A1.07,1.07,0,0,1,8.34,3.47Zm.24-.58a.39.39,0,0,1-.27.1.26.26,0,0,1-.18-.05.22.22,0,0,1-.08-.15.24.24,0,0,1,0-.12.44.44,0,0,1,.08-.11l.12-.07.14,0a.35.35,0,0,1,.18,0,.22.22,0,0,1,.08.15A.29.29,0,0,1,8.58,2.89Z"/><path class="cls-7" d="M10.68,3.53a.64.64,0,0,1-.06.16l-.09.21c0,.07-.07.15-.11.23s-.14.27-.2.41a1.42,1.42,0,0,0-.14.39.65.65,0,0,0,0,.18s0,0-.05.08l-.13,0-.14,0H9.65l-.16,0a.12.12,0,0,1-.06-.1V5.07s0,0,0,0,.06-.17.11-.28.11-.23.15-.34L9.9,4a.36.36,0,0,0,0-.09s0-.06,0-.09l0-.09a.07.07,0,0,0,0,0s0,0,0,0l-.08,0s0,0,0,0L9.54,4c-.11.11-.2.22-.29.32L9,4.65a1.59,1.59,0,0,0-.17.25L8.79,5a.43.43,0,0,0,0,.07l0,.06a.25.25,0,0,1-.17.12.85.85,0,0,1-.23,0l-.14,0c-.05,0-.08,0-.08-.07v0h0A1.21,1.21,0,0,1,8.15,5l.09-.19.09-.22.11-.22L8.7,3.8s0-.1.06-.15a.5.5,0,0,0,0-.13.26.26,0,0,0,0-.11,0,0,0,0,0,0,0V3.31a.09.09,0,0,1,.07,0l.14,0h.35c.05,0,.07,0,.07,0a.58.58,0,0,1,0,.2c0,.09-.07.18-.11.27S9.19,4,9.15,4s-.08.17-.11.23,0,0,0,0h.05v0l.07-.08A2.3,2.3,0,0,1,9.33,4l.25-.26.28-.25a1.66,1.66,0,0,1,.3-.19.56.56,0,0,1,.27-.08.47.47,0,0,1,.16,0,.2.2,0,0,1,.1.16A.45.45,0,0,1,10.68,3.53Z"/><path class="cls-7" d="M13.45,2.26l-.06.18c0,.08-.08.19-.14.3l-.18.38-.19.4c-.07.13-.13.24-.18.35l-.12.26c-.08.15-.15.3-.22.45a1.16,1.16,0,0,0-.12.43s0,0,0,0a.08.08,0,0,0,0,0s0,0,0,0a.07.07,0,0,1,0,.07l-.11,0-.12,0h-.1l-.19,0a.11.11,0,0,1-.07-.11s0,0,0-.06,0,0,0,0,0-.06,0-.11l.07-.16a2.38,2.38,0,0,1,.14-.27v0h-.05a2.46,2.46,0,0,1-.42.43,1.54,1.54,0,0,1-.32.22.81.81,0,0,1-.21.09l-.11,0a.22.22,0,0,1-.19-.09A.31.31,0,0,1,10.51,5a1,1,0,0,1,0-.33,2.22,2.22,0,0,1,.14-.38,2.06,2.06,0,0,1,.23-.37,2.13,2.13,0,0,1,.33-.34,1.74,1.74,0,0,1,.4-.23,1.14,1.14,0,0,1,.46-.09.62.62,0,0,1,.21,0l.12,0s0,0,0,0a3.79,3.79,0,0,0,.26-.56.92.92,0,0,0,.09-.36h0a0,0,0,0,0,0,0l0,0,.06,0h.54s0,0,0,0ZM12.22,3.37a.47.47,0,0,0-.25.07,1.32,1.32,0,0,0-.26.22,1.61,1.61,0,0,0-.24.28,2.8,2.8,0,0,0-.2.32c0,.1-.1.2-.13.28a.68.68,0,0,0,0,.21s0,.07.08.07a.35.35,0,0,0,.19-.09,2.51,2.51,0,0,0,.25-.23l.26-.31c.09-.11.17-.22.24-.32l.17-.27a.5.5,0,0,0,.07-.16S12.3,3.37,12.22,3.37Z"/><path class="cls-7" d="M15.16,3.62,15,3.68a.31.31,0,0,0-.11.08,1,1,0,0,0-.08.11.54.54,0,0,0,0,.15,1.26,1.26,0,0,1-.14.53,1.65,1.65,0,0,1-.29.39,1.12,1.12,0,0,1-.4.25,1.06,1.06,0,0,1-.42.09,1,1,0,0,1-.32,0A.66.66,0,0,1,13,5.11a.94.94,0,0,1-.12-.18.54.54,0,0,1-.05-.21,1,1,0,0,1,0-.29,1.41,1.41,0,0,1,.09-.32,2.21,2.21,0,0,1,.18-.34,1.58,1.58,0,0,1,.28-.3,1.45,1.45,0,0,1,.36-.22,1.4,1.4,0,0,1,.47-.08h.1l.15,0,.13,0a.1.1,0,0,1,.06.09v0a.08.08,0,0,1-.07,0s0,0,0,0h-.15a.51.51,0,0,0-.35.14,1.72,1.72,0,0,0-.33.33,2.26,2.26,0,0,0-.22.44,1,1,0,0,0-.06.45.38.38,0,0,0,.07.22.29.29,0,0,0,.22.08A.44.44,0,0,0,14,5a1.12,1.12,0,0,0,.2-.18,1,1,0,0,0,.13-.29,1.25,1.25,0,0,0,0-.35,1.46,1.46,0,0,0,0-.17c0-.05-.05-.08-.06-.11l-.07,0s0,0,0-.05,0,0,0,0a.12.12,0,0,1,.05-.05.81.81,0,0,1,.31-.14,1.7,1.7,0,0,1,.41,0h.17l.08,0s0,0,0,.05S15.2,3.6,15.16,3.62Z"/><path class="cls-7" d="M5.54,5.36a14.65,14.65,0,0,0-3.19.43l0,0a12.58,12.58,0,0,1,3-.23A2.42,2.42,0,0,0,5.54,5.36Z"/><path class="cls-7" d="M7.88,5.46c-.52-.06-1-.09-1.5-.1a1.83,1.83,0,0,1-.21.27c.53,0,1.11.07,1.75.15,4.06.49,5.58.07,6.8-.53A16.9,16.9,0,0,1,7.88,5.46Z"/></g><path class="cls-8" d="M5.37,2.13l-.08.05L5,2.34c-.1.06-.22.13-.36.23A4.58,4.58,0,0,0,4.14,3l-.31.28-.24.24-.12.13-.1.11a.94.94,0,0,0-.09.12A.49.49,0,0,0,3.21,4a.15.15,0,0,1,0,.06l0,0A2.3,2.3,0,0,0,3,4.38a1.68,1.68,0,0,0-.1.29.45.45,0,0,0,0,.08.18.18,0,0,0,0,.06s0,0,0,0v0a.1.1,0,0,1,0,.09L2.73,5l-.14,0H2.22a.19.19,0,0,1-.09,0,.05.05,0,0,1,0,0V4.91l.07-.19.11-.24.11-.27c.05-.09.09-.18.13-.27a.47.47,0,0,0,0-.17.26.26,0,0,0,0-.13c0-.07,0-.14,0-.23s0-.14,0-.23a2.93,2.93,0,0,0,0-.29,4.22,4.22,0,0,0-.12-.46.56.56,0,0,0-.1-.23l0,0s0,0,0,0,0-.06.06-.07l.12,0h.31a.71.71,0,0,1,.21,0C3,2,3,2.07,3,2.12s.06.23.09.36.05.25.08.4,0,.31.06.48,0,.05,0,.05h.05l.33-.33a4.09,4.09,0,0,0,.28-.33,2,2,0,0,0,.22-.31.59.59,0,0,0,.08-.27l0-.05a.08.08,0,0,1,.09-.06h.9c.09,0,.13,0,.13.06Z"/><path class="cls-8" d="M5.64,3.55a1.27,1.27,0,0,1-.06.18,2.2,2.2,0,0,0-.09.21l-.12.23c0,.09-.08.17-.11.26a1.36,1.36,0,0,0-.09.23.74.74,0,0,0,0,.19.11.11,0,0,0,0,.06s0,0,0,0a.07.07,0,0,1,0,.08L5,5.06l-.11,0H4.77a.4.4,0,0,1-.15,0A.1.1,0,0,1,4.55,5a.65.65,0,0,1,0-.11s0-.08,0-.12l0-.11,0-.07h0a1.55,1.55,0,0,1-.25.26A1.34,1.34,0,0,1,4.11,5a.77.77,0,0,1-.34.08.48.48,0,0,1-.18,0l-.12-.1a.29.29,0,0,1-.06-.19.4.4,0,0,1,0-.15.83.83,0,0,1,.06-.21,2.22,2.22,0,0,1,.15-.23A.83.83,0,0,1,3.87,4a1.45,1.45,0,0,1,.38-.16,2.09,2.09,0,0,1,.53-.06h0s0,0,0,0,0,0,0,0l0,0A.74.74,0,0,0,4.44,4a.86.86,0,0,0-.23.24.94.94,0,0,0-.13.24.86.86,0,0,0,0,.17c0,.05,0,.08,0,.09h.06a.32.32,0,0,0,.18-.07l.2-.19a3,3,0,0,0,.21-.26,2.2,2.2,0,0,0,.18-.28,1.26,1.26,0,0,0,.13-.26.38.38,0,0,0,0-.19A.15.15,0,0,0,5,3.34a.42.42,0,0,0-.2,0l-.16,0-.14,0-.13.06-.08,0h0s0,0,0,0a.24.24,0,0,1,0-.13.67.67,0,0,1,.15-.13.86.86,0,0,1,.25-.1A1.25,1.25,0,0,1,5,3a1,1,0,0,1,.35,0,.62.62,0,0,1,.2.11.77.77,0,0,1,.09.13.84.84,0,0,1,0,.1A.47.47,0,0,1,5.64,3.55Z"/><path class="cls-8" d="M8.13,2a.16.16,0,0,1-.07.09H8s0,0,0,0l0,0,0,0,0,0H7.8a.52.52,0,0,0-.35.18,1.56,1.56,0,0,0-.12.17,1.92,1.92,0,0,0-.16.27A3.57,3.57,0,0,0,7,3.06s0,0,0,0h.37l0,0s0,0-.05.07a.14.14,0,0,1-.09,0H6.9a.05.05,0,0,0,0,0,0,0,0,0,0,0,0l-.16.38c-.05.15-.11.3-.17.45s-.12.3-.18.45-.15.29-.22.41a2,2,0,0,1-.26.35,2,2,0,0,1-.18.15.7.7,0,0,1-.16.1l-.18.07-.19,0h0c-.06,0-.1,0-.1-.06s0,0,0,0l0,0a1.44,1.44,0,0,0,.22-.25,4.2,4.2,0,0,0,.24-.38c.08-.14.15-.29.23-.44L6,4c.06-.15.13-.29.18-.41l.13-.32h0s0,0,0,0H6s0,0,0,0a.08.08,0,0,1,0-.09l.1,0h.23l0,0,0,0a3.6,3.6,0,0,1,.26-.52A1.32,1.32,0,0,1,7,2.19,1.22,1.22,0,0,1,7.24,2a1.24,1.24,0,0,1,.26-.1l.21,0H8l.14,0h0s0,0,0,0a0,0,0,0,1,0,0A.46.46,0,0,0,8.13,2Z"/><path class="cls-8" d="M8.09,3.27,8,3.55c0,.12-.11.24-.18.38s-.12.28-.19.42a1.42,1.42,0,0,0-.14.39.08.08,0,0,0,0,0,.28.28,0,0,0,0,.09V5s0,0-.06.06L7.22,5,7,5.06,6.85,5A.08.08,0,0,1,6.78,5v0h0a3.05,3.05,0,0,1,.11-.29c.06-.12.11-.25.17-.36s.13-.28.2-.43l.08-.17a1.42,1.42,0,0,0,.08-.18l.06-.16a.59.59,0,0,0,0-.13,0,0,0,0,0,0,0s0,0,0,0,0,0,0,0a.14.14,0,0,1,.07,0h.36l.15,0s.06,0,.06,0A.38.38,0,0,1,8.09,3.27Zm.24-.57a.36.36,0,0,1-.27.1.23.23,0,0,1-.17,0,.19.19,0,0,1-.08-.15.3.3,0,0,1,0-.13.81.81,0,0,1,.09-.1A.24.24,0,0,1,8,2.3a.32.32,0,0,1,.14,0,.29.29,0,0,1,.17,0,.19.19,0,0,1,.08.15A.26.26,0,0,1,8.33,2.7Z"/><path class="cls-8" d="M10.43,3.34a.64.64,0,0,1-.06.16l-.09.21-.11.23c-.07.13-.13.27-.2.41a2.66,2.66,0,0,0-.14.39.53.53,0,0,0,0,.17S9.8,5,9.77,5L9.64,5l-.14,0H9.41L9.25,5a.1.1,0,0,1-.06-.1s0-.05,0-.06v0a2.24,2.24,0,0,1,.11-.28l.15-.34c.06-.12.12-.26.2-.39l0-.1,0-.08a.36.36,0,0,0,0-.09s0,0,0-.05,0,0,0,0l-.08,0,0,0a3,3,0,0,0-.32.3A4,4,0,0,0,9,4.15a2.91,2.91,0,0,0-.24.31,3,3,0,0,0-.18.25l0,.07-.05.06,0,.07A.25.25,0,0,1,8.3,5a.91.91,0,0,1-.23,0H7.93S7.85,5,7.85,5s0,0,0,0h0l.06-.14c0-.06,0-.12.08-.19l.1-.22.1-.22.26-.56a1,1,0,0,0,.07-.15s0-.08,0-.13a.74.74,0,0,0,0-.12l0,0v0a.06.06,0,0,1,0,0,.15.15,0,0,1,.06,0l.14,0h.36s.06,0,.07,0a.64.64,0,0,1,0,.2A1,1,0,0,1,9,3.58l-.14.27c-.05.09-.08.17-.11.23h0s0,0,0,0h0v0s0,0,.07-.08a1.54,1.54,0,0,1,.18-.2,2.84,2.84,0,0,1,.24-.26,3.47,3.47,0,0,1,.29-.25,2,2,0,0,1,.29-.19A.63.63,0,0,1,10.18,3a.47.47,0,0,1,.17,0,.16.16,0,0,1,.09.16A.22.22,0,0,1,10.43,3.34Z"/><path class="cls-8" d="M13.2,2.07a.59.59,0,0,1-.06.18c0,.08-.08.19-.14.3s-.11.25-.18.38-.13.27-.19.4l-.18.35-.12.26a4.54,4.54,0,0,0-.21.45,1.41,1.41,0,0,0-.13.43.09.09,0,0,0,0,0,.08.08,0,0,0,0,0V5S12,5,12,5l-.1,0-.12,0h-.1l-.19,0A.12.12,0,0,1,11.39,5V4.87a.37.37,0,0,1,0-.11l.07-.17a2.08,2.08,0,0,1,.13-.26v0H11.6a4.37,4.37,0,0,1-.42.43,2.68,2.68,0,0,1-.32.22.73.73,0,0,1-.22.09h-.1a.22.22,0,0,1-.2-.08.44.44,0,0,1-.08-.22,1.31,1.31,0,0,1,0-.33,2.22,2.22,0,0,1,.14-.38,2.92,2.92,0,0,1,.24-.37A2.08,2.08,0,0,1,11,3.34a1.6,1.6,0,0,1,.4-.23A1.22,1.22,0,0,1,11.85,3a.69.69,0,0,1,.22,0l.11,0a.05.05,0,0,0,.05,0c.11-.22.2-.4.26-.56a.87.87,0,0,0,.08-.36h0a0,0,0,0,1,0,0,.06.06,0,0,1,0,0l.06,0h.55l0,0S13.21,2.07,13.2,2.07ZM12,3.18a.51.51,0,0,0-.26.07,1.27,1.27,0,0,0-.25.22,1.61,1.61,0,0,0-.24.28,1.87,1.87,0,0,0-.2.32,1.68,1.68,0,0,0-.13.28.47.47,0,0,0,0,.21c0,.05,0,.07.08.07a.33.33,0,0,0,.18-.09,1.34,1.34,0,0,0,.25-.23L11.64,4c.08-.12.17-.22.24-.32l.17-.27a.67.67,0,0,0,.06-.16S12.05,3.18,12,3.18Z"/><path class="cls-8" d="M14.91,3.43l-.14.06a.27.27,0,0,0-.1.08.28.28,0,0,0-.08.11.24.24,0,0,0,0,.15,1.49,1.49,0,0,1-.15.53,1.42,1.42,0,0,1-.29.39,1.36,1.36,0,0,1-.39.25,1.1,1.1,0,0,1-.42.09A1,1,0,0,1,13,5a.44.44,0,0,1-.21-.13.52.52,0,0,1-.13-.17.79.79,0,0,1-.05-.22,1.47,1.47,0,0,1,0-.28,1.73,1.73,0,0,1,.1-.33,1.79,1.79,0,0,1,.18-.33,1.93,1.93,0,0,1,.27-.3,1.51,1.51,0,0,1,.37-.22A1.34,1.34,0,0,1,14,3h.11l.14,0,.13.05a.13.13,0,0,1,.07.09s0,0,0,0,0,0-.07,0h-.18a.59.59,0,0,0-.36.13,2.08,2.08,0,0,0-.32.34,1.4,1.4,0,0,0-.22.44,1.06,1.06,0,0,0-.07.45.36.36,0,0,0,.08.21.25.25,0,0,0,.22.09.39.39,0,0,0,.23-.07.86.86,0,0,0,.2-.18A.93.93,0,0,0,14.1,4a.61.61,0,0,0,0-.17A.54.54,0,0,0,14,3.67l-.06,0s0,0,0-.05a.06.06,0,0,1,0,0s0,0,0-.06a1.26,1.26,0,0,1,.31-.13,1.77,1.77,0,0,1,.41,0h.18l.07,0s0,0,0,.05S15,3.41,14.91,3.43Z"/><path class="cls-8" d="M5.29,5.17A14.65,14.65,0,0,0,2.1,5.6l0,0a12.43,12.43,0,0,1,3-.23A1.49,1.49,0,0,0,5.29,5.17Z"/><path class="cls-8" d="M7.63,5.27c-.52-.06-1-.09-1.5-.1a1,1,0,0,1-.21.26c.53,0,1.12.08,1.76.16,4.05.49,5.58.07,6.79-.53A16.89,16.89,0,0,1,7.63,5.27Z"/><path class="cls-2" d="M5.37,2.13l-.08.05L5,2.34c-.1.06-.22.13-.36.23A4.58,4.58,0,0,0,4.14,3l-.31.28-.24.24-.12.13-.1.11a.94.94,0,0,0-.09.12A.49.49,0,0,0,3.21,4a.15.15,0,0,1,0,.06l0,0A2.3,2.3,0,0,0,3,4.38a1.68,1.68,0,0,0-.1.29.45.45,0,0,0,0,.08.18.18,0,0,0,0,.06s0,0,0,0v0a.1.1,0,0,1,0,.09L2.73,5l-.14,0H2.22a.19.19,0,0,1-.09,0,.05.05,0,0,1,0,0V4.91l.07-.19.11-.24.11-.27c.05-.09.09-.18.13-.27a.47.47,0,0,0,0-.17.26.26,0,0,0,0-.13c0-.07,0-.14,0-.23s0-.14,0-.23a2.93,2.93,0,0,0,0-.29,4.22,4.22,0,0,0-.12-.46.56.56,0,0,0-.1-.23l0,0s0,0,0,0,0-.06.06-.07l.12,0h.31a.71.71,0,0,1,.21,0C3,2,3,2.07,3,2.12s.06.23.09.36.05.25.08.4,0,.31.06.48,0,.05,0,.05h.05l.33-.33a4.09,4.09,0,0,0,.28-.33,2,2,0,0,0,.22-.31.59.59,0,0,0,.08-.27l0-.05a.08.08,0,0,1,.09-.06h.9c.09,0,.13,0,.13.06Z"/><path class="cls-2" d="M5.64,3.55a1.27,1.27,0,0,1-.06.18,2.2,2.2,0,0,0-.09.21l-.12.23c0,.09-.08.17-.11.26a1.36,1.36,0,0,0-.09.23.74.74,0,0,0,0,.19.11.11,0,0,0,0,.06s0,0,0,0a.07.07,0,0,1,0,.08L5,5.06l-.11,0H4.77a.4.4,0,0,1-.15,0A.1.1,0,0,1,4.55,5a.65.65,0,0,1,0-.11s0-.08,0-.12l0-.11,0-.07h0a1.55,1.55,0,0,1-.25.26A1.34,1.34,0,0,1,4.11,5a.77.77,0,0,1-.34.08.48.48,0,0,1-.18,0l-.12-.1a.29.29,0,0,1-.06-.19.4.4,0,0,1,0-.15.83.83,0,0,1,.06-.21,2.22,2.22,0,0,1,.15-.23A.83.83,0,0,1,3.87,4a1.45,1.45,0,0,1,.38-.16,2.09,2.09,0,0,1,.53-.06h0s0,0,0,0,0,0,0,0l0,0A.74.74,0,0,0,4.44,4a.86.86,0,0,0-.23.24.94.94,0,0,0-.13.24.86.86,0,0,0,0,.17c0,.05,0,.08,0,.09h.06a.32.32,0,0,0,.18-.07l.2-.19a3,3,0,0,0,.21-.26,2.2,2.2,0,0,0,.18-.28,1.26,1.26,0,0,0,.13-.26.38.38,0,0,0,0-.19A.15.15,0,0,0,5,3.34a.42.42,0,0,0-.2,0l-.16,0-.14,0-.13.06-.08,0h0s0,0,0,0a.24.24,0,0,1,0-.13.67.67,0,0,1,.15-.13.86.86,0,0,1,.25-.1A1.25,1.25,0,0,1,5,3a1,1,0,0,1,.35,0,.62.62,0,0,1,.2.11.77.77,0,0,1,.09.13.84.84,0,0,1,0,.1A.47.47,0,0,1,5.64,3.55Z"/><path class="cls-2" d="M8.13,2a.16.16,0,0,1-.07.09H8s0,0,0,0l0,0,0,0,0,0H7.8a.52.52,0,0,0-.35.18,1.56,1.56,0,0,0-.12.17,1.92,1.92,0,0,0-.16.27A3.57,3.57,0,0,0,7,3.06s0,0,0,0h.37l0,0s0,0-.05.07a.14.14,0,0,1-.09,0H6.9a.05.05,0,0,0,0,0,0,0,0,0,0,0,0l-.16.38c-.05.15-.11.3-.17.45s-.12.3-.18.45-.15.29-.22.41a2,2,0,0,1-.26.35,2,2,0,0,1-.18.15.7.7,0,0,1-.16.1l-.18.07-.19,0h0c-.06,0-.1,0-.1-.06s0,0,0,0l0,0a1.44,1.44,0,0,0,.22-.25,4.2,4.2,0,0,0,.24-.38c.08-.14.15-.29.23-.44L6,4c.06-.15.13-.29.18-.41l.13-.32h0s0,0,0,0H6s0,0,0,0a.08.08,0,0,1,0-.09l.1,0h.23l0,0,0,0a3.6,3.6,0,0,1,.26-.52A1.32,1.32,0,0,1,7,2.19,1.22,1.22,0,0,1,7.24,2a1.24,1.24,0,0,1,.26-.1l.21,0H8l.14,0h0s0,0,0,0a0,0,0,0,1,0,0A.46.46,0,0,0,8.13,2Z"/><path class="cls-2" d="M8.09,3.27,8,3.55c0,.12-.11.24-.18.38s-.12.28-.19.42a1.42,1.42,0,0,0-.14.39.08.08,0,0,0,0,0,.28.28,0,0,0,0,.09V5s0,0-.06.06L7.22,5,7,5.06,6.85,5A.08.08,0,0,1,6.78,5v0h0a3.05,3.05,0,0,1,.11-.29c.06-.12.11-.25.17-.36s.13-.28.2-.43l.08-.17a1.42,1.42,0,0,0,.08-.18l.06-.16a.59.59,0,0,0,0-.13,0,0,0,0,0,0,0s0,0,0,0,0,0,0,0a.14.14,0,0,1,.07,0h.36l.15,0s.06,0,.06,0A.38.38,0,0,1,8.09,3.27Zm.24-.57a.36.36,0,0,1-.27.1.23.23,0,0,1-.17,0,.19.19,0,0,1-.08-.15.3.3,0,0,1,0-.13.81.81,0,0,1,.09-.1A.24.24,0,0,1,8,2.3a.32.32,0,0,1,.14,0,.29.29,0,0,1,.17,0,.19.19,0,0,1,.08.15A.26.26,0,0,1,8.33,2.7Z"/><path class="cls-2" d="M10.43,3.34a.64.64,0,0,1-.06.16l-.09.21-.11.23c-.07.13-.13.27-.2.41a2.66,2.66,0,0,0-.14.39.53.53,0,0,0,0,.17S9.8,5,9.77,5L9.64,5l-.14,0H9.41L9.25,5a.1.1,0,0,1-.06-.1s0-.05,0-.06v0a2.24,2.24,0,0,1,.11-.28l.15-.34c.06-.12.12-.26.2-.39l0-.1,0-.08a.36.36,0,0,0,0-.09s0,0,0-.05,0,0,0,0l-.08,0,0,0a3,3,0,0,0-.32.3A4,4,0,0,0,9,4.15a2.91,2.91,0,0,0-.24.31,3,3,0,0,0-.18.25l0,.07-.05.06,0,.07A.25.25,0,0,1,8.3,5a.91.91,0,0,1-.23,0H7.93S7.85,5,7.85,5s0,0,0,0h0l.06-.14c0-.06,0-.12.08-.19l.1-.22.1-.22.26-.56a1,1,0,0,0,.07-.15s0-.08,0-.13a.74.74,0,0,0,0-.12l0,0v0a.06.06,0,0,1,0,0,.15.15,0,0,1,.06,0l.14,0h.36s.06,0,.07,0a.64.64,0,0,1,0,.2A1,1,0,0,1,9,3.58l-.14.27c-.05.09-.08.17-.11.23h0s0,0,0,0h0v0s0,0,.07-.08a1.54,1.54,0,0,1,.18-.2,2.84,2.84,0,0,1,.24-.26,3.47,3.47,0,0,1,.29-.25,2,2,0,0,1,.29-.19A.63.63,0,0,1,10.18,3a.47.47,0,0,1,.17,0,.16.16,0,0,1,.09.16A.22.22,0,0,1,10.43,3.34Z"/><path class="cls-2" d="M13.2,2.07a.59.59,0,0,1-.06.18c0,.08-.08.19-.14.3s-.11.25-.18.38-.13.27-.19.4l-.18.35-.12.26a4.54,4.54,0,0,0-.21.45,1.41,1.41,0,0,0-.13.43.09.09,0,0,0,0,0,.08.08,0,0,0,0,0V5S12,5,12,5l-.1,0-.12,0h-.1l-.19,0A.12.12,0,0,1,11.39,5V4.87a.37.37,0,0,1,0-.11l.07-.17a2.08,2.08,0,0,1,.13-.26v0H11.6a4.37,4.37,0,0,1-.42.43,2.68,2.68,0,0,1-.32.22.73.73,0,0,1-.22.09h-.1a.22.22,0,0,1-.2-.08.44.44,0,0,1-.08-.22,1.31,1.31,0,0,1,0-.33,2.22,2.22,0,0,1,.14-.38,2.92,2.92,0,0,1,.24-.37A2.08,2.08,0,0,1,11,3.34a1.6,1.6,0,0,1,.4-.23A1.22,1.22,0,0,1,11.85,3a.69.69,0,0,1,.22,0l.11,0a.05.05,0,0,0,.05,0c.11-.22.2-.4.26-.56a.87.87,0,0,0,.08-.36h0a0,0,0,0,1,0,0,.06.06,0,0,1,0,0l.06,0h.55l0,0S13.21,2.07,13.2,2.07ZM12,3.18a.51.51,0,0,0-.26.07,1.27,1.27,0,0,0-.25.22,1.61,1.61,0,0,0-.24.28,1.87,1.87,0,0,0-.2.32,1.68,1.68,0,0,0-.13.28.47.47,0,0,0,0,.21c0,.05,0,.07.08.07a.33.33,0,0,0,.18-.09,1.34,1.34,0,0,0,.25-.23L11.64,4c.08-.12.17-.22.24-.32l.17-.27a.67.67,0,0,0,.06-.16S12.05,3.18,12,3.18Z"/><path class="cls-2" d="M14.91,3.43l-.14.06a.27.27,0,0,0-.1.08.28.28,0,0,0-.08.11.24.24,0,0,0,0,.15,1.49,1.49,0,0,1-.15.53,1.42,1.42,0,0,1-.29.39,1.36,1.36,0,0,1-.39.25,1.1,1.1,0,0,1-.42.09A1,1,0,0,1,13,5a.44.44,0,0,1-.21-.13.52.52,0,0,1-.13-.17.79.79,0,0,1-.05-.22,1.47,1.47,0,0,1,0-.28,1.73,1.73,0,0,1,.1-.33,1.79,1.79,0,0,1,.18-.33,1.93,1.93,0,0,1,.27-.3,1.51,1.51,0,0,1,.37-.22A1.34,1.34,0,0,1,14,3h.11l.14,0,.13.05a.13.13,0,0,1,.07.09s0,0,0,0,0,0-.07,0h-.18a.59.59,0,0,0-.36.13,2.08,2.08,0,0,0-.32.34,1.4,1.4,0,0,0-.22.44,1.06,1.06,0,0,0-.07.45.36.36,0,0,0,.08.21.25.25,0,0,0,.22.09.39.39,0,0,0,.23-.07.86.86,0,0,0,.2-.18A.93.93,0,0,0,14.1,4a.61.61,0,0,0,0-.17A.54.54,0,0,0,14,3.67l-.06,0s0,0,0-.05a.06.06,0,0,1,0,0s0,0,0-.06a1.26,1.26,0,0,1,.31-.13,1.77,1.77,0,0,1,.41,0h.18l.07,0s0,0,0,.05S15,3.41,14.91,3.43Z"/><path class="cls-2" d="M5.29,5.17A14.65,14.65,0,0,0,2.1,5.6l0,0a12.43,12.43,0,0,1,3-.23A1.49,1.49,0,0,0,5.29,5.17Z"/><path class="cls-2" d="M7.63,5.27c-.52-.06-1-.09-1.5-.1a1,1,0,0,1-.21.26c.53,0,1.12.08,1.76.16,4.05.49,5.58.07,6.79-.53A16.89,16.89,0,0,1,7.63,5.27Z"/><path class="cls-9" d="M.25,6.5S1.17,6,4,6.32s4.8,1.43,8.6,1.42A20.5,20.5,0,0,1,.25,6.5Z"/></g></g></g></svg>