<svg xmlns="http://www.w3.org/2000/svg" viewBox="0 0 21.54 6.03"><defs><style>.cls-1{fill:#e58025;}.cls-2{fill:#fff;}</style></defs><g id="Layer_2" data-name="Layer 2"><g id="Layer_1-2" data-name="Layer 1"><path class="cls-1" d="M2.66,5.33,1.28,6,0,4.78.26,4l1.29.4,0,.44L.92,4.65l.62.79.82-.34ZM2,4.17a1.3,1.3,0,0,0-.29-1,1.28,1.28,0,0,0-.88-.5h0a1.27,1.27,0,0,0,.29,1,1.28,1.28,0,0,0,.88.5m.23-1.26A1.26,1.26,0,0,0,1.85,2,1.25,1.25,0,0,0,1,1.58H1A1.32,1.32,0,0,0,2.22,2.91M2,1.66A1.19,1.19,0,0,0,2.11.74,1.17,1.17,0,0,0,1.56,0h0a1.15,1.15,0,0,0-.11.92A1.13,1.13,0,0,0,2,1.66m.45.5a1.18,1.18,0,0,0,.64-.67,1.18,1.18,0,0,0,0-.94h0a1.23,1.23,0,0,0-.64.68,1.16,1.16,0,0,0,0,.93M2.33,3.59a1.27,1.27,0,0,0,.87-.51,1.25,1.25,0,0,0,.28-1h0a1.3,1.3,0,0,0-.87.52,1.27,1.27,0,0,0-.28,1M1.92,4.83a1.27,1.27,0,0,0,1-.22,1.26,1.26,0,0,0,.54-.84h0a1.31,1.31,0,0,0-1,.23,1.27,1.27,0,0,0-.54.83"/><path class="cls-2" d="M5.19,2.57l.22,0,.22,0,1,1.64V2.57l.25,0,.21,0V5.14l-.21,0-.21,0-1-1.63V5.14l-.24,0-.23,0Z"/><path class="cls-2" d="M7.55,3.29l.25,0,.26,0v1a.82.82,0,0,0,0,.24.26.26,0,0,0,.07.15.2.2,0,0,0,.12.08.43.43,0,0,0,.17,0,.69.69,0,0,0,.22,0V3.29l.25,0,.25,0V5.07l-.3.08a2.47,2.47,0,0,1-.39,0,2,2,0,0,1-.35,0A.66.66,0,0,1,7.82,5a.64.64,0,0,1-.2-.27,1.26,1.26,0,0,1-.07-.47Z"/><path class="cls-2" d="M9.67,3.68H9.44l0-.07.67-.86h.08v.54h.43a.44.44,0,0,1,0,.1v.19a.44.44,0,0,1,0,.1h-.43V4.4a.74.74,0,0,0,0,.18.28.28,0,0,0,.05.11.13.13,0,0,0,.09,0l.11,0h.11l.09,0a1,1,0,0,1,0,.14s0,.1,0,.13a.15.15,0,0,1,0,.07v0a1.27,1.27,0,0,1-.34,0A.75.75,0,0,1,9.84,5a.65.65,0,0,1-.17-.49Z"/><path class="cls-2" d="M11,3.29h.31l.1,0a.08.08,0,0,1,0,.05.19.19,0,0,1,0,.07s0,.05,0,.08v.06a.9.9,0,0,1,.19-.2.48.48,0,0,1,.29-.09h.15s0,0,0,.08V3.6a.51.51,0,0,1,0,.13H11.8a.47.47,0,0,0-.15.06.45.45,0,0,0-.11.17.8.8,0,0,0,0,.3v.87l-.13,0h-.25l-.13,0Z"/><path class="cls-2" d="M12.53,3.68h-.24a.3.3,0,0,1,0-.1s0-.07,0-.1a.68.68,0,0,1,0-.19H13V5.14l-.25,0-.24,0ZM12.45,3a1.94,1.94,0,0,1,0-.24,2.32,2.32,0,0,1,0-.24H13s0,.09,0,.12v.24s0,.08,0,.12l-.13,0h-.26Z"/><path class="cls-2" d="M14.56,4.83A.81.81,0,0,1,15,5a.5.5,0,0,1,.15.39.5.5,0,0,1-.08.27.7.7,0,0,1-.21.21,1,1,0,0,1-.32.13,1.75,1.75,0,0,1-.4,0,1.9,1.9,0,0,1-.37,0,.91.91,0,0,1-.24-.1.33.33,0,0,1-.14-.15.42.42,0,0,1,0-.2.45.45,0,0,1,.08-.26.7.7,0,0,1,.2-.18A.53.53,0,0,1,13.54,5a.32.32,0,0,1,0-.18.36.36,0,0,1,.06-.22.55.55,0,0,1,.17-.17.5.5,0,0,1-.19-.22.53.53,0,0,1-.07-.28.75.75,0,0,1,0-.26.65.65,0,0,1,.16-.21.8.8,0,0,1,.24-.14,1.14,1.14,0,0,1,.33,0,.88.88,0,0,1,.33.06.86.86,0,0,1,.25.14A.43.43,0,0,1,15,3.32a.68.68,0,0,1,.27,0,.28.28,0,0,1,0,.09.34.34,0,0,1,0,.1.41.41,0,0,1,0,.11.49.49,0,0,1,0,.12H15l0,.09a.39.39,0,0,1,0,.13.75.75,0,0,1,0,.26.53.53,0,0,1-.16.2.69.69,0,0,1-.24.14,1.14,1.14,0,0,1-.33,0,1.12,1.12,0,0,1-.27,0,.15.15,0,0,0-.08.08.25.25,0,0,0,0,.08.13.13,0,0,0,0,.1.3.3,0,0,0,.15,0Zm-.46.37-.13,0a.24.24,0,0,0-.08.06l-.05.07s0,.06,0,.08a.21.21,0,0,0,.1.19.7.7,0,0,0,.28,0,.74.74,0,0,0,.36-.08.21.21,0,0,0,.14-.19s0-.05,0-.07l0-.06-.07,0-.11,0Zm.15-1a.23.23,0,0,0,.21-.09.32.32,0,0,0,.07-.23.36.36,0,0,0-.07-.24.23.23,0,0,0-.21-.09.24.24,0,0,0-.22.09.36.36,0,0,0-.07.24.32.32,0,0,0,.07.23A.24.24,0,0,0,14.25,4.23Z"/><path class="cls-2" d="M15.54,3.29h.32l.1,0a.17.17,0,0,0,0,.05s0,0,0,.07,0,.05,0,.08v.06a1,1,0,0,1,.2-.2.43.43,0,0,1,.28-.09h.15a.19.19,0,0,1,0,.08.31.31,0,0,1,0,.1.62.62,0,0,1,0,.13.51.51,0,0,1,0,.13h-.28a.35.35,0,0,0-.14.06.37.37,0,0,0-.12.17.8.8,0,0,0,0,.3v.87l-.13,0h-.25l-.13,0Z"/><path class="cls-2" d="M17.86,3.93a.46.46,0,0,0,0-.14.24.24,0,0,0-.08-.09l-.13,0h-.16a1.29,1.29,0,0,0-.41.08A.83.83,0,0,1,17,3.55a.56.56,0,0,1,0-.2,2,2,0,0,1,.31-.07l.3,0a.87.87,0,0,1,.58.18.71.71,0,0,1,.21.57V5.07l-.31.08a2.41,2.41,0,0,1-.4,0,1.69,1.69,0,0,1-.33,0A.73.73,0,0,1,17.05,5a.49.49,0,0,1-.16-.19.62.62,0,0,1-.06-.29.54.54,0,0,1,.07-.29.66.66,0,0,1,.19-.18.74.74,0,0,1,.26-.1,1.36,1.36,0,0,1,.29,0h.22Zm0,.36h-.18a.55.55,0,0,0-.28.06.23.23,0,0,0-.1.2.26.26,0,0,0,0,.14.25.25,0,0,0,.1.08l.11,0h.31Z"/><path class="cls-2" d="M18.91,3.68h-.24a.3.3,0,0,1,0-.1v-.1a.65.65,0,0,1,0-.19h.73V5.14l-.25,0-.24,0ZM18.83,3a1.94,1.94,0,0,1,0-.24,2.32,2.32,0,0,1,0-.24h.52s0,.09,0,.12v.24s0,.08,0,.12l-.13,0H19Z"/><path class="cls-2" d="M19.9,3.29h.42s0,0,0,.06,0,0,0,.07a.17.17,0,0,1,0,.07v.06l.09-.11.12-.09.14-.07a.58.58,0,0,1,.19,0,.63.63,0,0,1,.47.17.83.83,0,0,1,.16.54V5.14l-.26,0-.25,0v-1A.61.61,0,0,0,21,3.8a.21.21,0,0,0-.2-.1.3.3,0,0,0-.13,0,.19.19,0,0,0-.11.07.28.28,0,0,0-.09.14.78.78,0,0,0,0,.24v1l-.25,0-.26,0Z"/></g></g></svg>